<svg width="99" height="99" viewBox="0 0 99 99" fill="none" xmlns="http://www.w3.org/2000/svg">
<path d="M0 0.0875473H98.8376V98.7651H0V0.0875473Z" fill="#FDE1C5"/>
<path d="M85.9525 4.35315C87.1255 3.95774 88.4078 4.05941 89.5036 4.6337L89.513 4.6224C90.8913 5.34356 91.6671 6.85177 91.4543 8.3901L91.4449 8.4014C91.2924 9.51232 90.8744 10.5686 90.2267 11.4837L90.2154 11.4894C89.3888 12.6568 88.0237 13.3271 86.5927 13.265L86.5945 13.2687H76.5304H55.8579L55.8749 13.2744C53.1371 13.5436 51.0641 15.8653 51.1092 18.6105C51.1092 20.0246 51.7118 21.3709 52.7643 22.3161C53.8187 23.2613 55.2253 23.7151 56.6337 23.5645L56.6469 23.5776C55.8466 24.9936 54.4834 26.0047 52.8942 26.3587L52.8867 26.3568C51.4839 26.6393 50.0284 26.3097 48.8855 25.4493L48.8836 25.4474C48.7424 25.3231 48.5805 25.2271 48.4035 25.1649L48.4054 25.1574C48.2152 25.084 48.0024 25.1141 47.8386 25.2327L47.8593 25.2365C46.6505 26.8991 45.1442 28.3263 43.4194 29.4467L43.4044 29.4429C41.2202 30.8645 38.7517 31.7852 36.1721 32.1411H36.1778C35.7485 30.245 35.5884 28.2981 35.7052 26.3587L35.7014 26.3606C35.8859 24.3063 36.5318 22.3217 37.5956 20.5537L37.6013 20.5575C37.9044 19.9662 37.9477 19.2752 37.7218 18.652L37.7236 18.6444C37.6747 18.4222 37.5259 18.2358 37.3188 18.1417C37.1117 18.0457 36.8707 18.0551 36.6711 18.1643L36.656 18.1699C36.1608 18.3093 35.6393 18.3224 35.1384 18.2057L35.1422 18.2095C33.794 17.9477 32.8111 16.7822 32.781 15.4096L32.7942 15.4058C33.2009 15.5376 33.6377 15.5376 34.0444 15.4058L34.035 15.4021C35.0612 15.0688 36.0196 14.5604 36.8726 13.9014L36.8857 13.9146C39.2017 12.122 41.7531 10.6571 44.4701 9.56316L44.4607 9.55374C46.7974 8.61229 49.2922 8.12838 51.8097 8.12838L51.8003 8.14909H76.5304H84.2089L84.224 8.12838C85.0261 7.99281 85.7397 7.54279 86.2067 6.87813L86.2142 6.86871C86.3234 6.70302 86.3516 6.49778 86.2914 6.30949L86.2857 6.29631C86.056 5.9122 85.8169 5.53185 85.5721 5.15715L85.5683 5.18163L85.2765 4.59604L85.9242 4.36633" fill="#20699C"/>
<path d="M27.5677 27.4622C27.9631 24.6472 27.579 21.7777 26.4606 19.1642L26.4662 19.168C25.0465 15.8503 22.595 13.0786 19.475 11.2598L19.4693 11.2616C17.6034 10.1733 15.5585 9.4258 13.429 9.05299H13.4271C13.1447 9.02286 12.8679 8.95884 12.6024 8.86281L12.6137 8.85905C11.8323 8.55402 11.2561 7.87993 11.0791 7.06087H11.0622C10.5274 6.44139 9.76107 6.07423 8.94389 6.0441C8.1267 6.01397 7.334 6.32465 6.75595 6.90271C6.17789 7.48076 5.86721 8.27346 5.89922 9.08876C5.92935 9.90406 6.2984 10.6704 6.91788 11.2033L6.91411 11.1976C7.73318 11.3727 8.41102 11.947 8.71605 12.7284L8.71982 12.736C8.81585 13.0014 8.87987 13.2782 8.90999 13.5588L8.91564 13.5644C9.29034 15.6902 10.0416 17.7332 11.1337 19.5973L11.1299 19.5784C12.9545 22.6928 15.7318 25.1368 19.0551 26.5527L19.0702 26.5659C21.6874 27.6825 24.5607 28.0609 27.3794 27.6637L27.3625 27.6712L27.5301 27.6505L27.5508 27.4829" fill="#20699C"/>
<path d="M4.05655 86.471C3.66114 87.6421 3.76282 88.9244 4.33711 90.0184L4.32581 90.0259C5.04885 91.4023 6.55706 92.1781 8.09916 91.9672L8.11046 91.9578C9.22137 91.8052 10.2796 91.3872 11.1965 90.7414L11.2003 90.7282C12.3696 89.9016 13.0399 88.5403 12.9797 87.1112H12.9834V77.0602V56.4141L12.9872 56.4292C13.2564 53.6952 15.5818 51.6259 18.3328 51.671L18.329 51.6692C19.7449 51.6692 21.095 52.2698 22.0421 53.3224C22.9873 54.3768 23.443 55.7814 23.2905 57.188L23.3036 57.1993C24.7215 56.4009 25.7345 55.0396 26.0885 53.4523L26.0866 53.4447C26.3709 52.0439 26.0395 50.5903 25.1771 49.4492L25.1753 49.4473C25.0529 49.3061 24.9568 49.1442 24.8928 48.9672L24.8872 48.9691C24.8137 48.7789 24.842 48.5661 24.9625 48.4023L24.9644 48.423C26.6289 47.2161 28.058 45.7116 29.1802 43.9888L29.1764 43.9737C30.598 41.7933 31.5207 39.3267 31.8784 36.749V36.7565C29.9804 36.3272 28.0316 36.1672 26.0885 36.2839L26.0903 36.2802C24.0342 36.4628 22.0477 37.1105 20.2778 38.1725L20.2797 38.1781C19.6885 38.4813 18.9974 38.5246 18.3723 38.2986L18.3648 38.3005C18.1426 38.2516 17.9562 38.1009 17.8602 37.8957C17.766 37.6886 17.7754 37.4476 17.8846 37.2498L17.8884 37.2329C18.0296 36.7396 18.0428 36.218 17.9261 35.7172L17.9298 35.7209C17.6681 34.3746 16.5007 33.3918 15.1262 33.3635L15.1224 33.3767C15.2542 33.7815 15.2542 34.2184 15.1224 34.6251L15.1186 34.6157C14.7854 35.64 14.277 36.5984 13.6161 37.4494L13.6293 37.4626C11.8348 39.7767 10.3681 42.3262 9.27221 45.0394L9.2628 45.03C8.32134 47.3629 7.83555 49.854 7.83555 52.3696L7.85815 52.3583V77.0602V84.7293L7.83555 84.7443C7.69998 85.5446 7.24997 86.2582 6.5853 86.7252L6.57589 86.7327C6.41019 86.84 6.20495 86.8683 6.01666 86.8099L6.0016 86.8042C5.61748 86.5726 5.23714 86.3354 4.86244 86.0906L4.88692 86.0868L4.30133 85.795L4.06973 86.4427" fill="#20699C"/>
</svg>
