<svg width="99" height="99" viewBox="0 0 99 99" fill="none" xmlns="http://www.w3.org/2000/svg">
<path d="M99.0001 98.8525H0.209473V-0.000160217H99.0001V98.8525Z" fill="#FDE1C5"/>
<path d="M94.727 85.9678C95.1224 87.1409 95.0207 88.4231 94.4464 89.519L94.4577 89.5284C93.7347 90.9067 92.2265 91.6843 90.6844 91.4716L90.6731 91.4622C89.5621 91.3078 88.5039 90.8916 87.5889 90.2439L87.5832 90.2307C86.4139 89.4041 85.7436 88.039 85.8039 86.608L85.8001 86.6099V76.5439V55.8695L85.7963 55.8865C85.5271 53.1487 83.2017 51.0756 80.4526 51.1208L80.4545 51.119C79.0386 51.119 77.6885 51.7215 76.7433 52.7759C75.7962 53.8303 75.3424 55.2369 75.4949 56.6453L75.4817 56.6566C74.062 55.8582 73.0509 54.4931 72.695 52.9058L72.6988 52.8964C72.4145 51.4955 72.7459 50.0382 73.6083 48.8971L73.6101 48.8934C73.7325 48.7521 73.8286 48.5902 73.8926 48.4132L73.8982 48.4151C73.9717 48.2249 73.9434 48.0121 73.8229 47.8483L73.821 47.8691C72.1546 46.6602 70.7274 45.1539 69.6052 43.4292L69.609 43.4122C68.1855 41.2299 67.2647 38.7595 66.907 36.18V36.1875C68.805 35.7563 70.7538 35.5963 72.6969 35.713L72.695 35.7092C74.7512 35.8938 76.7376 36.5415 78.5076 37.6034L78.5057 37.6091C79.0969 37.9122 79.788 37.9574 80.4112 37.7315H80.4187C80.6428 37.6844 80.8292 37.5338 80.9234 37.3266C81.0175 37.1195 81.01 36.8785 80.9008 36.6789L80.8951 36.6639C80.7558 36.1687 80.7426 35.6471 80.8575 35.1462L80.8537 35.15C81.1173 33.8018 82.2847 32.8171 83.6573 32.7888L83.6611 32.802C83.5293 33.2087 83.5293 33.6456 83.6611 34.0523L83.6668 34.0429C84 35.069 84.5065 36.0274 85.1674 36.8804L85.1561 36.8936C86.9487 39.2096 88.4154 41.7628 89.5113 44.4798L89.5207 44.4704C90.4622 46.8071 90.948 49.3019 90.948 51.8213L90.9272 51.81V76.5439V84.2243L90.948 84.2393C91.0835 85.0414 91.5335 85.7551 92.1982 86.222L92.2076 86.2295C92.3733 86.3388 92.5786 86.367 92.7687 86.3067L92.7819 86.3011C93.166 86.0714 93.5464 85.8323 93.9211 85.5875L93.8966 85.5837L94.4822 85.2919L94.7138 85.9396" fill="#20699C"/>
<path d="M71.594 27.572C74.4128 27.9674 77.2861 27.5833 79.9014 26.4648L79.8977 26.4705C83.2191 25.0508 85.9945 22.5992 87.8153 19.4773L87.8115 19.4736C88.9017 17.6057 89.6511 15.5609 90.0239 13.4313C90.0541 13.1489 90.1181 12.8702 90.2141 12.6047L90.2179 12.616C90.5229 11.8346 91.1989 11.2585 92.0179 11.0815L92.0198 11.0645C92.6374 10.5298 93.0065 9.76154 93.0366 8.94436C93.0667 8.12717 92.7542 7.33447 92.1761 6.75642C91.5981 6.18025 90.8054 5.86957 89.9882 5.89969C89.171 5.92982 88.4046 6.30075 87.8718 6.92023L87.8774 6.91458C87.7023 7.73553 87.1262 8.4115 86.3447 8.71841L86.3372 8.72029C86.0717 8.8182 85.7949 8.88222 85.5125 8.91235L85.5068 8.91611C83.3792 9.29269 81.3343 10.044 79.4684 11.1361L79.4853 11.1323C76.3691 12.9568 73.9213 15.7341 72.5035 19.0575L72.4903 19.0725C71.3737 21.6916 70.9934 24.565 71.3926 27.3837L71.385 27.3667L71.4057 27.5343L71.5733 27.555" fill="#20699C"/>
<path d="M24.5646 39.9616C22.2467 41.7466 20.1529 43.8047 18.3284 46.0943V46.0754L16.613 48.3142L14.9598 50.6151L13.4121 52.9801L11.9265 55.3864L10.5256 57.8342L9.731 59.2991L9.22827 59.1748L9.2245 59.1843C7.55436 58.7794 6.16666 57.6214 5.46433 56.053L5.45868 56.0624C4.66598 54.2868 4.47769 52.2985 4.92582 50.4061L4.93712 50.4156C5.76748 46.9002 7.4621 43.6484 9.86657 40.9521V40.9483C13.4479 36.932 18.029 33.9363 23.143 32.2643L23.1335 32.2662C30.7499 29.777 39.0215 30.2176 46.3291 33.5051L46.3347 33.5089C50.528 35.5236 54.3654 38.2049 57.6981 41.4491L57.7019 41.4454C60.9367 44.7744 63.6104 48.6061 65.6195 52.7899L65.6251 52.7842C68.9108 60.0937 69.3533 68.3653 66.8641 75.9836L66.866 75.9949C65.194 81.1107 62.1982 85.6918 58.1839 89.275L58.1782 89.2543C55.4838 91.6588 52.232 93.3534 48.7185 94.1856L48.7072 94.1951C46.813 94.6432 44.8265 94.4568 43.051 93.6622L43.0604 93.6565C41.4919 92.9561 40.3358 91.5665 39.9291 89.8964L39.9197 89.8926L39.7935 89.3899L41.2791 88.5746L41.281 88.5896C45.4159 86.3301 49.3493 83.7186 53.0322 80.7793L53.0398 80.7906C55.3275 78.9661 57.3855 76.8723 59.1705 74.5526L59.163 74.5507C59.9651 73.5075 60.643 72.374 61.1796 71.1709L61.1815 71.1765C61.5129 70.4346 61.7407 69.6513 61.8574 68.8473H61.8612C61.9045 67.0736 61.6503 65.3056 61.108 63.6166L61.1193 63.6147C59.8973 59.7943 57.3008 56.5651 53.8306 54.5542L53.8231 54.5429C52.6764 53.9404 51.3979 53.6259 50.0987 53.6278L50.1043 53.6504C49.5395 53.6504 48.9784 53.7106 48.4267 53.8293V53.818C47.6735 53.9799 47.0973 54.5881 46.973 55.3488L46.9636 55.3525C46.636 57.5047 45.7831 59.5439 44.4838 61.2912H44.482C42.6593 63.7673 39.9762 65.4713 36.9597 66.0719V66.0738C35.6436 66.3261 34.2935 66.3563 32.9661 66.1623L32.9529 66.1698C32.759 64.8424 32.7891 63.4923 33.0414 62.1762H33.064C33.6647 59.1598 35.3687 56.4766 37.8447 54.6521C39.5902 53.3529 41.6294 52.498 43.7815 52.1704L43.7646 52.161C44.5272 52.0367 45.1334 51.4606 45.2954 50.7055H45.3048C45.4234 50.1557 45.4837 49.5927 45.4837 49.0297V49.0335C45.4874 47.7362 45.173 46.4577 44.5705 45.3091L44.5818 45.3016C42.5689 41.8314 39.3416 39.233 35.5212 38.0109L35.5193 38.0241C33.8303 37.48 32.0642 37.2258 30.2905 37.2691L30.2886 37.2728C29.4865 37.3915 28.7013 37.6174 27.9613 37.9507H27.967C26.7657 38.4873 25.6303 39.1652 24.589 39.9673" fill="#20699C"/>
<path d="M12.5171 4.06061C11.3441 3.6652 10.0618 3.76687 8.96595 4.34116L8.95653 4.32986C7.58012 5.0529 6.80248 6.56299 7.01525 8.10321L7.02467 8.11451C7.17718 9.22543 7.59519 10.2855 8.24291 11.2006L8.25609 11.2062C9.08269 12.3755 10.4459 13.0458 11.8769 12.9856L11.875 12.9894H21.9392H42.6098L42.5928 12.9931C45.3306 13.2624 47.4018 15.5878 47.3566 18.3387L47.3585 18.3349C47.3585 19.7528 46.7559 21.1009 45.7034 22.048C44.6489 22.9951 43.2424 23.4489 41.834 23.2964L41.8208 23.3115C42.6211 24.7293 43.9843 25.7423 45.5735 26.0963L45.581 26.0925C46.9838 26.3768 48.4392 26.0473 49.5803 25.185L49.5841 25.1831C49.7253 25.0588 49.8872 24.9628 50.0623 24.9006V24.8931C50.2506 24.8197 50.4653 24.8479 50.6291 24.9684L50.6084 24.9703C51.8172 26.6367 53.3216 28.0658 55.0464 29.188L55.0633 29.1843C57.2456 30.6077 59.716 31.5285 62.2956 31.8862H62.288C62.7192 29.9883 62.8774 28.0394 62.7606 26.0963L62.7644 26.0982C62.5818 24.042 61.9341 22.0537 60.8721 20.2837L60.8646 20.2856C60.5614 19.6944 60.5181 19.0034 60.7441 18.3782L60.7422 18.3707C60.7911 18.1485 60.9418 17.9621 61.1489 17.8661C61.356 17.7719 61.5951 17.7814 61.7947 17.8906L61.8117 17.8962C62.305 18.0356 62.8265 18.0487 63.3274 17.932L63.3236 17.9358C64.6737 17.674 65.6566 16.5066 65.6848 15.1321L65.6716 15.1283C65.2649 15.2601 64.8281 15.2601 64.4233 15.1283L64.4308 15.1246C63.4065 14.7913 62.4462 14.2829 61.5951 13.622L61.5801 13.6333C59.2641 11.8408 56.7127 10.374 53.9957 9.27815L54.0051 9.26873C51.6703 8.3254 49.1755 7.84149 46.658 7.84149L46.6674 7.8622H21.9392H14.2607L14.2456 7.83961C13.4435 7.70403 12.7299 7.25402 12.2629 6.58936L12.2554 6.57994C12.1462 6.41424 12.1179 6.20901 12.1782 6.02072L12.1838 6.00565C12.4136 5.62154 12.6527 5.24119 12.8975 4.86649L12.9012 4.89097L13.1931 4.30539L12.5454 4.07379" fill="#20699C"/>
</svg>
