<svg width="99" height="99" viewBox="0 0 99 99" fill="none" xmlns="http://www.w3.org/2000/svg">
<path d="M0.0976562 -0.000160217H98.9504V98.8525H0.0976562V-0.000160217Z" fill="#FDE1C5"/>
<path d="M72.9102 25.0329C74.1191 26.6993 75.6254 28.1284 77.3501 29.2506L77.3464 29.2487C79.5287 30.6703 81.999 31.5929 84.5786 31.9507H84.5918C85.023 30.0527 85.183 28.102 85.0663 26.1589L85.0493 26.1607C84.8648 24.1027 84.2171 22.1144 83.1551 20.3426L83.1476 20.3463C82.8445 19.7532 82.8012 19.0622 83.0271 18.437L83.0478 18.4295C83.0949 18.2073 83.2455 18.0209 83.4526 17.9249C83.6598 17.8308 83.9008 17.8402 84.1004 17.9494L84.0947 17.955C84.5899 18.0944 85.1115 18.1075 85.6123 17.9908L85.6086 17.9946C86.9567 17.7328 87.9396 16.5636 87.9697 15.189L87.9773 15.1853C87.5706 15.319 87.1337 15.319 86.727 15.1853L86.7157 15.1815C85.6895 14.8482 84.7311 14.3398 83.8782 13.6789L83.8857 13.6902C81.5697 11.8958 79.0165 10.429 76.2995 9.33319L76.3089 9.32377C73.9722 8.38043 71.4773 7.89464 68.958 7.89464L68.9486 7.91724H15.2951L15.3008 7.89464C14.4986 7.75907 13.785 7.30906 13.3162 6.64251L13.3312 6.63309C13.222 6.4674 13.1938 6.26216 13.254 6.07387L13.2578 6.05881C13.4894 5.6747 13.7285 5.29435 13.9733 4.91965L13.9564 4.94413L14.2482 4.35666L13.5798 4.12694L13.593 4.11376C12.4199 3.71835 11.1358 3.82003 10.0399 4.39432L10.0324 4.40373C8.65409 5.12677 7.87646 6.63686 8.08922 8.17896L8.09863 8.16955C8.25115 9.28046 8.66916 10.3405 9.31688 11.2556L9.30935 11.2613C10.1359 12.4325 11.5011 13.1028 12.9321 13.0406L12.9302 13.0444H64.889L64.8928 13.05C67.6306 13.3193 69.7036 15.6447 69.6585 18.3975L69.6603 18.3937C69.6603 19.8116 69.0578 21.1616 68.0034 22.1087C66.9489 23.0558 65.5424 23.5096 64.134 23.359L64.1227 23.3722C64.9211 24.79 66.2843 25.803 67.8735 26.1589L67.8829 26.1551C69.2838 26.4394 70.7411 26.1099 71.8822 25.2456" fill="#20699C"/>
<path d="M9.61053 51.5041C8.49962 47.9718 9.16617 44.1212 11.3993 41.167V41.1613C13.3086 38.6345 16.3212 37.1903 19.4845 37.2825C22.194 37.3616 24.7228 38.6552 26.3722 40.8092L26.3684 40.8167L26.7864 40.2726L26.7977 40.2556C28.5451 37.8851 28.4076 34.6163 26.4644 32.4001L26.4588 32.3832C26.0408 31.9068 25.5983 31.4549 25.1332 31.0256L25.1313 31.035C28.6486 29.7904 32.4747 29.7302 36.0277 30.8637L36.0202 30.8524C39.2852 32.0198 42.0775 34.2341 43.9623 37.1488L43.9849 37.1639C45.2841 38.8736 45.8 41.054 45.4065 43.1647L45.4103 43.1553C45.4084 43.965 44.851 44.6654 44.064 44.8518H44.0508C41.3281 45.1192 38.7768 46.2998 36.811 48.2034L36.8299 48.2128C33.9867 50.9844 32.6253 54.9386 33.1563 58.8757C33.6854 62.811 36.0466 66.2624 39.5224 68.1829H39.5149C46.8526 72.6906 55.401 74.8164 63.9927 74.2685L63.987 74.2666C72.2285 73.7997 80.1255 70.8115 86.6158 65.7088L86.6366 65.7126C93.0234 60.7549 95.9419 52.5303 94.1098 44.6541L94.0947 44.6466C93.1834 41.199 90.4551 38.529 86.9887 37.6949L86.9924 37.6892C84.1888 36.9587 81.2119 37.3202 78.6662 38.7041L78.6549 38.7135C76.0565 40.4835 74.5709 43.4848 74.7403 46.6274L74.761 46.6236C75.9303 46.0305 77.3011 45.9721 78.5156 46.4674L78.5137 46.4485C80.2893 47.4163 81.5527 49.1128 81.9669 51.0937L81.9538 51.0918C82.4433 54.1722 81.7994 57.3261 80.1405 59.9697L80.148 59.981C77.6927 64.1573 73.4392 66.9553 68.6341 67.554L68.6171 67.571H68.1351L68.3027 66.9421L68.3234 66.9214C68.6021 66.1042 68.7433 65.2475 68.7414 64.3832L68.7527 64.3908C68.8732 62.5963 67.9261 60.898 66.335 60.0582L66.3143 60.0751L65.5612 59.7626L65.5687 59.7513C64.744 62.039 63.1228 63.9539 61.0026 65.1439L60.997 65.127C59.035 66.3565 56.8282 67.136 54.5292 67.4147L54.5405 67.4222C49.3324 67.9005 44.1393 66.3527 40.0421 63.0991L40.0308 63.101C36.9504 60.6494 35.7717 56.5108 37.0935 52.8052L37.1066 52.8184C37.824 50.928 39.7013 49.7361 41.716 49.8942L41.7198 49.8698C42.5068 53.8917 45.7417 56.9815 49.7937 57.584L49.7843 57.6066C53.7629 58.132 57.6529 56.1455 59.5622 52.6132L59.5697 52.6075C62.7707 46.3807 61.6993 38.8133 56.8941 33.7219L56.9017 33.7295C50.5902 26.9567 41.6576 23.2492 32.4069 23.5637L32.3975 23.5505C25.0278 23.848 17.9631 26.5725 12.3012 31.2986L12.3087 31.3194C9.48814 33.6749 7.32656 36.7233 6.03677 40.1653L6.03301 40.1502C5.36457 41.9333 4.94845 43.7993 4.79593 45.6972L4.79217 45.6916C4.56434 48.5235 6.38323 51.1181 9.12286 51.8694" fill="#20699C"/>
</svg>
