<svg width="113" height="59" viewBox="0 0 113 59" fill="none" xmlns="http://www.w3.org/2000/svg">
<path d="M9.84324 31.8426C9.84324 31.3217 9.64246 30.9141 9.24211 30.6087C8.84176 30.3044 8.19925 30.1499 7.30729 30.1499H3.33787V33.5766H7.41437C8.1737 33.5766 8.7651 33.4403 9.19587 33.1653C9.63151 32.8927 9.84324 32.4668 9.84324 31.8876V31.8426ZM8.97196 25.6146C8.97196 25.0999 8.78213 24.7044 8.39639 24.4258C8.00942 24.1532 7.45088 24.0169 6.72441 24.0169H3.33787V27.3073H6.50051C7.25983 27.3073 7.85975 27.1747 8.30634 26.9203C8.75049 26.6599 8.97196 26.2364 8.97196 25.6597V25.6146ZM12.8173 34.1802C12.541 34.7119 12.1516 35.1561 11.6369 35.5138C11.1258 35.8667 10.5125 36.1381 9.797 36.3133C9.0754 36.491 8.27835 36.5762 7.40707 36.5762H0V21.0149H7.22576C8.82716 21.0149 10.0805 21.3751 10.9932 22.1028C11.9046 22.828 12.3585 23.8076 12.3585 25.0378V25.0829C12.3585 25.5294 12.3074 25.9164 12.193 26.2596C12.0847 26.6003 11.9387 26.9106 11.7549 27.1832C11.5675 27.4606 11.3546 27.7003 11.1149 27.9048C10.8703 28.1153 10.6111 28.293 10.3288 28.4402C11.2317 28.7834 11.9399 29.2445 12.4559 29.8311C12.9706 30.4164 13.2286 31.2268 13.2286 32.2624V32.3098C13.2286 33.0229 13.0923 33.6447 12.8173 34.1802Z" fill="#2A2523"/>
<path d="M52.9345 24.1714V36.5762H49.5078V24.1714H44.7656V21.0149H57.6802V24.1714H52.9345Z" fill="#2A2523"/>
<path d="M26.3378 3.11007V6.4236H33.7741V9.54121H26.3378V15.5684H22.9062V0.000973701H34.778V3.11007H26.3378Z" fill="#2A2523"/>
<path d="M57.2731 57.5938L0 0.409492L0.407654 0.00062561L57.6795 57.1885L57.2731 57.5938Z" fill="#2A2523"/>
<path d="M0.407651 57.5938L0 57.1885L57.2731 0.00062561L57.6795 0.409492L0.407651 57.5938Z" fill="#2A2523"/>
<path d="M112.263 38.123L97.3438 23.2268L97.4499 23.1203L112.369 38.0175L112.263 38.123Z" fill="#2A2523"/>
<path d="M97.4499 38.123L97.3438 38.0175L112.263 23.1203L112.369 23.2268L97.4499 38.123Z" fill="#2A2523"/>
<path d="M26.6094 26.5695H31.0582V31.0195H26.6094V26.5695Z" fill="#2A2523"/>
<path d="M22.172 56.4549L20.8761 54.66C20.8335 54.5895 20.8761 54.5031 20.9625 54.5031H21.2143C21.2533 54.5031 21.2849 54.5311 21.3007 54.5517L22.3862 56.0521L23.4729 54.5517C23.4887 54.5311 23.5203 54.5031 23.5593 54.5031H23.8111C23.8975 54.5031 23.9401 54.5895 23.8975 54.66L22.5858 56.4501V58.1646C22.5858 58.2182 22.5371 58.2656 22.4835 58.2656H22.2742C22.2146 58.2656 22.172 58.2182 22.172 58.1646V56.4549Z" fill="#2A2523"/>
<path d="M24.4531 54.6053C24.4531 54.5517 24.4957 54.5031 24.5553 54.5031H26.6727C26.7323 54.5031 26.7761 54.5517 26.7761 54.6053V54.761C26.7761 54.8146 26.7323 54.8633 26.6727 54.8633H24.8669V56.175H26.4098C26.4634 56.175 26.5121 56.2237 26.5121 56.2773V56.433C26.5121 56.4914 26.4634 56.5352 26.4098 56.5352H24.8669V57.9054H26.6727C26.7323 57.9054 26.7761 57.9541 26.7761 58.0076V58.1634C26.7761 58.217 26.7323 58.2656 26.6727 58.2656H24.5553C24.4957 58.2656 24.4531 58.217 24.4531 58.1634V54.6053Z" fill="#2A2523"/>
<path d="M29.6812 56.9867C29.4171 56.4014 29.1603 55.81 28.8963 55.2235H28.8537L28.0688 56.9867H29.6812ZM27.1282 58.1269L28.7612 54.5092C28.7783 54.4763 28.805 54.4495 28.8537 54.4495H28.9072C28.9559 54.4495 28.9827 54.4763 28.9985 54.5092L30.6218 58.1269C30.6547 58.1963 30.6109 58.2656 30.5305 58.2656H30.3152C30.2665 58.2656 30.2348 58.234 30.2239 58.2072L29.826 57.3201H27.9179L27.5261 58.2072C27.5151 58.234 27.4823 58.2656 27.4348 58.2656H27.2194C27.1391 58.2656 27.0953 58.1963 27.1282 58.1269Z" fill="#2A2523"/>
<path d="M32.6707 56.4379C33.0844 56.4379 33.4446 56.0935 33.4446 55.653C33.4446 55.2441 33.0844 54.8949 32.6707 54.8949H31.6278V56.4379H32.6707ZM31.2031 54.6053C31.2031 54.5505 31.2457 54.5031 31.3053 54.5031H32.6974C33.3424 54.5031 33.8693 55.0081 33.8693 55.6469C33.8693 56.1422 33.5407 56.5559 33.0735 56.7445L33.8097 58.1099C33.8474 58.1792 33.8097 58.2656 33.7184 58.2656H33.4446C33.3959 58.2656 33.3691 58.2389 33.3582 58.217L32.6439 56.7932H31.6169V58.1634C31.6169 58.217 31.5682 58.2656 31.5146 58.2656H31.3053C31.2457 58.2656 31.2031 58.217 31.2031 58.1634V54.6053Z" fill="#2A2523"/>
<path d="M34.5143 57.7002C34.5411 57.6673 34.5678 57.6308 34.5946 57.598C34.6482 57.5286 34.7078 57.486 34.7832 57.5493C34.821 57.5822 35.2128 57.9582 35.691 57.9582C36.1267 57.9582 36.4114 57.6844 36.4114 57.3668C36.4114 56.9956 36.0889 56.7754 35.4708 56.5174C34.8794 56.2594 34.5253 56.0173 34.5253 55.4052C34.5253 55.0401 34.8149 54.4487 35.6703 54.4487C36.196 54.4487 36.5891 54.7225 36.5891 54.7225C36.6207 54.7383 36.6852 54.8028 36.6207 54.905C36.6 54.9379 36.5781 54.9756 36.5562 55.0073C36.5075 55.0827 36.454 55.1046 36.3688 55.0559C36.3311 55.034 35.9928 54.8089 35.6642 54.8089C35.0947 54.8089 34.922 55.174 34.922 55.4003C34.922 55.7605 35.197 55.9698 35.6484 56.1572C36.3737 56.4529 36.841 56.7279 36.841 57.3509C36.841 57.9095 36.3092 58.3184 35.6801 58.3184C35.0461 58.3184 34.6165 57.9472 34.5459 57.8827C34.5033 57.845 34.4498 57.8024 34.5143 57.7002Z" fill="#2A2523"/>
<path d="M21.6434 43.561L20.8099 44.2084C20.7186 44.2778 20.6249 44.2899 20.5446 44.1975L20.3243 43.9541C20.244 43.8616 20.2903 43.7582 20.3475 43.6998L21.9671 42.1264H22.2798C22.3954 42.1264 22.4879 42.231 22.4879 42.3466V49.7732C22.4879 49.8888 22.3954 49.9922 22.2798 49.9922H21.8625C21.7359 49.9922 21.6434 49.8888 21.6434 49.7732V43.561Z" fill="#2A2523"/>
<path d="M29.2849 46.0589C29.2849 43.9659 28.5682 42.7624 27.2953 42.7624C26.0237 42.7624 25.3058 43.9659 25.3058 46.0589C25.3058 48.1763 26.0237 49.3554 27.2953 49.3554C28.5682 49.3554 29.2849 48.1763 29.2849 46.0589ZM24.4844 46.0589C24.4844 43.5254 25.5029 42.0104 27.2953 42.0104C29.089 42.0104 30.1063 43.5254 30.1063 46.0589C30.1063 48.5924 29.089 50.1074 27.2953 50.1074C25.5029 50.1074 24.4844 48.5924 24.4844 46.0589Z" fill="#2A2523"/>
<path d="M36.5818 46.0589C36.5818 43.9659 35.8651 42.7624 34.5922 42.7624C33.3194 42.7624 32.6026 43.9659 32.6026 46.0589C32.6026 48.1763 33.3194 49.3554 34.5922 49.3554C35.8651 49.3554 36.5818 48.1763 36.5818 46.0589ZM31.7812 46.0589C31.7812 43.5254 32.7998 42.0104 34.5922 42.0104C36.3847 42.0104 37.4032 43.5254 37.4032 46.0589C37.4032 48.5924 36.3847 50.1074 34.5922 50.1074C32.7998 50.1074 31.7812 48.5924 31.7812 46.0589Z" fill="#2A2523"/>
<path d="M37.0364 52.5703H21.25V52.0446H37.0364V52.5703Z" fill="#2A2523"/>
</svg>
