<svg width="102" height="121" viewBox="0 0 102 121" fill="none" xmlns="http://www.w3.org/2000/svg">
<rect y="0.654297" width="102" height="120.346" fill="#2A2523"/>
<path d="M25.348 64.424C25.348 63.7735 25.0852 63.2635 24.5634 62.8824C24.0419 62.5016 23.203 62.3096 22.0397 62.3096H16.8629V66.5904H22.1808C23.1703 66.5904 23.9413 66.4202 24.5037 66.0767C25.0719 65.7364 25.348 65.2042 25.348 64.4795V64.424ZM24.2119 56.6423C24.2119 55.999 23.9645 55.5039 23.46 55.1562C22.9556 54.8162 22.2275 54.6461 21.2807 54.6461H16.8629V58.757H20.9885C21.978 58.757 22.7606 58.5905 23.3441 58.2724C23.9219 57.9472 24.2119 57.4188 24.2119 56.6978V56.6423ZM29.2265 67.3444C28.8669 68.0099 28.3587 68.5644 27.6879 69.0118C27.0215 69.4516 26.2216 69.7919 25.2883 70.01C24.3473 70.2318 23.3077 70.3389 22.1713 70.3389H12.5093V50.8937H21.9337C24.0224 50.8937 25.6571 51.3446 26.8474 52.2544C28.0359 53.16 28.629 54.3835 28.629 55.9216V55.9771C28.629 56.5352 28.5615 57.0195 28.4129 57.4482C28.2718 57.8734 28.0806 58.2617 27.8409 58.6016C27.5972 58.9491 27.3191 59.2485 27.0059 59.5035C26.6872 59.7661 26.3491 59.9878 25.982 60.173C27.1589 60.6017 28.0823 61.1784 28.7548 61.9102C29.4273 62.642 29.7637 63.6553 29.7637 64.9491V65.0082C29.7637 65.8991 29.5857 66.6756 29.2265 67.3444Z" fill="#FFFCF3"/>
<path d="M83.1503 54.8381V70.3389H78.5719V54.8381H72.2358V50.8937H89.4902V54.8381H83.1503Z" fill="#FFFCF3"/>
<path d="M47.639 27.5548V31.6936H57.6151V35.5885H47.639V43.1162H43.0356V23.671H58.9628V27.5548H47.639Z" fill="#FFFCF3"/>
<path d="M88.9487 97.5615L12.5093 24.1935L13.053 23.6698L89.4904 97.0415L88.9487 97.5615Z" fill="#FFFCF3"/>
<path d="M13.053 97.5615L12.5093 97.0415L88.9487 23.6698L89.4904 24.1935L13.053 97.5615Z" fill="#FFFCF3"/>
<path d="M48.3447 57.3757H53.6538V63.8574H48.3447V57.3757Z" fill="#FFFCF3"/>
<path d="M42.0926 96.3622L40.4039 93.888C40.3477 93.7915 40.4039 93.673 40.516 93.673H40.8447C40.8941 93.673 40.9364 93.7101 40.9571 93.74L42.3726 95.8065L43.7881 93.74C43.8089 93.7101 43.8511 93.673 43.9005 93.673H44.2293C44.3417 93.673 44.3976 93.7915 44.3417 93.888L42.6319 96.3547V98.7179C42.6319 98.7918 42.5692 98.8584 42.499 98.8584H42.2255C42.1488 98.8584 42.0926 98.7918 42.0926 98.7179V96.3622Z" fill="#FFFCF3"/>
<path d="M45.6909 93.8135C45.6909 93.7396 45.7402 93.673 45.808 93.673H48.2284C48.2962 93.673 48.3454 93.7396 48.3454 93.8135V94.0281C48.3454 94.1023 48.2962 94.1693 48.2284 94.1693H46.1644V95.9767H47.9276C47.9891 95.9767 48.0444 96.0437 48.0444 96.1179V96.3325C48.0444 96.4136 47.9891 96.473 47.9276 96.473H46.1644V98.3621H48.2284C48.2962 98.3621 48.3454 98.4291 48.3454 98.5033V98.7179C48.3454 98.7918 48.2962 98.8584 48.2284 98.8584H45.808C45.7402 98.8584 45.6909 98.7918 45.6909 98.7179V93.8135Z" fill="#FFFCF3"/>
<path d="M52.2167 97.12C51.8189 96.3243 51.4293 95.5208 51.0311 94.7247H50.9664L49.7817 97.12H52.2167ZM48.3609 98.6684L50.8283 93.7536C50.8531 93.7096 50.8934 93.673 50.9664 93.673H51.0477C51.1211 93.673 51.1614 93.7096 51.1854 93.7536L53.6374 98.6684C53.6863 98.7632 53.6212 98.8584 53.4997 98.8584H53.1745C53.1015 98.8584 53.0529 98.8144 53.0367 98.7778L52.4357 97.5731H49.554L48.962 98.7778C48.9454 98.8144 48.8969 98.8584 48.8239 98.8584H48.4987C48.3771 98.8584 48.3124 98.7632 48.3609 98.6684Z" fill="#FFFCF3"/>
<path d="M55.8462 96.3399C56.4639 96.3399 57.0012 95.8659 57.0012 95.258C57.0012 94.6955 56.4639 94.214 55.8462 94.214H54.2892V96.3399H55.8462ZM53.6543 93.8138C53.6543 93.74 53.7187 93.673 53.8077 93.673H55.886C56.849 93.673 57.6361 94.3695 57.6361 95.2508C57.6361 95.9322 57.146 96.5027 56.4479 96.762L57.5471 98.6434C57.6037 98.7396 57.5471 98.8584 57.4109 98.8584H57.0012C56.9294 98.8584 56.8896 98.8213 56.8736 98.7914L55.8056 96.829H54.2728V98.7176C54.2728 98.7914 54.2002 98.8584 54.1198 98.8584H53.8077C53.7187 98.8584 53.6543 98.7914 53.6543 98.7176V93.8138Z" fill="#FFFCF3"/>
<path d="M58.998 98.03C59.028 97.9866 59.058 97.9365 59.0886 97.8934C59.1493 97.7996 59.2158 97.7422 59.3006 97.8283C59.3426 97.8717 59.785 98.3759 60.3236 98.3759C60.8139 98.3759 61.135 98.0083 61.135 97.5836C61.135 97.0864 60.7718 96.7916 60.0755 96.4457C59.4097 96.1001 59.0101 95.7759 59.0101 94.9552C59.0101 94.4654 59.337 93.673 60.2995 93.673C60.8925 93.673 61.3346 94.0406 61.3346 94.0406C61.3705 94.062 61.4432 94.1485 61.3705 94.2854C61.3469 94.3285 61.3225 94.3789 61.2984 94.4223C61.2436 94.5228 61.183 94.5515 61.0865 94.4871C61.0438 94.4583 60.6626 94.1555 60.293 94.1555C59.6517 94.1555 59.4577 94.6453 59.4577 94.9478C59.4577 95.4307 59.7665 95.7111 60.2753 95.9632C61.0921 96.3595 61.6189 96.7265 61.6189 97.5619C61.6189 98.3108 61.0194 98.8584 60.3115 98.8584C59.5972 98.8584 59.1128 98.3616 59.0345 98.2747C58.9859 98.2243 58.9253 98.1669 58.998 98.03Z" fill="#FFFCF3"/>
<path d="M41.5133 80.0078L40.01 80.8616C39.8435 80.9533 39.6761 80.9684 39.5299 80.8464L39.1338 80.5264C38.9876 80.4044 39.0711 80.2669 39.1753 80.1908L42.0981 78.1165H42.6616C42.8696 78.1165 43.037 78.2537 43.037 78.4063V88.1975C43.037 88.3502 42.8696 88.4873 42.6616 88.4873H41.9094C41.6798 88.4873 41.5133 88.3502 41.5133 88.1975V80.0078Z" fill="#FFFCF3"/>
<path d="M51.3576 83.3018C51.3576 80.6203 50.5113 79.0792 49.0092 79.0792C47.5071 79.0792 46.6602 80.6203 46.6602 83.3018C46.6602 86.013 47.5071 87.5243 49.0092 87.5243C50.5113 87.5243 51.3576 86.013 51.3576 83.3018ZM45.6909 83.3018C45.6909 80.0573 46.8929 78.1165 49.0092 78.1165C51.1259 78.1165 52.3272 80.0573 52.3272 83.3018C52.3272 86.5466 51.1259 88.4873 49.0092 88.4873C46.8929 88.4873 45.6909 86.5466 45.6909 83.3018Z" fill="#FFFCF3"/>
<path d="M61.7822 83.3018C61.7822 80.6203 60.766 79.0792 58.9634 79.0792C57.1609 79.0792 56.1446 80.6203 56.1446 83.3018C56.1446 86.013 57.1609 87.5243 58.9634 87.5243C60.766 87.5243 61.7822 86.013 61.7822 83.3018ZM54.9814 83.3018C54.9814 80.0573 56.4238 78.1165 58.9634 78.1165C61.5034 78.1165 62.945 80.0573 62.945 83.3018C62.945 86.5466 61.5034 88.4873 58.9634 88.4873C56.4238 88.4873 54.9814 86.5466 54.9814 83.3018Z" fill="#FFFCF3"/>
</svg>
