<svg width="109" height="108" viewBox="0 0 109 108" fill="none" xmlns="http://www.w3.org/2000/svg">
<path d="M0.765625 0.000854492H108.548V107.783H0.765625V0.000854492Z" fill="#FDE1C5"/>
<path d="M80.1558 27.2952C81.4738 29.1121 83.1162 30.6703 84.9968 31.8939L84.9927 31.8918C87.3721 33.4419 90.0656 34.4478 92.8782 34.8379H92.8926C93.3627 32.7685 93.5372 30.6416 93.41 28.5229L93.3915 28.5249C93.1903 26.281 92.4841 24.113 91.3262 22.1812L91.3179 22.1853C90.9874 21.5386 90.9402 20.7851 91.1866 20.1035L91.2091 20.0953C91.2605 19.8531 91.4247 19.6498 91.6505 19.5451C91.8764 19.4425 92.1391 19.4527 92.3568 19.5718L92.3506 19.578C92.8905 19.7299 93.4592 19.7443 94.0053 19.617L94.0012 19.6211C95.4712 19.3357 96.5428 18.0608 96.5757 16.5621L96.5839 16.558C96.1404 16.7038 95.6641 16.7038 95.2207 16.558L95.2084 16.5539C94.0895 16.1905 93.0445 15.6362 92.1145 14.9156L92.1227 14.9279C89.5975 12.9714 86.8137 11.3721 83.8512 10.1773L83.8615 10.167C81.3137 9.13847 78.5935 8.6088 75.8466 8.6088L75.8363 8.63344H17.3361L17.3423 8.6088C16.4677 8.46098 15.6896 7.97032 15.1784 7.24356L15.1949 7.23329C15.0758 7.05263 15.045 6.82885 15.1107 6.62355L15.1148 6.60713C15.3673 6.18832 15.6281 5.77361 15.8949 5.36506L15.8765 5.39175L16.1947 4.75122L15.4659 4.50075L15.4802 4.48638C14.2012 4.05525 12.8011 4.16611 11.6062 4.79228L11.598 4.80254C10.0952 5.59089 9.24734 7.2374 9.47933 8.9188L9.48959 8.90854C9.65588 10.1198 10.1117 11.2756 10.8179 12.2734L10.8097 12.2796C11.7109 13.5565 13.1994 14.2874 14.7596 14.2196L14.7576 14.2237H71.41L71.4141 14.2299C74.3992 14.5235 76.6596 17.0589 76.6103 20.0604L76.6123 20.0563C76.6123 21.6022 75.9554 23.0742 74.8057 24.1069C73.656 25.1395 72.1224 25.6343 70.5868 25.4701L70.5745 25.4844C71.4449 27.0303 72.9313 28.1349 74.664 28.5229L74.6743 28.5188C76.2017 28.8288 77.7908 28.4695 79.0349 27.5272" fill="#20699C"/>
<path d="M11.1379 56.1574C9.92659 52.306 10.6533 48.1076 13.0882 44.8865V44.8803C15.1699 42.1252 18.4547 40.5505 21.9038 40.6511C24.858 40.7373 27.6152 42.1478 29.4136 44.4964L29.4095 44.5046L29.8653 43.9113L29.8776 43.8928C31.7828 41.3081 31.6329 37.7441 29.5142 35.3277L29.5081 35.3092C29.0523 34.7898 28.5699 34.2971 28.0628 33.829L28.0607 33.8393C31.8957 32.4822 36.0674 32.4166 39.9414 33.6525L39.9332 33.6401C43.4931 34.913 46.5377 37.3273 48.5927 40.5054L48.6174 40.5218C50.0339 42.3859 50.5965 44.7633 50.1674 47.0647L50.1715 47.0544C50.1694 47.9372 49.5618 48.7009 48.7036 48.9042H48.6892C45.7206 49.1957 42.9388 50.4829 40.7955 52.5585L40.816 52.5688C37.716 55.5908 36.2316 59.9021 36.8106 64.1949C37.3875 68.4857 39.9619 72.2488 43.7518 74.3429H43.7436C51.7441 79.2577 61.0647 81.5756 70.4325 80.9781L70.4264 80.9761C79.4123 80.4669 88.0226 77.2088 95.0993 71.6452L95.1219 71.6493C102.086 66.2438 105.268 57.2763 103.27 48.6886L103.254 48.6804C102.26 44.9214 99.2853 42.0102 95.5058 41.1007L95.5099 41.0946C92.453 40.298 89.2072 40.6922 86.4315 42.2011L86.4192 42.2114C83.5861 44.1412 81.9663 47.4137 82.151 50.8401L82.1736 50.836C83.4485 50.1893 84.9431 50.1257 86.2673 50.6656L86.2652 50.6451C88.2012 51.7004 89.5788 53.5501 90.0304 55.7099L90.0161 55.7078C90.5498 59.0665 89.8477 62.5053 88.039 65.3877L88.0472 65.4C85.3701 69.9535 80.7324 73.0043 75.4932 73.6572L75.4747 73.6756H74.9491L75.1318 72.9899L75.1544 72.9674C75.4583 72.0763 75.6122 71.1422 75.6102 70.1999L75.6225 70.2081C75.7539 68.2516 74.7212 66.3998 72.9864 65.4842L72.9639 65.5027L72.1427 65.1619L72.1509 65.1495C71.2517 67.6439 69.484 69.7318 67.1724 71.0293L67.1662 71.0108C65.027 72.3515 62.6209 73.2014 60.1142 73.5052L60.1265 73.5134C54.4479 74.0349 48.7857 72.3473 44.3184 68.7998L44.3061 68.8018C40.9474 66.1288 39.6622 61.6163 41.1034 57.576L41.1178 57.5904C41.9 55.5292 43.9468 54.2296 46.1435 54.4021L46.1476 54.3754C47.0058 58.7606 50.5328 62.1296 54.9509 62.7865L54.9406 62.8112C59.2786 63.384 63.5201 61.218 65.6018 57.3666L65.61 57.3605C69.1001 50.5712 67.932 42.3202 62.6927 36.7689L62.7009 36.7771C55.8193 29.3925 46.0799 25.3501 35.9935 25.693L35.9832 25.6786C27.9478 26.003 20.245 28.9737 14.0716 34.1267L14.0798 34.1493C11.0044 36.7176 8.64757 40.0414 7.24127 43.7943L7.23716 43.7778C6.50835 45.722 6.05464 47.7565 5.88834 49.826L5.88424 49.8198C5.63582 52.9075 7.61902 55.7365 10.6061 56.5557" fill="#20699C"/>
</svg>
