<svg width="108" height="108" viewBox="0 0 108 108" fill="none" xmlns="http://www.w3.org/2000/svg">
<path d="M107.102 96.6526H0.0507812V107.35H107.102V96.6526Z" fill="#E09B91"/>
<path d="M107.102 88.6082H0.0507812V96.6523H107.102V88.6082Z" fill="#A55450"/>
<path d="M107.102 83.2589H80.3391L66.9465 68.5511L53.5764 83.2589H26.8136L13.421 68.5511L0.0507812 83.2589V88.6074H107.102V83.2589Z" fill="#E09B91"/>
<path d="M80.3379 53.8277L66.9453 68.5579L80.3379 83.2637H107.101L80.3379 53.8277Z" fill="#E7E8D5"/>
<path d="M26.8106 53.8277L13.418 68.5579L26.8106 83.2637H53.5734L26.8106 53.8277Z" fill="#E7E8D5"/>
<path d="M107.102 24.3898H80.3391L66.9465 39.0977L53.5764 24.3898H26.8136L13.421 39.0977L0.0507812 24.3898V19.0414H107.102V24.3898Z" fill="#E09B91"/>
<path d="M80.3379 53.8242L66.9453 39.094L80.3379 24.3882H107.101L80.3379 53.8242Z" fill="#E7E8D5"/>
<path d="M26.8106 53.8242L13.418 39.094L26.8106 24.3882H53.5734L26.8106 53.8242Z" fill="#E7E8D5"/>
<path d="M107.102 10.9961H0.0507812V0.299192H107.102V10.9961Z" fill="#E09B91"/>
<path d="M107.102 19.041H0.0507812V10.9969H107.102V19.041Z" fill="#A55450"/>
</svg>
