<svg width="108" height="108" viewBox="0 0 108 108" fill="none" xmlns="http://www.w3.org/2000/svg">
<path d="M0.515625 107.299H107.032V0.782272H0.515625V107.299Z" fill="black"/>
<path d="M107.032 107.299H0.515625V0.782272H107.032V107.299Z" fill="#8C4C46"/>
<path d="M107.027 36.3675V36.3493V36.331V36.3107V36.2924V36.2742V36.2559V36.2174V36.1991V36.1606V36.1423V36.1058V36.0672V36.0307V35.9922V35.9557V35.9171V35.8603V35.8238V35.767V35.7102V35.6736V35.6168V35.56V35.485V35.4302V35.3734V35.3166V35.2415V35.1664V35.1116V35.0366V34.9615V34.8864V34.8114V34.7363V34.6612V34.5659V34.4908V34.3975V34.3224V34.2291V34.1357V34.0404V33.9653V33.872V33.7604V33.6671V33.5717V33.4784V33.3668V33.2714V33.1598V33.0665V32.9529V32.8413V32.746V32.6344V32.5228V32.4092V32.2976V32.184V32.0521V31.9405V31.8269V31.697V31.5834V31.4515V31.3399V31.2081V31.0965V30.9646V30.8327V30.7029V30.571V30.4574V30.3275V30.1956V30.0638V29.9136V29.7838V29.6519V29.52V29.3881V29.238V29.1082V28.958V28.8261V28.6943V28.5441V28.394V28.2641V28.114V27.832V27.55V27.2497V26.9494V26.6694V26.3692V26.0689V25.7686V25.4683V25.1681V24.8678V24.5493V23.9487V23.3299V22.7293V22.1105V21.8103V21.51V21.2097V20.9094V20.6092V20.3089V20.0086V19.7083V19.4283V19.1281V18.8461V18.5458V18.4139V18.2638V18.1339V17.9838V17.8519V17.7018V17.5699V17.4197V17.2899V17.158V17.0261V16.876V16.7441V16.6143V16.4824V16.3505V16.2207V16.0888V15.9569V15.825V15.7134V15.5816V15.4497V15.3381V15.2062V15.0946V14.9628V14.8512V14.7376V14.6057V14.4941V14.3805V14.2689V14.1553V14.0437V13.9321V13.8185V13.7251V13.6115V13.4999V13.4066V13.293V13.1997V13.1063V12.9927V12.8994V12.8061V12.7127V12.6174V12.524V12.449V12.3556V12.2623V12.1872V12.0919V12.0168V11.9417V11.8667V11.7916V11.7165V11.6415V11.5684V11.4934V11.4366V11.3615V11.3047V11.2296V11.1728V11.118V11.0612V11.0044V10.9476V10.9111V10.8543V10.7975V10.7609V10.7224V10.6859V10.6473V10.6108V10.5723V10.5357V10.4972V10.4789V10.4424V10.4221V10.4039V10.3856V10.3673V10.3491V10.3288H107.009H106.991V10.3491H106.971H106.952L106.934 10.3673L106.916 10.3856H106.895L106.877 10.4039H106.859L106.841 10.4221L106.82 10.4424L106.802 10.4607H106.784L106.766 10.4789L106.745 10.4972H106.727L106.709 10.5175L106.67 10.5357H106.652L106.634 10.554L106.615 10.5723L106.595 10.5925L106.559 10.6108L106.54 10.6291L106.52 10.6473H106.502L106.465 10.6676L106.445 10.6859L106.409 10.7041L106.39 10.7224L106.352 10.7609L106.333 10.7792L106.295 10.7975L106.277 10.8177L106.24 10.836L106.22 10.8543L106.183 10.8725L106.165 10.9111L106.127 10.9293L106.09 10.9476L106.07 10.9861L106.033 11.0044L105.995 11.0227L105.958 11.0612L105.94 11.0795L105.901 11.118L105.865 11.1363L105.826 11.1545L105.769 11.2296L105.696 11.2864L105.621 11.3432L105.546 11.398L105.471 11.4731L105.396 11.5481L105.321 11.605L105.246 11.68L105.171 11.7551L105.096 11.8302L105.021 11.9052L104.925 11.9986L104.85 12.0736L104.775 12.167L104.7 12.242L104.607 12.3374L104.532 12.4307L104.438 12.524L104.363 12.6174L104.288 12.7127L104.195 12.8061L104.12 12.9176L104.027 13.011L103.952 13.1246L103.876 13.2362L103.781 13.3498L103.706 13.4614L103.613 13.575L103.538 13.6866L103.463 13.8185L103.369 13.9321L103.294 14.0619L103.258 14.1187L103.219 14.1938L103.183 14.2506L103.126 14.3257L103.087 14.3805L103.051 14.4555L103.012 14.5123L102.976 14.5874L102.937 14.6625L102.901 14.7193L102.862 14.7944L102.826 14.8694L102.787 14.9262L102.75 15.0013L102.712 15.0764L102.675 15.1514L102.637 15.2265L102.6 15.3016L102.562 15.3746L102.525 15.4497L102.487 15.5248L102.45 15.5998L102.412 15.6749L102.393 15.75L102.357 15.825L102.318 15.9001L102.282 15.9752L102.243 16.0705L102.225 16.1456L102.186 16.2207L102.15 16.314L102.111 16.3891L102.093 16.4641L102.057 16.5575L102.018 16.6325L102 16.7259L101.963 16.8009L101.943 16.8943L101.906 16.9693L101.868 17.0647L101.85 17.158L101.813 17.2331L101.793 17.3264L101.756 17.4197L101.738 17.5151L101.718 17.6084L101.681 17.7018L101.663 17.7768L101.643 17.8702L101.606 17.9635L101.588 18.0588L101.568 18.1704L101.549 18.2638L101.513 18.3591L101.493 18.4524L101.474 18.5458L101.456 18.6391L101.438 18.7527L101.417 18.8461L101.399 18.9394L101.381 19.053L101.363 19.1463L101.342 19.2397L101.324 19.3533L101.306 19.4466L101.288 19.5582V19.6718L101.267 19.7651L101.249 19.8788L101.231 19.9903V20.0837L101.213 20.1973V20.3089L101.192 20.4225L101.174 20.5341V20.6477V20.741L101.156 20.8526V20.9662L101.137 21.0981V21.2097V21.3233V21.4349L101.117 21.5465V21.6601V21.792V21.9036V22.0172V22.1471V22.2607V22.3925L101.137 22.5041V22.636V22.7476V22.8795L101.156 23.0114V23.1229V23.2548L101.174 23.3867V23.5165L101.192 23.6302L101.213 23.762V23.8919L101.231 24.0238L101.249 24.1556V24.2855L101.267 24.4174L101.288 24.5493L101.306 24.6811L101.324 24.8313L101.342 24.9611L101.363 25.093L101.381 25.2249L101.417 25.375L101.438 25.5049L101.456 25.655L101.493 25.7869L101.513 25.937L101.531 26.0689L101.568 26.219L101.588 26.3509L101.624 26.501L101.663 26.6491L101.681 26.781L101.718 26.9312L101.756 27.0813L101.793 27.2314L101.831 27.3816L101.868 27.5317L101.906 27.6819L101.943 27.832L101.981 27.9821L102.018 28.114L102.057 28.2641L102.093 28.4143L102.132 28.5441L102.168 28.6943L102.225 28.8261L102.261 28.9763L102.3 29.1082L102.337 29.238L102.375 29.3699L102.412 29.5018L102.45 29.6336L102.487 29.7635L102.525 29.8954L102.562 30.009L102.582 30.1388L102.619 30.2525L102.657 30.3823L102.694 30.4959L102.732 30.6278L102.769 30.7394L102.807 30.853L102.844 30.9646L102.882 31.0782L102.919 31.1898L102.957 31.3034L102.994 31.415L103.012 31.5083L103.051 31.622L103.087 31.7335L103.126 31.8269L103.162 31.9405L103.201 32.0338L103.219 32.1271L103.258 32.2408L103.294 32.3341L103.331 32.4274L103.369 32.5228L103.388 32.6161L103.426 32.7094L103.463 32.8028L103.501 32.8961L103.519 32.9712L103.556 33.0665L103.594 33.1598L103.631 33.2349L103.651 33.3282L103.688 33.4033L103.726 33.4784L103.745 33.5717L103.781 33.6468L103.82 33.7218L103.838 33.7969L103.876 33.872L103.913 33.9471L103.931 34.0221L103.97 34.0972L104.006 34.1723L104.027 34.2291L104.063 34.3041L104.102 34.3792L104.12 34.436L104.156 34.5111L104.177 34.5659L104.213 34.6409L104.232 34.6977L104.27 34.7546L104.307 34.8114L104.327 34.8864L104.363 34.9412L104.382 34.998L104.42 35.0548L104.438 35.1116L104.477 35.1664L104.495 35.2232L104.532 35.2597L104.55 35.3166L104.589 35.3734L104.607 35.4099L104.645 35.4667L104.664 35.5235L104.682 35.56L104.72 35.6168L104.739 35.6554L104.775 35.6919L104.796 35.7487L104.832 35.7852L104.85 35.8238L104.871 35.8603L104.907 35.8988L104.925 35.9354L104.946 35.9739L104.982 36.0104L105 36.049L105.021 36.0855L105.057 36.1241L105.076 36.1606L105.096 36.1991L105.132 36.2174L105.151 36.2559L105.171 36.2924L105.207 36.3107L105.226 36.3493L105.246 36.3675L105.264 36.404L105.301 36.4243L105.321 36.4608L105.339 36.4791L105.358 36.4994L105.376 36.5359L105.414 36.5542L105.433 36.5745L105.451 36.5927L105.471 36.611L105.489 36.6495L105.526 36.6678L105.546 36.6861L105.565 36.7043L105.583 36.7246H105.601L105.621 36.7429L105.64 36.7611L105.676 36.7794L105.696 36.7997L105.715 36.8179H105.733L105.769 36.8545L105.808 36.8747L105.844 36.893L105.883 36.9113L105.92 36.9295L105.958 36.9498H105.995L106.033 36.9681H106.07L106.108 36.9863H106.145H106.165H106.202H106.24H106.258H106.295H106.333H106.352L106.39 36.9681H106.409H106.445L106.465 36.9498H106.502L106.52 36.9295L106.54 36.9113L106.577 36.893H106.595L106.615 36.8747L106.634 36.8545L106.67 36.8362L106.691 36.8179L106.709 36.7997L106.727 36.7794L106.745 36.7611H106.766L106.784 36.7429L106.802 36.7246L106.82 36.7043L106.841 36.6861L106.859 36.6495V36.6292L106.877 36.611L106.895 36.5927H106.916V36.5745L106.934 36.5542L106.952 36.5359V36.5177L106.971 36.4994V36.4791L106.991 36.4608V36.4426L107.009 36.4243V36.404L107.027 36.3858V36.3675Z" fill="white"/>
<path d="M100.561 43.4395H100.617L100.672 43.4212H100.729L100.786 43.4029L100.822 43.3826L100.879 43.3644H100.936L100.973 43.3461L101.029 43.3279L101.068 43.3076L101.104 43.2893L101.143 43.2711L101.179 43.2528L101.218 43.2142L101.255 43.196L101.293 43.1777L101.33 43.1392L101.368 43.1209L101.386 43.1027L101.423 43.0641L101.462 43.0458L101.48 43.0073L101.518 42.9708L101.537 42.9525L101.555 42.914L101.573 42.8775L101.612 42.8572L101.63 42.8206L101.648 42.7821L101.668 42.7456L101.687 42.707L101.705 42.6705L101.723 42.632L101.741 42.5954V42.5569L101.762 42.5204L101.78 42.4818V42.4453L101.798 42.4067V42.3702L101.817 42.3317V42.2952L101.837 42.2566V42.2018L101.855 42.1633V42.1268V42.0882V42.0517V41.9949L101.873 41.9584V41.8833V41.7879V41.7129V41.6195L101.855 41.5445V41.4511V41.3761L101.837 41.301L101.817 41.2077V41.1326L101.798 41.0575L101.78 40.9825L101.762 40.9074V40.8323L101.741 40.7755L101.723 40.739V40.7005L101.705 40.6639V40.6436V40.6071L101.687 40.5686V40.5503L101.668 40.5138V40.4935L101.648 40.457V40.4387L101.63 40.4002V40.3819V40.3637L101.612 40.3434V40.3251V40.2886L101.593 40.2683V40.25V40.2318H101.573V40.2135V40.1932L101.555 40.175V40.1567V40.1385H101.537V40.1182V40.0999V40.0816H101.518V40.0634V40.0431V40.0248L101.498 40.0066V39.9883L101.48 39.968V39.9498V39.9315L101.462 39.893V39.8747L101.443 39.8564V39.8382L101.423 39.7996V39.7814V39.7631L101.405 39.7246L101.386 39.7063V39.6698L101.368 39.6312V39.613L101.348 39.5744V39.5379L101.33 39.4994L101.311 39.4811V39.4446L101.293 39.406L101.273 39.3695V39.331L101.255 39.2944L101.236 39.2559L101.218 39.1991V39.1626L101.198 39.124L101.179 39.0875L101.161 39.0307L101.143 38.9942V38.9556L101.123 38.8988L101.104 38.8623L101.086 38.8055L101.068 38.769L101.048 38.7121L101.029 38.6736L101.011 38.6188V38.562L100.993 38.5235L100.954 38.4119L100.918 38.3003L100.879 38.2049L100.843 38.0933L100.804 37.9797L100.768 37.8681L100.711 37.7545L100.672 37.6247L100.636 37.511L100.597 37.3792L100.561 37.2676L100.504 37.1357L100.467 37.0241L100.429 36.8922L100.374 36.7604L100.335 36.6305L100.279 36.4986L100.242 36.3668L100.185 36.2349L100.149 36.105L100.11 35.9731L100.053 35.8413L99.9601 35.5613L99.8668 35.2975L99.6781 34.7355L99.5848 34.4718L99.4915 34.1918L99.3981 33.928L99.3413 33.7962L99.3028 33.6663L99.248 33.5344L99.2094 33.4025L99.1729 33.2727L99.1161 33.1408L99.0796 33.0089L99.0228 32.8771L98.9842 32.7472L98.9477 32.6336L98.9092 32.5017L98.8544 32.3901L98.8158 32.2583L98.7793 32.1467L98.7408 32.0331L98.7043 31.9215L98.6657 31.8078L98.6089 31.6963L98.5724 31.5826L98.5541 31.471L98.5156 31.3777L98.4973 31.3209L98.479 31.2641L98.4588 31.2276L98.4405 31.1708L98.4222 31.114L98.404 31.0774L98.3837 31.0206L98.3654 30.9841V30.9273L98.3472 30.8888L98.3289 30.8522L98.3086 30.7954L98.2904 30.7589L98.2721 30.7204V30.6636L98.2538 30.627L98.2336 30.5885L98.2153 30.552V30.5134L98.197 30.4769L98.1788 30.4383V30.4018L98.1585 30.3633L98.1402 30.3268V30.3085L98.122 30.2699V30.2334L98.1037 30.1949L98.0834 30.1766V30.1381L98.0652 30.1198V30.0833L98.0469 30.063V30.0447V30.0082L98.0286 29.9879V29.9697L98.0083 29.9514V29.9332V29.8946H97.9901V29.8763V29.8581L97.9718 29.8378V29.8195V29.8013L97.9536 29.783V29.7648V29.7445H97.9353V29.7262V29.7079L97.8785 29.5395L97.8217 29.3894L97.7466 29.219L97.6898 29.0688L97.635 28.9187L97.56 28.7503L97.5031 28.6002L97.4281 28.45L97.353 28.2999L97.2779 28.1498L97.2029 27.9996L97.1278 27.8495L97.0527 27.6993L96.9777 27.5492L96.9026 27.3991L96.8093 27.251L96.7342 27.1008L96.6409 26.969L96.5455 26.8188L96.4704 26.6869L96.3771 26.5368L96.2838 26.4049L96.1905 26.2548L96.0951 26.1249L96.0018 25.9931L95.8902 25.8429L95.7948 25.711L95.7015 25.5812L95.5899 25.4493L95.4763 25.3174L95.383 25.1856L95.2714 25.074L95.1578 24.9421L95.0462 24.8122L94.9326 24.6986L94.821 24.5667L94.7073 24.4552L94.5958 24.3233L94.4821 24.2117L94.3503 24.0981L94.2387 23.9662L94.1068 23.8546L93.9952 23.741L93.8633 23.6294L93.7314 23.5178L93.6016 23.4225L93.4697 23.3109L93.3378 23.1972L93.206 23.1039L93.0761 22.9923L92.9442 22.897L92.8124 22.8036L92.6825 22.6921L92.5324 22.5967L92.4005 22.5034L92.2504 22.41L92.1753 22.3735L92.157 22.3532L92.1367 22.335L92.1185 22.3167L91.9683 22.2234L91.8385 22.1483L91.7066 22.053L91.5565 21.9596L91.4246 21.8663L91.2745 21.773L91.1426 21.6776L90.9925 21.5843L90.8626 21.491L90.7125 21.3976L90.5806 21.284L90.4305 21.1907L90.2986 21.0974L90.1484 20.9837L90.0186 20.8904L89.8867 20.7971L89.7366 20.6835L89.6047 20.5901L89.4728 20.4785L89.343 20.3832L89.2111 20.2716L89.0792 20.1783L88.9494 20.0646L88.8175 19.9713L88.6856 19.8597L88.5537 19.7644L88.4239 19.6528L88.3103 19.5392L88.1784 19.4458L88.0668 19.3342L87.9552 19.2389L87.8416 19.1273L87.73 19.0137L87.6164 18.9204L87.5048 18.8088L87.3912 18.6952L87.3344 18.6586L87.2978 18.6018L87.241 18.545L87.1842 18.4902L87.1477 18.4334L87.0909 18.3949L87.0341 18.3401L86.9976 18.2833L86.9408 18.2265L86.9042 18.1697L86.8474 18.1331L86.8109 18.0763L86.7724 18.0195L86.7156 17.9648L86.679 17.9262L86.6405 17.8694L86.604 17.8146L86.5654 17.7578L86.5289 17.7193L86.4721 17.6645L86.4356 17.6077L86.4153 17.5509L86.3788 17.5143L86.3402 17.4575L86.3037 17.4007L86.2651 17.3642L86.2469 17.3074L86.2104 17.2506L86.1718 17.2141L86.1536 17.1573L86.115 17.1004L86.0967 17.0639L86.0602 17.0071L86.0399 16.9503L86.0217 16.9138L85.9852 16.857L85.9649 16.8205L85.9466 16.7637L85.9284 16.7068L85.9101 16.6703L85.8898 16.6135H85.8715V16.6318H85.8533V16.65H85.835V16.6703H85.8147V16.6886H85.7965V16.7068H85.7782L85.76 16.7251L85.7397 16.7454L85.7214 16.7637L85.7031 16.7819L85.6849 16.8002L85.6666 16.8205L85.6463 16.8387L85.6281 16.857L85.6098 16.8752L85.5916 16.8955L85.5713 16.9138L85.553 16.932L85.5347 16.9503L85.5165 16.9706L85.4962 16.9889L85.4779 17.0254L85.4597 17.0457L85.4414 17.0639L85.4211 17.1004L85.4029 17.1207L85.3846 17.139L85.3663 17.1755L85.3278 17.1958L85.3095 17.2323L85.2913 17.2506L85.271 17.2891L85.2527 17.3257L85.2162 17.3642L85.1959 17.3825L85.1777 17.421L85.1594 17.4575L85.1209 17.494L85.1026 17.5326L85.0843 17.5691L85.0661 17.6077L85.0275 17.6442L85.0093 17.6827L84.991 17.7193L84.9707 17.7578L84.9342 17.7943L84.9159 17.8511L84.8956 17.8897L84.8774 17.9262L84.8409 17.983L84.8206 18.0195L84.8023 18.0763L84.7841 18.1149L84.7455 18.1697L84.7273 18.2082L84.709 18.265L84.6907 18.3198L84.6522 18.3766L84.6339 18.4152L84.6157 18.4699L84.5954 18.5268L84.5771 18.5836L84.5406 18.6404L84.5203 18.6952L84.502 18.752L84.4838 18.827L84.4655 18.8838L84.4452 18.9386L84.427 18.9954L84.3905 19.0705L84.3722 19.1273L84.3519 19.2024L84.3336 19.2592L84.3154 19.3342L84.2971 19.389L84.2768 19.4641L84.2586 19.5392L84.2403 19.596V19.671L84.2221 19.7461L84.2018 19.8212L84.1835 19.8962L84.1652 19.9713L84.147 20.0464V20.1215L84.1267 20.1965L84.1084 20.2899L84.0902 20.3649V20.44L84.0719 20.5333V20.6084L84.0516 20.7037L84.0334 20.7788V20.8721V20.9472L84.0151 21.0405V21.1339L83.9969 21.2272V21.3226V21.4159V21.491L83.9766 21.5843V21.6776V21.773V21.8663V21.9596V22.0347V22.128V22.2234V22.3167L83.9969 22.41V22.4851V22.5784L84.0151 22.6718V22.7671V22.8605L84.0334 22.9355V23.0289L84.0516 23.1222L84.0719 23.2175V23.2926L84.0902 23.3859L84.1084 23.4793V23.5543L84.1267 23.6477L84.147 23.741L84.1652 23.8363L84.1835 23.9114L84.2018 24.0047L84.2221 24.0981L84.2403 24.1731L84.2586 24.2665L84.2768 24.3415L84.2971 24.4369L84.3154 24.5302L84.3519 24.6053L84.3722 24.6986L84.3905 24.7737L84.427 24.867L84.4452 24.9421L84.4838 25.0354L84.502 25.1308L84.5406 25.2058L84.5589 25.2992L84.5954 25.3742L84.6157 25.4493L84.6522 25.5426L84.6907 25.6177L84.709 25.711L84.7455 25.7861L84.7841 25.8815L84.8206 25.9565L84.8591 26.0316L84.8956 26.1249L84.9342 26.2L84.9707 26.2751L85.0093 26.3684L85.0458 26.4435L85.0843 26.5185L85.1209 26.6119L85.1594 26.6869L85.1959 26.762L85.2527 26.8371L85.2913 26.9121L85.3278 27.0055L85.3846 27.0805L85.4211 27.1556L85.4597 27.2307L85.5165 27.3057L85.553 27.3808L85.6098 27.4559L85.6463 27.531L85.7031 27.606L85.7397 27.6993L85.7965 27.7744L85.8533 27.8495L85.8898 27.9063L85.9466 27.9814L86.0034 28.0564L86.0602 28.1315L86.115 28.2066L86.1536 28.2816L86.2104 28.3567L86.2651 28.4318L86.322 28.4886L86.3788 28.5637L86.4356 28.6387L86.4904 28.7138L86.5472 28.7686L86.604 28.8436L86.6608 28.9187L86.7358 28.9938L86.7906 29.0506L86.8474 29.1257L86.9042 29.1825L86.959 29.2575L87.0341 29.3143L87.0909 29.3894L87.1477 29.4442L87.2228 29.5193L87.2796 29.5761L87.3547 29.6511L87.4094 29.7079L87.4845 29.783L87.5413 29.8378L87.6164 29.8946L87.6732 29.9697L87.7483 30.0265L87.8051 30.0833L87.8801 30.1381L87.9552 30.1949L88.01 30.2699L88.0851 30.3268L88.1236 30.345V30.3633H88.1419V30.3836H88.1601L88.1784 30.4018L88.1987 30.4201H88.2169L88.2352 30.4383V30.4586H88.2535L88.2737 30.4769L88.292 30.4952L88.3103 30.5134H88.3285L88.3488 30.5337L88.3671 30.552L88.3853 30.5702H88.4036L88.4239 30.5885L88.4421 30.6088L88.4604 30.627L88.4787 30.6453L88.499 30.6636L88.5172 30.6838L88.5355 30.7021L88.574 30.7204L88.5923 30.7386L88.6105 30.7589L88.6491 30.7772L88.6673 30.7954L88.6856 30.834L88.7242 30.8522L88.7424 30.8705L88.7789 30.8888L88.7992 30.909L88.8357 30.9456L88.8926 30.9841L88.9494 31.0389L89.0041 31.0957L89.0792 31.1322L89.136 31.189L89.2111 31.2458L89.2679 31.3027L89.343 31.3777L89.418 31.4325L89.4931 31.4893L89.5682 31.5461L89.6432 31.6212L89.7183 31.678L89.7934 31.7531L89.8867 31.8078L89.9618 31.8829L90.0368 31.9397L90.1302 32.0148L90.2052 32.0899L90.2986 32.1649L90.3736 32.2217L90.469 32.2968L90.5623 32.3719L90.6374 32.4469L90.7307 32.522L90.8991 32.6722L91.0878 32.8223L91.2745 32.9724L91.6316 33.2727L91.8182 33.4228L92.0069 33.5709L92.1753 33.7211L92.362 33.8712L92.437 33.9463L92.5324 34.0214L92.6257 34.0964L92.719 34.1715L92.7941 34.2283L92.8874 34.3034L92.9625 34.3784L93.0579 34.4535L93.1329 34.5103L93.2263 34.5854L93.3013 34.6605L93.3764 34.7173L93.4515 34.7923L93.5265 34.8471L93.6199 34.9039L93.6949 34.979L93.7517 35.0358L93.8268 35.0906L93.9019 35.1474L93.9769 35.2042L94.0317 35.261L94.1068 35.3158L94.1636 35.3726L94.2387 35.4294L94.2955 35.4862L94.3503 35.5227L94.3888 35.541L94.4071 35.5795L94.4456 35.5978L94.4639 35.6161L94.4821 35.6364L94.5207 35.6546L94.5389 35.6911L94.5572 35.7114L94.5958 35.7297L94.614 35.7479L94.6323 35.7662L94.6708 35.7865L94.6891 35.8048L94.7073 35.823L94.7256 35.8413L94.7459 35.8616L94.7642 35.8798H94.7824L94.8007 35.8981L94.821 35.9163L94.8392 35.9366L94.8575 35.9549H94.8757L94.896 35.9731V35.9914H94.9143L94.9326 36.0117H94.9508V36.03H94.9711V36.0482H94.9894V36.0665H95.0076V36.0847H95.0259L95.0462 36.105H95.0644L95.0827 36.1233L95.1212 36.1801L95.2146 36.2552L95.3079 36.3302L95.4012 36.4236L95.4966 36.4986L95.5899 36.5737L95.6832 36.667L95.7766 36.7421L95.8699 36.8354L95.9653 36.9105L96.0586 37.0059L96.1519 37.0992L96.227 37.1743L96.3203 37.2676L96.4157 37.3426L96.4907 37.436L96.5841 37.5293L96.6591 37.6247L96.7525 37.718L96.8275 37.7931L96.9209 37.8864L96.9959 37.9797L97.0893 38.0751L97.1643 38.1684L97.2597 38.2617L97.3348 38.3551L97.4098 38.4504L97.4849 38.5437L97.5782 38.6371L97.6533 38.7304L97.7284 38.844L97.8034 38.9374L97.8785 39.0307L97.9536 39.124L98.0286 39.2376L98.1037 39.331L98.1788 39.4243L98.2538 39.5196L98.3289 39.6312L98.404 39.7246L98.4588 39.8382L98.5338 39.9315L98.6089 40.0431L98.684 40.1385L98.7408 40.25L98.8158 40.3434L98.8909 40.457L98.9477 40.5503L99.0228 40.6639L99.0796 40.7755L99.1344 40.8689L99.2094 40.9825L99.2663 41.0941L99.3413 41.1874L99.3981 41.301L99.4529 41.4126L99.5097 41.5262H99.528V41.5445V41.5627H99.5483V41.583V41.6013H99.5665V41.6195L99.5848 41.6378V41.6581L99.603 41.6764V41.6946H99.6233V41.7129L99.6416 41.7514L99.6599 41.7879L99.6781 41.8265L99.6984 41.863L99.7167 41.9016L99.7349 41.9381L99.7735 41.9766L99.7917 42.0334L99.81 42.07L99.8485 42.1268L99.8668 42.1633L99.8851 42.2201L99.9236 42.2566L99.9419 42.3134L99.9987 42.4067L100.053 42.5021L100.11 42.6137L100.167 42.707L100.185 42.7638L100.224 42.8024L100.242 42.8572L100.26 42.8957L100.299 42.9525L100.317 42.989L100.335 43.0276L100.374 43.0641L100.392 43.1209L100.411 43.1574L100.429 43.196L100.449 43.2142L100.467 43.2528L100.486 43.2893V43.3076L100.504 43.3279V43.3461H100.524V43.3644V43.3826H100.542V43.4029V43.4212H100.561V43.4395Z" fill="white"/>
<path d="M91.0156 95.7754H107.034V62.0269H91.0156V95.7754Z" fill="black"/>
<path d="M96.347 90.6503C94.0321 90.0071 92.1696 88.2907 91.3418 86.0346L91.3479 86.0366C90.9035 84.939 90.9056 83.7094 91.3499 82.6098H91.3519L92.1614 83.1738L93.0055 83.679L93.884 84.1112L94.7848 84.4865L95.7242 84.805L96.6798 85.0303L97.6374 85.2169L98.6316 85.3123L99.6075 85.3305L100.602 85.292L101.578 85.1804L102.535 84.9937L102.066 84.1477L101.651 83.2672L101.332 82.3481L101.091 81.4087L100.92 80.4531L100.845 79.4772V78.5013L100.938 77.5457L101.109 76.5881L101.578 74.6748L102.14 72.7798L102.758 70.9051L103.472 69.0649L104.26 67.2471L105.122 65.4819L106.041 63.7391L107.035 62.0308V95.7793L106.416 95.1422L105.725 94.5599L105.008 94.0162L104.241 93.5475L103.454 93.1154L102.645 92.74L101.801 92.4397L96.343 90.6584L96.347 90.6503Z" fill="white"/>
<path d="M9.82031 90.4902H98.3467V39.5956H9.82031V90.4902Z" fill="black"/>
<path d="M89.659 45.0432C88.3078 44.2641 86.7801 43.8522 85.2198 43.8542C83.7103 43.8542 82.2252 44.2377 80.9044 44.9701L80.8942 44.964C80.314 45.2866 79.7723 45.6762 79.2853 46.1286L79.2671 46.1428L75.5339 49.5554L71.7643 52.895L67.9378 56.198L64.0545 59.4239L60.1164 62.6133L56.1378 65.7277L52.1226 68.7852L48.0527 71.7859L43.9442 74.7319L41.5257 76.3834L39.087 77.9761L36.5894 79.4957L34.0594 80.9606L31.4868 82.3483L28.8817 83.6793L26.234 84.9189L23.5538 86.118L20.8514 87.2258L18.6926 88.0312L16.5197 88.7819L14.3042 89.421L12.0704 90.0013L9.82031 90.4902L10.5345 85.9881L12.7663 85.4241L14.9595 84.787L17.1385 84.0749L19.2952 83.2674L21.8841 82.1982L24.4547 81.0539L26.9867 79.8528L29.4985 78.5766L31.9758 77.2274L34.4145 75.8376L36.8167 74.3565L39.1621 72.8369L41.4872 71.2422L45.5571 68.3348L49.5723 65.3888L53.5307 62.3496L57.4708 59.2738L61.3338 56.1412L65.1785 52.9518L68.9685 49.6873L72.7016 46.3863L76.3779 43.0102L76.3921 43.0021C77.1327 42.3184 77.9524 41.7259 78.8329 41.239L78.843 41.2451C80.7928 40.1637 82.986 39.5976 85.2178 39.5956C87.5287 39.5936 89.797 40.2022 91.7955 41.3587L91.7914 41.3668C93.4977 42.3549 94.9565 43.7183 96.0663 45.3495L96.0805 45.3577C99.0873 49.7908 99.1035 55.6035 96.121 60.0529L96.1089 60.0468C94.8226 61.9621 93.0574 63.504 90.99 64.5225V64.5266L89.1538 65.2955L87.2974 65.9711L85.9097 66.4966L84.5219 67.0769L83.1909 67.7342L81.8762 68.4464L81.8681 68.4342C80.1517 69.4263 78.703 70.8202 77.646 72.496L77.6318 72.4859C76.7147 73.9406 76.4875 75.726 77.015 77.3613L77.0394 77.3633C77.9321 80.1348 80.0015 82.3706 82.6939 83.4723L82.6837 83.4926L82.1785 87.808C77.8144 86.4325 74.3856 83.0239 72.9856 78.6659H72.9593C72.0483 75.8275 72.4399 72.7334 74.0305 70.2156L74.0447 70.2237C75.4731 67.9594 77.4309 66.0787 79.75 64.7416L79.756 64.7518L81.2392 63.9443L82.7771 63.1936L84.3332 62.5383L85.9299 61.9377L87.5591 61.3554L89.1721 60.6798L89.1782 60.6676C90.5477 59.9778 91.7184 58.9451 92.5725 57.671L92.5847 57.6791C94.6014 54.6723 94.5872 50.7423 92.5543 47.7457L92.5401 47.7416C91.7934 46.6379 90.8074 45.7188 89.655 45.0513L89.659 45.0432Z" fill="#E4A197"/>
<path d="M93.6359 77.0835C84.7778 64.7276 71.866 55.8715 57.1484 52.0613V52.0694L60.3926 48.5432L62.5696 49.2371L64.7446 49.9877L66.8851 50.8135L68.985 51.7143L71.0666 52.6699L73.1117 53.7209L75.1203 54.8084L77.0904 55.9912L79.0401 57.2106L80.9168 58.505L82.7733 59.8745L84.5749 61.2805L86.3198 62.7636L88.0261 64.3015L89.6776 65.8962L91.2723 67.5275L92.8102 69.2358L94.3116 70.9786L95.7358 72.762L97.0871 74.6184L93.6359 77.0957" fill="#E4A197"/>
<path d="M16.5859 35.6543H45.9662V13.9655H16.5859V35.6543Z" fill="black"/>
<path d="M22.7983 14.081L22.7963 14.0749C24.3809 13.799 26.01 14.0567 27.4282 14.8114L27.4424 14.7891C29.7696 16.2945 32.7683 16.2925 35.0954 14.7871L35.1218 14.8114C36.54 14.0567 38.1671 13.799 39.7497 14.0729L39.7476 14.079C43.9576 14.9636 46.6641 19.0721 45.8059 23.28H45.7978C44.6758 29.4762 39.8187 34.3171 33.6204 35.4209V35.5122C25.6286 36.6118 18.1907 31.217 16.7522 23.28H16.7441C15.8879 19.0741 18.5924 14.9676 22.7983 14.081Z" fill="white"/>
<path d="M36.5117 59.0859H57.5979V34.0982H36.5117V59.0859Z" fill="black"/>
<path d="M52.8902 34.673C55.8665 35.4703 57.8427 38.2905 57.5728 41.3602C57.4552 42.7479 56.879 44.0606 55.9315 45.0852L55.9254 45.0791C53.6287 46.7103 52.6122 49.6177 53.3933 52.3263H53.3974C53.4988 53.7141 53.1357 55.0937 52.3627 56.2522L52.3566 56.2481C50.6523 58.8167 47.3513 59.7926 44.5271 58.559L44.521 58.5732C39.5624 56.6113 36.3629 51.7542 36.5171 46.4243V46.4162C36.6286 42.4619 38.5804 38.7875 41.7901 36.4807C45.0039 34.1739 49.1083 33.4982 52.8902 34.6547V34.673Z" fill="white"/>
<path d="M5.12891 59.5918H26.2334V34.604H5.12891V59.5918Z" fill="black"/>
<path d="M5.15465 41.8788C4.87872 38.8091 6.84674 35.9849 9.81906 35.1794L9.82109 35.1673C13.4771 34.0392 17.4497 34.6215 20.6269 36.7559C23.8042 38.8903 25.8473 42.3455 26.1841 46.1598L26.182 46.1679C26.6811 51.7473 23.4552 56.992 18.2511 59.0675L18.2471 59.0574C15.4269 60.293 12.1279 59.3272 10.4176 56.7668L10.3953 56.7729C9.6182 55.6164 9.24894 54.2307 9.34633 52.8368L9.37473 52.8287C10.1518 50.1181 9.12518 47.2148 6.82239 45.5896L6.81022 45.6018C5.85867 44.5793 5.27435 43.2706 5.15262 41.8788H5.15465Z" fill="white"/>
<path d="M17.1172 98.291H92.1758V27.1745H17.1172V98.291Z" fill="black"/>
<path d="M28.4692 39.1833H28.4652L29.9848 28.3206L29.999 28.3166C30.0903 27.6633 30.6483 27.1764 31.3097 27.1764C31.9691 27.1764 32.527 27.6633 32.6183 28.3166L32.6143 28.3206L34.1481 39.2827H34.1643C34.2232 39.7007 34.4768 40.0659 34.8481 40.2647L34.846 40.2911L44.6111 45.5195L44.6151 45.5114C45.1974 45.8218 45.4591 46.5157 45.2299 47.1345C45.0047 47.7533 44.3534 48.1104 43.7102 47.9704L43.7001 48.0008L34.9962 46.1059L34.9982 46.0957C34.6107 46.0146 34.209 46.1099 33.9006 46.3554C33.5881 46.6029 33.4055 46.9783 33.4015 47.3759L33.3832 47.382L33.4015 49.2202L33.4765 51.0584L33.6429 52.8966L33.8701 54.7347L34.1887 56.5364L34.562 58.336L35.0144 60.1376L35.5379 61.9007L36.1384 63.6456L36.7978 65.3519L37.5262 67.0419L38.3154 68.7117L39.1797 70.3429L40.1171 71.9194L41.093 73.4755L42.1419 74.9952L43.2497 76.458L44.4305 77.8843L45.6519 79.2538L46.926 80.5848L48.257 81.8609L49.6447 83.0803L51.071 84.2429L52.5339 85.3506L54.0555 86.4016L55.6117 87.3775L57.2064 88.2966L58.8396 89.1588L60.5074 89.9461L62.1975 90.6785L63.9037 91.3338L65.6669 91.9161L67.43 92.4233L69.2133 92.8737L71.015 93.2491L72.8349 93.5494L74.6528 93.7725L76.491 93.943L78.3291 94.018H80.1673L82.0237 93.9612L83.8436 93.8293L85.6818 93.6041L87.5038 93.3241L89.3054 92.9671L91.105 92.5349L92.1743 96.6617L90.2996 97.1121L88.4046 97.4874L86.5096 97.7877L84.5964 98.0312L82.6649 98.1813L80.7293 98.2767L78.7978 98.2949L76.8846 98.2199L74.9531 98.088L73.0378 97.881L71.1266 97.601L69.2316 97.244L67.3569 96.8118L65.4802 96.3066L63.64 95.7426L61.8201 95.1055L60.0205 94.3934L58.2574 93.6041L56.5328 92.7601L54.8225 91.8593L53.1547 90.8854L51.5397 89.8345L49.947 88.745L48.4091 87.5824L46.9057 86.363L45.4632 85.0869L44.0734 83.7559L42.7242 82.3682L41.4298 80.9419L40.1901 79.4608L39.0113 77.9208L37.9015 76.3647L36.8343 74.7517L35.8402 73.0819L34.9211 71.3939L34.0385 69.6673L33.2493 67.9225L32.5189 66.1411L31.8615 64.3212L31.263 62.483L30.7375 60.6246L30.2871 58.7499L29.9097 56.8549L29.6095 54.9599L29.368 53.0467L29.2179 51.1152L29.1225 49.1817V47.2684V47.2583C29.1286 46.8647 28.9582 46.4893 28.6579 46.2337C28.3577 45.978 27.96 45.8705 27.5725 45.9375H27.5664L18.6738 47.4936H18.4384C17.8744 47.4936 17.3611 47.1305 17.1805 46.5786C16.9797 45.9496 17.2698 45.27 17.8642 44.9819L17.8602 44.9737L27.7368 40.1957L27.7388 40.1754C28.1324 39.9847 28.4043 39.6155 28.4692 39.1833Z" fill="#E4A197"/>
</svg>
