<svg width="108" height="108" viewBox="0 0 108 108" fill="none" xmlns="http://www.w3.org/2000/svg">
<path d="M0 0.298454H107.051V107.35H0V0.298454Z" fill="#E7E8D5"/>
<path d="M0 0.299158V26.4727L26.1735 0.299158H0Z" fill="#A55450"/>
<path d="M107.045 107.35V81.1761L80.8711 107.35H107.045Z" fill="#A55450"/>
<path d="M0 26.4719L26.1735 0.298454L107.051 81.1761L80.8552 107.35L0 26.4719Z" fill="#E09B91"/>
<path d="M103.399 95.0985C102.828 94.4807 101.984 94.1932 101.154 94.3359C100.326 94.4787 99.6247 95.0312 99.2944 95.804L99.2842 95.7979C98.2667 95.0027 96.819 95.0843 95.8973 95.9876C94.9756 96.8929 94.8696 98.3406 95.6465 99.3704L95.6546 99.3765C94.8635 99.6783 94.2864 100.367 94.1294 101.197C93.9704 102.027 94.2538 102.882 94.8778 103.451L94.8553 103.455L104.51 105.72L104.521 105.722C104.786 105.818 105.085 105.753 105.287 105.555C105.489 105.357 105.558 105.059 105.467 104.792H105.461L103.377 95.1148" fill="white"/>
<path d="M2.5597 1.85746C2.29258 1.7657 1.99488 1.83707 1.79709 2.03894C1.59726 2.24081 1.53405 2.53851 1.62988 2.80563V2.81582L3.8749 12.4688H3.89937C4.47031 13.0927 5.32264 13.3762 6.15458 13.2192C6.98448 13.0601 7.67368 12.4831 7.97547 11.6939L7.97954 11.7021C9.01131 12.479 10.4591 12.3709 11.3624 11.4492C12.2677 10.5296 12.3493 9.07985 11.554 8.06235L11.5479 8.05419C12.3207 7.72183 12.8733 7.02242 13.016 6.19252C13.1588 5.36262 12.8713 4.51845 12.2534 3.94751L12.2371 3.96994L2.53727 1.88601" fill="white"/>
</svg>
