<svg width="108" height="108" viewBox="0 0 108 108" fill="none" xmlns="http://www.w3.org/2000/svg">
<path d="M0 0.0960846H107.766V107.688H0V0.0960846Z" fill="#FDE1C5"/>
<path d="M93.7168 4.74679C94.9958 4.31566 96.3939 4.42652 97.5887 5.05269L97.599 5.04037C99.1018 5.82667 99.9476 7.47112 99.7156 9.14842L99.7054 9.16073C99.5391 10.372 99.0833 11.5237 98.3771 12.5215L98.3648 12.5276C97.4635 13.8005 95.9751 14.5314 94.4148 14.4636L94.4168 14.4677H83.4436H60.9037L60.9222 14.4739C57.9371 14.7675 55.6768 17.2988 55.7261 20.2921C55.7261 21.8339 56.383 23.3018 57.5306 24.3324C58.6803 25.363 60.2139 25.8578 61.7496 25.6935L61.7639 25.7079C60.8914 27.2517 59.405 28.3542 57.6723 28.7402L57.6641 28.7381C56.1346 29.0461 54.5476 28.6868 53.3015 27.7486L53.2994 27.7465C53.1454 27.611 52.9689 27.5063 52.7759 27.4386L52.778 27.4304C52.5706 27.3503 52.3386 27.3831 52.16 27.5125L52.1826 27.5166C50.8646 29.3294 49.2222 30.8855 47.3416 32.1071L47.3252 32.103C44.9437 33.653 42.2522 34.6569 39.4396 35.0449H39.4458C38.9777 32.9776 38.8032 30.8548 38.9305 28.7402L38.9264 28.7422C39.1276 26.5024 39.8318 24.3385 40.9917 22.4108L40.9979 22.4149C41.3284 21.7702 41.3756 21.0168 41.1293 20.3372L41.1313 20.329C41.0779 20.0868 40.9157 19.8835 40.6899 19.7809C40.4641 19.6762 40.2013 19.6865 39.9837 19.8055L39.9673 19.8117C39.4273 19.9636 38.8586 19.978 38.3125 19.8507L38.3166 19.8548C36.8467 19.5694 35.775 18.2986 35.7422 16.802L35.7566 16.7979C36.2 16.9416 36.6763 16.9416 37.1197 16.7979L37.1095 16.7938C38.2284 16.4304 39.2733 15.8761 40.2034 15.1575L40.2177 15.1719C42.7429 13.2175 45.5247 11.6202 48.4872 10.4274L48.4769 10.4172C51.0247 9.39067 53.7449 8.86305 56.4898 8.86305L56.4795 8.88563H83.4436H91.8157L91.8321 8.86305C92.7067 8.71523 93.4848 8.22457 93.9939 7.49986L94.0021 7.48959C94.1212 7.30893 94.152 7.08515 94.0863 6.87985L94.0802 6.86548C93.8297 6.44667 93.569 6.03197 93.3021 5.62342L93.298 5.65011L92.9797 5.01163L93.686 4.76116" fill="#20699C"/>
<path d="M30.058 29.9433C30.4892 26.8741 30.0703 23.7453 28.8509 20.8958L28.857 20.8999C27.3091 17.2825 24.6361 14.2605 21.2343 12.2773L21.2281 12.2793C19.1936 11.0927 16.964 10.2777 14.6421 9.87117H14.64C14.3321 9.83833 14.0303 9.76852 13.7408 9.66382L13.7531 9.65971C12.9011 9.32713 12.2729 8.59216 12.0799 7.6991H12.0615C11.4784 7.02367 10.6428 6.62333 9.75184 6.59048C8.86084 6.55764 7.99652 6.89638 7.36625 7.52665C6.73598 8.15692 6.39724 9.02123 6.43214 9.91018C6.46499 10.7991 6.86738 11.6347 7.54281 12.2157L7.53871 12.2095C8.43176 12.4005 9.17084 13.0266 9.50343 13.8786L9.50753 13.8868C9.61223 14.1763 9.68204 14.4781 9.71488 14.784L9.72104 14.7902C10.1296 17.108 10.9487 19.3355 12.1395 21.368L12.1354 21.3474C14.1247 24.7431 17.1529 27.4079 20.7764 28.9517L20.7929 28.9661C23.6465 30.1835 26.7794 30.5962 29.8527 30.163L29.8343 30.1712L30.017 30.1486L30.0396 29.9659" fill="#20699C"/>
<path d="M4.42297 94.2824C3.99185 95.5594 4.10271 96.9575 4.72887 98.1503L4.71655 98.1585C5.5049 99.6592 7.14935 100.505 8.83076 100.275L8.84308 100.265C10.0543 100.099 11.2081 99.6428 12.2079 98.9386L12.212 98.9242C13.487 98.023 14.2178 96.5387 14.1521 94.9804H14.1562V84.0215V61.5104L14.1603 61.5268C14.4539 58.5459 16.9894 56.2896 19.9888 56.3389L19.9847 56.3369C21.5285 56.3369 23.0005 56.9918 24.0332 58.1394C25.0638 59.2891 25.5606 60.8206 25.3943 62.3542L25.4087 62.3665C26.9546 61.496 28.0591 60.0117 28.4451 58.2811L28.443 58.2728C28.753 56.7454 28.3917 55.1605 27.4514 53.9164L27.4494 53.9143C27.3159 53.7604 27.2112 53.5838 27.1414 53.3908L27.1353 53.3929C27.0552 53.1855 27.086 52.9535 27.2174 52.7749L27.2195 52.7975C29.0343 51.4815 30.5925 49.8412 31.8161 47.9627L31.812 47.9463C33.362 45.5689 34.368 42.8795 34.7581 40.0689V40.0771C32.6886 39.609 30.5638 39.4345 28.4451 39.5618L28.4471 39.5577C26.2053 39.7569 24.0394 40.4631 22.1095 41.621L22.1116 41.6271C21.467 41.9577 20.7135 42.0049 20.0319 41.7585L20.0237 41.7606C19.7814 41.7072 19.5782 41.543 19.4735 41.3192C19.3708 41.0934 19.3811 40.8306 19.5002 40.615L19.5043 40.5965C19.6583 40.0587 19.6726 39.49 19.5454 38.9439L19.5495 38.948C19.2641 37.4801 17.9912 36.4084 16.4925 36.3776L16.4884 36.392C16.6321 36.8334 16.6321 37.3097 16.4884 37.7531L16.4843 37.7429C16.121 38.8597 15.5666 39.9047 14.846 40.8326L14.8604 40.847C12.9039 43.3701 11.3046 46.1499 10.1098 49.1083L10.0995 49.098C9.07301 51.6417 8.54334 54.3578 8.54334 57.1006L8.56798 57.0883V84.0215V92.3834L8.54334 92.3998C8.39552 93.2723 7.90486 94.0504 7.18015 94.5596L7.16988 94.5678C6.98922 94.6848 6.76544 94.7156 6.56014 94.652L6.54372 94.6458C6.12491 94.3933 5.7102 94.1346 5.30166 93.8677L5.32835 93.8636L4.68986 93.5454L4.43735 94.2516" fill="#20699C"/>
</svg>
