<svg width="107" height="108" viewBox="0 0 107 108" fill="none" xmlns="http://www.w3.org/2000/svg">
<path d="M0 107.299H106.517V0.782272H0V107.299Z" fill="#E4A197"/>
<path d="M43.406 35.0179L43.3492 35.0544L43.3127 35.093L43.2559 35.1112L43.2194 35.1498L43.1808 35.1681L43.124 35.2046L43.0875 35.2249L43.0307 35.2431L42.9942 35.2614L42.9556 35.2796L42.8988 35.2999L42.8623 35.3182H42.8237L42.7872 35.3365H42.7304L42.6939 35.3547H42.6553H42.6188H42.562L42.5235 35.375H42.487H42.4484L42.4119 35.3547H42.3551H42.3186H42.28L42.2435 35.3365H42.2049L42.1684 35.3182H42.1299L42.0933 35.2999L42.0548 35.2796H42.0183L41.9797 35.2614L41.9432 35.2431L41.9047 35.2249L41.8681 35.2046L41.8296 35.1863L41.7931 35.1681L41.7545 35.1498L41.7363 35.1295L41.6997 35.093L41.6612 35.0747L41.6247 35.0544L41.5861 35.0362L41.5679 34.9997L41.5293 34.9814L41.4928 34.9428L41.4542 34.9246L41.436 34.9063L41.3609 34.8313L41.3041 34.7744L41.2493 34.7176L41.1925 34.6608L41.1357 34.6061L41.0789 34.531L41.0424 34.4742L40.9856 34.3991L40.9308 34.3423L40.8922 34.2672L40.8354 34.2104L40.7989 34.1556L40.7604 34.0806L40.7238 34.0238L40.6853 33.967L40.6488 33.9101L40.6305 33.8736L40.6102 33.8554L40.592 33.8168L40.5737 33.7986L40.5555 33.76V33.7417L40.5352 33.7052L40.5169 33.687V33.6667L40.4986 33.6484L40.4804 33.6119V33.5916L40.4601 33.5733L40.4418 33.5551V33.5368L40.4236 33.5165V33.4983V33.48L40.4053 33.4618V33.4415H40.385V33.4232V33.405L40.3668 33.3867V33.3664L40.3485 33.3481V33.3299L40.3302 33.3116V33.2913L40.31 33.2731V33.2548L40.2917 33.2366V33.2163L40.2734 33.198V33.1797L40.2552 33.1615V33.1412L40.2349 33.1229V33.0864L40.2166 33.0661L40.1984 33.0479V33.0113L40.1801 32.9911L40.1598 32.9728V32.9363L40.1416 32.916L40.1233 32.8795L40.105 32.8409L40.0847 32.8227V32.7861L40.0665 32.7476L40.0482 32.7111L40.03 32.6725L40.0097 32.6543L39.9914 32.6157L39.9732 32.5792L39.9549 32.5406L39.9346 32.5041L39.9164 32.4676L39.8981 32.4108L39.8798 32.3722L39.8595 32.3357L39.8413 32.2972L39.823 32.2607L39.8048 32.2039L39.7845 32.1673L39.748 32.1288L39.7297 32.072L39.7094 32.0355L39.6911 31.9786L39.6729 31.9421L39.6161 31.8468L39.5796 31.7352L39.5227 31.6418L39.4659 31.5282L39.4294 31.4349L39.3726 31.3213L39.3158 31.2097L39.261 31.0981L39.2042 31.0027L39.1474 30.8729L39.0906 30.7593L39.0358 30.6477L38.979 30.5341L38.9222 30.4022L38.8654 30.2906L38.8106 30.1587L38.7538 30.0471L38.697 29.9153L38.6219 29.8037L38.5671 29.6718L38.5103 29.5399L38.4353 29.408L38.3785 29.2782L38.2466 29.0327L38.135 28.771L37.8712 28.2455L37.7596 27.9838L37.6278 27.72L37.4959 27.4765L37.4411 27.3447L37.3843 27.2148L37.3092 27.0829L37.2524 26.9693L37.1976 26.8395L37.1408 26.7076L37.0658 26.594L37.009 26.4641L36.9521 26.3505L36.8974 26.2389L36.8406 26.107L36.7838 25.9955L36.7269 25.8818L36.6722 25.7702L36.6154 25.6566L36.5768 25.545L36.522 25.4497L36.4652 25.3381L36.4084 25.2245L36.3719 25.1312L36.3151 25.0378L36.2765 24.9445L36.24 24.8877L36.2217 24.8512L36.2015 24.7944L36.1832 24.7558L36.1649 24.701L36.1467 24.6625L36.1081 24.626L36.0899 24.5691L36.0716 24.5306L36.0513 24.4941L36.0331 24.4555L36.0148 24.4008L35.9965 24.3622L35.9783 24.3257L35.958 24.2871L35.9397 24.2506L35.9215 24.2121L35.9032 24.1755L35.8829 24.1553L35.8647 24.1187L35.8464 24.0802V24.0437L35.8281 24.0051L35.8079 23.9869L35.7896 23.9503L35.7713 23.93V23.8935L35.7531 23.8753L35.7328 23.8367V23.8185L35.7145 23.7819L35.6963 23.7617V23.7434L35.678 23.7251V23.7069L35.6577 23.6683V23.6501L35.6395 23.6318V23.6115H35.6212V23.5933L35.6029 23.575V23.5567L35.5826 23.5364V23.5182V23.4999H35.5644V23.4817V23.4614L35.5461 23.4431L35.4711 23.293L35.396 23.1428L35.3392 22.9927L35.2641 22.8243L35.2073 22.6742L35.1322 22.524L35.0775 22.3556L35.0206 22.2055L34.9638 22.0371L34.907 21.887L34.8523 21.7165L34.7954 21.5664L34.7386 21.398L34.7021 21.2479L34.6453 21.0795L34.6088 20.9293L34.5702 20.7609L34.5134 20.5925L34.4769 20.4424L34.4384 20.272L34.4201 20.1036L34.3836 19.9352L34.345 19.785L34.3085 19.6166L34.2882 19.4482L34.27 19.2778L34.2334 19.1094L34.2132 18.9593L34.1949 18.7909L34.1766 18.6225L34.1584 18.4541V18.2837L34.1381 18.1153L34.1198 17.9469V17.7785V17.6283L34.1016 17.4599V17.2895V17.1211V16.9527L34.1198 16.7843V16.6139V16.4455L34.1381 16.2771V16.1087L34.1584 15.9403L34.1766 15.7699L34.1949 15.6015L34.2132 15.4513L34.2334 15.2829L34.2517 15.1145L34.2882 14.9461L34.3085 14.7757L34.345 14.6073L34.3633 14.4389L34.4018 14.2705L34.4201 14.1955V14.1752L34.4384 14.1569V14.1204L34.4769 13.952L34.5134 13.7816L34.552 13.6314L34.5702 13.463L34.6088 13.2946L34.6453 13.1262L34.6839 12.9761L34.7021 12.8057L34.7386 12.6373L34.7772 12.4689L34.7954 12.3005L34.834 12.1321L34.8523 11.9616L34.8888 11.7933L34.907 11.6249L34.9456 11.4565L34.9638 11.2881L34.9821 11.1176L35.0024 10.9492L35.0389 10.7808L35.0572 10.6124L35.0775 10.442L35.0957 10.2736L35.114 10.1235L35.1322 9.95508L35.1525 9.78668V9.61828L35.1708 9.46814L35.189 9.29772V9.14758L35.2073 8.97919V8.82905V8.67891V8.51051L35.2276 8.36037V8.21024V8.07836V8.00329L35.2073 7.92822V7.85315V7.77808V7.70504V7.64823V7.57316V7.4981L35.189 7.42303V7.36622V7.29115L35.1708 7.23434V7.15927V7.0842L35.1525 7.02942V6.97261L35.1322 6.89755V6.84074L35.114 6.76567V6.70886L35.0957 6.65408V6.59727L35.0775 6.5222L35.0572 6.46539V6.41061L35.0389 6.3538L35.0206 6.297L35.0024 6.24019V6.18541L34.9821 6.1286L34.9638 6.07179L34.9456 6.03527L34.9273 5.97846L34.907 5.92165L34.8888 5.88513L34.8705 5.82832L34.8523 5.77151L34.834 5.73499L34.8137 5.67818H34.834H34.8523H34.8705H34.8888L34.907 5.65992H34.9273H34.9456H34.9638H34.9821H35.0024H35.0206H35.0389H35.0775H35.0957H35.114H35.1322H35.1525H35.189H35.2073H35.2459H35.2641L35.3027 5.67818H35.3209H35.3574H35.3777H35.4143H35.4528H35.4711L35.5076 5.69645H35.5461H35.5826H35.6212H35.6577L35.6963 5.7147H35.7328H35.7713L35.8079 5.73499H35.8464L35.8829 5.75325H35.9215H35.958L35.9965 5.77151H36.0513L36.0899 5.78977H36.1264L36.1832 5.81006L36.2217 5.82832H36.2765L36.3151 5.84658L36.3719 5.86484H36.4084L36.4652 5.88513L36.5017 5.90339L36.5585 5.92165L36.6154 5.93991L36.6519 5.9602L36.7087 5.97846L36.7655 5.99672L36.8223 6.01498L36.8588 6.03527L36.9156 6.05353L36.9724 6.07179L37.0272 6.09005L37.084 6.11034L37.1408 6.14686L37.1976 6.16512L37.2524 6.18541L37.3092 6.22193L37.366 6.24019L37.4208 6.26048L37.4776 6.297L37.5344 6.33554L37.5912 6.3538L37.646 6.39033L37.7211 6.41061L37.7779 6.44713L37.8347 6.48568L37.8915 6.5222L37.9666 6.55872L38.0214 6.59727L38.0782 6.63379L38.135 6.67234L38.2101 6.70886L38.2669 6.74741L38.3419 6.78393L38.3967 6.84074L38.4535 6.87928L38.5286 6.91581L38.5854 6.97261L38.6605 7.00913L38.7153 7.06594L38.7903 7.10449L38.8471 7.15927L38.9222 7.21608L38.9973 7.25463L39.0541 7.30941L39.1291 7.36622L39.186 7.42303L39.261 7.47984L39.3361 7.53462L39.3909 7.60969L39.4659 7.66649L39.541 7.7233L39.5978 7.77808L39.6729 7.85315L39.7297 7.90996L39.8048 7.96677L39.8595 8.04184L39.9346 8.09865L39.9914 8.17372L40.0665 8.22849L40.1233 8.28531L40.1801 8.36037L40.2349 8.43544L40.31 8.49225L40.3668 8.56732L40.4236 8.62413L40.4804 8.6992L40.5352 8.77427L40.592 8.82905L40.6488 8.90411L40.7056 8.97919L40.7604 9.05425L40.8172 9.11106L40.874 9.18613L40.9308 9.2612L40.9673 9.33627L41.0241 9.41133L41.0789 9.48641L41.1357 9.56147L41.1743 9.63654L41.229 9.71161L41.2676 9.78668L41.3244 9.86175L41.3609 9.93682L41.4177 10.0119L41.4542 10.087L41.5111 10.162L41.5496 10.2371L41.5861 10.3122L41.6429 10.3872L41.6795 10.4806L41.718 10.5556L41.7545 10.6307L41.8113 10.7058L41.8499 10.7991L41.8864 10.8742L41.9249 10.9492L41.9615 11.0426L42 11.1176L42.0365 11.1927L42.0751 11.2881L42.0933 11.3631L42.1299 11.4382L42.1684 11.5315L42.2049 11.6066L42.2435 11.6999L42.2617 11.775L42.2983 11.8683L42.3186 11.9434L42.3551 12.0367L42.3936 12.1118L42.4119 12.2071L42.4484 12.2822L42.4687 12.3755L42.487 12.4506L42.5235 12.5439L42.5438 12.619L42.562 12.7123L42.5985 12.8057L42.6188 12.8807L42.6371 12.9761L42.6553 13.0694L42.6736 13.1445L42.6939 13.2378L42.7122 13.3311L42.7304 13.4062L42.7487 13.5016L42.769 13.5949L42.7872 13.67L42.8055 13.7633L42.8237 13.8566L42.844 13.9317V14.025L42.8623 14.1204L42.8806 14.2137V14.307L42.8988 14.3821L42.9191 14.4754V14.5708L42.9374 14.6641V14.7392L42.9556 14.8325V14.9259V15.0212L42.9739 15.1145V15.2079V15.2829V15.3763L42.9942 15.4696V15.5649V15.6583V15.7333V15.8267V15.92V16.0154V16.1087V16.202V16.2953L42.9739 16.3704V16.4637V16.5591V16.6524L42.9556 16.7458V16.8391L42.9374 16.9142V16.971V16.9892V17.0095V17.0278V17.046V17.0643V17.0846V17.1028V17.1211L42.9191 17.1394V17.1597V17.1779V17.1962V17.2144V17.2347V17.253V17.2712V17.3098V17.3281L42.8988 17.3463V17.3849V17.4031V17.4214V17.4599V17.4782V17.5147L42.8806 17.5533V17.5715V17.6101V17.6466V17.6648V17.7034L42.8623 17.7399V17.7785V17.815V17.8901L42.844 17.9651V18.0402V18.1153L42.8237 18.2086V18.2837L42.8055 18.379V18.4723L42.7872 18.5474V18.6407V18.7341L42.769 18.8477V18.941L42.7487 19.0343V19.148L42.7304 19.2413V19.3529L42.7122 19.4482L42.6939 19.5598V19.6734L42.6736 19.785V19.8987L42.6553 20.0102V20.1239L42.6371 20.2354V20.347L42.5985 20.5722L42.5803 20.8177L42.562 21.0429L42.5235 21.5116L42.5052 21.7551L42.487 21.9803L42.4484 22.2238L42.4301 22.449V22.5626L42.4119 22.6742V22.806L42.3936 22.9176L42.3733 23.0313V23.1246L42.3551 23.2362V23.3498L42.3368 23.4614V23.5567L42.3186 23.6683V23.7819L42.2983 23.8753V23.9686L42.28 24.0802V24.1755L42.2617 24.2689V24.3622L42.2435 24.4555V24.5509V24.626L42.2252 24.7193V24.7944L42.2049 24.8877V24.9628V25.0378L42.1867 25.1129V25.1494V25.1697V25.2062L42.1684 25.2448V25.2813V25.3198V25.3381V25.3746V25.4132V25.4314L42.1502 25.47V25.4882V25.5248V25.545V25.5633V25.5998V25.6201V25.6384L42.1299 25.6749V25.6952V25.7134V25.7317V25.75V25.7702V25.7885V25.8068V25.825V25.8453L42.1116 25.8636V25.8818V25.9001V25.9204V25.9386V25.9752V26.032L42.0933 26.1639V26.2957L42.0751 26.4073V26.5392L42.0548 26.6508V26.7827V26.9145L42.0365 27.0261V27.158V27.2899V27.4015V27.5334V27.6449V27.7768V27.9087V28.0203V28.1522V28.284L42.0548 28.3956V28.5275V28.6391L42.0751 28.771V28.9029V29.0144L42.0933 29.1463V29.2579L42.1116 29.3898L42.1299 29.5217V29.6333L42.1502 29.7651L42.1684 29.8787L42.1867 30.0086V30.1222L42.2049 30.2521L42.2252 30.3839L42.2435 30.4976L42.2617 30.6274L42.28 30.741L42.2983 30.8729L42.3368 30.9845L42.3551 31.1164L42.3733 31.228L42.3936 31.3598L42.4301 31.4714L42.4484 31.6033L42.4687 31.7169L42.5052 31.8468L42.5235 31.9604L42.562 32.0923L42.5985 32.2039L42.6188 32.3175L42.6553 32.4473L42.6939 32.5609L42.7122 32.6908L42.7487 32.8044L42.7872 32.9363V32.9545L42.8055 32.9728V32.9911V33.0113V33.0296H42.8237V33.0479V33.0661V33.0864L42.844 33.1047V33.1412L42.8623 33.1797V33.2163L42.8806 33.2548L42.8988 33.2913V33.3299L42.9191 33.3867L42.9374 33.4232L42.9556 33.48V33.5165L42.9739 33.5733L42.9942 33.6302L43.0124 33.687L43.0307 33.7803L43.0692 33.8919L43.1058 34.0055L43.124 34.1171L43.1626 34.2307L43.1808 34.2672L43.1991 34.324L43.2194 34.3808V34.4356L43.2376 34.4742L43.2559 34.531L43.2742 34.5675V34.6243L43.2944 34.6608L43.3127 34.6994V34.7562L43.331 34.7927V34.811L43.3492 34.8495V34.8678V34.886L43.3695 34.9063V34.9246V34.9428L43.3878 34.9611V34.9814V34.9997V35.0179H43.406Z" fill="#E4A197"/>
<path d="M34.233 44.1934L34.2695 44.1366L34.3081 44.1L34.3446 44.0432L34.3649 44.0067L34.3831 43.9499L34.4196 43.9113L34.4399 43.8748L34.4582 43.818L34.4765 43.7815L34.4947 43.7429L34.515 43.6861L34.5333 43.6496V43.6111L34.5515 43.5563V43.5177L34.5698 43.4812V43.4427V43.3859L34.5901 43.3493V43.3108V43.2743V43.2357L34.5698 43.1992V43.1424V43.1059V43.0673L34.5515 43.0308V42.9923L34.5333 42.9557V42.9172L34.515 42.8807L34.4947 42.8421V42.8056L34.4765 42.7671L34.4582 42.7305L34.4399 42.692L34.4196 42.6555L34.4014 42.6169L34.3831 42.5804L34.3649 42.5418L34.3446 42.5236L34.3081 42.4871L34.2898 42.4485L34.2695 42.412L34.2513 42.3734L34.2147 42.3552L34.1965 42.3166L34.1762 42.2801L34.1397 42.2416L34.1214 42.2233L34.0646 42.1482L33.9895 42.0914L33.9327 42.0367L33.8759 41.9798L33.8211 41.923L33.7461 41.8662L33.6893 41.8114L33.6142 41.7729L33.5574 41.7161L33.4823 41.6796L33.4255 41.6228L33.3707 41.5862L33.2956 41.5477L33.2388 41.5112L33.182 41.4726L33.1252 41.4361L33.0887 41.4178L33.0704 41.3976L33.0319 41.3793L33.0136 41.361L32.9771 41.3428H32.9568L32.9203 41.3225L32.902 41.3042L32.8818 41.286H32.8635L32.827 41.2677H32.8067L32.7884 41.2474L32.7702 41.2292H32.7519L32.7316 41.2109H32.7134L32.6951 41.1926H32.6768H32.6565V41.1723H32.6383H32.62V41.1541H32.6018H32.5815V41.1358H32.5632H32.545V41.1176H32.5267H32.5064L32.4881 41.0973H32.4699L32.4516 41.079H32.4313L32.4131 41.0608H32.3948L32.3766 41.0425H32.3563L32.338 41.0222H32.3015L32.2812 41.0039L32.2629 40.9857H32.2264L32.2061 40.9674L32.1879 40.9471H32.1514L32.1311 40.9289L32.0945 40.9106L32.056 40.8924L32.0377 40.8721H32.0012L31.9627 40.8538L31.9261 40.8356L31.9059 40.8173L31.8693 40.797L31.8308 40.7787L31.7943 40.7605L31.7577 40.7422L31.7192 40.7219L31.6827 40.7037L31.6259 40.6854L31.5873 40.6672L31.5508 40.6469L31.5123 40.6286L31.4757 40.6103L31.4189 40.5921L31.3824 40.5718L31.3439 40.5353L31.2871 40.517L31.2505 40.4967L31.1937 40.4785L31.1572 40.4602L31.0618 40.4034L30.9503 40.3669L30.8569 40.3101L30.7616 40.2533L30.65 40.2167L30.5364 40.1599L30.4248 40.1031L30.3314 40.0483L30.2178 39.9915L30.088 39.9347L29.9744 39.8779L29.8628 39.8231L29.7492 39.7663L29.6173 39.7095L29.5057 39.6527L29.3738 39.5979L29.2622 39.5411L29.1303 39.4661L29.0188 39.4092L28.8869 39.3524L28.755 39.2977L28.6231 39.2226L28.4933 39.1658L28.2478 39.0339L27.9861 38.9223L27.4606 38.6586L27.1988 38.5287L26.9351 38.4151L26.6916 38.2832L26.5597 38.2284L26.4299 38.1716L26.298 38.0966L26.1844 38.0397L26.0546 37.9829L25.9227 37.9282L25.8091 37.8531L25.6792 37.7963L25.5656 37.7395L25.454 37.6847L25.3221 37.6279L25.2105 37.5711L25.0969 37.5143L24.9853 37.4595L24.8717 37.4027L24.7601 37.3459L24.6648 37.3093L24.5532 37.2525L24.4598 37.1957L24.3462 37.1592L24.2529 37.1024L24.1596 37.0639L24.1028 37.0273L24.0662 37.0091L24.0094 36.9888L23.9709 36.9705L23.9161 36.9523L23.8776 36.9137L23.841 36.8955L23.7842 36.8772L23.7457 36.8589L23.7092 36.8386L23.6706 36.8204L23.6341 36.8021L23.5773 36.7839L23.5408 36.7656L23.5022 36.7453L23.4657 36.7271L23.4271 36.7088L23.3906 36.6905L23.3703 36.6702L23.3338 36.652L23.2953 36.6337H23.2587L23.2202 36.6155L23.2019 36.5952L23.1654 36.5769L23.1451 36.5587H23.1086L23.0903 36.5404L23.0518 36.5201H23.0335L22.997 36.5018L22.9767 36.4836H22.9585L22.9402 36.4653H22.9219L22.8834 36.445L22.8651 36.4268H22.8469L22.8266 36.4085H22.8083L22.7901 36.3903H22.7718L22.7515 36.37H22.7333H22.715V36.3517H22.6967L22.6765 36.3335H22.6582L22.5081 36.2584L22.3579 36.1833L22.2078 36.1265L22.0394 36.0514L21.8892 35.9946L21.7391 35.9196L21.5707 35.8648L21.4206 35.808L21.2522 35.7512L21.102 35.6944L20.9519 35.6396L20.7815 35.5828L20.6131 35.526L20.4629 35.4894L20.2945 35.4326L20.1444 35.3961L19.976 35.3576L19.8076 35.3007L19.6575 35.2642L19.487 35.2257L19.3186 35.1892L19.1502 35.1709L19.0001 35.1324L18.8317 35.0958L18.6633 35.0755L18.4929 35.0573L18.3428 35.0208L18.1744 35.0005L18.006 34.9822L17.8376 34.964L17.6692 34.9457H17.4987L17.3303 34.9254L17.1619 34.9071H16.9935H16.8434L16.675 34.8889H16.5046H16.3362H16.1678L15.9994 34.9071H15.829H15.6606L15.4922 34.9254H15.3238L15.1554 34.9457L14.9849 34.964L14.8165 34.9822L14.6664 35.0005L14.498 35.0208L14.3296 35.039L14.1612 35.0755L13.9908 35.0958L13.8224 35.1324L13.654 35.1506L13.4856 35.1892L13.4105 35.2074H13.3902L13.372 35.2257H13.3355L13.1671 35.2642L12.9966 35.3007L12.8465 35.3393L12.6781 35.3576L12.5097 35.3961L12.3596 35.4326L12.1912 35.4712L12.0207 35.4894L11.8523 35.526L11.6839 35.5645L11.5155 35.5828L11.3471 35.6193L11.1767 35.6396L11.0083 35.6761L10.8399 35.6944L10.6715 35.7146L10.5031 35.7512L10.3327 35.7694L10.1643 35.7897L9.99591 35.8262L9.82751 35.8445L9.65709 35.8648L9.48869 35.883L9.33855 35.9013L9.17015 35.9196H9.00176L8.83336 35.9398L8.68322 35.9581L8.51279 35.9764H8.36266L8.19426 35.9946H8.04412H7.89398H7.74385L7.57545 36.0149H7.42531H7.29343L7.21837 35.9946H7.1433H7.06823H6.99316H6.92012H6.86331H6.78824L6.71317 35.9764H6.6381H6.58129H6.50622L6.44942 35.9581H6.37435H6.31957L6.2445 35.9398H6.18769L6.11262 35.9196H6.05581L5.98074 35.9013H5.92393L5.86916 35.883H5.81235L5.73728 35.8648L5.68047 35.8445H5.62569L5.56888 35.8262L5.51207 35.808L5.45526 35.7897L5.40048 35.7694H5.34367L5.28686 35.7512L5.25034 35.7329L5.19354 35.7146L5.13673 35.6944L5.10021 35.6761L5.0434 35.6578L4.98659 35.6396L4.95007 35.6193L4.89326 35.601V35.6193V35.6396V35.6578V35.6761L4.875 35.6944V35.7146V35.7329V35.7512V35.7694V35.7897V35.808V35.8262V35.8445V35.883V35.9013V35.9196V35.9398V35.9764V35.9946V36.0149V36.0514L4.89326 36.0697V36.1082V36.1448V36.1651V36.2016V36.2401V36.2584L4.91152 36.2949V36.3335V36.37V36.4085V36.4268L4.92978 36.4653V36.5018V36.5404L4.95007 36.5952V36.6337L4.96833 36.6702V36.7088V36.7453L4.98659 36.7839V36.8386L5.00485 36.8772L5.02514 36.9137V36.9705L5.0434 37.0091V37.0639L5.06166 37.1024L5.07992 37.1592V37.1957L5.10021 37.2525L5.11847 37.2891L5.13673 37.3459L5.15499 37.4027L5.17528 37.4392L5.19354 37.496L5.2118 37.5528L5.23006 37.5893L5.25034 37.6461L5.2686 37.703L5.28686 37.7598L5.30512 37.8145L5.32541 37.8713L5.36193 37.9282L5.38019 37.9829L5.40048 38.0397L5.437 38.0966L5.45526 38.1534L5.47555 38.2081L5.51207 38.265L5.55062 38.3218L5.56888 38.3786L5.6054 38.4333L5.64395 38.4902L5.66221 38.5652L5.70076 38.622L5.73728 38.6788L5.77583 38.7336L5.81235 38.8087L5.84887 38.8655L5.88742 38.9223L5.92393 38.9974L5.96248 39.0542L5.999 39.1293L6.05581 39.184L6.09436 39.2408L6.13088 39.3159L6.18769 39.3727L6.22421 39.4478L6.28102 39.5026L6.31957 39.5776L6.37435 39.6345L6.43116 39.7095L6.48797 39.7846L6.52449 39.8414L6.58129 39.9165L6.6381 39.9733L6.69491 40.0483L6.74969 40.1234L6.82476 40.1782L6.88157 40.2533L6.93838 40.3283L6.99316 40.3851L7.06823 40.4602L7.12504 40.517L7.18184 40.5921L7.25691 40.6469L7.31372 40.7219L7.38879 40.7787L7.44357 40.8538L7.51864 40.9106L7.57545 40.9674L7.65052 41.0222L7.70733 41.0973L7.7824 41.1541L7.8392 41.2109L7.91427 41.2677L7.98934 41.3225L8.04412 41.3793L8.11919 41.4361L8.19426 41.4929L8.26933 41.5477L8.32614 41.6045L8.40121 41.6613L8.47628 41.7161L8.55134 41.7546L8.62641 41.8114L8.70148 41.8662L8.77655 41.9048L8.85162 41.9616L8.92669 42.0164L9.00176 42.0549L9.07682 42.1117L9.15189 42.1482L9.22696 42.2051L9.30203 42.2416L9.3771 42.2984L9.45217 42.3369L9.52724 42.3734L9.62057 42.4303L9.69564 42.4668L9.7707 42.5053L9.84577 42.5418L9.92084 42.5804L10.0142 42.6372L10.0892 42.6737L10.1643 42.7123L10.2576 42.7488L10.3327 42.7873L10.4078 42.8239L10.5031 42.8421L10.5782 42.8807L10.6533 42.9172L10.7466 42.9557L10.8217 42.9923L10.915 43.0105L10.9901 43.0491L11.0834 43.0856L11.1585 43.1059L11.2518 43.1424L11.3269 43.1809L11.4222 43.1992L11.4973 43.2175L11.5906 43.256L11.6657 43.2743L11.759 43.3108L11.8341 43.3311L11.9274 43.3493L12.0207 43.3859L12.0958 43.4062L12.1912 43.4244L12.2845 43.4427L12.3596 43.4609L12.4529 43.4812L12.5462 43.4995L12.6213 43.5177L12.7166 43.536L12.81 43.5563L12.885 43.5745L12.9784 43.5928L13.0717 43.6111L13.1671 43.6314H13.2421L13.3355 43.6496L13.4288 43.6679H13.5221L13.5972 43.6861L13.6905 43.7064H13.7859L13.8792 43.7247H13.9543L14.0476 43.7429H14.1409H14.2363L14.3296 43.7612H14.4229H14.498H14.5913L14.6847 43.7815H14.78H14.8734H14.9667H15.0418H15.1351H15.2304H15.3238H15.4171L15.5104 43.7612H15.5855H15.6788H15.7742L15.8675 43.7429H15.9608H16.0542L16.1495 43.7247H16.186H16.2043H16.2246H16.2429H16.2611H16.2794H16.2997L16.3179 43.7064H16.3362H16.3544H16.3747H16.393H16.4113H16.4295H16.4498H16.4681H16.4863H16.5249L16.5431 43.6861H16.5614H16.5999H16.6182H16.6365H16.675H16.6933L16.7298 43.6679H16.7683H16.7866H16.8251H16.8617H16.8799H16.9185L16.955 43.6496H16.9935H17.0301H17.1051L17.1802 43.6314H17.2553H17.3303L17.4237 43.6111H17.4987L17.5941 43.5928H17.6874L17.7625 43.5745H17.8558L17.9491 43.5563H18.0628L18.1561 43.536H18.2494L18.363 43.5177H18.4564L18.568 43.4995H18.6633L18.7749 43.4812H18.8885L19.0001 43.4609H19.1137L19.2253 43.4427H19.3389L19.4505 43.4244H19.5621L19.7873 43.3859L20.0328 43.3676L20.258 43.3493L20.7267 43.3108L20.9702 43.2925L21.1954 43.256L21.4388 43.2357L21.664 43.2175H21.7777L21.8892 43.1992L22.0211 43.1809H22.1327L22.2463 43.1607H22.3397L22.4512 43.1424H22.5649L22.6765 43.1241H22.7901L22.8834 43.1059H22.997L23.0903 43.0856H23.1837L23.2953 43.0673H23.3906L23.484 43.0491H23.5773L23.6706 43.0308H23.766L23.841 43.0105H23.9344H24.0094L24.1028 42.9923H24.1778L24.2529 42.974H24.328H24.3665H24.403H24.4213L24.4598 42.9557H24.4964H24.5349H24.5532H24.5897H24.6282L24.6465 42.9375H24.6851H24.7033H24.7398H24.7601H24.7784H24.8149H24.8352L24.8534 42.9172H24.89H24.9103H24.9285H24.9468H24.965H24.9853H25.0036H25.0218H25.0401L25.0604 42.8989H25.0787H25.0969H25.1152H25.1355H25.1537H25.1902H25.2471L25.3789 42.8807L25.5108 42.8624H25.6224H25.7543L25.8841 42.8421H25.9977H26.1296L26.2412 42.8239H26.3731H26.505H26.6166H26.7484H26.8783H26.9919H27.1238H27.2354H27.3672H27.4991L27.6107 42.8421H27.7426H27.8542H27.9861L28.1179 42.8624H28.2295L28.3614 42.8807H28.473L28.6049 42.8989L28.7367 42.9172H28.8483L28.9802 42.9375L29.0938 42.9557L29.2237 42.974H29.3555L29.4671 42.9923L29.599 43.0105L29.7126 43.0308L29.8425 43.0491L29.9561 43.0673L30.088 43.0856L30.1996 43.1241L30.3314 43.1424L30.443 43.1607L30.5749 43.1809L30.6865 43.2175L30.8184 43.2357L30.932 43.256L31.0618 43.2925L31.1755 43.3108L31.3073 43.3493L31.4189 43.3676L31.5508 43.4062L31.6624 43.4427L31.776 43.4609L31.9059 43.4995L32.0195 43.536L32.1514 43.5745H32.1696H32.1879V43.5928H32.2061H32.2264H32.2447V43.6111H32.2629H32.2812H32.3015L32.3198 43.6314H32.3563L32.3948 43.6496H32.4313L32.4699 43.6679L32.5064 43.6861H32.545L32.6018 43.7064L32.6383 43.7247H32.6951L32.7519 43.7429L32.7884 43.7612L32.8452 43.7815L32.902 43.7998L32.9954 43.818L33.107 43.8566L33.2206 43.8931L33.3322 43.9113L33.4458 43.9499L33.5006 43.9682L33.5391 43.9864L33.5959 44.0067H33.6507L33.6893 44.025L33.7461 44.0432L33.8008 44.0615H33.8394L33.8759 44.0818L33.9145 44.1H33.9713L34.0078 44.1183H34.026L34.0646 44.1366H34.0829H34.1011L34.1214 44.1568H34.1397H34.1579L34.1762 44.1751H34.1965H34.2147H34.233V44.1934Z" fill="#E4A197"/>
<path d="M85.221 101.147L90.3419 98.5396L90.348 98.5417C92.2268 97.5901 94.3165 97.1275 96.4225 97.1945L96.4266 97.1904C96.3596 95.0844 96.8222 92.9967 97.7738 91.1159L97.7717 91.1301L100.361 86.0072L100.369 85.993C101.552 83.9033 101.655 81.3712 100.647 79.1901L100.653 79.2043C100.19 78.1128 99.3198 77.2444 98.2282 76.7819L98.2181 76.7798C97.6561 80.7402 95.3756 84.2522 91.9874 86.3765L91.9853 86.3785C91.3199 83.5036 89.5486 81.008 87.0531 79.4316L87.0551 79.4194C82.5956 76.6013 77.6999 74.5399 72.5669 73.3226L72.5547 73.3348C73.772 78.4679 75.8334 83.3636 78.6515 87.8231L78.6616 87.821C80.2381 90.3166 82.7356 92.0878 85.6106 92.7533L85.6065 92.7553C83.4843 96.1435 79.9723 98.424 76.0119 98.986L76.0139 98.9779C76.4765 100.069 77.3449 100.94 78.4364 101.402L78.4405 101.415C80.6215 102.423 83.1536 102.319 85.2454 101.137" fill="#E4A197"/>
<path d="M98.5568 50.5775C98.6522 51.8192 98.3316 53.0589 97.6459 54.0977L97.6398 54.0896C96.1262 56.3903 93.1783 57.2729 90.6503 56.1813L90.6563 56.1894C87.7976 55.0736 85.5131 52.8418 84.3282 50.0095C83.1454 47.1771 83.1616 43.9857 84.3769 41.1655L84.3729 41.1737C86.6473 35.8823 92.529 33.1413 98.0415 34.805V34.809C100.703 35.511 102.479 38.0248 102.249 40.7699L102.251 40.7679C102.15 42.0116 101.637 43.1843 100.795 44.1034L100.805 44.0953C98.7577 45.5581 97.8609 48.1571 98.569 50.5715" fill="white"/>
<path d="M57.1915 36.0948C62.6979 34.4108 68.5918 37.1295 70.8865 42.4107L70.8824 42.4209C72.1079 45.2349 72.1383 48.4284 70.9636 51.2648C69.7909 54.1032 67.5165 56.3411 64.6619 57.4691H64.6659C62.14 58.5708 59.19 57.7004 57.6663 55.4037L57.6622 55.3936C56.9704 54.3568 56.6457 53.1192 56.737 51.8775L56.733 51.8836C57.4309 49.4652 56.524 46.8723 54.4728 45.4155H54.4769C53.6308 44.5005 53.1134 43.3298 53.0079 42.0861L53.01 42.0881C52.7706 39.3451 54.5357 36.8232 57.1956 36.111" fill="white"/>
<path d="M76.7961 33.5743C71.2531 32.5883 66.9093 28.2586 65.907 22.7198V22.7258C65.1421 18.9643 67.5565 15.29 71.314 14.4967L71.3201 14.4825C72.7383 14.2329 74.197 14.4642 75.4692 15.1398L75.4671 15.1378C77.5488 16.485 80.2289 16.485 82.3106 15.1378C83.5807 14.4622 85.0414 14.2329 86.4596 14.4825L86.4454 14.4967C90.2029 15.29 92.6173 18.9643 91.8524 22.7258L91.8707 22.7198C90.5864 29.8168 83.9357 34.6415 76.79 33.6555" fill="white"/>
<path d="M75.418 15.1049C75.4339 15.1149 75.4478 15.1248 75.4638 15.1348" stroke="#231F20" stroke-width="0.25" stroke-miterlimit="10"/>
<path d="M33.5547 103.041H55.8806V84.2251H33.5547V103.041Z" fill="black"/>
<path d="M55.4165 91.4217C56.508 93.9517 55.6255 96.8976 53.3247 98.4112L53.3328 98.4173C52.294 99.103 51.0544 99.4236 49.8127 99.3282L49.8066 99.3404C47.3963 98.6343 44.8034 99.5271 43.3385 101.566L43.3345 101.568C42.4154 102.412 41.2447 102.921 40.003 103.023L40.0051 103.021C37.26 103.252 34.7462 101.477 34.0442 98.8129L34.0381 98.8149C32.3765 93.3004 35.1195 87.4187 40.4088 85.1443C43.2269 83.933 46.4143 83.9188 49.2446 85.1017C52.0769 86.2845 54.3087 88.569 55.4246 91.4277L55.4165 91.4217Z" fill="white"/>
<path d="M41.3203 53.7606C42.562 53.8661 43.7327 54.3835 44.6477 55.2296V55.2438C46.1044 57.295 48.6994 58.2019 51.1158 57.5039L51.1097 57.508C52.3534 57.4167 53.589 57.7413 54.6258 58.4332L54.6379 58.4372C56.9326 59.9609 57.803 62.9109 56.7034 65.4369V65.4328C55.5753 68.2875 53.3354 70.5619 50.499 71.7346C47.6606 72.9073 44.4692 72.8788 41.6551 71.6534L41.6429 71.6554C36.3617 69.3608 33.6451 63.4689 35.329 57.9625L35.3453 57.9665C36.0574 55.3067 38.5773 53.5415 41.3224 53.7809" fill="white"/>
<path d="M32.9557 81.1733C33.605 74.2182 28.8269 67.9206 21.951 66.6769L21.9592 66.6748C18.1956 65.912 14.5213 68.3264 13.73 72.0818L13.7138 72.0879C13.4662 73.5061 13.6975 74.9669 14.3731 76.237H14.3691C15.7183 78.3186 15.7183 80.9988 14.3691 83.0804L14.3731 83.0784C13.6975 84.3505 13.4662 85.8093 13.7138 87.2275L13.73 87.2153C14.5213 90.9728 18.1956 93.3872 21.9592 92.6223H21.951C27.7029 91.5794 32.1259 86.9455 32.8969 81.151" fill="white"/>
<path d="M35.0703 34.0293C35.1231 33.7534 35.1292 33.4693 35.0865 33.1914" stroke="#231F20" stroke-width="0.25" stroke-miterlimit="10"/>
<path d="M35.0682 34.0265C35.0276 34.276 34.8714 34.4911 34.6442 34.6027L34.6482 34.6149C34.4981 34.6717 34.3358 34.694 34.1735 34.6777C34.0558 34.6656 33.9401 34.6372 33.8286 34.5966C33.8691 34.7082 33.8955 34.8238 33.9077 34.9415H33.9097C33.9259 35.1018 33.9036 35.2661 33.8468 35.4163L33.8346 35.4122C33.723 35.6374 33.508 35.7957 33.2584 35.8362L33.2625 35.8403C32.9866 35.891 32.7045 35.8971 32.4266 35.8545H32.4246C31.6191 35.7186 30.8319 35.4893 30.0792 35.1687L30.069 35.1708L28.4378 34.4566L26.8228 33.6329L25.435 32.9004L24.1041 32.0747L22.7914 31.1941L21.5335 30.2548L20.3324 29.2424L19.1698 28.1731L18.0824 27.0471L18.0966 27.043C15.5929 24.0159 14.6049 20.015 15.4123 16.1723L15.4042 16.1601C19.2469 15.3546 23.2479 16.3427 26.275 18.8443L26.2689 18.8585C28.9714 21.3601 31.2032 24.3223 32.8608 27.6091L32.8567 27.5969C33.4228 28.6499 33.9341 29.7313 34.3906 30.8371L34.4007 30.8472C34.7213 31.5999 34.9505 32.3871 35.0865 33.1926" fill="#E4A197"/>
<path d="M81.7832 39.9349L90.6759 44.2301L90.6779 44.2382C91.2135 44.4959 91.4752 45.1106 91.2926 45.6767C91.11 46.2407 90.5379 46.5856 89.9536 46.4822L89.9434 46.5004L81.9334 45.0944L81.9415 45.0924C81.5925 45.0315 81.2334 45.1289 80.9636 45.3602C80.6937 45.5895 80.5395 45.9283 80.5456 46.2833V46.2935L80.2068 48.4887L79.8132 50.684L79.3628 52.861L78.8373 55.036L78.2368 57.1744L77.5814 59.3128L76.8693 61.4148L76.0983 63.5147L75.2543 65.5801L71.8214 60.6458L72.7405 58.694L73.5663 56.7057L74.3352 54.6992L75.0291 52.654L75.6682 50.5907L76.2119 48.509L76.6989 46.4071V46.3828C76.6948 46.0257 76.5305 45.6889 76.2505 45.4657C75.9705 45.2425 75.6053 45.1573 75.2563 45.2344L75.2543 45.2445L67.4126 46.9508V46.9245C66.8324 47.0503 66.2481 46.7297 66.0431 46.1717C65.8362 45.6138 66.0736 44.9889 66.5991 44.7089L66.5889 44.7191L75.3862 40.01L75.3943 39.9999C75.7311 39.8213 75.9603 39.4927 76.0131 39.1153L76.005 39.1275L77.3927 29.2427L77.4049 29.2366C77.4881 28.6483 77.9913 28.21 78.5857 28.21C79.1782 28.21 79.6834 28.6483 79.7645 29.2366L79.7564 29.2427L81.1259 39.0159L81.1381 39.0017C81.1928 39.3953 81.4404 39.7361 81.7995 39.9086" fill="#8C4C46"/>
<path d="M27.4375 92.1211H64.7873V66.7397H27.4375V92.1211Z" fill="black"/>
<path d="M64.7873 76.0444L62.7239 76.8884L60.6423 77.6573L58.5221 78.3715L56.3836 79.0268L54.2452 79.6091L52.0682 80.1346L49.8912 80.6033L47.698 80.9969L45.5027 81.3154C45.1517 81.3134 44.8149 81.4655 44.5857 81.7354C44.3564 82.0032 44.259 82.3623 44.3199 82.7113L44.3016 82.7234L45.7097 90.7335V90.7233C45.8111 91.3077 45.4682 91.8798 44.9022 92.0624C44.3381 92.247 43.7234 91.9833 43.4637 91.4497L43.4373 91.4619L39.1421 82.5733L39.1361 82.5672C38.9636 82.2122 38.6228 81.9626 38.2291 81.9078L38.2231 81.916L28.4499 80.5465L28.4641 80.5343C27.8757 80.4531 27.4375 79.95 27.4375 79.3555C27.4375 78.761 27.8757 78.2579 28.4641 78.1747L28.4499 78.1828L38.3367 76.795L38.3428 76.7829C38.7201 76.7301 39.0468 76.5009 39.2274 76.1641L39.2172 76.1762L43.9263 67.3769L43.9364 67.3688C44.2184 66.8433 44.8413 66.606 45.3972 66.8109C45.9552 67.0178 46.2777 67.6022 46.152 68.1824L46.158 68.2027L44.4517 76.0444L44.4619 76.0261C44.3848 76.3751 44.47 76.7403 44.6932 77.0202C44.9164 77.3002 45.2532 77.4646 45.6102 77.4707L45.6143 77.4889L47.7162 77.002L49.7979 76.4562L51.8612 75.8191L53.9064 75.1253L55.915 74.3563L57.9033 73.5123L59.8713 72.6115L64.7873 76.0444Z" fill="#8C4C46"/>
</svg>
