<svg width="109" height="108" viewBox="0 0 109 108" fill="none" xmlns="http://www.w3.org/2000/svg">
<path d="M108.261 107.783H0.546875V0.000854492H108.261V107.783Z" fill="#FDE1C5"/>
<path d="M103.603 93.7346C104.034 95.0136 103.923 96.4117 103.297 97.6066L103.309 97.6168C102.521 99.1196 100.876 99.9675 99.1948 99.7355L99.1825 99.7252C97.9712 99.5569 96.8174 99.1032 95.8197 98.397L95.8135 98.3826C94.5386 97.4813 93.8077 95.9929 93.8734 94.4326L93.8693 94.4347V83.4594V60.9174L93.8652 60.9359C93.5716 57.9509 91.0362 55.6905 88.0388 55.7398L88.0408 55.7377C86.497 55.7377 85.025 56.3947 83.9944 57.5444C82.9617 58.694 82.467 60.2276 82.6333 61.7633L82.6189 61.7756C81.0709 60.9051 79.9685 59.4167 79.5804 57.686L79.5845 57.6758C79.2745 56.1483 79.6359 54.5593 80.5761 53.3152L80.5782 53.3111C80.7116 53.1571 80.8163 52.9806 80.8862 52.7876L80.8923 52.7896C80.9724 52.5823 80.9416 52.3503 80.8102 52.1717L80.8081 52.1943C78.9912 50.8762 77.4351 49.2338 76.2115 47.3533L76.2156 47.3348C74.6635 44.9554 73.6596 42.2619 73.2695 39.4493V39.4575C75.339 38.9873 77.4638 38.8128 79.5825 38.9401L79.5804 38.936C81.8223 39.1372 83.9882 39.8434 85.918 41.0013L85.916 41.0075C86.5606 41.338 87.3141 41.3873 87.9936 41.1409H88.0018C88.2461 41.0896 88.4494 40.9254 88.552 40.6995C88.6547 40.4737 88.6465 40.2109 88.5274 39.9933L88.5212 39.9769C88.3693 39.4369 88.355 38.8683 88.4802 38.3222L88.4761 38.3263C88.7635 36.8563 90.0364 35.7826 91.533 35.7518L91.5371 35.7662C91.3934 36.2096 91.3934 36.6859 91.5371 37.1294L91.5433 37.1191C91.9066 38.238 92.4589 39.283 93.1795 40.213L93.1672 40.2273C95.1216 42.7525 96.7209 45.5364 97.9158 48.4989L97.926 48.4886C98.9525 51.0364 99.4822 53.7566 99.4822 56.5035L99.4596 56.4912V83.4594V91.8335L99.4822 91.85C99.63 92.7245 100.121 93.5026 100.845 94.0118L100.856 94.02C101.036 94.139 101.26 94.1698 101.467 94.1041L101.482 94.098C101.901 93.8475 102.315 93.5868 102.724 93.3199L102.697 93.3158L103.336 92.9976L103.588 93.7038" fill="#20699C"/>
<path d="M78.3798 30.0637C81.4532 30.4948 84.586 30.076 87.4376 28.8565L87.4335 28.8627C91.055 27.3147 94.0811 24.6417 96.0664 21.2379L96.0623 21.2337C97.251 19.1972 98.0681 16.9676 98.4746 14.6457C98.5074 14.3377 98.5772 14.0339 98.6819 13.7444L98.686 13.7567C99.0186 12.9047 99.7556 12.2765 100.649 12.0835L100.651 12.0651C101.324 11.482 101.726 10.6444 101.759 9.75339C101.792 8.86239 101.451 7.99807 100.821 7.3678C100.191 6.73959 99.3265 6.40084 98.4355 6.43369C97.5445 6.46654 96.709 6.87098 96.128 7.54641L96.1341 7.54026C95.9432 8.43536 95.315 9.17239 94.463 9.50703L94.4548 9.50908C94.1653 9.61584 93.8635 9.68564 93.5556 9.71848L93.5494 9.72259C91.2295 10.1332 89 10.9523 86.9654 12.1431L86.9839 12.139C83.5862 14.1283 80.9173 17.1565 79.3714 20.78L79.357 20.7965C78.1396 23.6522 77.7249 26.785 78.1601 29.8584L78.1519 29.8399L78.1745 30.0226L78.3572 30.0452" fill="#20699C"/>
<path d="M27.102 43.5723C24.5748 45.5185 22.2919 47.7625 20.3025 50.2589V50.2384L18.4322 52.6794L16.6297 55.1881L14.9421 57.7667L13.3223 60.3904L11.7949 63.0593L10.9285 64.6566L10.3804 64.5211L10.3763 64.5313C8.55525 64.0899 7.0422 62.8273 6.27643 61.1172L6.27027 61.1275C5.40596 59.1915 5.20066 57.0235 5.68927 54.9603L5.70159 54.9705C6.60696 51.1376 8.45466 47.5921 11.0763 44.6522V44.6481C14.9811 40.269 19.9761 37.0027 25.552 35.1796L25.5418 35.1817C33.8461 32.4676 42.8649 32.948 50.8326 36.5326L50.8388 36.5367C55.4108 38.7334 59.5948 41.6568 63.2286 45.1942L63.2327 45.19C66.7598 48.8197 69.675 52.9976 71.8656 57.5594L71.8717 57.5532C75.4542 65.5229 75.9367 74.5417 73.2226 82.8482L73.2247 82.8605C71.4016 88.4385 68.1353 93.4334 63.7583 97.3403L63.7521 97.3177C60.8143 99.9394 57.2688 101.787 53.4379 102.694L53.4256 102.705C51.3602 103.193 49.1943 102.99 47.2584 102.124L47.2686 102.118C45.5585 101.354 44.2979 99.8388 43.8545 98.0178L43.8442 98.0137L43.7067 97.4655L45.3265 96.5766L45.3285 96.593C49.8369 94.1294 54.1256 91.2819 58.1413 88.0772L58.1495 88.0895C60.6439 86.1001 62.8878 83.8172 64.8341 81.2879L64.8259 81.2858C65.7004 80.1485 66.4395 78.9126 67.0246 77.6007L67.0267 77.6069C67.388 76.798 67.6364 75.9439 67.7637 75.0673H67.7678C67.815 73.1334 67.5379 71.2056 66.9466 69.3641L66.9589 69.362C65.6265 65.1965 62.7954 61.6756 59.0118 59.483L59.0036 59.4707C57.7533 58.8137 56.3593 58.4709 54.9427 58.4729L54.9489 58.4976C54.333 58.4976 53.7212 58.5633 53.1197 58.6926V58.6803C52.2985 58.8568 51.6702 59.52 51.5347 60.3494L51.5245 60.3535C51.1673 62.7001 50.2373 64.9235 48.8207 66.8286H48.8186C46.8313 69.5283 43.9058 71.3863 40.6169 72.0412V72.0432C39.1819 72.3183 37.7099 72.3512 36.2625 72.1397L36.2481 72.1479C36.0367 70.7006 36.0695 69.2286 36.3446 67.7935H36.3693C37.0242 64.5046 38.8821 61.5791 41.5818 59.5898C43.4849 58.1732 45.7083 57.2411 48.0549 56.8839L48.0364 56.8736C48.8679 56.7382 49.529 56.1099 49.7055 55.2867H49.7158C49.8451 54.6872 49.9108 54.0734 49.9108 53.4595V53.4636C49.9149 52.0491 49.5721 50.6551 48.9151 49.4028L48.9274 49.3946C46.7328 45.6109 43.214 42.7778 39.0484 41.4454L39.0464 41.4598C37.2048 40.8664 35.2791 40.5893 33.3452 40.6365L33.3431 40.6406C32.4686 40.7699 31.6125 41.0163 30.8056 41.3797H30.8118C29.502 41.9648 28.264 42.7039 27.1287 43.5784" fill="#20699C"/>
<path d="M13.9665 4.42839C12.6875 3.99726 11.2894 4.10812 10.0945 4.73428L10.0843 4.72197C8.58351 5.51031 7.73562 7.15682 7.96761 8.83617L7.97788 8.84849C8.14417 10.0598 8.59994 11.2156 9.30617 12.2134L9.32054 12.2195C10.2218 13.4944 11.7082 14.2253 13.2685 14.1596L13.2664 14.1637H24.2397H46.7775L46.759 14.1678C49.7441 14.4614 52.0023 16.9968 51.9531 19.9963L51.9551 19.9922C51.9551 21.5381 51.2982 23.008 50.1505 24.0407C49.0009 25.0733 47.4673 25.5681 45.9316 25.4018L45.9173 25.4182C46.7898 26.9641 48.2762 28.0686 50.0089 28.4546L50.0171 28.4505C51.5466 28.7605 53.1335 28.4012 54.3777 27.461L54.3818 27.4589C54.5357 27.3234 54.7123 27.2187 54.9032 27.151V27.1427C55.1085 27.0627 55.3426 27.0935 55.5212 27.2249L55.4986 27.2269C56.8166 29.0438 58.457 30.602 60.3375 31.8256L60.356 31.8215C62.7354 33.3736 65.429 34.3775 68.2416 34.7676H68.2333C68.7035 32.6982 68.8759 30.5733 68.7486 28.4546L68.7528 28.4567C68.5536 26.2148 67.8474 24.0468 66.6895 22.117L66.6813 22.1191C66.3507 21.4744 66.3035 20.721 66.5499 20.0394L66.5478 20.0312C66.6012 19.7889 66.7654 19.5857 66.9913 19.481C67.2171 19.3783 67.4778 19.3886 67.6955 19.5077L67.7139 19.5138C68.2518 19.6657 68.8205 19.6801 69.3666 19.5528L69.3625 19.5569C70.8345 19.2716 71.9062 17.9987 71.937 16.5L71.9226 16.4959C71.4791 16.6396 71.0028 16.6396 70.5614 16.4959L70.5697 16.4918C69.4528 16.1284 68.4058 15.5741 67.4778 14.8535L67.4614 14.8658C64.9362 12.9114 62.1544 11.3121 59.1919 10.1172L59.2022 10.107C56.6565 9.07842 53.9363 8.5508 51.1914 8.5508L51.2017 8.57339H24.2397H15.8675L15.8511 8.54875C14.9765 8.40094 14.1985 7.91027 13.6893 7.18556L13.6811 7.1753C13.562 6.99463 13.5312 6.77086 13.5969 6.56556L13.6031 6.54913C13.8536 6.13032 14.1143 5.71562 14.3812 5.30707L14.3853 5.33376L14.7035 4.69528L13.9973 4.44276" fill="#20699C"/>
</svg>
