<svg width="108" height="108" viewBox="0 0 108 108" fill="none" xmlns="http://www.w3.org/2000/svg">
<path d="M107.724 107.299H1.20703V0.782272H107.724V107.299Z" fill="#8C4C46"/>
<path d="M29.3931 44.2051L29.4297 44.1483L29.4682 44.1117L29.4865 44.0549L29.525 44.0184L29.5433 43.9799L29.5798 43.9231L29.6001 43.8865L29.6184 43.8297L29.6366 43.7932L29.6549 43.7547L29.6752 43.6979L29.6934 43.6613V43.6228L29.7117 43.5863V43.5295L29.7299 43.4929V43.4544V43.4179V43.3611L29.7502 43.3225V43.286V43.2474L29.7299 43.2109V43.1541V43.1176V43.079L29.7117 43.0425V43.004L29.6934 42.9675V42.9289L29.6752 42.8924L29.6549 42.8538V42.8173L29.6366 42.7788L29.6184 42.7423L29.6001 42.7037L29.5798 42.6672L29.5615 42.6286L29.5433 42.5921L29.525 42.5536L29.5047 42.5353L29.4682 42.4988L29.45 42.4602L29.4297 42.4237L29.4114 42.3852L29.3749 42.3669L29.3566 42.3284L29.3181 42.2918L29.2998 42.2533L29.2816 42.235L29.2065 42.16L29.1497 42.1032L29.0929 42.0484L29.0361 41.9916L28.9813 41.9348L28.9062 41.8779L28.8494 41.8414L28.7743 41.7846L28.7175 41.7278L28.6425 41.6913L28.5857 41.6345L28.5309 41.598L28.4558 41.5594L28.399 41.5229L28.3422 41.4843L28.2854 41.4478L28.2489 41.4296L28.2306 41.4093L28.192 41.391L28.1738 41.3728L28.1352 41.3545H28.117L28.0805 41.3342L28.0622 41.3159H28.0419L28.0236 41.2977L27.9871 41.2794H27.9668L27.9486 41.2591L27.9303 41.2409H27.9121L27.8918 41.2226H27.8735H27.8553L27.837 41.2044H27.8167V41.1841H27.7984H27.7802L27.7619 41.1658H27.7416L27.7234 41.1475H27.7051L27.6869 41.1293H27.6666L27.6483 41.109H27.63L27.6118 41.0907H27.5915L27.5732 41.0725H27.555L27.5367 41.0542H27.5164L27.4982 41.0339H27.4616L27.4414 41.0157L27.4231 40.9974H27.3866L27.3663 40.9791L27.348 40.9589H27.3115L27.2912 40.9406L27.2547 40.9223L27.2162 40.9041L27.1979 40.8838H27.1614L27.1228 40.8655L27.0863 40.8473L27.0478 40.829L27.0295 40.8087L26.9909 40.7905L26.9544 40.7722L26.9179 40.7539L26.8794 40.7337L26.8428 40.7154L26.786 40.6971L26.7475 40.6789L26.711 40.6586L26.6724 40.6403L26.6359 40.6221L26.5791 40.6038L26.5426 40.5835L26.504 40.547L26.4472 40.5287L26.4107 40.5084L26.3539 40.4902L26.3174 40.4719L26.222 40.4151L26.1104 40.3786L26.0171 40.3218L25.9035 40.265L25.8101 40.2285L25.6965 40.1717L25.5849 40.1148L25.4733 40.0601L25.378 40.0033L25.2481 39.9464L25.1345 39.8896L25.0229 39.8349L24.9093 39.778L24.7774 39.7212L24.6658 39.6644L24.534 39.6096L24.4224 39.5528L24.2905 39.496L24.1789 39.421L24.047 39.3642L23.9152 39.3094L23.7833 39.2343L23.6534 39.1775L23.4079 39.0456L23.1462 38.934L22.6207 38.6703L22.359 38.5587L22.0952 38.4268L21.8518 38.2949L21.7199 38.2402L21.59 38.1833L21.4582 38.1083L21.3446 38.0515L21.2147 37.9947L21.0828 37.9399L20.9692 37.8648L20.8394 37.808L20.7257 37.7512L20.6142 37.6964L20.4823 37.6396L20.3707 37.5828L20.2571 37.526L20.1455 37.4712L20.0319 37.4144L19.9203 37.3758L19.8249 37.3211L19.7133 37.2643L19.5997 37.2074L19.5064 37.1709L19.4131 37.1141L19.3197 37.0756L19.2629 37.039L19.2264 37.0208L19.1696 37.0005L19.131 36.9822L19.0763 36.964L19.0377 36.9457L19.0012 36.9072L18.9444 36.8889L18.9058 36.8707L18.8693 36.8504L18.8308 36.8321L18.776 36.8138L18.7374 36.7956L18.7009 36.7773L18.6624 36.757L18.6258 36.7388L18.5873 36.7205L18.5508 36.7023L18.5305 36.682L18.494 36.6637L18.4554 36.6454H18.4189L18.3804 36.6272L18.3621 36.6069L18.3256 36.5886L18.3053 36.5704H18.2688L18.2505 36.5521L18.212 36.5318H18.1937L18.1572 36.5136L18.1369 36.4953H18.1186L18.1004 36.477H18.0821L18.0436 36.4568H18.0253L18.007 36.4385H17.9867V36.4202H17.9685L17.9502 36.402H17.932L17.9117 36.3817H17.8934H17.8752V36.3634H17.8569H17.8366L17.8183 36.3452L17.6682 36.2701L17.5181 36.195L17.3679 36.1382L17.1995 36.0632L17.0494 36.0063L16.8993 35.9313L16.7309 35.8765L16.5807 35.8197L16.4123 35.7629L16.2622 35.7061L16.0918 35.6513L15.9416 35.5945L15.7732 35.5377L15.6231 35.5012L15.4547 35.4443L15.3046 35.4078L15.1362 35.3693L14.9678 35.3125L14.8176 35.2759L14.6472 35.2374L14.4788 35.2191L14.3104 35.1826L14.1603 35.1441L13.9919 35.1075L13.8235 35.0873L13.653 35.069L13.4846 35.0325L13.3345 35.0122L13.1661 34.9939L12.9977 34.9757L12.8293 34.9574H12.6589L12.4905 34.9371L12.3221 34.9189H12.1537H12.0036L11.8352 34.9006H11.6647H11.4963H11.3279L11.1595 34.9189H10.9891H10.8207L10.6523 34.9371H10.4839L10.3155 34.9574L10.1451 34.9757L9.9767 34.9939L9.82656 35.0122L9.65817 35.0325L9.48977 35.0507L9.32137 35.0873L9.15094 35.1075L8.98255 35.1441L8.81415 35.1623L8.64575 35.2009L8.57068 35.2191H8.5504L8.53214 35.2374H8.49561L8.32519 35.2759L8.15679 35.3125L8.00665 35.351L7.83826 35.3693L7.66986 35.4078L7.50146 35.4443L7.35132 35.4829L7.1809 35.5012L7.0125 35.5377L6.8441 35.5762L6.6757 35.5945L6.50731 35.631L6.33688 35.6513L6.16848 35.6878L6.00008 35.7061L5.83169 35.7446L5.66329 35.7629L5.49286 35.7811L5.32446 35.8014L5.15607 35.8379L4.98767 35.8562L4.81724 35.8765L4.64885 35.8948L4.49871 35.913L4.33031 35.9313L4.16191 35.9516H3.99351L3.84338 35.9698L3.67295 35.9881H3.52281L3.35442 36.0063H3.20428H3.05414H2.88574L2.73561 36.0266H2.58547H2.45359H2.37852L2.30345 36.0063H2.22838H2.15332H2.08027H2.02347H1.9484H1.87333L1.79826 35.9881H1.74145H1.66638L1.60957 35.9698H1.5345H1.45944L1.40466 35.9516H1.34785L1.27278 35.9313H1.21597L1.1409 35.913H1.08409L1.02931 35.8948H0.972502L0.897434 35.8765L0.840625 35.8562H0.785844L0.729036 35.8379L0.672227 35.8197L0.615418 35.8014H0.560638L0.503829 35.7811L0.44702 35.7629L0.410501 35.7446L0.353693 35.7264L0.296884 35.7061L0.260363 35.6878L0.203554 35.6696L0.146746 35.6513L0.110226 35.631L0.0534159 35.6127V35.631V35.6513V35.6696V35.6878L0.0351562 35.7061V35.7264V35.7446V35.7629V35.7811V35.8014V35.8197V35.8379V35.8765V35.8948V35.913V35.9313V35.9516V35.9881V36.0063V36.0449V36.0632L0.0534159 36.1017V36.12V36.1565V36.1768V36.2133V36.2518V36.2701L0.0716774 36.3066V36.3452V36.3817V36.4202V36.4568L0.0899371 36.4953V36.5318V36.5704L0.110226 36.6069V36.6454L0.128486 36.682V36.7205V36.757L0.146746 36.7956V36.8504L0.165005 36.8889V36.9254L0.185295 36.9822L0.203554 37.0208V37.0756L0.221814 37.1141L0.240073 37.1709V37.2074L0.260363 37.2643L0.278622 37.3008L0.296884 37.3576L0.315144 37.4144L0.335433 37.4509L0.353693 37.5077L0.371952 37.5645L0.390212 37.6213L0.410501 37.6579L0.428761 37.7147L0.44702 37.7715L0.46528 37.8263L0.485569 37.8831L0.522091 37.9399L0.54035 37.9947L0.560638 38.0515L0.597159 38.1083L0.615418 38.1651L0.635708 38.2199L0.672227 38.2767L0.710776 38.3335L0.729036 38.3903L0.765557 38.4451L0.785844 38.5201L0.822365 38.5769L0.858885 38.6338L0.897434 38.6906L0.933953 38.7656L0.972502 38.8204L1.00902 38.8772L1.04757 38.934L1.08409 39.0091L1.12264 39.0659L1.15916 39.141L1.21597 39.1958L1.25452 39.2526L1.29104 39.3276L1.34785 39.3844L1.38437 39.4595L1.44117 39.5143L1.47972 39.5894L1.5345 39.6462L1.59131 39.7212L1.62986 39.7963L1.68464 39.8531L1.74145 39.9282L1.79826 39.985L1.85507 40.0601L1.90985 40.1351L1.98492 40.1899L2.04173 40.265L2.09853 40.34L2.15332 40.3969L2.22838 40.4719L2.28519 40.5287L2.342 40.6038L2.41707 40.6586L2.47388 40.7337L2.54895 40.7905L2.60373 40.8655L2.66054 40.9223L2.73561 40.9791L2.81067 41.0339L2.86748 41.109L2.94255 41.1658L2.99936 41.2226L3.07443 41.2794L3.1495 41.3342L3.20428 41.391L3.27935 41.4478L3.35442 41.5046L3.42948 41.5594L3.48629 41.6162L3.56136 41.673L3.63643 41.7278L3.7115 41.7664L3.78657 41.8232L3.86164 41.8779L3.93671 41.9348L4.01177 41.9733L4.08684 42.0281L4.16191 42.0666L4.23698 42.1234L4.31205 42.16L4.38712 42.2168L4.46219 42.2533L4.53726 42.3101L4.61233 42.3486L4.68739 42.3852L4.76246 42.442L4.85579 42.4785L4.93086 42.517L5.00593 42.5536L5.081 42.6104L5.17433 42.6489L5.2494 42.6854L5.32446 42.724L5.41779 42.7605L5.49286 42.7991L5.56793 42.8356L5.66329 42.8741L5.73836 42.8924L5.81343 42.9289L5.90675 42.9675L5.98182 43.004L6.07515 43.0425L6.15022 43.0608L6.24355 43.0973L6.31862 43.1176L6.41195 43.1541L6.48702 43.1927L6.58237 43.2109L6.65744 43.2474L6.75077 43.2677L6.82584 43.286L6.91917 43.3225L6.99424 43.3428L7.08757 43.3611L7.1809 43.3976L7.25596 43.4179L7.35132 43.4361L7.44465 43.4544L7.51972 43.4726L7.61305 43.4929L7.70638 43.5112L7.78145 43.5295L7.87681 43.5477L7.97013 43.568L8.0452 43.5863L8.13853 43.6045L8.23186 43.6228L8.30693 43.6431H8.40026L8.49561 43.6613L8.58894 43.6796H8.68227L8.75734 43.6979L8.85067 43.7181H8.94603L9.03936 43.7364H9.11443L9.20775 43.7547H9.30108H9.39644L9.48977 43.7729H9.5831H9.65817H9.7515L9.84482 43.7932H9.94018H10.0335H10.1086H10.2019H10.2952H10.3906H10.4839H10.5773H10.6706L10.7457 43.7729H10.839H10.9343H11.0277L11.121 43.7547H11.2143L11.2894 43.7364H11.3462H11.3645H11.3847H11.403H11.4213H11.4395H11.4598H11.4781H11.4963L11.5146 43.7181H11.5349H11.5531H11.5714H11.5897H11.61H11.6282H11.6465H11.685H11.7033L11.7215 43.6979H11.7601H11.7784H11.7966H11.8352H11.8534H11.8899L11.9285 43.6796H11.9468H11.9853H12.0218H12.0401H12.0786L12.1151 43.6613H12.1537H12.1902H12.2653L12.3404 43.6431H12.4154H12.4905L12.5838 43.6228H12.6589L12.7542 43.6045H12.8476L12.9226 43.5863H13.016H13.1093L13.2229 43.568H13.3162L13.4096 43.5477H13.5232L13.6165 43.5295H13.7281L13.8235 43.5112L13.9351 43.4929H14.0487L14.1603 43.4726H14.2739L14.3855 43.4544H14.4991L14.6107 43.4361H14.7223L14.9475 43.3976L15.193 43.3793L15.4182 43.3611L15.8868 43.3225L16.1303 43.3043L16.3555 43.286L16.599 43.2474L16.8242 43.2292H16.9378L17.0494 43.2109H17.1813L17.2929 43.1927L17.4065 43.1724H17.4998L17.6114 43.1541H17.725L17.8366 43.1359H17.932L18.0436 43.1176H18.1572L18.2505 43.0973H18.3438L18.4554 43.079H18.5508L18.6441 43.0608H18.7374L18.8308 43.0425H18.9261H19.0012L19.0945 43.0222H19.1696L19.2629 43.004H19.338H19.4131L19.4881 42.9857H19.5267H19.5449H19.5815L19.62 42.9675H19.6565H19.6951H19.7133H19.7499H19.7884H19.8067L19.8452 42.9472H19.8635H19.9H19.9203H19.9385H19.9751H19.9953H20.0136L20.0501 42.9289H20.0704H20.0887H20.1069H20.1252H20.1455H20.1637H20.182H20.2003H20.2206L20.2388 42.9106H20.2571H20.2753H20.2956H20.3139H20.3504H20.4072L20.5391 42.8924H20.671L20.7826 42.8741H20.9144L21.026 42.8538H21.1579H21.2898L21.4014 42.8356H21.5332H21.6651H21.7767H21.9086H22.0202H22.1521H22.2839H22.3955H22.5274H22.6593L22.7709 42.8538H22.9027H23.0143L23.1462 42.8741H23.2781H23.3897L23.5216 42.8924H23.6331L23.765 42.9106L23.8969 42.9289H24.0085L24.1404 42.9472L24.254 42.9675L24.3838 42.9857H24.4974L24.6273 43.004L24.7592 43.0222L24.8728 43.0425L25.0026 43.0608L25.1163 43.079L25.2481 43.0973L25.3597 43.1359L25.4916 43.1541L25.6032 43.1724L25.7351 43.1927L25.8467 43.2292L25.9785 43.2474L26.0921 43.2677L26.222 43.3043L26.3356 43.3225L26.4675 43.3611L26.5791 43.3976L26.6927 43.4179L26.8225 43.4544L26.9362 43.4929L27.066 43.5112L27.1796 43.5477L27.3115 43.5863H27.3298L27.348 43.6045H27.3663H27.3866H27.4048V43.6228H27.4231H27.4414H27.4616L27.4799 43.6431H27.5164L27.555 43.6613H27.5915L27.63 43.6796L27.6666 43.6979H27.7051L27.7619 43.7181L27.7984 43.7364L27.8553 43.7547H27.8918L27.9486 43.7729L28.0054 43.7932L28.0622 43.8115L28.1555 43.8297L28.2671 43.8683L28.3807 43.9048L28.4923 43.9231L28.6059 43.9616L28.6425 43.9799L28.6993 43.9981L28.7561 44.0184H28.8109L28.8494 44.0367L28.9062 44.0549L28.9427 44.0732H28.9995L29.0361 44.0935L29.0746 44.1117H29.1314L29.1679 44.13H29.1862L29.2248 44.1483H29.243H29.2613L29.2816 44.1686H29.2998H29.3181L29.3363 44.1868H29.3566H29.3749H29.3931V44.2051Z" fill="white"/>
<path d="M38.5701 35.0355L38.5133 35.072L38.4768 35.1106L38.42 35.1471L38.3834 35.1674L38.3266 35.1856L38.2881 35.2222L38.2516 35.2424L38.1948 35.2607L38.1582 35.279L38.1197 35.2972L38.0629 35.3175L38.0264 35.3358H37.9878L37.933 35.354H37.8945L37.858 35.3723H37.8194H37.7626L37.7261 35.3926H37.6875H37.651H37.6125L37.5759 35.3723H37.5191H37.4826H37.4441L37.4075 35.354H37.369L37.3325 35.3358H37.2939L37.2574 35.3175L37.2189 35.2972H37.1823L37.1438 35.279L37.1073 35.2607L37.0687 35.2424L37.0322 35.2222L36.9937 35.2039L36.9571 35.1856L36.9186 35.1674L36.9003 35.1471L36.8638 35.1106L36.8253 35.0923L36.7887 35.072L36.7502 35.0538L36.7319 35.0172L36.6934 34.999L36.6569 34.9787L36.6183 34.9422L36.6001 34.9239L36.525 34.8671L36.4682 34.792L36.4134 34.7352L36.3566 34.6784L36.2998 34.6236L36.243 34.5486L36.1882 34.4918L36.1496 34.4167L36.0949 34.3599L36.0563 34.2848L35.9995 34.228L35.963 34.1732L35.9244 34.0981L35.8879 34.0413L35.8494 33.9845L35.8128 33.9277L35.7946 33.8912L35.7743 33.8729L35.756 33.8344L35.7378 33.8161L35.7195 33.7796V33.7593L35.6992 33.7228L35.681 33.7045L35.6627 33.6843V33.666L35.6444 33.6295V33.6092L35.6242 33.5909L35.6059 33.5727V33.5544L35.5876 33.5341V33.5159L35.5694 33.4976V33.4793V33.459H35.5491V33.4408V33.4225H35.5308V33.4043V33.384H35.5126V33.3657V33.3475H35.4943V33.3292V33.3089L35.474 33.2907V33.2724L35.4558 33.2541V33.2338L35.4375 33.2156V33.1973L35.4192 33.1791V33.1588L35.3989 33.1405V33.104L35.3807 33.0837L35.3624 33.0654V33.0289L35.3442 33.0086L35.3239 32.9904V32.9539L35.3056 32.9336L35.2874 32.897L35.2691 32.8585L35.2488 32.8402V32.8037L35.2306 32.7652L35.2123 32.7286L35.194 32.7084L35.1737 32.6718L35.1555 32.6333L35.1372 32.5968L35.119 32.5603L35.0987 32.5217L35.0804 32.4852L35.0622 32.4284L35.0439 32.3898L35.0236 32.3533L35.0053 32.3148L34.9871 32.2782L34.9688 32.2214L34.9485 32.1849L34.912 32.1464L34.8938 32.0896L34.8735 32.053L34.8552 31.9962L34.8369 31.9597L34.7801 31.8643L34.7436 31.7528L34.6868 31.6594L34.63 31.5641L34.5935 31.4525L34.5367 31.3389L34.4799 31.2273L34.4251 31.1339L34.3683 31.0203L34.3115 30.8905L34.2547 30.7769L34.1999 30.6653L34.1431 30.5517L34.0863 30.4198L34.0295 30.3082L33.9747 30.1763L33.9179 30.0647L33.8428 29.9328L33.786 29.8213L33.7292 29.6894L33.6744 29.5575L33.5993 29.4256L33.5425 29.2958L33.4106 29.0503L33.2991 28.7886L33.0353 28.2631L32.9054 28.0013L32.7918 27.7376L32.66 27.4941L32.6052 27.3622L32.5484 27.2324L32.4733 27.1005L32.4165 26.9869L32.3617 26.8571L32.3049 26.7252L32.2298 26.6116L32.173 26.4817L32.1162 26.3681L32.0614 26.2565L32.0046 26.1246L31.9478 26.013L31.891 25.8994L31.8362 25.7878L31.7794 25.6742L31.7226 25.5626L31.6861 25.4673L31.6293 25.3557L31.5725 25.2623L31.5359 25.1487L31.4791 25.0554L31.4406 24.9621L31.4041 24.9053L31.3858 24.8687L31.3655 24.8119L31.3473 24.7734L31.329 24.7186L31.2905 24.6801L31.2722 24.6435L31.2539 24.5867L31.2357 24.5482L31.2154 24.5117L31.1971 24.4731L31.1789 24.4366L31.1606 24.3798L31.1423 24.3433L31.1221 24.3047L31.1038 24.2682L31.0855 24.2296L31.0673 24.1931L31.047 24.1728L31.0287 24.1363L31.0105 24.0978V24.0612L30.9922 24.0227L30.9719 24.0044L30.9537 23.9679L30.9354 23.9476V23.9111L30.9171 23.8928L30.8968 23.8543V23.836L30.8786 23.7995L30.8603 23.7792V23.761L30.8421 23.7427V23.7245L30.8218 23.6859L30.8035 23.6676V23.6494L30.7853 23.6291V23.6108L30.767 23.5926V23.5743L30.7467 23.554V23.5358V23.5175H30.7285V23.4992L30.7102 23.479V23.4607L30.6351 23.3106L30.5601 23.1604L30.5032 23.0103L30.4282 22.8419L30.3714 22.6917L30.2963 22.5416L30.2415 22.3732L30.1847 22.2231L30.1279 22.0547L30.0711 21.9045L30.0163 21.7544L29.9595 21.584L29.9027 21.4156L29.8662 21.2654L29.8094 21.097L29.7728 20.9469L29.7343 20.7785L29.6775 20.6101L29.641 20.46L29.6024 20.2895L29.5659 20.1211L29.5476 19.9527L29.5091 19.8026L29.4726 19.6342L29.4523 19.4658L29.434 19.2954L29.3975 19.1453L29.3772 18.9769L29.359 18.8085L29.3407 18.6401L29.3224 18.4717V18.3012L29.3021 18.1328L29.2839 17.9644V17.796V17.6459L29.2656 17.4775V17.3071V17.1387V16.9703L29.2839 16.8019V16.6315V16.4631L29.3021 16.2947V16.1263L29.3224 15.9579L29.3407 15.7874L29.359 15.619L29.3772 15.4689L29.3975 15.3005L29.4158 15.1321L29.4523 14.9637L29.4726 14.7933L29.5091 14.6249L29.5274 14.4565L29.5659 14.2881L29.5842 14.213V14.1927L29.6024 14.1745V14.138L29.641 13.9696L29.6775 13.7991L29.716 13.649L29.7343 13.4806L29.7728 13.3122L29.8094 13.1621L29.8479 12.9937L29.8662 12.8232L29.9027 12.6548L29.9412 12.4864L29.9595 12.3181L29.996 12.1497L30.0163 11.9792L30.0528 11.8108L30.0711 11.6424L30.0914 11.474L30.1279 11.3056L30.1462 11.1352L30.1665 10.9668L30.203 10.7984L30.2212 10.63L30.2415 10.4596L30.2598 10.2912L30.278 10.1411L30.2963 9.97266V9.80426L30.3166 9.63586L30.3348 9.48572L30.3531 9.3153V9.16516L30.3714 8.99676V8.84662V8.69649V8.54635L30.3917 8.37795V8.22781V8.09594L30.3714 8.02087V7.9458V7.87073V7.79769V7.72262V7.66581V7.59074L30.3531 7.51567V7.44061V7.3838V7.30873L30.3348 7.25192V7.17685V7.12207L30.3166 7.047V6.99019L30.2963 6.91512V6.85832L30.278 6.78325V6.72644L30.2598 6.67166V6.61485L30.2415 6.53978L30.2212 6.48297V6.42819L30.203 6.37138L30.1847 6.31457L30.1665 6.25776L30.1462 6.20298V6.14618L30.1279 6.08937L30.1096 6.05285L30.0914 5.99604L30.0711 5.93923L30.0528 5.90271L30.0346 5.8459L30.0163 5.78909L29.996 5.75257L29.9778 5.69576H29.996H30.0163H30.0346H30.0528L30.0711 5.6775H30.0914H30.1096H30.1279H30.1462H30.1665H30.1847H30.203H30.2212H30.2598H30.278H30.2963H30.3166H30.3531H30.3714H30.3917H30.4282L30.4464 5.69576H30.485H30.5215H30.5418H30.5783H30.6169H30.6351L30.6716 5.71402H30.7102H30.7467H30.7853H30.8035L30.8421 5.73228H30.8786H30.9171L30.9719 5.75257H31.0105L31.047 5.77083H31.0855H31.1221L31.1606 5.78909H31.2154L31.2539 5.80735L31.2905 5.82764H31.3473L31.3858 5.8459H31.4406L31.4791 5.86416L31.5359 5.88242H31.5725L31.6293 5.90271L31.6658 5.92097L31.7226 5.93923L31.7794 5.95749L31.8159 5.97778L31.8727 5.99604L31.9296 6.0143L31.9661 6.03256L32.0229 6.05285L32.0797 6.07111L32.1365 6.08937L32.1913 6.10763L32.2481 6.12792L32.3049 6.16444L32.3617 6.1827L32.4165 6.20298L32.4733 6.23951L32.5301 6.25776L32.5849 6.27805L32.6417 6.31457L32.6985 6.35312L32.7553 6.37138L32.8101 6.4079L32.8669 6.44645L32.942 6.46471L32.9988 6.50326L33.0556 6.53978L33.1104 6.5763L33.1854 6.61485L33.2422 6.65137L33.2991 6.68992L33.3741 6.72644L33.4309 6.76499L33.506 6.80151L33.5608 6.85832L33.6176 6.89686L33.6927 6.93338L33.7495 6.99019L33.8245 7.02671L33.8793 7.08352L33.9544 7.12207L34.0112 7.17685L34.0863 7.23366L34.1613 7.29047L34.2181 7.32699L34.2932 7.3838L34.35 7.44061L34.4251 7.49741L34.5002 7.55219L34.5549 7.62726L34.63 7.68407L34.7051 7.74088L34.7619 7.79769L34.8369 7.87073L34.8938 7.92754L34.9688 7.98435L35.0236 8.05942L35.0987 8.11623L35.1555 8.19129L35.2306 8.24607L35.2874 8.32114L35.3442 8.37795L35.3989 8.45302L35.474 8.50983L35.5308 8.5849L35.5876 8.64171L35.6444 8.71678L35.6992 8.79184L35.756 8.84662L35.8128 8.92169L35.8697 8.99676L35.9244 9.07183L35.9812 9.12864L36.038 9.20371L36.0949 9.27878L36.1314 9.35385L36.1882 9.42891L36.243 9.50398L36.2815 9.57905L36.3383 9.65412L36.3931 9.72919L36.4317 9.80426L36.4885 9.87933L36.525 9.9544L36.5818 10.0295L36.6183 10.1045L36.6751 10.1796L36.7137 10.2547L36.7502 10.3297L36.807 10.4231L36.8435 10.4981L36.8821 10.5732L36.9186 10.6483L36.9571 10.7233L37.0139 10.8167L37.0505 10.8917L37.089 10.9668L37.1255 11.0601L37.1641 11.1352L37.2006 11.2103L37.2189 11.3056L37.2574 11.3807L37.2939 11.4558L37.3325 11.5491L37.369 11.6242L37.3873 11.7175L37.4258 11.7926L37.4623 11.8859L37.4826 11.961L37.5191 12.0543L37.5577 12.1294L37.5759 12.2247L37.5942 12.2998L37.6328 12.3931L37.651 12.4682L37.6875 12.5615L37.7078 12.6366L37.7261 12.7299L37.7626 12.8232L37.7829 12.8983L37.8012 12.9937L37.8194 13.087L37.8377 13.1621L37.858 13.2554L37.8762 13.3487L37.8945 13.4238L37.9127 13.5192L37.933 13.6125L37.9513 13.6875L37.9695 13.7809L37.9878 13.8742L38.0081 13.9696V14.0426L38.0264 14.138L38.0446 14.2313V14.3246L38.0629 14.3997L38.0832 14.493V14.5884L38.1014 14.6817V14.7568L38.1197 14.8501V14.9434V15.0388L38.1379 15.1321V15.2254V15.3005V15.3938L38.1582 15.4872V15.5825V15.6759V15.7692V15.8443V15.9376V16.0329V16.1263V16.2196L38.1379 16.3129V16.388V16.4813V16.5767L38.1197 16.67V16.7633V16.8567L38.1014 16.952V16.9885V17.0068V17.0271V17.0454V17.0636V17.0819V17.1022L38.0832 17.1204V17.1387V17.1569V17.1772V17.1955V17.2138V17.232V17.2523V17.2706V17.2888V17.3274L38.0629 17.3456V17.3639V17.4024V17.4207V17.439V17.4775V17.4958L38.0446 17.5323V17.5708V17.5891V17.6276V17.6642V17.6824V17.721L38.0264 17.7575V17.796V17.8326V17.9076L38.0081 17.9827V18.0578V18.1328L37.9878 18.2262V18.3012L37.9695 18.3966V18.4899L37.9513 18.565V18.6583L37.933 18.7516V18.8653L37.9127 18.9586V19.0519L37.8945 19.1655V19.2589L37.8762 19.3705V19.4658L37.858 19.5774V19.691L37.8377 19.8026V19.9162L37.8194 20.0278V20.1414L37.8012 20.253V20.3646L37.7626 20.5898L37.7443 20.8353L37.7261 21.0605L37.6875 21.5292L37.6693 21.7727L37.6328 21.9979L37.6125 22.2413L37.5942 22.4665V22.5802L37.5759 22.6917L37.5577 22.8236V22.9352L37.5374 23.0488V23.1422L37.5191 23.2537V23.3674L37.5009 23.479V23.5926L37.4826 23.6859V23.7995L37.4623 23.8928V23.9862L37.4441 24.0978V24.1931L37.4258 24.2865V24.3798L37.4075 24.4731V24.5685L37.3873 24.6435V24.7369V24.8119L37.369 24.9053V24.9803L37.3507 25.0554V25.1305V25.167V25.2055V25.2238L37.3325 25.2623V25.2989V25.3374V25.3557V25.3922V25.4307L37.3142 25.449V25.4876V25.5058V25.5423V25.5626V25.5809V25.6174V25.6377L37.2939 25.6559V25.6925V25.7128V25.731V25.7493V25.7675V25.7878V25.8061V25.8243V25.8426L37.2757 25.8629V25.8812V25.8994V25.9177V25.938V25.9562V25.9927V26.0496L37.2574 26.1814L37.2391 26.3133V26.4249V26.5568L37.2189 26.6866V26.8002V26.9321L37.2006 27.0437V27.1756V27.3075V27.4191V27.5509V27.6808V27.7944V27.9263V28.0379V28.1697V28.3016L37.2189 28.4132V28.5451V28.6567V28.7886L37.2391 28.9204V29.032L37.2574 29.1639V29.2755L37.2757 29.4074L37.2939 29.5392V29.6508L37.3142 29.7827L37.3325 29.8963L37.3507 30.0262V30.1581L37.369 30.2696L37.3873 30.4015L37.4075 30.5151L37.4258 30.645L37.4441 30.7586L37.4623 30.8905L37.5009 31.0021L37.5191 31.1339L37.5374 31.2455L37.5577 31.3774L37.5942 31.489L37.6125 31.6209L37.6328 31.7345L37.6693 31.8643L37.6875 31.978L37.7261 32.1098L37.7443 32.2214L37.7829 32.3533L37.8194 32.4649L37.8377 32.5785L37.8762 32.7084L37.9127 32.822L37.9513 32.9539V32.9721V32.9904H37.9695V33.0086V33.0289V33.0472H37.9878V33.0654V33.0837V33.104L38.0081 33.1223V33.1588L38.0264 33.1973V33.2338L38.0446 33.2724L38.0629 33.3089V33.3475L38.0832 33.4043L38.1014 33.4408V33.4976L38.1197 33.5544L38.1379 33.5909L38.1582 33.6477L38.1765 33.7045L38.1948 33.7979L38.2333 33.9095L38.2698 34.0231L38.2881 34.1347L38.3266 34.2483L38.3449 34.3031L38.3632 34.3416L38.3834 34.3984V34.4532L38.4017 34.4918L38.42 34.5486L38.4382 34.6033V34.6419L38.4585 34.6784L38.4768 34.717V34.7738L38.495 34.8103V34.8285L38.5133 34.8671V34.8854V34.9036L38.5336 34.9239V34.9422V34.9604L38.5518 34.9787V34.999V35.0172V35.0355H38.5701Z" fill="white"/>
<path d="M95.5195 86.0202L92.9123 91.1411L92.9144 91.1472C91.9628 93.0259 91.5002 95.1157 91.5672 97.2217L91.5631 97.2257C89.4572 97.1588 87.3694 97.6214 85.4887 98.5729L85.5029 98.5709L80.3799 101.16L80.3657 101.168C78.276 102.351 75.7439 102.454 73.5629 101.446L73.5771 101.452C72.4855 100.989 71.6172 100.119 71.1546 99.0274L71.1525 99.0172C75.1129 98.4552 78.6249 96.1748 80.7492 92.7865L80.7512 92.7845C77.8763 92.119 75.3807 90.3478 73.8043 87.8523L73.7921 87.8543C70.974 83.3948 68.9126 78.4991 67.6953 73.366L67.7075 73.3539C72.8406 74.5712 77.7363 76.6325 82.1958 79.4507L82.1937 79.4608C84.6893 81.0373 86.4605 83.5348 87.126 86.4097L87.128 86.4057C90.5162 84.2835 92.7967 80.7715 93.3587 76.8111L93.3506 76.8131C94.4421 77.2757 95.3125 78.1441 95.7751 79.2356L95.7873 79.2397C96.7956 81.4207 96.6922 83.9528 95.5093 86.0445" fill="white"/>
<path d="M44.9603 99.3618C46.202 99.4571 47.4416 99.1366 48.4804 98.4508L48.4723 98.4447C50.773 96.9312 51.6556 93.9832 50.5641 91.4552L50.5722 91.4613C49.4563 88.6026 47.2245 86.3181 44.3922 85.1332C41.5599 83.9503 38.3684 83.9666 35.5483 85.1819L35.5564 85.1778C30.2651 87.4522 27.524 93.3339 29.1877 98.8464H29.1918C29.8938 101.508 32.4076 103.284 35.1526 103.054L35.1506 103.056C36.3943 102.955 37.567 102.442 38.4861 101.6L38.478 101.61C39.9408 99.5626 42.5398 98.6659 44.9542 99.3739" fill="white"/>
<path d="M30.4655 57.9929C28.7816 63.4993 31.5003 69.3933 36.7815 71.6879L36.7916 71.6839C39.6057 72.9093 42.7991 72.9398 45.6355 71.765C48.4739 70.5923 50.7118 68.3179 51.8399 65.4633V65.4674C52.9415 62.9414 52.0712 59.9914 49.7745 58.4697L49.7643 58.4636C48.7275 57.7738 47.4899 57.4472 46.2482 57.5385L46.2543 57.5344C43.8359 58.2324 41.243 57.3254 39.7862 55.2742V55.2783C38.8712 54.4322 37.7005 53.9149 36.4568 53.8094L36.4589 53.8114C33.7158 53.572 31.1939 55.3371 30.4818 57.997" fill="white"/>
<path d="M27.9513 77.5972C26.9653 72.0542 22.6356 67.7104 17.0968 66.7081H17.1029C13.3413 65.9432 9.667 68.3576 8.87371 72.1151L8.8595 72.1212C8.60995 73.5394 8.84124 74.9982 9.51686 76.2703L9.51483 76.2682C10.862 78.3499 10.862 81.03 9.51483 83.1117C8.83921 84.3818 8.60995 85.8426 8.8595 87.2607L8.87371 87.2465C9.667 91.004 13.3413 93.4184 17.1029 92.6535L17.0968 92.6718C24.1938 91.3875 29.0185 84.7368 28.0325 77.5911" fill="white"/>
<path d="M9.48438 76.2257C9.49433 76.2416 9.50428 76.2556 9.51424 76.2715" stroke="#231F20" stroke-width="0.25" stroke-miterlimit="10"/>
<path d="M78.5977 56.6797H97.4136V34.3538H78.5977V56.6797Z" fill="black"/>
<path d="M85.7935 56.2145C88.3235 57.3061 91.2695 56.4235 92.785 54.1228L92.7891 54.1309C93.4749 53.0921 93.7954 51.8524 93.7001 50.6108L93.7122 50.6047C93.0062 48.1923 93.8989 45.5994 95.94 44.1345C96.784 43.2155 97.2953 42.0407 97.3947 40.8011H97.3926C97.6239 38.058 95.8487 35.5442 93.1847 34.8422L93.1868 34.8362C87.6722 33.1745 81.7905 35.9155 79.5161 41.2048C78.3069 44.025 78.2907 47.2124 79.4735 50.0427C80.6564 52.875 82.9409 55.1068 85.8016 56.2227L85.7935 56.2145Z" fill="white"/>
<path d="M48.1342 42.1186C48.2397 43.3603 48.7571 44.531 49.6031 45.446H49.6173C51.6685 46.9027 52.5754 49.4977 51.8775 51.9141L51.8816 51.908C51.7903 53.1517 52.1149 54.3873 52.8067 55.4241L52.8108 55.4362C54.3345 57.7309 57.2845 58.6013 59.8105 57.5016H59.8064C62.661 56.3736 64.9354 54.1337 66.1081 51.2973C67.2808 48.4589 67.2524 45.2675 66.027 42.4534L66.029 42.4412C63.7343 37.16 57.8424 34.4433 52.336 36.1273L52.3401 36.1435C49.6802 36.8557 47.9151 39.3756 48.1545 42.1206" fill="white"/>
<path d="M75.5493 33.7555C68.5943 34.4047 62.2966 29.6267 61.0529 22.7508L61.0509 22.7589C60.288 18.9953 62.7024 15.321 66.4579 14.5297L66.464 14.5135C67.8821 14.266 69.3429 14.4973 70.613 15.1729V15.1688C72.6947 16.516 75.3748 16.516 77.4565 15.1688L77.4544 15.1729C78.7265 14.4973 80.1853 14.266 81.6035 14.5135L81.5913 14.5297C85.3488 15.321 87.7632 18.9953 86.9983 22.7589V22.7508C85.9555 28.5027 81.3215 32.9257 75.527 33.6966" fill="white"/>
<path d="M70.6083 15.166C70.5924 15.1561 70.5784 15.1461 70.5625 15.1362" stroke="#231F20" stroke-width="0.25" stroke-miterlimit="10"/>
<path d="M28.4043 35.8717C28.1284 35.9244 27.8444 35.9305 27.5664 35.8879" stroke="#231F20" stroke-width="0.25" stroke-miterlimit="10"/>
<path d="M28.3987 35.8665C28.6483 35.8259 28.8613 35.6697 28.9749 35.4425L28.9871 35.4465C29.0439 35.2964 29.0662 35.1341 29.05 34.9718C29.0378 34.8541 29.0094 34.7384 28.9689 34.6269C29.0805 34.6674 29.1961 34.6938 29.3138 34.706V34.708C29.4741 34.7242 29.6384 34.7019 29.7885 34.6451L29.7845 34.6329C30.0097 34.5214 30.1679 34.3063 30.2085 34.0567L30.2126 34.0608C30.2633 33.7849 30.2694 33.5029 30.2268 33.2249C30.0908 32.4194 29.8616 31.6302 29.541 30.8775L29.543 30.8673L28.8289 29.2361L28.0051 27.6211L27.2727 26.2334L26.447 24.9024L25.5664 23.5897L24.627 22.3318L23.6146 21.1307L22.5454 19.9681L21.4194 18.8807L21.4153 18.8949C18.3882 16.3912 14.3873 15.4032 10.5445 16.2107L10.5324 16.2025C9.7269 20.0452 10.715 24.0462 13.2166 27.0733L13.2308 27.0672C15.7324 29.7697 18.6946 32.0015 21.9814 33.6591L21.9692 33.655C23.0222 34.2211 24.1036 34.7324 25.2093 35.1889L25.2195 35.199C25.9722 35.5196 26.7594 35.7488 27.5649 35.8848" fill="white"/>
<path d="M34.307 82.5871L38.6021 91.4797L38.6102 91.4817C38.8679 92.0173 39.4827 92.279 40.0487 92.0964C40.6127 91.9138 40.9577 91.3417 40.8542 90.7574L40.8724 90.7472L39.4664 82.7372L39.4644 82.7453C39.4035 82.3963 39.5009 82.0372 39.7322 81.7674C39.9615 81.4975 40.3003 81.3433 40.6554 81.3494H40.6655L42.8608 81.0106L45.056 80.617L47.233 80.1666L49.408 79.6411L51.5464 79.0406L53.6849 78.3852L55.7868 77.6711L57.8867 76.9021L59.9521 76.0581L55.0178 72.6252L53.0661 73.5443L51.0777 74.3701L49.0712 75.139L47.0261 75.8329L44.9627 76.472L42.881 77.0157L40.7791 77.5027H40.7548C40.3977 77.4986 40.0609 77.3343 39.8377 77.0543C39.6145 76.7743 39.5293 76.4091 39.6064 76.0601L39.6166 76.0581L41.3229 68.2164H41.2965C41.4223 67.6362 41.1017 67.0519 40.5438 66.8469C39.9858 66.64 39.3609 66.8774 39.0809 67.4029L39.0911 67.3927L34.382 76.19L34.3719 76.1981C34.1933 76.5349 33.8647 76.7641 33.4873 76.8169L33.4995 76.8088L23.6147 78.1965L23.6086 78.2087C23.0203 78.2919 22.582 78.7951 22.582 79.3895C22.582 79.982 23.0203 80.4872 23.6086 80.5683L23.6147 80.5602L33.3879 81.9297L33.3737 81.9419C33.7673 81.9966 34.1081 82.2442 34.2806 82.6033" fill="#E4A197"/>
<path d="M61.1172 65.5918H86.5006V28.242H61.1172V65.5918Z" fill="black"/>
<path d="M70.423 65.5918L71.267 63.5284L72.036 61.4468L72.7502 59.3266L73.4055 57.1881L73.9878 55.0497L74.5133 52.8727L74.9819 50.6977L75.3755 48.5025L75.6941 46.3072C75.692 45.9542 75.8442 45.6194 76.114 45.3902C76.3839 45.1609 76.741 45.0635 77.0899 45.1244L77.1021 45.1061L85.1122 46.5142H85.102C85.6863 46.6156 86.2585 46.2727 86.4411 45.7067C86.6257 45.1426 86.362 44.5279 85.8284 44.2682L85.8405 44.2418L76.952 39.9467L76.9459 39.9406C76.5908 39.7681 76.3413 39.4273 76.2865 39.0337L76.2946 39.0276L74.9251 29.2544L74.9129 29.2686C74.8318 28.6803 74.3286 28.242 73.7342 28.242C73.1397 28.242 72.6365 28.6803 72.5533 29.2686L72.5615 29.2544L71.1737 39.1412L71.1615 39.1453C71.1088 39.5247 70.8795 39.8513 70.5427 40.0319L70.5549 40.0217L61.7556 44.7308L61.7475 44.7409C61.222 45.0209 60.9846 45.6438 61.1916 46.2017C61.3965 46.7597 61.9808 47.0802 62.5611 46.9565L62.5814 46.9646L70.423 45.2563L70.4048 45.2644C70.7537 45.1893 71.1189 45.2745 71.3989 45.4977C71.6789 45.7209 71.8432 46.0577 71.8493 46.4148L71.8676 46.4188L71.3807 48.5207L70.8349 50.6024L70.1978 52.6658L69.5039 54.7109L68.735 56.7195L67.891 58.7078L66.9901 60.6758L70.423 65.5918Z" fill="#E4A197"/>
</svg>
