<svg width="101" height="102" viewBox="0 0 101 102" fill="none" xmlns="http://www.w3.org/2000/svg">
<path d="M100.862 101.098H0.609375V0.845261H100.862V101.098Z" fill="#2A2523"/>
<path fill-rule="evenodd" clip-rule="evenodd" d="M30.931 80.8258C31.2794 81.1732 31.9732 81.87 34.0627 83.9575C34.7596 84.6533 36.1512 86.045 42.4167 87.0922C44.5052 87.4407 48.6832 88.1345 49.7294 82.9133C50.0758 81.1732 50.7716 77.691 47.6409 74.5593C46.5947 73.5151 44.5052 71.4256 39.285 71.4256C37.5459 71.4256 34.0627 71.4256 31.9732 75.6046C31.2794 76.9962 29.8848 79.7815 30.931 80.8258Z" fill="white"/>
<path fill-rule="evenodd" clip-rule="evenodd" d="M31.4017 29.043C32.0965 29.762 33.4902 31.2022 35.5786 34.4369C36.2745 35.5165 37.6671 37.6736 40.7989 35.5165C41.8451 34.7974 43.9336 33.3593 46.0231 31.2022C46.7179 30.4811 48.1106 29.043 48.1106 24.7266C48.1106 23.2885 48.1106 20.4113 43.9336 19.3327C42.5399 18.9712 39.7556 18.2521 34.5354 22.5695C32.7923 24.0076 29.3132 26.8828 31.4017 29.043Z" fill="white"/>
<path fill-rule="evenodd" clip-rule="evenodd" d="M49.0661 61.0774C49.7619 59.6373 51.1546 56.7621 48.0219 50.2875C46.9776 48.1294 44.8881 43.814 40.7111 43.814C39.3185 43.814 36.5342 43.814 33.4004 50.2875C32.3562 52.4447 30.2677 56.7621 31.3119 58.9182C31.6614 59.6373 32.3562 61.0774 39.6669 63.2356C42.1038 63.9546 46.9776 65.3937 49.0661 61.0774Z" fill="white"/>
<path fill-rule="evenodd" clip-rule="evenodd" d="M13.137 6.70225C12.7896 6.88 12.0947 7.2375 14.1832 6.16397C14.8791 5.80748 16.2717 5.09145 18.3602 6.16397C19.056 6.52047 20.4487 7.2375 22.5382 10.4561C23.233 11.5266 24.6267 13.6736 24.6267 14.7472C24.6267 15.1027 24.6267 15.8187 20.4487 19.0362C19.056 20.1098 16.2717 22.2548 12.0947 19.0362C10.7021 17.9627 7.91676 15.8187 6.87151 12.6021C6.5241 11.5266 5.82928 9.38255 10.0052 7.77376C11.3969 7.2375 14.1832 6.16397 13.137 6.70225Z" fill="white"/>
<path fill-rule="evenodd" clip-rule="evenodd" d="M13.7375 55.6489C12.3438 56.365 9.55951 57.794 6.42476 63.1586C5.38253 64.9441 3.29405 68.5202 8.51425 70.6662C10.2553 71.3823 13.7375 72.8123 18.9567 71.7388C20.6978 71.3823 24.1809 70.6662 24.1809 66.3731C24.1809 64.9441 24.1809 62.0841 21.0462 57.794C20.0029 56.365 17.9155 53.5019 13.7375 55.6489Z" fill="white"/>
<path fill-rule="evenodd" clip-rule="evenodd" d="M61.1131 6.03751C61.8089 6.03751 63.2016 6.03751 67.3796 8.19669C68.7722 8.91473 71.5576 10.3518 71.5576 16.8253C71.5576 18.9845 71.5576 23.2988 67.3796 23.2988C65.9869 23.2988 63.2016 23.2988 59.0246 21.1417C57.632 20.4226 54.8477 18.9845 54.8477 14.6682C54.8477 13.2301 54.8477 10.3518 56.9351 8.19669C57.632 7.47562 59.0246 6.03751 61.1131 6.03751Z" fill="white"/>
<path fill-rule="evenodd" clip-rule="evenodd" d="M66.3353 30.0757C66.6848 30.2555 67.3796 30.614 65.2911 29.5375C64.5943 29.1759 63.2016 28.4569 61.1131 29.5375C60.4183 29.895 59.0246 30.614 56.9351 33.8528C56.2403 34.9314 54.8477 37.0875 54.8477 38.1681C54.8477 38.5256 54.8477 39.2447 59.0246 42.4814C60.4183 43.562 63.2016 45.7182 67.3796 42.4814C68.7722 41.4039 71.5576 39.2447 72.6008 36.011C72.9492 34.9314 73.644 32.7712 69.4691 31.1553C68.0754 30.614 65.2911 29.5375 66.3353 30.0757Z" fill="white"/>
<path fill-rule="evenodd" clip-rule="evenodd" d="M13.137 81.8174C12.7896 81.9981 12.0947 82.3556 14.1832 81.2851C14.8791 80.9246 16.2717 80.2096 18.3602 81.2851C19.056 81.6396 20.4487 82.3556 22.5382 85.5742C23.233 86.6447 24.6267 88.7918 24.6267 89.8643C24.6267 90.2228 24.6267 90.9378 20.4487 94.1564C19.056 95.2279 16.2717 97.3739 12.0947 94.1564C10.7021 93.0829 7.91676 90.9378 6.87151 87.7192C6.5241 86.6447 5.82928 84.5017 10.0052 82.8909C11.3969 82.3556 14.1832 81.2851 13.137 81.8174Z" fill="white"/>
<path fill-rule="evenodd" clip-rule="evenodd" d="M78.7784 0.847663C78.7531 0.922396 78.6956 1.07792 78.6178 1.31222C78.0593 2.99674 76.9424 6.37185 80.6598 8.51588C81.899 9.22686 84.3783 10.6539 89.6601 10.0833C91.4214 9.89339 94.9429 9.50862 95.1682 4.82164C95.2005 4.17732 95.2601 2.89272 94.7945 0.847663" fill="white"/>
<path fill-rule="evenodd" clip-rule="evenodd" d="M94.6744 101.098C94.4391 100.198 93.9715 98.4022 92.3133 95.5048C91.2872 93.7062 89.23 90.1109 84.7642 93.5638C83.422 94.6029 80.7377 96.6783 78.9805 101.098" fill="white"/>
<path fill-rule="evenodd" clip-rule="evenodd" d="M85.4215 42.6046C84.0288 43.3186 81.2435 44.7496 78.1087 50.1132C77.0665 51.9008 74.977 55.4758 80.1982 57.6229C81.9393 58.3369 85.4215 59.7669 90.6417 58.6944C92.3838 58.3369 95.8649 57.6229 95.8649 53.3298C95.8649 51.9008 95.8649 49.0407 92.7291 44.7496C91.6869 43.3186 89.5994 40.4575 85.4215 42.6046Z" fill="white"/>
<path d="M79.213 77.8113C79.5079 78.1062 80.0997 78.697 81.8721 80.4683C82.4619 81.0591 83.6435 82.2397 88.9586 83.1274C90.732 83.4243 94.2758 84.0131 95.1615 79.5827C95.4564 78.1062 96.0482 75.1532 93.3901 72.4951C92.5024 71.6095 90.732 69.8371 86.3026 69.8371C84.8261 69.8371 81.8721 69.8371 80.0997 73.3818C79.5079 74.5624 78.3274 76.9256 79.213 77.8113Z" fill="white"/>
</svg>
