<svg width="101" height="102" viewBox="0 0 101 102" fill="none" xmlns="http://www.w3.org/2000/svg">
<path d="M100.285 101.088H0.03125V0.83551H100.285V101.088Z" fill="#2A2523"/>
<path fill-rule="evenodd" clip-rule="evenodd" d="M81.0352 64.2876C81.0352 63.9665 81.0352 63.3262 81.6179 60.4449C81.8128 59.4815 82.2016 57.5586 82.7813 54.6774C82.9792 53.719 83.367 51.8001 82.7813 46.0305C82.5884 44.1087 82.2016 40.266 82.2016 37.3807C82.2016 36.4213 82.2016 34.4984 84.5294 32.5796C85.305 31.9363 86.8583 30.6557 89.1902 29.6943C89.9627 29.3752 91.516 28.7359 92.6794 29.6943C93.0682 30.0175 93.8458 30.6557 94.4265 31.6192C94.6214 31.9363 95.0082 32.5796 94.4265 37.3807C94.2306 38.9824 93.8458 42.1858 94.4265 47.9514C94.6214 49.8732 95.0082 53.719 94.4265 60.4449C94.2306 62.6879 93.8458 67.1709 93.2601 68.1303C93.0682 68.4525 92.6794 69.0917 89.7698 70.0522C88.7973 70.3753 86.8583 71.0126 83.9477 69.0917C82.9792 68.4525 81.0352 67.1709 81.0352 66.2095V64.2876Z" fill="white"/>
<path fill-rule="evenodd" clip-rule="evenodd" d="M59.5484 95.9976C58.3042 95.0341 55.8238 93.1153 56.4469 90.23C56.6499 89.2706 57.066 87.3508 57.066 84.4675C57.066 83.506 57.066 81.5842 56.4469 71.0125C56.2369 67.492 55.8238 60.4448 56.4469 58.524C56.6499 57.8827 57.066 56.6011 60.1695 55.6407C61.2046 55.3196 63.2729 54.6773 65.7573 53.7189C66.5854 53.3977 68.2406 52.7574 68.8637 55.6407C69.0718 56.6011 69.4838 58.524 70.1059 74.8562C70.313 80.3046 70.725 91.1935 70.1059 92.1539C69.8969 92.472 69.4838 93.1153 68.8637 95.9976C68.6577 96.957 68.2406 98.8809 65.7573 98.8809C64.9312 98.8809 63.2729 98.8809 59.5484 95.9976Z" fill="white"/>
<path fill-rule="evenodd" clip-rule="evenodd" d="M56.4465 40.2667C56.2364 39.3063 55.8244 37.3824 56.4465 32.5803C56.6495 30.9786 57.0656 27.7752 56.4465 19.1293C56.2364 16.243 55.8244 10.4775 56.4465 9.51806C56.6495 9.19893 57.0656 8.55764 62.0323 7.59621C63.6885 7.27708 66.999 6.63478 66.999 7.59621C66.999 7.91635 66.999 8.55764 67.6211 9.51806C67.8302 9.8382 68.2412 10.4775 68.8633 17.2035C69.0714 19.4485 69.4834 23.9325 68.8633 31.6199C68.6573 34.18 68.2412 39.3063 69.4834 40.2667C69.8964 40.5848 70.7256 41.2281 68.8633 44.1094C68.2412 45.0698 66.999 46.9927 62.0323 45.0698C60.3791 44.4325 57.0656 43.149 56.4465 40.2667Z" fill="white"/>
<path fill-rule="evenodd" clip-rule="evenodd" d="M32.1719 101.795C32.2749 98.4763 32.4779 91.8412 33.0778 89.9183C33.2767 89.276 33.6746 87.9975 33.0778 86.0756C32.8788 85.4323 32.4779 84.1518 33.0778 83.1934C33.2767 82.8712 33.6746 82.2299 38.4656 82.2299C40.0633 82.2299 43.2566 82.2299 43.2566 86.0756C43.2566 87.3562 43.2566 89.9183 43.0768 101.945" fill="white"/>
<path fill-rule="evenodd" clip-rule="evenodd" d="M44.7083 70.6699C44.7083 70.0306 44.7083 68.747 44.0761 61.0616C43.862 58.4975 43.4368 53.3742 43.4368 45.6858C43.4368 43.1227 43.4368 37.9994 42.8026 37.041C42.5926 36.7168 42.1654 36.0775 42.1654 34.1577C42.1654 33.5144 42.1654 32.2318 41.5332 31.2724C41.3211 30.9543 40.8959 30.314 35.8191 33.1963C34.1255 34.1577 30.7383 36.0775 30.7383 37.041C30.7383 37.3591 30.7383 37.9994 32.0077 48.5691C32.4319 52.0916 33.2772 59.1398 32.643 60.1002C32.4319 60.4203 32.0077 61.0616 32.0077 62.9815C32.0077 63.6238 32.0077 64.9053 32.643 65.8637C32.854 66.1849 33.2772 66.8282 32.643 67.7876C32.4319 68.1098 32.0077 68.747 32.643 69.7115C32.854 70.0306 33.2772 70.6699 37.0866 73.5511C38.357 74.5146 40.8959 76.4344 42.8026 74.5146C43.4368 73.8723 44.7083 72.5917 44.7083 70.6699Z" fill="white"/>
<path fill-rule="evenodd" clip-rule="evenodd" d="M42.7204 0.000286102C42.7427 0.103296 42.7841 0.304268 42.7841 0.616329C42.7841 1.57776 42.7841 3.50062 42.1862 9.26315C41.9842 11.186 41.5893 15.0297 42.1862 15.9901C42.3882 16.3113 42.7841 16.9506 42.1862 17.913C41.9842 18.2321 41.5893 18.8724 39.1918 20.7963C38.393 21.4355 36.7973 22.7171 33.805 19.8338C32.8062 18.8724 30.8086 16.9506 30.8086 15.9901V13.1099C30.8086 12.4656 30.8086 11.186 31.4085 11.186C31.6074 11.186 32.0063 11.186 31.4085 9.26315C31.2105 8.62489 30.8086 7.34332 31.4085 3.50062C31.5044 2.87953 31.6983 1.63734 31.8468 0.000286102" fill="white"/>
<path fill-rule="evenodd" clip-rule="evenodd" d="M81.0352 101.762V98.8794V93.1139C81.0352 92.4706 81.0352 91.192 83.1317 87.3493C83.8286 86.0678 85.2293 83.5046 88.0237 82.5432C88.9538 82.221 90.8161 81.5828 91.516 82.5432C91.7482 82.8633 92.2128 83.5046 92.9117 85.4245C93.146 86.0678 93.6105 87.3493 92.9117 92.1525C92.7349 93.3785 92.3764 95.8295 92.6622 101.762" fill="white"/>
<path fill-rule="evenodd" clip-rule="evenodd" d="M92.6613 0.0123043C92.6906 0.604109 92.7512 1.79277 92.9077 3.7732C93.1431 6.65648 93.6076 12.421 93.6076 15.3043C93.6076 16.2637 93.6076 18.1856 92.2099 19.147C91.7453 19.4671 90.8122 20.1074 85.9222 20.1074C84.2943 20.1074 81.0312 20.1074 81.0312 18.1856V16.2637V12.421V4.73261V0.0123043" fill="white"/>
<path fill-rule="evenodd" clip-rule="evenodd" d="M8.13336 91.1932C7.28504 90.553 5.59041 89.2714 6.22766 87.3505C6.43873 86.7082 6.86088 85.4267 6.86088 83.5058V74.856C6.86088 72.615 6.86088 68.131 6.22766 64.2883C6.01356 63.0088 5.59041 60.4456 6.22766 57.5593C6.43873 56.6009 6.86088 54.6781 10.0401 52.7572C11.0954 52.1159 13.2142 50.8354 15.1169 49.8729C15.7541 49.5548 17.0226 48.9135 17.0226 49.8729C17.0226 50.1951 17.0226 50.8354 17.6578 56.6009C17.8709 58.5238 18.296 62.3655 18.9272 72.9372C19.1393 76.4597 19.5645 83.5058 18.296 88.31C17.8709 89.9107 17.0226 93.1161 15.7541 94.0745C15.3299 94.3956 14.4826 95.0349 12.578 94.0745C11.9417 93.7564 10.6733 93.1161 8.13336 91.1932Z" fill="white"/>
<path fill-rule="evenodd" clip-rule="evenodd" d="M5.58984 36.4219C5.58984 36.1008 5.58984 35.4635 6.2887 32.5803C6.52199 31.6198 6.98856 29.695 6.2887 18.1659C6.05642 14.3201 5.58984 6.63475 8.38627 5.67534C9.31539 5.35419 11.1817 4.71492 13.9751 4.71492C14.9093 4.71492 16.7675 4.71492 17.4684 5.67534C17.6996 5.99347 18.1642 6.63475 18.863 8.55762C19.0973 9.19891 19.5639 10.4785 18.863 11.4409C18.6318 11.76 18.1642 12.4023 18.1642 19.1293V30.6574C18.1642 32.2591 18.1642 35.4635 18.863 37.3824C19.0973 38.0247 19.5639 39.3062 18.1642 42.1865C17.6996 43.1489 16.7675 45.0698 13.9751 44.1094C13.045 43.7892 11.1817 43.1489 8.38627 41.2281C7.45312 40.5848 5.58984 39.3062 5.58984 38.3448V36.4219Z" fill="white"/>
</svg>
