<svg width="101" height="101" viewBox="0 0 101 101" fill="none" xmlns="http://www.w3.org/2000/svg">
<path d="M100.419 100.964H0.570312V1.11523H100.419V100.964Z" fill="white"/>
<path d="M87.9249 0.982835C88.3414 1.8157 89.1745 3.4832 89.7987 14.1051C90.0074 17.6464 90.4248 24.7278 92.2984 38.4762C92.9234 43.0573 94.1735 52.2228 94.7981 66.5946C95.0066 71.3859 95.4222 80.9671 96.0482 84.7162C96.256 85.9663 96.6723 88.4667 96.0482 86.5907C95.8395 85.9663 95.4222 84.7162 93.5485 74.0926C92.9234 70.5522 91.674 63.4714 90.4246 56.5962C90.0074 54.3052 89.1745 49.723 83.8572 35.3591C82.085 30.5692 78.5397 20.9937 76.6646 15.9953C76.0396 14.3293 74.7901 10.9968 71.6661 0.982765L45.4331 0.989686C48.7666 5.98487 55.4317 15.9804 61.0553 25.9781C62.9297 29.3106 66.6793 35.9756 72.3029 46.5992C74.1775 50.1405 77.9264 57.2213 81.6762 64.0952C82.9247 66.3862 85.4251 70.9688 88.5499 79.7171C89.5908 82.6325 91.6737 88.4668 91.0487 88.4668C90.8409 88.4668 90.4245 88.4668 88.5499 85.9664C87.9248 85.1327 86.6748 83.466 76.677 72.2182C73.3447 68.47 66.6793 60.9711 64.1798 57.2213C63.3461 55.9719 61.6795 53.4725 54.8067 45.3492C52.5148 42.641 47.9337 37.2259 41.6851 29.727C39.6013 27.2278 35.4356 22.2292 31.0555 17.2291C29.5951 15.5632 26.6759 12.2306 16.6892 0.982825H0.448439V17.2291C3.77944 20.1458 10.4408 25.9781 21.6884 37.2259C25.4368 40.9741 32.9362 48.4739 42.9338 57.2213C46.2664 60.1382 52.9313 65.9696 62.9298 74.7185C66.263 77.6348 72.928 83.4662 79.1759 87.8417C81.2597 89.2989 85.4251 92.2151 79.8009 90.3398C77.9265 89.7154 74.1776 88.4667 62.3047 81.5915C58.3478 79.3007 50.4326 74.7185 40.4343 69.0943C37.1017 67.219 30.4366 63.4716 17.3145 55.9718C12.9395 53.4724 4.19231 48.4738 0.441406 45.9737L0.44855 72.2183C3.36235 73.0521 9.19061 74.7187 22.9385 78.4676C27.5196 79.717 36.6854 82.2158 49.8077 86.5909C54.1827 88.0497 62.9299 90.9648 72.3033 93.4645C75.4281 94.2974 81.6767 95.964 77.3025 96.5893C75.8444 96.7971 72.9284 97.2127 59.1802 96.5893C54.5982 96.3812 45.4336 95.964 36.9915 94.7224C34.1779 94.3085 28.5496 93.4795 15.4281 90.9807C11.0533 90.1469 2.30589 88.4809 0.442596 88.4682L0.448846 100.963H100.422V0.982868L87.9249 0.982835Z" fill="#2A2523"/>
</svg>
