<svg width="37" height="46" viewBox="0 0 37 46" fill="none" xmlns="http://www.w3.org/2000/svg">
<path d="M20.2102 6.83754V14H32.3463C34.5731 14 36.3784 15.789 36.3784 17.9881V42.0119C36.3784 44.2145 34.5744 46 32.3463 46H4.03212C1.80524 46 0 44.211 0 42.0119V17.9881C0 15.7855 1.80401 14 4.03212 14H16.1682V6.83106L13.8855 9.08998C13.1035 9.86383 11.8353 9.86343 11.0405 9.07694C10.2513 8.29589 10.2559 7.02495 11.0273 6.26155L16.77 0.578616C17.1588 0.193832 17.6679 0.00047404 18.1792 0L18.1946 0.00597072C18.7079 0.00705428 19.2182 0.199037 19.6018 0.578616L25.3445 6.26155C26.1265 7.0354 26.1261 8.29045 25.3313 9.07694C24.542 9.85799 23.2577 9.85338 22.4863 9.08998L20.2102 6.83754ZM16.1682 18H4.04204V42H32.3363V18H20.2102V26.003C20.2102 27.1059 19.3131 28 18.1892 28C17.073 28 16.1682 27.105 16.1682 26.003V18ZM10.1051 14V18H26.2733V14H10.1051ZM16.1682 14H20.2102V18H16.1682V14Z" fill="white"/>
</svg>
