<svg width="70" height="70" viewBox="0 0 70 70" fill="none" xmlns="http://www.w3.org/2000/svg">
<path d="M11.6077 37.7259C11.6077 37.1238 11.3701 36.6516 10.8983 36.2988C10.4268 35.9464 9.66839 35.7686 8.61662 35.7686H3.9362V39.7313H8.74421C9.63881 39.7313 10.3359 39.5738 10.8444 39.2558C11.3581 38.9408 11.6077 38.4481 11.6077 37.7773V37.7259ZM10.5806 30.5225C10.5806 29.927 10.3568 29.4687 9.90075 29.1468C9.44467 28.8321 8.78642 28.6746 7.93034 28.6746H3.9362V32.4801H7.66624C8.56085 32.4801 9.2684 32.3259 9.79597 32.0315C10.3183 31.7304 10.5806 31.2413 10.5806 30.5739V30.5225ZM15.1143 40.4292C14.7892 41.0453 14.3297 41.5586 13.7232 41.9727C13.1208 42.3799 12.3975 42.6948 11.5538 42.8968C10.7029 43.102 9.763 43.2012 8.73558 43.2012H0V25.2011H8.52078C10.4092 25.2011 11.8872 25.6186 12.9633 26.4607C14.0379 27.2989 14.5741 28.4316 14.5741 29.8554V29.9067C14.5741 30.4233 14.5131 30.8716 14.3787 31.2685C14.2511 31.6621 14.0782 32.0215 13.8616 32.3362C13.6413 32.6578 13.3898 32.935 13.1066 33.1711C12.8185 33.4141 12.5128 33.6194 12.1809 33.7908C13.245 34.1877 14.0798 34.7215 14.6878 35.3989C15.2958 36.0764 15.6 37.0143 15.6 38.212V38.2667C15.6 39.0913 15.4391 39.8102 15.1143 40.4292Z" fill="#FFFEF2"/>
<path d="M63.868 28.8524V43.2012H59.7285V28.8524H54V25.2011H69.6V28.8524H63.868Z" fill="#FFFEF2"/>
<path d="M31.7616 3.59511V7.42628H40.7811V11.0317H31.7616V18H27.5996V-6.86646e-05H41.9996V3.59511H31.7616Z" fill="#FFFEF2"/>
<path d="M69.1101 68.4004L0 0.484932L0.491627 0.00012207L69.5999 67.919L69.1101 68.4004Z" fill="#FFFEF2"/>
<path d="M0.491626 68.4004L0 67.919L69.1101 0.00012207L69.5999 0.484932L0.491626 68.4004Z" fill="#FFFEF2"/>
<path d="M32.3994 31.2011H37.1994V37.2012H32.3994V31.2011Z" fill="#FFFEF2"/>
<path d="M26.7469 67.2889L25.2201 64.9986C25.1693 64.9093 25.2201 64.7996 25.3215 64.7996H25.6187C25.6634 64.7996 25.7016 64.8339 25.7203 64.8616L27.0001 66.7745L28.2799 64.8616C28.2987 64.8339 28.3369 64.7996 28.3815 64.7996H28.6787C28.7804 64.7996 28.8309 64.9093 28.7804 64.9986L27.2345 67.2819V69.4696C27.2345 69.5379 27.1778 69.5996 27.1144 69.5996H26.867C26.7977 69.5996 26.7469 69.5379 26.7469 69.4696V67.2889Z" fill="#FFFEF2"/>
<path d="M30 64.9296C30 64.8613 30.0446 64.7996 30.1059 64.7996H32.2941C32.3554 64.7996 32.4 64.8613 32.4 64.9296V65.1283C32.4 65.197 32.3554 65.259 32.2941 65.259H30.428V66.932H32.0222C32.0778 66.932 32.1278 66.9941 32.1278 67.0627V67.2614C32.1278 67.3365 32.0778 67.3915 32.0222 67.3915H30.428V69.1402H32.2941C32.3554 69.1402 32.4 69.2022 32.4 69.2709V69.4696C32.4 69.5379 32.3554 69.5996 32.2941 69.5996H30.1059C30.0446 69.5996 30 69.5379 30 69.4696V64.9296Z" fill="#FFFEF2"/>
<path d="M35.9001 67.9904C35.5404 67.2538 35.1883 66.51 34.8282 65.7731H34.7697L33.6986 67.9904H35.9001ZM32.4141 69.4238L34.6448 64.8742C34.6673 64.8334 34.7037 64.7996 34.7697 64.7996H34.8432C34.9096 64.7996 34.946 64.8334 34.9678 64.8742L37.1846 69.4238C37.2289 69.5115 37.17 69.5996 37.0601 69.5996H36.7661C36.7001 69.5996 36.6562 69.5589 36.6415 69.525L36.0981 68.4098H33.4927L32.9575 69.525C32.9425 69.5589 32.8986 69.5996 32.8326 69.5996H32.5386C32.4287 69.5996 32.3702 69.5115 32.4141 69.4238Z" fill="#FFFEF2"/>
<path d="M39.1819 67.2683C39.7404 67.2683 40.2262 66.8295 40.2262 66.2668C40.2262 65.7461 39.7404 65.3003 39.1819 65.3003H37.7742V67.2683H39.1819ZM37.2002 64.9299C37.2002 64.8616 37.2584 64.7996 37.3388 64.7996H39.2179C40.0886 64.7996 40.8002 65.4443 40.8002 66.2601C40.8002 66.8909 40.3571 67.419 39.7259 67.659L40.7197 69.4006C40.7709 69.4896 40.7197 69.5996 40.5966 69.5996H40.2262C40.1613 69.5996 40.1253 69.5653 40.1108 69.5376L39.1452 67.721H37.7594V69.4693C37.7594 69.5376 37.6938 69.5996 37.6211 69.5996H37.3388C37.2584 69.5996 37.2002 69.5376 37.2002 69.4693V64.9299Z" fill="#FFFEF2"/>
<path d="M42.0304 68.8328C42.0576 68.7926 42.0847 68.7462 42.1124 68.7064C42.1672 68.6195 42.2273 68.5664 42.304 68.6461C42.342 68.6863 42.742 69.153 43.2289 69.153C43.6722 69.153 43.9625 68.8127 43.9625 68.4195C43.9625 67.9593 43.6342 67.6864 43.0046 67.3662C42.4027 67.0463 42.0413 66.7462 42.0413 65.9865C42.0413 65.533 42.337 64.7996 43.2071 64.7996C43.7433 64.7996 44.1429 65.1399 44.1429 65.1399C44.1754 65.1597 44.2411 65.2397 44.1754 65.3665C44.1541 65.4063 44.132 65.453 44.1102 65.4932C44.0607 65.5862 44.0059 65.6128 43.9186 65.5531C43.88 65.5266 43.5355 65.2462 43.2012 65.2462C42.6214 65.2462 42.4461 65.6996 42.4461 65.9797C42.4461 66.4266 42.7252 66.6862 43.1853 66.9196C43.9237 67.2865 44.4 67.6261 44.4 68.3994C44.4 69.0927 43.858 69.5996 43.218 69.5996C42.5722 69.5996 42.1342 69.1397 42.0634 69.0593C42.0195 69.0127 41.9647 68.9595 42.0304 68.8328Z" fill="#FFFEF2"/>
<path d="M26.2225 52.1507L24.8633 52.941C24.7128 53.0259 24.5614 53.0399 24.4292 52.927L24.0711 52.6307C23.9389 52.5178 24.0144 52.3905 24.1086 52.32L26.7511 50.4H27.2606C27.4486 50.4 27.6 50.5269 27.6 50.6682V59.7318C27.6 59.8731 27.4486 60 27.2606 60H26.5806C26.373 60 26.2225 59.8731 26.2225 59.7318V52.1507Z" fill="#FFFEF2"/>
<path d="M35.1233 55.1998C35.1233 52.7176 34.3582 51.2911 33.0001 51.2911C31.642 51.2911 30.8764 52.7176 30.8764 55.1998C30.8764 57.7096 31.642 59.1086 33.0001 59.1086C34.3582 59.1086 35.1233 57.7096 35.1233 55.1998ZM30 55.1998C30 52.1965 31.0867 50.4 33.0001 50.4C34.9138 50.4 36 52.1965 36 55.1998C36 58.2035 34.9138 60 33.0001 60C31.0867 60 30 58.2035 30 55.1998Z" fill="#FFFEF2"/>
<path d="M44.5481 55.1998C44.5481 52.7176 43.6293 51.2911 41.9996 51.2911C40.3699 51.2911 39.4511 52.7176 39.4511 55.1998C39.4511 57.7096 40.3699 59.1086 41.9996 59.1086C43.6293 59.1086 44.5481 57.7096 44.5481 55.1998ZM38.3994 55.1998C38.3994 52.1965 39.7035 50.4 41.9996 50.4C44.296 50.4 45.5994 52.1965 45.5994 55.1998C45.5994 58.2035 44.296 60 41.9996 60C39.7035 60 38.3994 58.2035 38.3994 55.1998Z" fill="#FFFEF2"/>
</svg>
