<svg width="33" height="34" viewBox="0 0 33 34" fill="none" xmlns="http://www.w3.org/2000/svg">
<path d="M31.7634 17.0164C31.7634 25.8783 24.5602 33.0898 15.7087 33.0898C9.5725 33.0898 4.0643 29.6696 1.33036 24.1615C1.02778 23.5495 1.27633 22.8076 1.88766 22.5032C2.49744 22.2049 3.23997 22.4491 3.54253 23.0611C5.85504 27.7207 10.5157 30.6189 15.7085 30.6189C23.1986 30.6189 29.2933 24.5171 29.2933 17.0183C29.2918 9.51795 23.1986 3.41619 15.7085 3.41619C11.894 3.41619 8.32041 5.02507 5.773 7.7747L7.52513 7.45632C8.18739 7.33732 8.83883 7.78088 8.96078 8.45163C9.08274 9.12238 8.63814 9.76685 7.96664 9.88895L3.10537 10.773C3.03127 10.7869 2.95562 10.7931 2.88307 10.7931C2.29799 10.7931 1.77775 10.3743 1.66971 9.77769L0.785148 4.91235C0.663196 4.2416 1.10779 3.59712 1.7793 3.47502C2.44773 3.35911 3.093 3.79958 3.21495 4.47032L3.58082 6.48724C6.60961 2.98509 11.0108 0.943359 15.7069 0.943359C24.5585 0.943359 31.7616 8.15492 31.7616 17.0167L31.7634 17.0164Z" fill="black" stroke="black" stroke-width="0.574044"/>
</svg>
