<svg width="184" height="184" viewBox="0 0 184 184" fill="none" xmlns="http://www.w3.org/2000/svg">
<path d="M183.945 0.00585938H0.000152588V184.001H183.945V0.00585938Z" fill="#A7C7AF"/>
<mask id="mask0_1143_15809" style="mask-type:luminance" maskUnits="userSpaceOnUse" x="0" y="-1" width="184" height="185">
<path d="M183.945 -0.00195312H0.000152588V183.996H183.945V-0.00195312Z" fill="white"/>
</mask>
<g mask="url(#mask0_1143_15809)">
<path fill-rule="evenodd" clip-rule="evenodd" d="M45.0924 7.72337C46.2414 8.61268 47.4193 9.46526 48.6155 10.2864L49.1192 10.6274C50.6433 11.6741 52.0101 12.9333 53.1749 14.3735L55.6434 17.4297L56.3438 18.2849C58.6917 21.1942 61.3492 23.828 64.2689 26.1391L65.132 26.8212C67.4799 28.6864 69.6284 30.7955 71.5382 33.1146C73.4506 35.4283 75.5361 37.6031 77.7686 39.6073L79.5891 41.2416C83.0309 44.3345 86.2996 47.6294 89.3742 51.1001L91.9896 54.0566V54.1038L97.9419 59.8436C100.104 61.9318 102.147 64.1459 104.062 66.4623L104.33 66.7902C106.066 68.8915 107.895 70.9193 109.81 72.8501L111.431 74.4871C112.268 75.3318 113.084 76.1975 113.876 77.0815C114.671 77.9656 115.516 78.7998 116.418 79.5711L119.666 82.3492L123.574 85.6992C124.034 86.0979 124.459 86.5308 124.842 87.0003C125.225 87.4673 125.621 87.9238 126.04 88.3592L129.823 92.3519H129.847L133.997 97.6065C134.897 98.7397 135.93 99.7681 137.074 100.652C138.226 101.539 139.398 102.391 140.597 103.207L141.098 103.554C142.625 104.6 143.989 105.859 145.157 107.302L147.628 110.356L148.32 111.211C150.673 114.115 153.331 116.749 156.253 119.068L157.114 119.753C159.459 121.613 161.608 123.719 163.52 126.033C165.432 128.354 167.518 130.527 169.748 132.531L171.566 134.165C175.015 137.263 178.284 140.553 181.353 144.026L183.969 146.983V130.576L180.899 127.473C179.168 125.726 177.536 123.882 176.004 121.961C174.475 120.036 172.733 118.297 170.815 116.77L170.047 116.164L168.659 115.062C167.158 113.866 165.815 112.47 164.669 110.925C163.52 109.367 162.261 107.898 160.904 106.531L157.767 103.373C154.323 99.8992 150.773 96.523 147.127 93.2622L146.106 92.3519H146.064C145.277 91.3551 144.427 90.4054 143.52 89.5161L139.745 85.7989L136.363 82.4594C135.198 81.313 134.034 80.1535 132.872 78.9939C131.712 77.8266 130.508 76.7195 129.264 75.644L128.231 74.7625C126.298 73.102 124.356 71.4519 122.41 69.8097L121.882 69.3663C119.587 67.4356 117.473 65.2949 115.558 62.9759C113.643 60.6569 111.691 58.3641 109.702 56.1002L107.577 53.6867L105.266 51.0555C103.412 48.9437 101.365 46.9998 99.1644 45.2501C96.9661 43.5056 94.9776 41.4987 93.2436 39.2794L91.9896 37.6713V37.645L88.9177 34.5495C87.1889 32.8024 85.552 30.9582 84.0226 29.0327C82.4958 27.115 80.7539 25.3705 78.8363 23.8437L78.0676 23.2377L76.6799 22.1333C75.1741 20.9397 73.8309 19.5493 72.6872 17.9963C71.5408 16.4407 70.2816 14.9742 68.9227 13.6022L65.7878 10.4464C62.3408 6.9731 58.7914 3.60212 55.145 0.341323L54.1245 -0.574219H37.8651L42.0152 4.68293C42.9124 5.81621 43.9486 6.83931 45.0924 7.72337Z" fill="#3B4C52"/>
<path fill-rule="evenodd" clip-rule="evenodd" d="M83.8599 92.3493L83.9439 92.4306C85.5284 93.9285 87.0893 95.4527 88.6213 96.9978L89.7651 98.1573C90.5337 98.9339 91.2761 99.734 91.9896 100.566L99.3166 108.811L103.485 113.302L108.472 118.677C110.513 120.873 112.491 123.131 114.409 125.443C116.324 127.756 118.344 129.981 120.461 132.103L127.056 138.738L131.054 142.759C134.899 146.626 138.939 150.306 143.152 153.767L145.702 155.871C148.218 157.94 150.629 160.131 152.927 162.442C155.222 164.751 157.565 167.028 159.942 169.255L164.997 174.003L171.285 179.905C172.843 181.364 174.362 182.87 175.839 184.407H183.969V176.23L179.687 171.356C177.177 168.494 174.58 165.719 171.899 163.014L163.853 154.924L162.195 153.266C160.621 151.678 158.858 150.301 156.951 149.144C155.039 147.995 153.281 146.61 151.707 145.026L150.629 143.94C148.328 141.631 146.174 139.181 144.181 136.602L143.152 135.27L140.401 131.718C139.558 130.624 138.548 129.679 137.407 128.913C136.256 128.142 135.138 127.324 134.06 126.453L132.803 125.443L132.468 125.178C130.778 123.813 129.162 122.358 127.63 120.815C126.098 119.283 124.626 117.68 123.212 116.022L121.882 114.464C119.584 111.762 117.181 109.154 114.687 106.646L112.685 104.637C108.852 100.783 105.03 96.9139 101.219 93.0419L100.117 91.9165L91.9896 83.7448L87.7057 78.8628C85.1952 76.0112 82.5981 73.2252 79.9171 70.5311L71.8687 62.4381L70.2134 60.7723C68.6368 59.1878 66.8765 57.8053 64.9694 56.6563C63.0596 55.4994 61.2967 54.1222 59.7227 52.5377L58.6445 51.4516C56.3465 49.1405 54.1954 46.6903 52.199 44.1089L51.1733 42.7841L48.4188 39.2217C47.5767 38.1304 46.5615 37.1886 45.4256 36.4226C44.2739 35.6539 43.1564 34.8276 42.0782 33.9645L40.8242 32.9572L40.4885 32.6843C38.7964 31.3228 37.1804 29.8721 35.651 28.3296C34.1164 26.7871 32.6447 25.1895 31.2334 23.5342L29.9007 21.9707C27.6001 19.2765 25.1997 16.6689 22.7049 14.1558L20.7033 12.1411C16.8706 8.28738 13.0511 4.42847 9.23938 0.545947L8.13759 -0.574219H0.00788879V7.6027C2.30592 10.63 4.75087 13.534 7.33223 16.3226L11.506 20.819L16.4903 26.1811C18.5312 28.3847 20.5118 30.6434 22.4295 32.9572C24.3445 35.2631 26.3618 37.4876 28.4762 39.6152L35.0765 46.2522L39.0719 50.2659C42.9203 54.1405 46.9576 57.8106 51.1733 61.2786L53.7205 63.3746C56.2363 65.4445 58.6445 67.6376 60.9452 69.9487C63.2432 72.2625 65.5832 74.5343 67.96 76.7667L73.0177 81.5097L79.3032 87.4096L83.8599 92.3493Z" fill="#3B4C52"/>
<path fill-rule="evenodd" clip-rule="evenodd" d="M97.7305 90.1074L96.5841 88.9531C95.0521 87.4027 93.541 85.8235 92.0667 84.2285" fill="#3B4C52"/>
<path fill-rule="evenodd" clip-rule="evenodd" d="M37.8633 91.9197L42.0161 97.1479C42.9133 98.2838 43.9469 99.2991 45.0906 100.178C46.2396 101.062 47.4175 101.915 48.6137 102.728L49.1174 103.071C50.6442 104.108 52.011 105.367 53.1757 106.799L55.6416 109.837L56.3394 110.692C58.6873 113.586 61.35 116.209 64.2698 118.515L65.1276 119.189C67.4781 121.044 69.6266 123.137 71.5364 125.446C73.4514 127.757 75.5343 129.916 77.7668 131.912L79.5874 133.539C83.0318 136.621 86.2979 139.898 89.3724 143.353L91.9878 146.293V146.338L97.9402 152.059C100.102 154.137 102.145 156.335 104.06 158.644L104.331 158.972C106.067 161.063 107.893 163.08 109.808 165L111.429 166.632C112.266 167.474 113.082 168.337 113.872 169.219C114.669 170.097 115.516 170.921 116.419 171.69L119.664 174.46L123.573 177.792C124.029 178.188 124.457 178.618 124.84 179.082C125.223 179.552 125.622 180.006 126.041 180.444L129.821 184.41H144.958H146.062C145.276 183.421 144.423 182.477 143.518 181.59L139.743 177.883L136.364 174.573C135.197 173.419 134.029 172.275 132.87 171.115C131.71 169.961 130.506 168.849 129.263 167.789L128.232 166.902C126.298 165.25 124.354 163.605 122.408 161.973L121.881 161.532C119.585 159.615 117.473 157.482 115.558 155.176C113.641 152.862 111.689 150.583 109.701 148.334L107.576 145.929L105.267 143.311C103.41 141.204 101.361 139.276 99.1627 137.534C96.9643 135.795 94.9784 133.798 93.2444 131.587L91.9878 129.989V129.963L88.9159 126.878C87.1872 125.141 85.5528 123.308 84.0234 121.387C82.494 119.478 80.7521 117.749 78.8345 116.23L78.0658 115.619L76.6781 114.522C75.1749 113.334 73.8318 111.951 72.688 110.404C71.539 108.856 70.2772 107.397 68.9209 106.033L65.7861 102.893C62.3416 99.4276 58.7896 96.075 55.1432 92.8326L54.1227 91.9197H54.0808C53.2938 90.928 52.4438 89.9889 51.5388 89.1022L47.7612 85.4007L44.3797 82.0769C43.2123 80.9384 42.0502 79.7789 40.8907 78.6273C39.7285 77.4651 38.5244 76.3554 37.2784 75.293L36.2474 74.4116C34.314 72.7589 32.3754 71.114 30.4262 69.4823L29.9016 69.0416C27.6035 67.1187 25.4865 64.9912 23.5767 62.6879C21.6617 60.3741 19.7073 58.0971 17.7188 55.8384L15.5965 53.4381L13.2854 50.82C11.4255 48.7134 9.38188 46.7801 7.18353 45.0382C4.98256 43.3015 2.9967 41.3078 1.26268 39.0963L0.00610352 37.4961V53.8473L5.95844 59.5662C8.12268 61.6438 10.1636 63.8448 12.076 66.156L12.3489 66.4839C14.0829 68.5747 15.9113 70.5841 17.8264 72.5149L19.4476 74.144C20.2844 74.9834 21.1003 75.8413 21.8899 76.7201C22.6848 77.6041 23.5347 78.4279 24.4345 79.1965L27.6848 81.9667L31.591 85.3089C32.0501 85.6945 32.475 86.1247 32.8554 86.5917C33.2384 87.0586 33.6398 87.5125 34.0543 87.9479L37.8424 91.9197H37.8633Z" fill="#3B4C52"/>
<path fill-rule="evenodd" clip-rule="evenodd" d="M88.6174 4.0717L89.7638 5.22858C90.5324 6.00509 91.2748 6.81045 91.9883 7.6368C94.2838 10.6772 96.7261 13.6049 99.3127 16.3987L103.484 20.9135L108.468 26.3096C110.509 28.5211 112.492 30.7929 114.407 33.1093C116.32 35.431 118.34 37.6687 120.457 39.8014L127.052 46.4699L131.05 50.5072C134.898 54.3924 138.938 58.0886 143.151 61.5724L145.701 63.679C148.214 65.7566 150.625 67.9576 152.926 70.2793C155.221 72.6035 157.564 74.8858 159.938 77.1235L164.996 81.9006L171.284 87.8267C172.839 89.2931 174.358 90.8015 175.838 92.3493L175.922 92.4306C177.509 93.9285 179.067 95.4501 180.599 97.0005L181.746 98.1547C182.514 98.9312 183.254 99.7392 183.965 100.563V92.3493V84.1383L179.686 79.2353C177.176 76.3627 174.576 73.5689 171.895 70.8643L163.849 62.7319L162.191 61.0609C160.617 59.4685 158.854 58.0834 156.95 56.9213C155.037 55.7617 153.277 54.3766 151.703 52.7843L150.625 51.6956C148.324 49.3739 146.173 46.9106 144.182 44.3214L143.151 42.9835L140.397 39.4132C139.555 38.3166 138.545 37.3617 137.403 36.5931C136.254 35.8166 135.137 34.9955 134.059 34.1272L132.802 33.1093L132.466 32.8417C130.774 31.4724 129.158 30.0138 127.626 28.466C126.094 26.9156 124.625 25.3128 123.211 23.6443L121.881 22.073C119.581 19.3657 117.178 16.745 114.685 14.2214L112.684 12.204C108.848 8.32936 105.026 4.45208 101.217 0.548566L100.115 -0.574219H91.9883H83.856L83.94 -0.492896C85.5245 0.999778 87.0854 2.52131 88.6174 4.0717Z" fill="#3B4C52"/>
<path fill-rule="evenodd" clip-rule="evenodd" d="M47.7585 177.882L44.3771 174.566C43.2097 173.419 42.0475 172.268 40.888 171.114C39.7259 169.959 38.5244 168.85 37.2757 167.782L36.2447 166.901C34.314 165.25 32.3701 163.606 30.4236 161.974L29.8989 161.536C27.6009 159.608 25.4838 157.483 23.5741 155.177C21.6564 152.86 19.7047 150.583 17.7162 148.327L15.5939 145.922L13.2827 143.304C11.4228 141.205 9.37924 139.269 7.18089 137.527C4.97992 135.788 2.99406 133.791 1.26004 131.588L0.00346375 129.982V146.339L5.9558 152.052C8.12004 154.13 10.1636 156.329 12.076 158.642L12.3462 158.97C14.0802 161.061 15.9087 163.073 17.8237 164.999L19.445 166.63C20.2818 167.467 21.095 168.33 21.8873 169.212C22.6821 170.09 23.5321 170.922 24.4319 171.691L27.6822 174.453L31.5883 177.793C32.0448 178.181 32.4698 178.611 32.8528 179.081C33.2358 179.553 33.6372 180.007 34.0516 180.445L37.8397 184.403H52.9763H54.0781C53.2885 183.414 52.4412 182.475 51.5361 181.589L47.7585 177.882Z" fill="#3B4C52"/>
<path fill-rule="evenodd" clip-rule="evenodd" d="M137.074 7.72337C138.226 8.61268 139.398 9.46526 140.597 10.2864L141.098 10.6274C142.622 11.6741 143.987 12.9333 145.157 14.3735L147.628 17.4297L148.32 18.2849C150.673 21.1942 153.328 23.828 156.251 26.1391L157.114 26.8212C159.462 28.6864 161.608 30.7955 163.52 33.1146C165.432 35.4283 167.515 37.6031 169.748 39.6073L171.566 41.2416C175.013 44.3345 178.281 47.6294 181.353 51.1001L183.969 54.0566V37.645L180.899 34.5495C179.168 32.8024 177.534 30.9582 176.002 29.0327C174.475 27.115 172.736 25.3705 170.815 23.8437L170.047 23.2377L168.659 22.1333C167.156 20.9397 165.813 19.5493 164.666 17.9963C163.52 16.4407 162.263 14.9742 160.904 13.6022L157.77 10.4464C154.323 6.9731 150.773 3.60212 147.127 0.341323L146.104 -0.574219H129.847L133.994 4.68293C134.894 5.81621 135.928 6.83931 137.074 7.72337Z" fill="#3B4C52"/>
<path fill-rule="evenodd" clip-rule="evenodd" d="M180.6 4.0717L181.747 5.22858C182.515 6.00509 183.255 6.81045 183.969 7.6368V-0.574219H175.836L175.92 -0.492896C177.507 0.999778 179.066 2.52131 180.6 4.0717Z" fill="#3B4C52"/>
<path fill-rule="evenodd" clip-rule="evenodd" d="M3.36494 179.923L2.21855 178.768C1.44991 177.992 0.710136 177.184 -0.00340939 176.357V184.568H8.12891L8.04496 184.49C6.45785 182.994 4.89959 181.476 3.36494 179.923Z" fill="#3B4C52"/>
<path fill-rule="evenodd" clip-rule="evenodd" d="M0.00184631 91.9157V100.087C2.29988 103.117 4.74744 106.029 7.32617 108.81L11.4999 113.301L16.4842 118.674C18.5252 120.872 20.5058 123.131 22.4234 125.442C24.3385 127.756 26.3584 129.98 28.4702 132.103L35.0731 138.742L39.0658 142.758C42.9142 146.625 46.9542 150.306 51.1672 153.766L53.7145 155.87C56.2303 157.937 58.6411 160.13 60.9391 162.441C63.2372 164.75 65.5772 167.027 67.9565 169.254L73.0117 174L79.2998 179.902C80.8554 181.363 82.3743 182.869 83.8513 184.406H91.9836V184.42H100.113C99.2922 183.696 98.4999 182.95 97.7287 182.177L96.5823 181.02C95.0503 179.469 93.5418 177.89 92.0623 176.29L91.9836 176.209V176.23L87.6997 171.355C85.1892 168.493 82.5921 165.718 79.9137 163.013L71.8627 154.923L70.2073 153.265C68.6333 151.678 66.8731 150.301 64.9659 149.144C63.0535 147.992 61.2907 146.61 59.7167 145.025L58.6411 143.939C56.3404 141.63 54.1919 139.18 52.193 136.602L51.1672 135.269L48.4127 131.717C47.5733 130.623 46.558 129.676 45.4195 128.913C44.2679 128.144 43.153 127.323 42.0748 126.452L40.8182 125.442L40.485 125.177C38.7904 123.813 37.177 122.357 35.645 120.82C34.1104 119.282 32.6387 117.679 31.2273 116.022L29.8947 114.463C27.594 111.761 25.1963 109.154 22.6989 106.646L20.6999 104.636C16.8646 100.78 13.045 96.9132 9.23334 93.0412L8.13416 91.9157L-0.0322647 83.752L0.00184631 91.9157Z" fill="#3B4C52"/>
</g>
</svg>
