<svg width="176" height="175" viewBox="0 0 176 175" fill="none" xmlns="http://www.w3.org/2000/svg">
<path d="M1.46094 173.67H176.002V0.00196838H1.46094V173.67Z" fill="#A7C7AF"/>
<path d="M0 174.379H174.376V-0.000534058H0V174.379Z" fill="#3B4C52"/>
<path d="M150.453 0.00333405L174.378 49.1113V26.0803L161.674 0.00333405H150.453Z" fill="#A7C7AF"/>
<path d="M127.02 0.00315857L174.376 95.9355V73.1487L138.271 0.00315857H127.02Z" fill="#A7C7AF"/>
<path d="M104.895 0.003479L174.378 138.592V116.083L116.176 0.003479H104.895Z" fill="#A7C7AF"/>
<path d="M82.3555 0.00126648L169.925 174.379H174.378V160.776L93.64 0.00126648H82.3555Z" fill="#A7C7AF"/>
<path d="M80.2774 0.00126648L0 158.176V174.379H3.08638L91.5883 0.00126648H80.2774Z" fill="#A7C7AF"/>
<path d="M57.7014 0.00318909L0 113.354V135.586L69.0175 0.00318909H57.7014Z" fill="#A7C7AF"/>
<path d="M34.6704 0.00398254L0 69.4114V91.9805L45.9408 0.00398254H34.6704Z" fill="#A7C7AF"/>
<path d="M11.808 0.00127792L0 23.5698V46.0879L23.089 0.00127792H11.808Z" fill="#A7C7AF"/>
<path d="M48.1519 108.678L43.7656 117.821L118.086 117.861L147.599 174.379H159L125.601 108.604L48.1519 108.678Z" fill="#A7C7AF"/>
<path d="M119.621 98.375H53.4883L57.7709 89.1264H104.06L81.3096 42.2599L86.6444 31.7869L119.621 98.375Z" fill="#A7C7AF"/>
<path d="M38.2428 128.535L33.6211 137.678H106.292L124.456 174.379H135.503L112.303 128.535H38.2428Z" fill="#A7C7AF"/>
<path d="M60.3828 174.379H71.5953L90.2154 136.791L79.2471 136.761L60.3828 174.379Z" fill="#A7C7AF"/>
<path d="M82.7266 174.379H93.5789L111.994 137.536L100.878 137.467L82.7266 174.379Z" fill="#A7C7AF"/>
<path d="M37.4531 174.379H48.4847L67.1241 136.42L56.1997 136.206L37.4531 174.379Z" fill="#A7C7AF"/>
<path d="M14.5469 174.379H25.9789L45.2016 137.075L33.9329 136.97L14.5469 174.379Z" fill="#A7C7AF"/>
<path d="M75.4152 55.2538L86.0024 77.4382L64.2344 77.5488L75.4152 55.2538Z" fill="#A7C7AF"/>
</svg>
