<svg width="101" height="101" viewBox="0 0 101 101" fill="none" xmlns="http://www.w3.org/2000/svg">
<path d="M0.96875 100.986H100.969V0.959259H0.96875V100.986Z" fill="#A7C7AF"/>
<mask id="mask0_4341_2337" style="mask-type:luminance" maskUnits="userSpaceOnUse" x="0" y="0" width="101" height="101">
<path d="M0.96875 100.988H100.969V0.959785H0.96875V100.988Z" fill="white"/>
</mask>
<g mask="url(#mask0_4341_2337)">
<path fill-rule="evenodd" clip-rule="evenodd" d="M76.4558 96.7879C75.8312 96.3045 75.1908 95.841 74.5405 95.3946L74.2667 95.2092C73.4381 94.6401 72.6951 93.9556 72.0619 93.1726L70.7198 91.5112L70.3391 91.0463C69.0627 89.4647 67.618 88.0328 66.0307 86.7764L65.5615 86.4056C64.2851 85.3916 63.1171 84.245 62.0788 82.9843C61.0392 81.7264 59.9054 80.5441 58.6917 79.4545L57.702 78.566C55.8309 76.8846 54.0539 75.0934 52.3825 73.2066L50.9606 71.5993V71.5736L47.7247 68.4532C46.5495 67.318 45.4385 66.1144 44.3975 64.8551L44.252 64.6768C43.3079 63.5345 42.3139 62.432 41.2728 61.3824L40.3914 60.4925C39.9365 60.0333 39.4929 59.5626 39.0622 59.082C38.6301 58.6014 38.1709 58.1479 37.6803 57.7286L35.9147 56.2183L33.7898 54.3971C33.5402 54.1804 33.3092 53.945 33.101 53.6898C32.8927 53.4359 32.6774 53.1878 32.4492 52.951L30.3927 50.7804H30.3799L28.1237 47.9239C27.6345 47.3078 27.0726 46.7487 26.4508 46.2681C25.8248 45.7861 25.1873 45.3226 24.5355 44.879L24.2631 44.6908C23.4331 44.1217 22.6915 43.4372 22.0569 42.6528L20.7134 40.9928L20.3369 40.5279C19.0577 38.9491 17.613 37.5173 16.0243 36.2565L15.5565 35.8843C14.2815 34.8732 13.1135 33.728 12.0738 32.4701C11.0342 31.208 9.90039 30.0271 8.68817 28.9376L7.69985 28.0491C5.82447 26.3648 4.04749 24.5764 2.3789 22.6882L0.957031 21.0809V30L2.62562 31.6872C3.56688 32.637 4.45394 33.6396 5.28681 34.6835C6.11826 35.7303 7.06522 36.6758 8.10773 37.5058L8.52559 37.8353L9.28002 38.4343C10.0958 39.0846 10.826 39.8433 11.4492 40.6833C12.0738 41.5304 12.7584 42.3291 13.4957 43.0721L15.2014 44.7892C17.0739 46.6774 19.0035 48.5129 20.9858 50.2856L21.5406 50.7804H21.5634C21.9913 51.3224 22.4533 51.8386 22.9468 52.3221L24.999 54.3429L26.8373 56.1584C27.4705 56.7817 28.1037 57.412 28.7355 58.0424C29.3659 58.677 30.0205 59.2788 30.6965 59.8636L31.2584 60.3427C32.3094 61.2455 33.3648 62.1425 34.423 63.0353L34.7096 63.2763C35.9575 64.326 37.107 65.4897 38.1481 66.7504C39.1892 68.0111 40.2502 69.2576 41.3312 70.4884L42.4864 71.8004L43.7429 73.2308C44.7511 74.3789 45.8635 75.4357 47.0601 76.3869C48.2552 77.3353 49.3362 78.4263 50.2789 79.6328L50.9606 80.507V80.5213L52.6306 82.2041C53.5704 83.154 54.4604 84.1565 55.2918 85.2033C56.1218 86.2458 57.0688 87.1942 58.1113 88.0243L58.5291 88.3537L59.2836 88.9541C60.1022 89.603 60.8324 90.3589 61.4542 91.2031C62.0774 92.0488 62.762 92.8461 63.5007 93.5919L65.2049 95.3076C67.0789 97.1958 69.0085 99.0284 70.9908 100.801L71.5456 101.299H80.3848L78.1287 98.4408C77.6409 97.8247 77.0776 97.2685 76.4558 96.7879Z" fill="#3B4C52"/>
<path fill-rule="evenodd" clip-rule="evenodd" d="M55.3802 50.7819L55.3346 50.7377C54.4732 49.9233 53.6246 49.0947 52.7918 48.2547L52.17 47.6244C51.7521 47.2022 51.3485 46.7673 50.9606 46.3152L46.9774 41.8328L44.7112 39.3912L42.0001 36.4691C40.8906 35.2754 39.8152 34.0475 38.7727 32.791C37.7316 31.5332 36.6335 30.3238 35.4826 29.17L31.8973 25.5633L29.7238 23.377C27.6331 21.2749 25.4368 19.274 23.1464 17.3929L21.7602 16.2491C20.3926 15.1239 19.0819 13.9331 17.8326 12.6767C16.5847 11.4216 15.3112 10.1837 14.0191 8.97295L11.2709 6.39162L7.85245 3.18279C7.00532 2.38985 6.17958 1.57124 5.37666 0.735527H0.957031V5.18082L3.2845 7.8306C4.64932 9.38653 6.06121 10.8954 7.51873 12.3657L11.8927 16.764L12.794 17.6653C13.6497 18.5281 14.6081 19.2769 15.6449 19.9058C16.6846 20.5304 17.6401 21.2834 18.4958 22.1448L19.0819 22.7353C20.3327 23.9903 21.5035 25.3223 22.5874 26.7242L23.1464 27.4487L24.6425 29.3797C25.1003 29.9744 25.6493 30.4878 26.2697 30.9042C26.8958 31.3235 27.5033 31.7685 28.0895 32.242L28.7726 32.791L28.9551 32.9351C29.8736 33.6767 30.7521 34.4682 31.585 35.3067C32.4178 36.1396 33.2179 37.011 33.9866 37.9123L34.7096 38.7594C35.9589 40.2284 37.2653 41.646 38.6216 43.0094L39.7097 44.1018C41.7933 46.1968 43.8712 48.3004 45.9434 50.4054L46.5424 51.0172L50.9606 55.4596L53.2895 58.1137C54.6543 59.6639 56.0662 61.1785 57.5237 62.6431L61.8991 67.0428L62.799 67.9484C63.6561 68.8098 64.6131 69.5614 65.6499 70.186C66.6881 70.8149 67.6465 71.5637 68.5022 72.4251L69.0883 73.0155C70.3376 74.2719 71.5071 75.6039 72.5924 77.0073L73.15 77.7275L74.6475 79.6642C75.1052 80.2575 75.6572 80.7694 76.2747 81.1859C76.9008 81.6037 77.5083 82.053 78.0944 82.5222L78.7762 83.0698L78.9587 83.2181C79.8786 83.9583 80.7571 84.747 81.5885 85.5855C82.4228 86.4241 83.2229 87.2926 83.9901 88.1925L84.7146 89.0425C85.9654 90.5072 87.2703 91.9248 88.6265 93.291L89.7147 94.3863C91.7983 96.4813 93.8748 98.5792 95.947 100.69L96.5459 101.299H100.966V96.8535C99.7163 95.2078 98.3871 93.629 96.9838 92.113L94.7148 89.6686L92.0051 86.7536C90.8955 85.5556 89.8188 84.3277 88.7763 83.0698C87.7352 81.8162 86.6385 80.6069 85.489 79.4503L81.9008 75.8421L79.7288 73.6601C77.6367 71.5537 75.4418 69.5585 73.15 67.6731L71.7652 66.5336C70.3975 65.4084 69.0883 64.2162 67.8376 62.9597C66.5883 61.7019 65.3162 60.4668 64.0241 59.2532L61.2745 56.6747L57.8574 53.4673L55.3802 50.7819Z" fill="#3B4C52"/>
<path fill-rule="evenodd" clip-rule="evenodd" d="M47.8398 52.0042L48.4631 52.6315C49.2959 53.4741 50.1174 54.3324 50.9189 55.1992" fill="#3B4C52"/>
<path fill-rule="evenodd" clip-rule="evenodd" d="M80.3839 51.0167L78.1263 48.1744C77.6386 47.5568 77.0767 47.0049 76.4549 46.5272C75.8302 46.0466 75.1899 45.5831 74.5396 45.141L74.2658 44.9541C73.4357 44.3908 72.6927 43.7063 72.0595 42.9276L70.7189 41.2761L70.3396 40.8112C69.0632 39.2381 67.6156 37.812 66.0283 36.5584L65.562 36.1919C64.2841 35.1836 63.1161 34.0455 62.0779 32.7905C61.0368 31.5341 59.9045 30.3604 58.6908 29.2751L57.7011 28.3909C55.8285 26.7151 54.053 24.9339 52.3815 23.0556L50.9597 21.4569V21.4327L47.7237 18.3223C46.5486 17.1928 45.4376 15.9977 44.3965 14.7426L44.2496 14.5644C43.3055 13.4277 42.3129 12.331 41.2718 11.2871L40.3905 10.4C39.9355 9.94223 39.492 9.47303 39.0627 8.99384C38.6292 8.51608 38.1686 8.06828 37.678 7.65041L35.9138 6.1444L33.7889 4.33319C33.5407 4.11784 33.3082 3.88396 33.1 3.63153C32.8918 3.37625 32.675 3.12953 32.4469 2.89137L30.3918 0.735031H22.1629H21.5625C21.9903 1.27268 22.4538 1.78609 22.9459 2.26814L24.9981 4.28328L26.835 6.08308C27.4696 6.71059 28.1042 7.33238 28.7346 7.96274C29.3649 8.59025 30.0195 9.19493 30.6955 9.77109L31.256 10.2531C32.3071 11.1516 33.3639 12.0458 34.4221 12.9329L34.7087 13.1725C35.9566 14.215 37.1046 15.3744 38.1457 16.628C39.1882 17.8859 40.2493 19.1252 41.3303 20.3474L42.4855 21.6552L43.7405 23.0785C44.7502 24.2237 45.864 25.2719 47.0591 26.2188C48.2543 27.1644 49.3339 28.2497 50.2765 29.4519L50.9597 30.3204V30.3347L52.6297 32.0118C53.5695 32.956 54.458 33.9528 55.2894 34.9968C56.1209 36.035 57.0678 36.9748 58.1104 37.8006L58.5282 38.1329L59.2827 38.729C60.0998 39.375 60.83 40.1266 61.4518 40.968C62.0765 41.8095 62.7625 42.6024 63.4998 43.344L65.204 45.0511C67.0765 46.935 69.0075 48.7577 70.9899 50.5204L71.5447 51.0167H71.5675C71.9953 51.5558 72.4574 52.0663 72.9494 52.5484L75.0031 54.5607L76.8414 56.3676C77.476 56.9865 78.1078 57.6169 78.7381 58.243C79.3699 58.8747 80.0245 59.478 80.702 60.0556L81.2624 60.5348C82.3135 61.4333 83.3674 62.3274 84.427 63.2145L84.7123 63.4541C85.9616 64.4995 87.1125 65.6561 88.1507 66.9082C89.1918 68.1661 90.2543 69.404 91.3353 70.6319L92.4891 71.9368L93.7455 73.3601C94.7566 74.5053 95.8676 75.5564 97.0627 76.5033C98.2592 77.4475 99.3388 78.5313 100.282 79.7336L100.965 80.6035V71.7143L97.7287 68.6053C96.5521 67.4758 95.4426 66.2793 94.4029 65.0229L94.2546 64.8446C93.3119 63.708 92.3179 62.6155 91.2768 61.5659L90.3955 60.6802C89.9405 60.2239 89.497 59.7575 89.0677 59.2798C88.6356 58.7992 88.1735 58.3514 87.6844 57.9335L85.9174 56.4275L83.7938 54.6106C83.5443 54.4009 83.3132 54.167 83.1064 53.9132C82.8982 53.6593 82.68 53.4126 82.4547 53.1759L80.3953 51.0167H80.3839Z" fill="#3B4C52"/>
<path fill-rule="evenodd" clip-rule="evenodd" d="M52.7957 98.7731L52.1724 98.1442C51.7546 97.7221 51.351 97.2842 50.9631 96.835C49.7152 95.1821 48.3874 93.5905 46.9813 92.0717L44.7137 89.6173L42.004 86.6837C40.8945 85.4814 39.8163 84.2464 38.7752 82.9871C37.7356 81.725 36.6374 80.5085 35.4865 79.349L31.9012 75.7237L29.7277 73.5289C27.6356 71.4168 25.4393 69.4073 23.1489 67.5134L21.7627 66.3682C20.3965 65.2387 19.0858 64.0422 17.8351 62.78C16.5872 61.5165 15.3137 60.2757 14.023 59.0592L11.2734 56.4622L7.85493 53.2405C7.00923 52.4433 6.18349 51.6233 5.37914 50.7819L5.33351 50.7376C4.47069 49.9233 3.62355 49.0962 2.79068 48.2533L2.16746 47.6258C1.7496 47.2037 1.34742 46.7644 0.960938 46.3166V50.7819V55.2457L3.28698 57.9112C4.65181 59.4728 6.06512 60.9916 7.52264 62.462L11.8966 66.8831L12.798 67.7915C13.6536 68.6572 14.612 69.4102 15.6474 70.042C16.6871 70.6723 17.644 71.4253 18.4997 72.291L19.0858 72.8829C20.3366 74.145 21.506 75.4841 22.5885 76.8918L23.1489 77.6191L24.6464 79.5601C25.1042 80.1562 25.6532 80.6753 26.2736 81.0932C26.8983 81.5153 27.5058 81.9617 28.092 82.4338L28.7751 82.9871L28.9576 83.1326C29.8775 83.877 30.756 84.67 31.5889 85.5114C32.4217 86.3542 33.2204 87.2256 33.9891 88.1326L34.7121 88.9869C35.9629 90.4587 37.2692 91.8834 38.624 93.2554L39.7122 94.3521C41.7972 96.4585 43.8751 98.5663 45.9459 100.688L46.5449 101.299H50.9631H55.3841L55.3385 101.255C54.4771 100.443 53.6285 99.616 52.7957 98.7731Z" fill="#3B4C52"/>
<path fill-rule="evenodd" clip-rule="evenodd" d="M75.0059 4.2842L76.8442 6.08685C77.4788 6.71008 78.1106 7.33616 78.741 7.96366C79.3728 8.59117 80.0259 9.19443 80.7048 9.77487L81.2653 10.2541C82.3149 11.1511 83.3717 12.0453 84.4299 12.9324L84.7151 13.1705C85.9644 14.2187 87.1153 15.3739 88.1535 16.6275C89.1961 17.8868 90.2571 19.1247 91.3381 20.3512L92.4919 21.6589L93.7483 23.0822C94.7595 24.2232 95.8704 25.2757 97.0655 26.2226C98.2621 27.1682 99.3417 28.2535 100.284 29.4514L100.967 30.3242V21.4322L97.7315 18.326C96.555 17.1965 95.444 16.0014 94.4043 14.7436L94.2575 14.5653C93.3148 13.4287 92.3207 12.3348 91.2797 11.288L90.3983 10.4009C89.9434 9.94601 89.5013 9.4768 89.0706 8.99762C88.6384 8.51986 88.1764 8.06777 87.6872 7.64991L85.9202 6.14818L83.7967 4.33269C83.5485 4.12162 83.3175 3.88773 83.1093 3.63245C82.901 3.37575 82.6828 3.12903 82.4575 2.89086L80.3982 0.738804H72.1693H71.5703C71.9996 1.27646 72.4602 1.78702 72.9522 2.26906L75.0059 4.2842Z" fill="#3B4C52"/>
<path fill-rule="evenodd" clip-rule="evenodd" d="M26.4508 96.7879C25.8248 96.3045 25.1873 95.841 24.5355 95.3946L24.2631 95.2092C23.4345 94.6401 22.6929 93.9556 22.0569 93.1726L20.7134 91.5112L20.3369 91.0463C19.0577 89.4647 17.6144 88.0328 16.0257 86.7764L15.5565 86.4056C14.2801 85.3916 13.1135 84.245 12.0738 82.9843C11.0342 81.7264 9.90182 80.5441 8.68817 79.4545L7.69985 78.566C5.8259 76.8846 4.04892 75.0934 2.3789 73.2066L0.957031 71.5993V80.5213L2.62562 82.2041C3.56688 83.154 4.45537 84.1565 5.28824 85.2033C6.11826 86.2458 7.06379 87.1942 8.10773 88.0243L8.52559 88.3537L9.28002 88.9541C10.0972 89.603 10.8274 90.3589 11.4506 91.2031C12.0738 92.0488 12.757 92.8461 13.4957 93.5919L15.2 95.3076C17.0739 97.1958 19.0035 99.0284 20.9858 100.801L21.542 101.299H30.3799L28.1251 98.4408C27.636 97.8247 27.0741 97.2685 26.4508 96.7879Z" fill="#3B4C52"/>
<path fill-rule="evenodd" clip-rule="evenodd" d="M2.7882 98.7731L2.16498 98.1442C1.74712 97.7221 1.34494 97.2842 0.957031 96.835V101.299H5.37809L5.33245 101.255C4.46963 100.443 3.6225 99.616 2.7882 98.7731Z" fill="#3B4C52"/>
<path fill-rule="evenodd" clip-rule="evenodd" d="M99.1407 3.17319L99.7639 3.8007C100.182 4.22284 100.584 4.66209 100.972 5.11133V0.647489H96.5508L96.5964 0.690274C97.4592 1.50318 98.3064 2.32892 99.1407 3.17319Z" fill="#3B4C52"/>
<path fill-rule="evenodd" clip-rule="evenodd" d="M100.968 51.0189V46.5764C99.7183 44.9292 98.3877 43.3462 96.9858 41.8345L94.7168 39.3929L92.0071 36.4722C90.8976 35.2771 89.8208 34.0491 88.7783 32.7927C87.7372 31.5348 86.6391 30.3255 85.491 29.1717L81.9014 25.5621L79.7308 23.3787C77.6387 21.2766 75.4424 19.2757 73.152 17.3946L71.7672 16.2508C70.3996 15.127 69.0889 13.9348 67.8396 12.6783C66.5903 11.4233 65.3182 10.1854 64.0247 8.97463L61.2765 6.39473L57.858 3.1859C57.0123 2.39154 56.1866 1.57293 55.3837 0.737209H50.9626V0.730076H46.543C46.9894 1.12369 47.42 1.52872 47.8393 1.94943L48.4626 2.57837C49.2954 3.42122 50.1155 4.27976 50.9198 5.14971L50.9626 5.19392V5.18251L53.2915 7.83229C54.6563 9.38821 56.0682 10.8971 57.5243 12.3674L61.9011 16.7657L62.801 17.667C63.6567 18.5298 64.6137 19.2785 65.6505 19.9075C66.6901 20.5336 67.6485 21.2851 68.5042 22.1465L69.0889 22.7369C70.3397 23.992 71.5077 25.324 72.5944 26.7259L73.152 27.4504L74.6495 29.3814C75.1058 29.9761 75.6578 30.4909 76.2767 30.9059C76.9028 31.3238 77.5089 31.7702 78.095 32.2436L78.7782 32.7927L78.9593 32.9367C79.8806 33.6783 80.7577 34.4699 81.5905 35.3056C82.4248 36.1413 83.2249 37.0127 83.9922 37.914L84.7166 38.7611C85.9674 40.2301 87.2709 41.6477 88.6286 43.011L89.7153 44.1035C91.8003 46.1999 93.8768 48.3021 95.949 50.407L96.5465 51.0189L100.986 55.457L100.968 51.0189Z" fill="#3B4C52"/>
</g>
</svg>
