<svg width="87" height="87" viewBox="0 0 87 87" fill="none" xmlns="http://www.w3.org/2000/svg">
<rect width="87" height="87" fill="white"/>
<path d="M80.9766 6.00391H6.00015V81.0006H80.9766V6.00391Z" fill="white"/>
<mask id="mask0_1117_20905" style="mask-type:luminance" maskUnits="userSpaceOnUse" x="6" y="6" width="75" height="75">
<path d="M80.9766 6.00195H6.00015V80.9997H80.9766V6.00195Z" fill="white"/>
</mask>
<g mask="url(#mask0_1117_20905)">
<path fill-rule="evenodd" clip-rule="evenodd" d="M24.3781 9.14969C24.8464 9.51217 25.3265 9.85969 25.8141 10.1944L26.0194 10.3334C26.6407 10.76 27.1978 11.2733 27.6725 11.8603L28.6787 13.106L28.9642 13.4546C29.9212 14.6404 31.0044 15.714 32.1945 16.656L32.5463 16.934C33.5033 17.6943 34.379 18.554 35.1574 19.4992C35.9369 20.4423 36.787 21.3287 37.697 22.1456L38.439 22.8118C39.8419 24.0725 41.1742 25.4155 42.4274 26.8301L43.4935 28.0352V28.0545L45.9197 30.394C46.8008 31.2452 47.6337 32.1476 48.4143 33.0918L48.5234 33.2255C49.2312 34.0819 49.9765 34.9085 50.7571 35.6955L51.4179 36.3627C51.759 36.707 52.0915 37.0599 52.4145 37.4202C52.7384 37.7806 53.0827 38.1206 53.4506 38.435L54.7743 39.5673L56.3676 40.9328C56.5547 41.0953 56.7279 41.2717 56.884 41.4631C57.0401 41.6535 57.2016 41.8395 57.3727 42.017L58.9146 43.6445H58.9242L60.6158 45.7862C60.9825 46.2481 61.4038 46.6673 61.87 47.0276C62.3395 47.3891 62.8174 47.7366 63.3061 48.0691L63.5103 48.2103C64.1326 48.6369 64.6886 49.1502 65.1645 49.7383L66.1717 50.9829L66.454 51.3315C67.4132 52.5152 68.4963 53.5887 69.6875 54.5339L70.0382 54.813C70.9942 55.5711 71.8699 56.4298 72.6494 57.3729C73.4289 58.3192 74.279 59.2045 75.1878 60.0215L75.9288 60.6876C77.3349 61.9504 78.6673 63.2913 79.9183 64.707L80.9844 65.9121V59.2248L79.7333 57.9599C79.0276 57.2478 78.3625 56.4961 77.7381 55.7134C77.1147 54.9285 76.4047 54.2196 75.623 53.5973L75.3097 53.3503L74.7441 52.9012C74.1325 52.4136 73.585 51.8447 73.1177 51.2149C72.6494 50.5798 72.1361 49.981 71.5833 49.4239L70.3045 48.1365C68.9005 46.7208 67.4538 45.3446 65.9675 44.0155L65.5515 43.6445H65.5344C65.2137 43.2381 64.8672 42.8511 64.4972 42.4886L62.9586 40.9734L61.5803 39.6122C61.1055 39.145 60.6307 38.6723 60.1571 38.1997C59.6844 37.7239 59.1936 37.2727 58.6868 36.8343L58.2655 36.475C57.4775 35.7981 56.6862 35.1256 55.8928 34.4562L55.6779 34.2755C54.7423 33.4885 53.8804 32.616 53.0999 31.6707C52.3193 30.7255 51.5237 29.791 50.7132 28.8682L49.8471 27.8844L48.9051 26.812C48.1491 25.9512 47.3151 25.1589 46.418 24.4457C45.5219 23.7346 44.7114 22.9166 44.0046 22.012L43.4935 21.3565V21.3458L42.2414 20.0841C41.5367 19.3719 40.8695 18.6202 40.2461 17.8354C39.6238 17.0538 38.9138 16.3427 38.1322 15.7204L37.8189 15.4734L37.2532 15.0232C36.6395 14.5367 36.092 13.97 35.6258 13.337C35.1585 12.7029 34.6453 12.1052 34.0914 11.5459L32.8136 10.2596C31.4086 8.84388 29.9618 7.46986 28.4756 6.14075L28.0596 5.76758H21.4322L23.1238 7.9104C23.4895 8.37233 23.9119 8.78935 24.3781 9.14969Z" fill="#2A2523"/>
<path fill-rule="evenodd" clip-rule="evenodd" d="M40.1798 43.6434L40.2141 43.6765C40.8599 44.2871 41.4961 44.9083 42.1206 45.5381L42.5868 46.0108C42.9001 46.3273 43.2027 46.6534 43.4935 46.9923L46.48 50.3531L48.1791 52.1837L50.2118 54.3746C51.0436 55.2696 51.8499 56.1902 52.6315 57.1323C53.4121 58.0754 54.2354 58.9821 55.0983 59.8472L57.7865 62.5513L59.4161 64.1905C60.9836 65.7667 62.6303 67.2668 64.3475 68.6772L65.3869 69.5348C66.4123 70.3784 67.395 71.2713 68.3317 72.2133C69.2673 73.1543 70.2221 74.0824 71.1909 74.9902L73.2514 76.9256L75.8144 79.3315C76.4496 79.926 77.0687 80.5397 77.6707 81.1663H80.9844V77.8334L79.2393 75.8467C78.216 74.6801 77.1574 73.5488 76.0647 72.4464L72.7852 69.1488L72.1094 68.473C71.4678 67.8261 70.7493 67.2647 69.9719 66.7932C69.1924 66.3248 68.476 65.7602 67.8345 65.1144L67.395 64.6717C66.4572 63.7308 65.5794 62.7321 64.7667 61.681L64.3475 61.1378L63.2259 59.69C62.8826 59.2441 62.471 58.8591 62.0058 58.5469C61.5364 58.2326 61.0809 57.8989 60.6414 57.5439L60.1293 57.1323L59.9924 57.0243C59.3038 56.4683 58.6451 55.8748 58.0207 55.2461C57.3962 54.6216 56.7963 53.9683 56.22 53.2925L55.6779 52.6574C54.7412 51.556 53.7617 50.4931 52.7449 49.4709L51.929 48.6519C50.3668 47.0811 48.8089 45.5039 47.2552 43.9257L46.8061 43.467L43.4935 40.1362L41.7474 38.1463C40.7241 36.9839 39.6655 35.8484 38.5727 34.7502L35.2922 31.4515L34.6175 30.7725C33.9748 30.1267 33.2574 29.5632 32.48 29.0949C31.7016 28.6233 30.983 28.0619 30.3414 27.4161L29.902 26.9734C28.9653 26.0314 28.0885 25.0327 27.2748 23.9805L26.8567 23.4405L25.7339 21.9885C25.3907 21.5436 24.9769 21.1598 24.5139 20.8475C24.0445 20.5342 23.589 20.1974 23.1495 19.8456L22.6384 19.435L22.5015 19.3238C21.8119 18.7689 21.1532 18.1776 20.5298 17.5488C19.9043 16.9201 19.3044 16.2689 18.7291 15.5942L18.1859 14.9569C17.2482 13.8588 16.2698 12.7959 15.2529 11.7716L14.4371 10.9503C12.8749 9.37958 11.318 7.80668 9.76434 6.22416L9.31525 5.76758H6.00157V9.1005C6.93826 10.3344 7.93482 11.5181 8.98698 12.6548L10.6882 14.4875L12.7198 16.6731C13.5517 17.5713 14.359 18.4919 15.1407 19.435C15.9212 20.3749 16.7435 21.2817 17.6053 22.1488L20.2956 24.8541L21.9241 26.4901C23.4927 28.0694 25.1384 29.5653 26.8567 30.9789L27.8949 31.8333C28.9204 32.6769 29.902 33.5708 30.8397 34.5129C31.7764 35.456 32.7302 36.3819 33.699 37.2919L35.7605 39.2251L38.3225 41.6299L40.1798 43.6434Z" fill="#2A2523"/>
<path fill-rule="evenodd" clip-rule="evenodd" d="M45.832 42.7302L45.3648 42.2597C44.7403 41.6278 44.1244 40.9841 43.5235 40.334" fill="#2A2523"/>
<path fill-rule="evenodd" clip-rule="evenodd" d="M21.433 43.4683L23.1256 45.5994C23.4913 46.0624 23.9126 46.4762 24.3788 46.8344C24.8472 47.1947 25.3273 47.5422 25.8148 47.8737L26.0202 48.0138C26.6425 48.4361 27.1996 48.9494 27.6743 49.5332L28.6794 50.7714L28.9639 51.12C29.9209 52.2994 31.0062 53.3687 32.1963 54.3086L32.5459 54.5834C33.504 55.3394 34.3797 56.1927 35.1582 57.1336C35.9387 58.0756 36.7877 58.9557 37.6977 59.7694L38.4398 60.4323C39.8437 61.6887 41.175 63.0242 42.4282 64.4325L43.4942 65.6311V65.6493L45.9204 67.9814C46.8015 68.8283 47.6344 69.7243 48.415 70.6653L48.5252 70.7989C49.233 71.6511 49.9772 72.4734 50.7578 73.2561L51.4186 73.9212C51.7597 74.2644 52.0923 74.6162 52.4141 74.9755C52.7392 75.3337 53.0845 75.6695 53.4524 75.9828L54.7751 77.1119L56.3683 78.4699C56.5543 78.6314 56.7286 78.8067 56.8847 78.996C57.0408 79.1874 57.2034 79.3724 57.3745 79.5509L58.9153 81.1677H65.085H65.5352C65.2144 80.7646 64.8669 80.3796 64.498 80.0182L62.9593 78.5073L61.5821 77.1579C61.1062 76.6874 60.6304 76.2212 60.1578 75.7486C59.6852 75.2781 59.1944 74.8247 58.6875 74.3928L58.2673 74.0313C57.4793 73.3577 56.6869 72.6873 55.8935 72.0222L55.6786 71.8425C54.743 71.0609 53.8822 70.1916 53.1016 69.2517C52.32 68.3086 51.5245 67.3794 50.714 66.463L49.8478 65.4825L48.9069 64.4154C48.1498 63.5567 47.3147 62.7708 46.4187 62.0608C45.5226 61.3519 44.7132 60.5382 44.0064 59.6368L43.4942 58.9856V58.9749L42.2421 57.7174C41.5375 57.0096 40.8713 56.2622 40.2479 55.4795C39.6245 54.701 38.9145 53.9964 38.1329 53.3773L37.8196 53.1281L37.2539 52.6812C36.6412 52.1968 36.0938 51.6333 35.6276 51.0024C35.1592 50.3715 34.6449 49.777 34.0921 49.221L32.8143 47.9411C31.4104 46.5286 29.9626 45.162 28.4763 43.8404L28.0603 43.4683H28.0432C27.7224 43.0641 27.376 42.6813 27.0071 42.3199L25.4673 40.8112L24.089 39.4564C23.6132 38.9923 23.1395 38.5197 22.6669 38.0503C22.1932 37.5766 21.7024 37.1243 21.1945 36.6912L20.7743 36.332C19.9862 35.6583 19.196 34.9879 18.4016 34.3228L18.1877 34.1432C17.251 33.3594 16.3881 32.4922 15.6097 31.5534C14.8291 30.6103 14.0325 29.6822 13.222 28.7615L12.357 27.7831L11.4149 26.716C10.6568 25.8574 9.82386 25.0693 8.92781 24.3593C8.03069 23.6515 7.22125 22.8388 6.51446 21.9374L6.00228 21.2852V27.9499L8.42846 30.281C9.31062 31.1278 10.1425 32.0249 10.922 32.967L11.0332 33.1006C11.74 33.9528 12.4853 34.7719 13.2659 35.5589L13.9267 36.2229C14.2678 36.5651 14.6003 36.9147 14.9222 37.2729C15.2462 37.6333 15.5926 37.969 15.9594 38.2823L17.2842 39.4115L18.8763 40.7737C19.0635 40.9309 19.2367 41.1063 19.3917 41.2966C19.5478 41.4869 19.7114 41.6719 19.8804 41.8494L21.4244 43.4683H21.433Z" fill="#2A2523"/>
<path fill-rule="evenodd" clip-rule="evenodd" d="M42.1206 7.66126L42.5878 8.13281C42.9011 8.44932 43.2037 8.77758 43.4946 9.1144C44.4302 10.3537 45.4257 11.547 46.48 12.6858L48.1801 14.526L50.2118 16.7255C51.0436 17.6269 51.852 18.5529 52.6326 19.4971C53.4121 20.4434 54.2354 21.3554 55.0983 22.2248L57.7865 24.9429L59.4161 26.5885C60.9847 28.1721 62.6314 29.6787 64.3486 31.0987L65.388 31.9573C66.4123 32.8042 67.395 33.7013 68.3327 34.6476C69.2683 35.595 70.2232 36.5252 71.1909 37.4373L73.2525 39.3845L75.8155 41.8C76.4496 42.3977 77.0687 43.0125 77.6718 43.6434L77.706 43.6765C78.3529 44.2871 78.988 44.9073 79.6125 45.5392L80.0798 46.0097C80.3931 46.3262 80.6946 46.6555 80.9844 46.9913V43.6434V40.2966L79.2404 38.2981C78.2171 37.1272 77.1574 35.9885 76.0646 34.886L72.7852 31.5713L72.1094 30.8902C71.4678 30.2411 70.7493 29.6765 69.973 29.2029C69.1935 28.7302 68.476 28.1657 67.8344 27.5166L67.395 27.0729C66.4572 26.1265 65.5804 25.1225 64.7688 24.0671L64.3486 23.5218L63.2259 22.0665C62.8826 21.6196 62.471 21.2303 62.0058 20.917C61.5375 20.6005 61.082 20.2659 60.6425 19.9119L60.1303 19.4971L59.9935 19.388C59.3038 18.8298 58.6451 18.2353 58.0207 17.6044C57.3962 16.9725 56.7974 16.3192 56.2211 15.6391L55.6789 14.9986C54.7412 13.8951 53.7617 12.8269 52.7459 11.7983L51.9301 10.976C50.3668 9.39669 48.8089 7.81631 47.2563 6.22523L46.8072 5.76758H43.4946H40.1798L40.214 5.80073C40.8599 6.40914 41.4961 7.02932 42.1206 7.66126Z" fill="#2A2523"/>
<path fill-rule="evenodd" clip-rule="evenodd" d="M25.4632 78.5063L24.0849 77.1547C23.6091 76.6875 23.1354 76.218 22.6628 75.7476C22.1891 75.2771 21.6993 74.8248 21.1904 74.3896L20.7701 74.0303C19.9832 73.3577 19.1908 72.6873 18.3974 72.0222L18.1836 71.8436C17.2469 71.0577 16.384 70.1916 15.6055 69.2517C14.8239 68.3076 14.0284 67.3794 13.2179 66.4599L12.3528 65.4793L11.4108 64.4122C10.6527 63.5568 9.81971 62.7677 8.92366 62.0577C8.02654 61.3487 7.21709 60.535 6.51031 59.6368L5.99812 58.9824V65.6493L8.4243 67.9782C9.30646 68.8251 10.1394 69.7211 10.9189 70.6642L11.0291 70.7979C11.7358 71.6501 12.4811 72.4702 13.2617 73.2551L13.9225 73.9202C14.2636 74.2613 14.5951 74.6131 14.918 74.9723C15.242 75.3305 15.5884 75.6695 15.9552 75.9828L17.28 77.1087L18.8722 78.4699C19.0582 78.6282 19.2315 78.8035 19.3876 78.9949C19.5437 79.1874 19.7073 79.3724 19.8762 79.551L21.4203 81.1645H27.59H28.0391C27.7172 80.7614 27.3718 80.3786 27.0029 80.0172L25.4632 78.5063Z" fill="#2A2523"/>
<path fill-rule="evenodd" clip-rule="evenodd" d="M61.87 9.14969C62.3395 9.51217 62.8174 9.85969 63.3061 10.1944L63.5103 10.3334C64.1316 10.76 64.6876 11.2733 65.1645 11.8603L66.1717 13.106L66.454 13.4546C67.4132 14.6404 68.4953 15.714 69.6864 16.656L70.0382 16.934C70.9952 17.6943 71.8699 18.554 72.6494 19.4992C73.4289 20.4423 74.2779 21.3287 75.1878 22.1456L75.9288 22.8118C77.3339 24.0725 78.6662 25.4155 79.9183 26.8301L80.9844 28.0352V21.3458L79.7333 20.0841C79.0276 19.3719 78.3614 18.6202 77.737 17.8354C77.1147 17.0538 76.4057 16.3427 75.623 15.7204L75.3097 15.4734L74.7441 15.0232C74.1314 14.5367 73.5839 13.97 73.1167 13.337C72.6494 12.7029 72.1372 12.1052 71.5833 11.5459L70.3055 10.2596C68.9005 8.84388 67.4538 7.46986 65.9675 6.14075L65.5505 5.76758H58.9242L60.6147 7.9104C60.9815 8.37233 61.4028 8.78935 61.87 9.14969Z" fill="#2A2523"/>
<path fill-rule="evenodd" clip-rule="evenodd" d="M79.6114 7.66126L80.0787 8.13281C80.392 8.44932 80.6935 8.77758 80.9844 9.1144V5.76758H77.6696L77.7038 5.80073C78.3508 6.40914 78.9859 7.02932 79.6114 7.66126Z" fill="#2A2523"/>
<path fill-rule="evenodd" clip-rule="evenodd" d="M7.3707 79.3379L6.90343 78.8674C6.59013 78.5509 6.28859 78.2216 5.99775 77.8848V81.2316H9.3125L9.27828 81.1995C8.63137 80.59 7.99622 79.9709 7.3707 79.3379Z" fill="#2A2523"/>
<path fill-rule="evenodd" clip-rule="evenodd" d="M5.99907 43.4663V46.797C6.93575 48.032 7.93338 49.2189 8.98448 50.3524L10.6857 52.183L12.7173 54.3728C13.5492 55.2689 14.3565 56.1895 15.1381 57.1316C15.9187 58.0747 16.7421 58.9814 17.6028 59.8465L20.2942 62.5528L21.9216 64.1898C23.4902 65.766 25.1369 67.2661 26.8542 68.6765L27.8924 69.5341C28.9179 70.3767 29.9005 71.2706 30.8372 72.2126C31.7739 73.1536 32.7277 74.0817 33.6975 74.9895L35.758 76.9238L38.3211 79.3297C38.9552 79.9253 39.5743 80.539 40.1763 81.1656H43.491V81.171H46.8047C46.47 80.8759 46.1471 80.5722 45.8327 80.2567L45.3654 79.7852C44.741 79.1533 44.1262 78.5096 43.5231 77.8573L43.491 77.8242V77.8327L41.7449 75.846C40.7216 74.6794 39.663 73.5481 38.5713 72.4457L35.2897 69.1481L34.615 68.4723C33.9734 67.8254 33.2559 67.264 32.4786 66.7925C31.6991 66.323 30.9805 65.7595 30.3389 65.1137L29.9005 64.671C28.9628 63.7301 28.0871 62.7314 27.2723 61.6803L26.8542 61.1371L25.7314 59.6893C25.3893 59.2434 24.9755 58.8574 24.5114 58.5462C24.042 58.2329 23.5875 57.8982 23.1481 57.5432L22.6359 57.1316L22.5001 57.0236C21.8093 56.4675 21.1517 55.8741 20.5273 55.2475C19.9018 54.6209 19.3019 53.9676 18.7266 53.2918L18.1834 52.6567C17.2457 51.5553 16.2684 50.4924 15.2504 49.4702L14.4356 48.6512C12.8724 47.0793 11.3155 45.5032 9.76184 43.925L9.31381 43.4663L5.98516 40.1387L5.99907 43.4663Z" fill="#2A2523"/>
</g>
</svg>
