<svg width="264" height="264" viewBox="0 0 264 264" fill="none" xmlns="http://www.w3.org/2000/svg">
<path d="M-1.81045e-05 264L264 264L264 0L-6.56469e-06 -1.15398e-05L-1.81045e-05 264ZM123.932 244.818C117.858 243.683 113.011 241.159 110.189 237.625C107.551 234.281 106.692 230.18 107.735 225.637C108.41 222.671 109.76 217.371 111.416 210.935C115.097 196.801 120.312 177.304 123.503 165.252C123.809 165.442 124.116 165.568 124.362 165.694C122.153 181.09 119.944 196.612 118.165 212.071C117.858 214.405 121.908 214.973 122.276 212.639C124.668 197.117 126.632 181.468 128.595 165.883C129.208 165.757 129.822 165.505 130.435 165.252C130.251 176.925 130.436 188.598 130.926 200.335C131.049 203.111 135.344 203.111 135.221 200.335C134.669 187.967 134.485 175.6 134.607 163.233C136.264 162.35 137.921 161.656 139.516 161.53C141.54 169.038 144.853 181.342 148.044 193.394C151.663 207.023 155.099 220.273 156.326 225.7C157.369 230.243 156.51 234.407 153.934 237.688C151.05 241.285 146.264 243.746 140.191 244.881L123.932 244.881L123.932 244.818ZM62.825 92.6902C74.3593 100.641 86.139 108.086 98.2868 115.09C98.4708 115.973 98.4094 116.73 98.2254 117.361C86.3843 111.493 74.85 105.247 63.4998 98.5583C61.2297 97.2333 59.2053 100.704 61.414 102.029C71.8439 108.402 82.5805 114.27 93.4399 119.822C88.7157 118.245 83.3167 116.478 77.9177 114.711C66.1993 110.862 54.1127 106.887 47.3026 104.742C42.5171 103.228 38.7747 100.767 36.3206 97.6118C35.2163 96.1606 34.3572 94.5832 33.8664 92.8164C33.621 92.0593 33.4985 91.3652 33.3758 90.5449L33.3758 85.1185C34.0507 80.6386 36.2591 75.8432 40.0016 71.1109C50.7997 57.2294 64.4816 66.7572 65.954 67.8298C72.9482 75.086 89.82 91.4914 101.845 103.101C104.054 105.247 106.14 107.266 107.919 108.969C106.999 110.421 104.974 111.43 101.784 112.061C89.268 104.868 76.9972 97.2333 64.9108 89.2199C62.7021 87.7686 60.6776 91.239 62.825 92.6902ZM33.3144 100.262C34.6642 102.029 36.3821 103.543 38.3454 104.931C36.6888 105.057 35.0323 105.247 33.3144 105.625L33.3144 100.262ZM149.639 80.3862C153.934 64.1071 158.658 46.0612 160.253 39.4359C160.437 38.8681 162.216 34.1358 167.063 32.1166C168.842 31.3595 170.867 31.1071 173.076 31.2333C176.021 31.4857 179.272 32.4952 182.892 34.3881C193.261 39.6883 199.519 45.9981 200.623 52.2447C201.298 56.0937 200.009 59.8795 196.942 63.2237C191.42 69.218 170.683 89.4092 157.492 102.092C157.063 100.767 157.308 99.8203 157.308 98.369C163.75 89.6616 169.885 80.8279 175.652 71.6788C177.063 69.4704 173.566 67.4512 172.155 69.6597C166.572 78.2409 160.744 86.696 154.608 94.8987C154.24 94.8987 153.872 95.0249 153.565 95.151C151.357 96.1606 148.105 94.8987 146.203 93.3212C147.246 89.3461 148.412 84.9292 149.639 80.3862ZM230.747 90.4187C230.624 91.239 230.44 92.0593 230.195 92.8164C228.477 98.3059 223.691 102.533 216.759 104.742C211.789 106.319 204.059 108.843 195.715 111.556C186.205 114.648 175.959 118.055 167.983 120.706C167.983 120.453 167.922 120.264 167.861 120.075C179.149 113.954 190.377 107.707 201.605 101.461C203.875 100.199 201.85 96.7285 199.58 97.9904C187.861 104.3 176.082 110.61 164.486 117.046C163.995 116.667 163.566 116.226 163.137 115.784C175.1 105.815 187.003 95.8451 198.905 85.8126C200.93 84.109 198.046 81.3327 196.021 82.9732C184.487 92.501 172.953 102.092 161.48 111.62C161.541 110.673 161.664 109.727 161.419 108.78C161.051 107.455 160.498 106.572 159.762 105.688C171.787 94.0784 190.806 75.6539 198.291 67.8298C199.764 66.7572 213.384 57.2294 224.244 71.1109C228.047 75.9694 230.256 80.9541 230.87 85.4971L230.87 90.4187L230.747 90.4187ZM230.747 100.199L230.747 105.562C229.152 105.247 227.618 104.994 226.146 104.868C226.023 104.868 225.839 104.805 225.716 104.805C227.679 103.543 229.336 101.966 230.747 100.199ZM197.739 180.964C186.696 172.761 175.591 164.558 164.486 156.419C164.609 156.166 164.609 155.914 164.67 155.598C164.732 154.904 166.756 154.084 168.413 153.327C181.174 160.141 193.322 167.902 205.04 176.61C207.31 178.314 209.519 174.465 207.31 172.824C196.021 164.243 184.119 156.734 171.603 150.172C172.217 148.532 172.401 146.765 173.873 145.503C173.935 145.44 173.996 145.377 173.996 145.314C184.058 148.658 196.144 152.633 205.715 155.725C210.071 157.113 213.875 158.375 216.759 159.258C223.753 161.467 228.477 165.694 230.195 171.184C230.44 171.941 230.624 172.761 230.747 173.581L230.747 178.503C230.133 183.109 227.925 188.031 224.121 192.889C213.323 206.771 199.641 197.243 198.169 196.17C190.991 188.725 173.26 171.499 161.173 159.826C161.296 159.637 161.357 159.511 161.419 159.321C172.769 167.839 184.119 176.294 195.531 184.75C197.801 186.453 199.948 182.604 197.739 180.964ZM173.689 212.765C169.517 199.388 163.873 186.453 157.308 173.96C157.369 173.644 157.308 173.329 157.247 173.013C156.204 169.606 152.768 162.792 157.001 161.467C170.131 174.149 191.297 194.719 196.88 200.776C199.948 204.12 201.236 207.969 200.561 211.755C199.457 218.002 193.138 224.312 182.831 229.612C177.063 232.577 172.155 233.461 168.167 232.262C167.799 232.136 167.431 232.01 167.063 231.883C162.216 229.927 160.376 225.069 160.192 224.564C158.903 219.011 155.406 205.698 151.786 192.069C149.639 183.866 147.43 175.537 145.59 168.723C147.676 169.417 151.786 174.212 152.829 175.537C152.89 175.6 152.952 175.663 153.013 175.727C159.148 188.094 164.548 200.776 169.578 213.837C170.621 216.298 174.548 215.352 173.689 212.765ZM156.572 134.839C156.572 134.776 156.633 134.65 156.633 134.587C156.694 134.65 156.694 134.65 156.756 134.713C156.694 134.776 156.633 134.839 156.572 134.839ZM152.706 132C152.706 143.421 143.442 152.696 132.031 152.696C120.619 152.696 111.355 143.421 111.355 132C111.355 120.579 120.619 111.304 132.031 111.304C143.442 111.304 152.706 120.579 152.706 132ZM117.061 112.25C117.122 112.25 117.122 112.25 117.183 112.25C117.183 112.25 117.183 112.314 117.061 112.25C117.122 112.314 117.122 112.25 117.061 112.25ZM118.901 97.4226C118.778 98.4952 119.147 100.577 117.797 100.83C116.938 101.019 116.079 100.704 115.281 100.199C109.514 89.914 104.054 79.566 99.5751 68.5239C98.5935 66.1893 94.7284 67.1357 95.6487 69.5966C98.9617 78.0516 102.643 86.5067 106.876 94.5832C101.048 87.5162 95.3419 80.3231 90.0655 72.7514C88.5931 70.6061 85.0959 72.6252 86.5684 74.8336C92.9491 84.1721 99.6978 93.3843 107.06 101.966C106.937 102.092 106.815 102.218 106.692 102.344C93.5012 89.6616 72.5801 69.3442 67.0583 63.2868C63.9907 59.9426 62.7021 56.0937 63.3769 52.3078C64.4813 46.0612 70.8007 39.7514 81.1079 34.4512C84.7277 32.6214 87.9795 31.5488 90.9244 31.2964C93.1331 31.1071 95.0964 31.4226 96.8756 32.1166C101.722 34.0727 103.563 38.9312 103.747 39.4359C104.115 40.8872 104.545 42.8432 105.158 45.1778C108.349 57.8604 114.791 82.0899 118.84 97.2964C118.901 97.2964 118.901 97.3595 118.901 97.4226ZM92.7037 169.669C82.3964 179.702 71.1689 190.618 65.8926 196.17C64.4201 197.243 50.8 206.771 39.9406 192.889C36.2594 188.157 33.9893 183.361 33.3144 178.881L33.3144 173.455C33.4371 172.698 33.6213 171.941 33.8053 171.184C35.4005 166.073 39.6336 162.098 45.8302 159.763C53.1312 157.996 60.4322 156.229 67.7945 154.715C71.0462 154.021 77.1815 153.011 83.1327 152.822C93.4399 152.507 103.256 154.652 96.8756 165.568C96.1394 166.262 95.4644 166.956 94.7282 167.65C94.0533 168.344 93.3785 168.975 92.7037 169.669ZM67.1197 200.776C71.3531 196.17 84.6051 183.172 96.5075 171.625C98.2254 169.985 99.8819 168.344 101.477 166.83C101.538 167.208 101.6 167.587 101.6 167.966C101.723 168.66 102.152 169.101 102.704 169.291C97.1824 176.61 91.7834 183.929 86.4458 191.375C85.096 193.331 88.2862 195.792 89.7587 193.899C97.0596 184.497 104.177 174.906 111.171 165.252C111.416 165.189 111.662 165.063 111.968 165C114.361 164.369 117.061 163.864 119.576 164.054C116.324 176.105 111.109 195.728 107.49 209.862C105.833 216.235 104.483 221.535 103.808 224.564C103.624 225.132 101.784 229.864 96.9984 231.883C96.6303 232.073 96.262 232.136 95.8939 232.262C91.906 233.461 86.9978 232.514 81.1693 229.549C70.8621 224.249 64.5427 217.939 63.4384 211.692C62.7635 207.906 63.9908 204.12 67.1197 200.776ZM244.858 244.818L151.541 244.818C153.688 243.493 155.59 241.916 157.062 240.086C158.351 238.446 159.333 236.616 159.946 234.723L163.689 234.723C164.241 235.038 164.854 235.354 165.529 235.606C166.081 235.859 166.633 236.048 167.186 236.174C168.658 236.616 170.192 236.868 171.787 236.868C174.732 236.868 177.984 236.111 181.419 234.723L232.71 234.723C233.815 234.723 234.735 233.839 234.735 232.704L234.735 178.692C234.919 176.925 234.919 175.222 234.735 173.518L234.735 157.113C236.514 156.419 238.171 155.472 239.766 154.337C241.79 152.822 243.508 150.929 244.858 148.721L244.858 244.818ZM237.373 151.055C228.231 157.996 213.507 153.958 213.261 153.895C211.36 153.264 209.212 152.57 206.942 151.876C197.678 148.847 186.021 144.998 176.143 141.717C186.819 143.168 197.678 143.61 208.537 142.727C211.176 142.474 211.237 138.436 208.537 138.562C195.899 139.067 183.567 138.562 171.235 136.669C170.928 135.597 170.867 134.524 171.174 133.577C186.941 131.558 202.586 129.098 218.17 126.132C220.869 125.627 219.765 121.463 217.004 121.967C199.58 125.249 182.033 127.962 164.425 130.233C164.425 130.17 164.425 130.044 164.363 129.981C164.302 128.467 164.548 127.078 165.038 125.88C173.382 123.103 185.714 119.002 196.942 115.342C202.954 113.386 208.66 111.556 213.2 110.042C213.384 109.979 219.151 108.402 225.716 108.906C229.643 109.222 233.876 110.294 237.312 112.881C242.281 116.667 244.797 123.04 244.797 131.937C244.858 140.897 242.343 147.333 237.373 151.055ZM244.858 19.1816L244.858 115.342C243.508 113.134 241.852 111.241 239.766 109.727C238.171 108.528 236.514 107.644 234.735 106.95L234.735 100.262L234.735 90.4818C234.919 88.7782 234.919 87.0746 234.735 85.3078L234.735 31.2964C234.735 30.1606 233.815 29.2772 232.71 29.2772L181.419 29.2772C178.597 28.0784 175.836 27.4474 173.382 27.2581C170.56 27.0057 167.922 27.3843 165.529 28.3939C164.854 28.6463 164.302 28.9618 163.689 29.2772L159.946 29.2772C159.333 27.3843 158.351 25.5545 157.062 23.914C155.59 22.0841 153.749 20.5698 151.541 19.1816L244.858 19.1816ZM132.031 18.4245C136.939 18.4245 141.418 19.1816 145.16 20.5067C148.903 21.8948 151.909 23.8509 153.934 26.3748C156.572 29.7189 157.431 33.8203 156.326 38.3633C154.792 44.9254 150.068 62.9713 145.774 79.3136C144.547 83.7935 143.381 88.1472 142.338 92.1224C142.154 92.8164 141.97 93.4474 141.786 94.0784C140.681 96.0344 139.577 97.9904 138.534 100.01C137.552 101.776 136.448 105.247 134.117 104.931C131.663 104.553 131.662 101.145 131.356 99.1262C131.11 97.3595 130.742 95.8451 130.006 94.2677C129.945 93.1319 129.883 91.9962 129.822 90.7973C128.963 73.8872 127.859 60.5105 126.264 47.1338C125.957 44.5468 121.907 44.4837 122.214 47.1338C123.871 63.2237 125.098 79.3767 125.773 95.5296C125.65 95.6558 125.466 95.782 125.343 95.9713C125.282 96.0975 125.159 96.2868 125.036 96.4761C124.546 96.0975 124.116 95.7189 123.748 95.2772C123.319 94.8356 122.889 94.6463 122.398 94.6463C118.349 79.3767 112.152 56.3461 109.085 44.1052C108.471 41.7074 108.042 39.7514 107.674 38.3633C106.631 33.8203 107.49 29.6558 110.128 26.3748C114.177 21.327 122.153 18.4245 132.031 18.4245ZM19.2034 19.1816L112.459 19.1816C110.312 20.5067 108.41 22.0841 106.938 23.914C105.649 25.5545 104.667 27.3843 104.054 29.2772L100.311 29.2772C99.7592 28.9618 99.1458 28.6463 98.5322 28.3939C96.1395 27.3843 93.5013 27.0057 90.6177 27.2581C88.1022 27.4474 85.4027 28.1415 82.5805 29.2772L31.2897 29.2772C30.1853 29.2772 29.2649 30.1606 29.2649 31.2964L29.2649 84.8661C28.9582 86.8853 28.9582 88.9044 29.2649 90.8604L29.2649 100.262L29.2649 106.887C27.4857 107.581 25.7681 108.465 24.1729 109.663C22.1483 111.178 20.4917 113.071 19.142 115.279L19.142 19.1816L19.2034 19.1816ZM19.2034 131.117C19.3874 122.662 21.8413 116.541 26.6268 112.881C35.7683 106.004 50.4316 109.979 50.7383 110.042C57.6712 112.25 67.2423 115.405 76.5679 118.497C82.2123 120.327 87.7342 122.22 92.581 123.797C83.1941 123.229 73.8072 122.977 64.4202 122.598C61.8434 122.535 61.8434 126.511 64.4202 126.637C75.0342 127.268 85.7094 127.962 96.3234 128.151C96.7529 128.34 97.121 128.53 97.4892 128.719C98.6549 131.243 98.9003 133.136 97.1211 135.786C86.9365 137.363 76.6908 137.868 66.3835 137.426C63.8067 137.3 63.8067 141.338 66.3835 141.465C74.3594 141.906 82.2124 141.717 90.0655 140.897C79.2675 144.493 65.8924 148.91 55.7079 152.191C52.3948 153.011 49.1433 153.832 45.8916 154.715C40.738 155.346 32.5166 155.472 26.5654 150.992C25.0929 149.857 23.8046 148.468 22.7616 146.828C20.4302 143.294 19.2033 138.562 19.142 132.757L19.142 131.117L19.2034 131.117ZM19.2034 148.721C20.5531 150.929 22.2097 152.759 24.2343 154.337C25.8295 155.535 27.5471 156.419 29.3263 157.113L29.3263 173.14C29.0196 175.096 29.0196 177.115 29.3263 179.134L29.3263 232.704C29.3263 233.839 30.2467 234.723 31.3511 234.723L82.5805 234.723C86.0163 236.111 89.2678 236.868 92.2127 236.868C93.8693 236.868 95.4031 236.616 96.8756 236.174C97.4278 236.048 97.9801 235.859 98.5322 235.606C99.2071 235.354 99.7591 235.038 100.311 234.723L104.054 234.723C104.667 236.616 105.649 238.445 106.938 240.086C108.41 241.916 110.251 243.43 112.459 244.818L19.2034 244.818L19.2034 148.721Z" fill="#428975"/>
<path d="M154.302 91.9949C157.062 85.9375 159.578 79.6909 162.155 73.5073C163.014 71.4251 159.394 69.8477 158.474 71.9299C155.774 78.0503 153.013 84.1708 150.498 90.3544C149.639 92.5628 153.32 94.1402 154.302 91.9949Z" fill="#428975"/>
<path d="M116.631 132.001C116.631 140.456 123.564 147.397 132.031 147.397C140.559 147.397 147.43 140.519 147.43 132.001C147.43 123.483 140.497 116.605 132.031 116.605C123.564 116.605 116.631 123.483 116.631 132.001ZM143.381 132.001C143.381 138.247 138.289 143.358 132.031 143.358C125.773 143.358 120.68 138.247 120.68 132.001C120.68 125.691 125.773 120.643 132.031 120.643C138.289 120.643 143.381 125.754 143.381 132.001Z" fill="#428975"/>
<path d="M140.497 67.2632C140.988 63.6666 141.418 60.0701 141.847 56.5366C142.093 54.2651 138.166 53.7603 137.859 55.9687C137.307 59.5653 136.816 63.0988 136.325 66.6953C135.896 69.7871 140.068 70.355 140.497 67.2632Z" fill="#428975"/>
<path d="M138.227 90.9857C138.289 90.8595 138.289 90.6702 138.289 90.544C138.595 87.3892 138.595 84.2343 138.718 81.0794C138.841 78.4924 134.853 78.4924 134.669 81.0794C134.485 84.2343 134.178 87.3892 134.117 90.544C134.117 90.544 134.117 90.544 134.117 90.6071C134.178 93.0679 137.614 93.131 138.227 90.9857Z" fill="#428975"/>
<path d="M87.4271 160.898C87.3658 160.898 87.3658 160.961 87.3045 160.961C80.2489 166.829 72.8867 172.129 65.1563 176.988C62.9476 178.376 64.9723 181.846 67.181 180.458C75.3409 175.473 83.0098 169.921 90.3721 163.863C92.4581 162.16 89.5131 159.194 87.4271 160.898Z" fill="#428975"/>
<path d="M84.8506 157.934C86.2003 156.672 84.9734 154.337 83.1941 154.337C82.8874 154.337 82.5192 154.401 82.2125 154.59C75.0342 158.249 67.9171 161.909 60.7389 165.506C58.4075 166.705 60.4322 170.175 62.7636 168.976C69.9419 165.379 77.1202 161.846 84.2984 158.249C84.5438 158.186 84.7279 158.06 84.8506 157.934Z" fill="#428975"/>
</svg>
