<svg width="256" height="529" viewBox="0 0 256 529" fill="none" xmlns="http://www.w3.org/2000/svg">
<g clip-path="url(#clip0_260_8074)">
<rect width="256" height="529" fill="white"/>
<g clip-path="url(#clip1_260_8074)">
<path d="M256 1271.46L-0.116388 1271.46L-0.116332 -1.11952e-05L256 0L256 1271.46ZM202.298 264.271C202.182 269.161 201.6 273.994 200.495 278.593L217.949 278.593C218.764 278.593 219.404 279.234 219.404 280.049L219.404 495.82C219.404 496.636 218.764 497.276 217.949 497.276L148.771 497.276C148.364 497.276 148.015 497.101 147.724 496.868C147.665 496.81 147.607 496.752 147.549 496.636C147.375 496.403 147.316 496.112 147.316 495.82L147.316 331.168C146.618 331.343 145.92 331.459 145.222 331.634C143.942 331.867 142.662 332.1 141.324 332.332L141.324 496.17L144.698 499.488L147.433 502.167L227.549 502.167L227.549 275.216L220.625 269.685L205.673 269.685C204.858 269.685 204.218 269.045 204.218 268.23L204.218 264.271L202.298 264.271ZM51.0255 278.593L61.6146 278.593C60.9746 275.857 60.5091 273.062 60.16 270.209L38.4 270.209L38.4 502.05L118.633 502.05L122.415 498.324L122.589 498.149L124.684 496.053L124.684 332.74C123.636 332.682 122.647 332.565 121.658 332.391L121.658 495.82C121.658 496.228 121.484 496.577 121.251 496.81C121.193 496.868 121.076 496.927 121.018 496.985C120.785 497.16 120.495 497.218 120.204 497.218L51.0255 497.218C50.2109 497.218 49.5709 496.577 49.5709 495.762L49.5709 280.049C49.5709 279.234 50.2109 278.593 51.0255 278.593ZM200.145 281.446L199.738 281.446C194.269 301.009 180.422 317.136 162.211 325.87C158.371 327.733 154.356 329.247 150.167 330.411L150.167 461.528C152.204 462.983 155.055 463.391 157.615 463.391C161.105 463.391 164.131 462.634 164.131 462.634C165.12 461.644 166.516 461.062 167.971 461.062C170.996 461.062 173.44 463.449 173.44 466.418C173.44 469.388 170.996 471.833 167.971 471.833C166.458 471.833 165.12 471.251 164.131 470.261C157.207 467 152.378 469.62 150.109 471.484L150.109 487.495C150.575 487.087 151.273 486.854 151.796 486.854L154.589 486.854L154.589 481.847C154.589 481.032 155.229 480.392 156.044 480.392L205.265 480.392L205.265 342.463L200.611 337.864C200.32 337.631 200.204 337.223 200.204 336.874L200.204 281.446L200.145 281.446ZM208.175 471.192L216.495 479.402L216.495 321.096L208.175 312.944L208.175 471.192ZM216.436 489.416L216.436 483.477L208.116 481.265L216.436 489.416ZM92.16 461.12C93.6727 461.12 95.0109 461.702 96 462.692C96 462.692 105.193 465.021 110.022 461.586L110.022 329.945C104.96 328.373 100.131 326.336 95.6509 323.774C95.1273 323.483 94.6618 323.192 94.1382 322.9C78.7782 313.701 67.2 298.971 62.3127 281.504L52.48 281.504L52.48 489.649L59.4036 489.649L59.4036 481.789C59.4036 480.974 60.0436 480.333 60.8582 480.333L110.022 480.333L110.022 471.484C107.753 469.62 102.924 467 96 470.261C95.0109 471.251 93.6727 471.833 92.16 471.833C89.1345 471.833 86.6909 469.446 86.6909 466.418C86.6909 463.507 89.1345 461.12 92.16 461.12ZM240.873 11.3533L240.873 242.787C240.873 243.194 240.698 243.602 240.349 243.893L239.825 244.3L218.589 261.418L222.138 261.418L243.491 246.164L243.491 11.3533L240.873 11.3533ZM217.891 247.037L200.436 247.037C201.542 251.636 202.124 256.469 202.24 261.36L204.276 261.36L204.276 257.4C204.276 256.585 204.916 255.945 205.731 255.945L220.684 255.945L227.607 250.414L227.607 23.58L147.433 23.58L144.873 26.0836L141.324 29.5769L141.324 193.414C142.662 193.589 143.942 193.822 145.222 194.113C145.92 194.229 146.618 194.404 147.316 194.579L147.316 29.868C147.316 29.4604 147.491 29.1111 147.724 28.8782C148.015 28.6453 148.364 28.4707 148.771 28.4707L217.891 28.4707C218.705 28.4707 219.345 29.1111 219.345 29.9262L219.345 245.698C219.345 246.455 218.705 247.037 217.891 247.037ZM51.0255 28.4124L120.204 28.4124C120.611 28.4124 120.96 28.5871 121.251 28.82C121.542 29.0529 121.658 29.4604 121.658 29.8098L121.658 193.24C121.775 193.24 121.949 193.181 122.065 193.181C122.938 193.065 123.811 193.007 124.684 192.89L124.684 29.5769L122.589 27.4809L118.633 23.58L38.4582 23.58L38.4582 254.955L60.2182 254.955C60.5091 252.684 60.8582 250.414 61.3237 248.201C61.3818 247.852 61.4982 247.444 61.5564 247.095L50.9673 247.095C50.1527 247.095 49.5127 246.455 49.5127 245.64L49.5127 29.868C49.5709 29.0529 50.2109 28.4124 51.0255 28.4124ZM62.3709 244.184C68.8291 221.128 86.9818 202.788 110.08 195.743L110.08 64.1027C105.251 60.6676 96.0582 62.9964 96.0582 62.9964C95.0691 63.9862 93.7309 64.5684 92.2182 64.5684C89.1927 64.5684 86.7491 62.1813 86.7491 59.212C86.7491 56.2427 89.1927 53.7973 92.2182 53.7973C93.7309 53.7973 95.0691 54.3795 96.0582 55.3693C102.982 58.6298 107.811 56.0098 110.08 54.1467L110.08 45.2969L60.9164 45.2969C60.1018 45.2969 59.4618 44.6564 59.4618 43.8413L59.4619 35.9813L52.5382 35.9813L52.5382 244.184L62.3709 244.184ZM168.087 64.5684C166.575 64.5684 165.236 63.9862 164.247 62.9964C164.247 62.9964 155.055 60.6676 150.225 64.1027L150.225 195.219C154.415 196.384 158.429 197.897 162.269 199.76C162.444 199.819 162.56 199.877 162.676 199.993C180.655 208.785 194.327 224.854 199.738 244.242L200.145 244.242L200.145 188.873C200.145 188.524 200.32 188.116 200.553 187.883L205.207 183.284L205.207 45.2969L156.044 45.2969C155.229 45.2969 154.589 44.6564 154.589 43.8413L154.589 38.8342L151.796 38.8342C150.982 38.8342 150.342 38.1938 150.342 37.3787L150.109 37.3787L150.109 54.1467C151.564 55.3693 154.182 56.8831 157.731 56.8831C159.593 56.8831 161.745 56.4756 164.131 55.3693C165.12 54.3796 166.516 53.7973 167.971 53.7973C170.996 53.7973 173.44 56.1844 173.44 59.212C173.556 62.1813 171.113 64.5684 168.087 64.5684ZM216.436 42.2111L216.436 36.2724L208.116 44.4818L208.116 50.4204L216.436 42.2111ZM208.175 54.4378L208.175 212.744L216.495 204.593L216.495 46.2867L208.175 54.4378ZM21.8182 11.3533L21.8182 242.088L35.5491 253.092L35.5491 22.1244C35.5491 21.3093 36.1891 20.6689 37.0037 20.6689L109.905 20.6689L109.905 14.3809C109.905 13.7987 110.255 13.2747 110.836 13.0418C111.011 12.9835 111.185 12.9253 111.36 12.9253C111.767 12.9253 112.116 13.1 112.407 13.3329L120.262 21.0764L120.669 21.484L127.185 27.8884L132.422 33.2449L138.88 27.8302L145.804 21.0182C145.804 21.0182 145.804 21.0182 145.862 21.0182L154.589 13.2164C154.88 12.9836 155.171 12.8671 155.52 12.8671C155.695 12.8671 155.927 12.9253 156.102 12.9836C156.625 13.2164 156.975 13.7404 156.975 14.2644L156.975 20.6107L229.004 20.6107C229.818 20.6107 230.458 21.2511 230.458 22.0662L230.458 248.027L237.964 242.088L237.964 11.3533L145.396 11.3533L131.782 24.7444C131.2 25.3267 130.269 25.3267 129.745 24.7444L116.131 11.3533L21.8182 11.3533ZM41.2509 261.418L19.4327 243.893C19.0837 243.602 18.9091 243.194 18.9091 242.787L18.9091 11.3533L13.2073 11.3533L13.2073 242.088L37.2364 261.36L41.2509 261.36L41.2509 261.418ZM62.72 261.418L62.72 264.271C62.8364 269.22 63.4764 273.994 64.5818 278.593L65.3382 281.446C73.5418 309.509 99.8982 330.12 131.025 330.12C135.68 330.12 140.218 329.654 144.64 328.781C175.36 322.668 198.691 296.118 199.389 264.212L199.389 261.418C199.273 256.702 198.691 252.16 197.644 247.736C192 223.748 173.382 204.651 149.527 198.014C147.956 197.548 146.269 197.199 144.64 196.849C140.218 195.976 135.68 195.51 131.025 195.51C128.116 195.51 125.207 195.685 122.415 196.034C95.1273 199.411 72.8436 218.741 65.3382 244.184L64.5818 247.037C64.4655 247.619 64.2909 248.201 64.1746 248.784C63.3018 252.859 62.8364 257.109 62.72 261.418ZM18.9091 514.277L18.9091 282.902C18.9091 282.494 19.0837 282.087 19.4327 281.796L19.9564 281.388L41.1928 264.271L37.1782 264.271L13.1491 283.542L13.1491 514.277L18.9091 514.277ZM237.964 514.277L237.964 283.542L230.458 277.545L230.458 503.506C230.458 504.321 229.818 504.961 229.004 504.961L156.975 504.961L156.975 511.308C156.975 511.89 156.625 512.356 156.102 512.588C155.927 512.647 155.695 512.705 155.52 512.705C155.171 512.705 154.822 512.588 154.589 512.356L148.655 507.057L145.862 504.554C145.862 504.554 145.862 504.554 145.804 504.554L138.88 497.742L132.422 492.327L127.185 497.684L120.262 504.496L112.407 512.239C112.116 512.53 111.767 512.647 111.36 512.647C111.185 512.647 111.011 512.588 110.836 512.53C110.313 512.297 109.905 511.773 109.905 511.191L109.905 504.903L37.0036 504.903C36.1891 504.903 35.5491 504.263 35.5491 503.448L35.5491 272.538L21.8182 283.542L21.8182 514.277L116.131 514.277L129.745 500.886C130.327 500.304 131.258 500.304 131.782 500.886L145.396 514.277L237.964 514.277ZM243.549 514.277L243.549 279.525L222.196 264.271L218.589 264.271L239.825 281.388L240.349 281.796C240.698 282.087 240.873 282.494 240.873 282.902L240.873 514.277L243.549 514.277ZM202.298 1018.6C202.182 1023.49 201.6 1028.32 200.495 1032.92L217.949 1032.92C218.764 1032.92 219.404 1033.56 219.404 1034.38L219.404 1250.15C219.404 1250.96 218.764 1251.6 217.949 1251.6L148.771 1251.6C148.364 1251.6 148.015 1251.43 147.724 1251.2C147.665 1251.14 147.607 1251.08 147.549 1250.96C147.375 1250.73 147.316 1250.44 147.316 1250.15L147.316 1085.5C146.618 1085.67 145.92 1085.79 145.222 1085.96C143.942 1086.19 142.662 1086.43 141.324 1086.66L141.324 1250.5L144.698 1253.82L147.433 1256.49L227.549 1256.49L227.549 1029.6L220.625 1024.07L205.673 1024.07C204.858 1024.07 204.218 1023.43 204.218 1022.62L204.218 1018.66L202.298 1018.66L202.298 1018.6ZM51.0254 1032.92L61.6145 1032.92C60.9745 1030.18 60.5091 1027.39 60.16 1024.54L38.4 1024.54L38.4 1256.38L118.633 1256.38L122.415 1252.65L122.589 1252.48L124.684 1250.38L124.684 1087.01C123.636 1086.95 122.647 1086.83 121.658 1086.66L121.658 1250.09C121.658 1250.5 121.484 1250.85 121.251 1251.08C121.193 1251.14 121.076 1251.2 121.018 1251.25C120.785 1251.43 120.495 1251.49 120.204 1251.49L51.0254 1251.49C50.2109 1251.49 49.5709 1250.85 49.5709 1250.03L49.5709 1034.26C49.5709 1033.56 50.2109 1032.92 51.0254 1032.92ZM200.145 1035.77L199.738 1035.77C194.269 1055.34 180.422 1071.46 162.211 1080.2C158.371 1082.06 154.356 1083.57 150.167 1084.74L150.167 1215.85C152.204 1217.31 155.055 1217.72 157.615 1217.72C161.105 1217.72 164.131 1216.96 164.131 1216.96C165.12 1215.97 166.516 1215.39 167.971 1215.39C170.996 1215.39 173.44 1217.78 173.44 1220.75C173.44 1223.71 170.996 1226.16 167.971 1226.16C166.458 1226.16 165.12 1225.58 164.131 1224.59C157.207 1221.33 152.378 1223.95 150.109 1225.81L150.109 1241.82C150.575 1241.41 151.273 1241.18 151.796 1241.18L154.589 1241.18L154.589 1236.17C154.589 1235.36 155.229 1234.72 156.044 1234.72L205.265 1234.72L205.265 1096.79L200.611 1092.19C200.32 1091.96 200.204 1091.55 200.204 1091.2L200.204 1035.77L200.145 1035.77ZM208.174 1225.52L216.494 1233.73L216.495 1075.42L208.175 1067.27L208.174 1225.52ZM216.436 1243.68L216.436 1237.75L208.116 1235.53L216.436 1243.68ZM92.16 1215.39C93.6727 1215.39 95.0109 1215.97 96 1216.96C96 1216.96 105.193 1219.29 110.022 1215.85L110.022 1084.21C104.96 1082.64 100.131 1080.6 95.6509 1078.04C95.1273 1077.75 94.6618 1077.46 94.1382 1077.17C78.7782 1067.97 67.2 1053.24 62.3127 1035.77L52.48 1035.77L52.48 1243.98L59.4036 1243.98L59.4036 1236.12C59.4036 1235.3 60.0436 1234.66 60.8581 1234.66L110.022 1234.66L110.022 1225.81C107.753 1223.95 102.924 1221.33 96 1224.59C95.0109 1225.58 93.6727 1226.16 92.16 1226.16C89.1345 1226.16 86.6909 1223.77 86.6909 1220.75C86.6909 1217.78 89.1345 1215.39 92.16 1215.39ZM240.873 765.68L240.873 997.056C240.873 997.463 240.698 997.871 240.349 998.162L239.825 998.569L218.589 1015.69L222.138 1015.69L243.491 1000.43L243.491 765.68L240.873 765.68ZM217.891 1001.36L200.436 1001.36C201.542 1005.96 202.124 1010.8 202.24 1015.69L204.276 1015.69L204.276 1011.73C204.276 1010.91 204.916 1010.27 205.731 1010.27L220.684 1010.27L227.607 1004.74L227.607 777.849L147.433 777.849L144.931 780.352L141.382 783.846L141.382 947.683C142.72 947.858 144 948.091 145.28 948.382C145.978 948.498 146.676 948.673 147.375 948.848L147.375 784.195C147.375 783.788 147.549 783.438 147.782 783.205C148.073 782.972 148.422 782.798 148.829 782.798L217.891 782.798C218.705 782.798 219.345 783.438 219.345 784.253L219.345 1000.02C219.345 1000.72 218.705 1001.36 217.891 1001.36ZM51.0255 782.74L120.204 782.74C120.611 782.74 120.96 782.914 121.251 783.147C121.542 783.38 121.658 783.788 121.658 784.137L121.658 947.567C121.775 947.567 121.949 947.508 122.065 947.508C122.938 947.392 123.811 947.334 124.684 947.217L124.684 783.846L122.589 781.75L118.633 777.849L38.4582 777.849L38.4582 1009.22L60.2182 1009.22C60.4509 1006.95 60.8582 1004.68 61.3236 1002.47C61.3818 1002.12 61.4982 1001.71 61.5564 1001.36L50.9672 1001.36C50.1527 1001.36 49.5127 1000.72 49.5127 999.908L49.5127 784.137C49.5709 783.38 50.2109 782.74 51.0255 782.74ZM62.3709 998.511C68.8291 975.455 86.9818 957.115 110.08 950.07L110.08 818.43C105.251 814.995 96.0582 817.324 96.0582 817.324C95.0691 818.313 93.7309 818.896 92.2182 818.896C89.1927 818.896 86.7491 816.508 86.7491 813.539C86.7491 810.57 89.1927 808.124 92.2182 808.124C93.7309 808.124 95.0691 808.707 96.0582 809.696C102.982 812.957 107.811 810.337 110.08 808.474L110.08 799.624L60.9164 799.624C60.1018 799.624 59.4618 798.984 59.4618 798.168L59.4618 790.308L52.5382 790.308L52.5382 998.511L62.3709 998.511ZM168.087 818.896C166.575 818.896 165.236 818.313 164.247 817.324C164.247 817.324 155.055 814.995 150.225 818.43L150.225 949.546C154.415 950.711 158.429 952.224 162.269 954.088C162.444 954.146 162.56 954.204 162.676 954.32C180.655 963.112 194.327 979.181 199.738 998.569L200.145 998.569L200.145 943.2C200.145 942.851 200.32 942.443 200.553 942.21L205.207 937.611L205.207 799.682L156.044 799.682C155.229 799.682 154.589 799.042 154.589 798.227L154.589 793.22L151.796 793.22C150.982 793.22 150.342 792.579 150.342 791.764L150.109 791.764L150.109 808.532C151.564 809.755 154.182 811.268 157.731 811.268C159.593 811.268 161.745 810.861 164.131 809.755C165.12 808.765 166.516 808.183 167.971 808.183C170.996 808.183 173.44 810.57 173.44 813.597C173.556 816.508 171.113 818.896 168.087 818.896ZM216.436 796.538L216.436 790.6L208.116 798.809L208.116 804.748L216.436 796.538ZM208.175 808.765L208.175 967.071L216.495 958.92L216.495 800.556L208.175 808.765ZM21.8182 765.68L21.8182 996.415L35.5491 1007.42L35.5491 776.452C35.5491 775.636 36.1891 774.996 37.0036 774.996L109.905 774.996L109.905 768.708C109.905 768.126 110.255 767.602 110.836 767.369C111.011 767.311 111.185 767.252 111.36 767.252C111.767 767.252 112.116 767.427 112.407 767.66L120.262 775.404L120.669 775.811L127.185 782.216L132.422 787.572L138.88 782.157L145.804 775.345C145.804 775.345 145.804 775.345 145.862 775.345L154.589 767.544C154.88 767.311 155.171 767.194 155.52 767.194C155.695 767.194 155.927 767.252 156.102 767.311C156.625 767.544 156.975 768.068 156.975 768.592L156.975 774.938L229.004 774.938C229.818 774.938 230.458 775.578 230.458 776.393L230.458 1002.35L237.964 996.357L237.964 765.622L145.396 765.622L131.782 779.013C131.2 779.596 130.269 779.596 129.745 779.013L116.131 765.622L21.8182 765.622L21.8182 765.68ZM108.8 751.125C109.789 751.125 110.778 750.717 111.418 750.077L126.429 735.288C128.989 732.727 133.236 732.727 135.796 735.288L150.225 749.495C150.924 750.193 151.855 750.601 152.844 750.601L238.604 750.601C240.64 750.601 242.327 748.912 242.327 746.933L242.327 663.733C242.327 662.744 241.92 661.812 241.222 661.113L226.444 646.558C225.222 645.335 224.465 643.705 224.465 641.958C224.465 640.212 225.164 638.581 226.444 637.359L241.164 623.036C241.862 622.337 242.269 621.406 242.269 620.416L242.269 534.422C242.269 532.384 240.582 530.754 238.545 530.754L154.531 530.754C153.658 530.754 152.785 531.045 152.087 531.627L135.68 545.368C133.004 547.638 128.989 547.405 126.545 544.902L114.036 531.86C113.338 531.103 112.349 530.696 111.302 530.696L22.2255 530.696C20.1891 530.696 18.5018 532.326 18.5018 534.364L18.5018 619.31C18.5018 620.3 18.9091 621.231 19.6073 621.93L33.92 636.02C35.2 637.3 35.8982 638.989 35.8982 640.619C35.8982 642.308 35.2582 643.996 33.92 645.219L19.2582 659.716C18.56 660.415 18.1527 661.346 18.1527 662.336L18.1527 747.399C18.1527 749.436 19.84 751.067 21.8764 751.067L108.8 751.067L108.8 751.125ZM41.2509 1015.69L19.4327 998.162C19.0836 997.871 18.9091 997.463 18.9091 997.056L18.9091 765.68L13.2073 765.68L13.2073 996.415L37.2364 1015.69L41.2509 1015.69ZM62.72 1015.69L62.72 1018.54C62.8363 1023.49 63.4763 1028.26 64.5818 1032.86L65.3382 1035.72C73.5418 1063.78 99.8982 1084.39 131.025 1084.39C135.68 1084.39 140.218 1083.92 144.64 1083.05C175.36 1076.94 198.691 1050.39 199.389 1018.48L199.389 1015.63C199.273 1010.91 198.691 1006.37 197.644 1001.95C192 977.959 173.382 958.862 149.527 952.224C147.956 951.759 146.269 951.409 144.64 951.06C140.218 950.187 135.68 949.721 131.025 949.721C128.116 949.721 125.207 949.896 122.415 950.245C95.1273 953.622 72.8436 972.952 65.3382 998.395L64.5818 1001.25C64.4654 1001.83 64.2909 1002.41 64.1745 1002.99C63.3018 1007.19 62.8363 1011.38 62.72 1015.69ZM18.9091 1268.6L18.9091 1037.23C18.9091 1036.82 19.0836 1036.41 19.4327 1036.12L19.9564 1035.72L41.1927 1018.6L37.1782 1018.6L13.1491 1037.87L13.1491 1268.6L18.9091 1268.6ZM237.964 1268.6L237.964 1037.87L230.458 1031.87L230.458 1257.83C230.458 1258.65 229.818 1259.29 229.004 1259.29L156.975 1259.29L156.975 1265.63C156.975 1266.22 156.625 1266.68 156.102 1266.92C155.927 1266.97 155.695 1267.03 155.52 1267.03C155.171 1267.03 154.822 1266.92 154.589 1266.68L148.655 1261.38L145.862 1258.88C145.862 1258.88 145.862 1258.88 145.804 1258.88L138.88 1252.07L132.422 1246.65L127.185 1252.01L120.262 1258.82L112.407 1266.57C112.116 1266.86 111.767 1266.97 111.36 1266.97C111.185 1266.97 111.011 1266.92 110.836 1266.86C110.313 1266.62 109.905 1266.1 109.905 1265.52L109.905 1259.23L37.0036 1259.23C36.1891 1259.23 35.5491 1258.59 35.5491 1257.77L35.5491 1026.81L21.8182 1037.81L21.8182 1268.55L116.131 1268.55L129.745 1255.15C130.327 1254.57 131.258 1254.57 131.782 1255.15L145.396 1268.55L237.964 1268.55L237.964 1268.6ZM243.549 1268.6L243.549 1033.85L222.196 1018.6L218.589 1018.6L239.825 1035.72L240.349 1036.12C240.698 1036.41 240.873 1036.82 240.873 1037.23L240.873 1268.6L243.549 1268.6Z" fill="#A28658"/>
<path d="M69.8182 264.271L69.8182 261.418C69.9345 256.178 70.7491 251.113 72.1454 246.338C72.2036 246.28 72.2036 246.164 72.2036 246.105C79.5927 220.953 103.156 202.555 131.025 202.555C164.305 202.555 191.476 228.872 192.291 261.476L192.291 264.329C191.476 296.933 164.364 323.25 131.025 323.25C103.156 323.25 79.5927 304.852 72.2036 279.7C72.2036 279.641 72.1454 279.525 72.1454 279.467C70.7491 274.576 69.9345 269.511 69.8182 264.271ZM102.342 305.492C109.207 303.92 114.618 292.276 114.676 292.159C114.851 291.752 115.025 291.286 115.2 290.878C117.411 285.58 120.145 280.165 122.473 275.508C123.404 273.644 124.335 271.898 125.091 270.326C124.567 269.918 124.102 269.511 123.695 268.987C121.833 270.151 119.971 271.257 118.225 272.364C113.513 275.391 109.44 278.186 106.007 280.806C97.3382 287.501 92.9164 292.916 92.6254 297.224C92.5091 299.553 93.5564 301.649 95.8836 303.571C98.0945 305.376 100.189 305.958 102.342 305.492ZM132.073 277.08C133.702 276.963 135.273 276.614 136.727 276.032C135.971 274.634 135.215 273.179 134.458 271.665C133.702 271.956 132.887 272.131 132.073 272.247C132.073 273.936 132.073 275.566 132.073 277.08ZM129.164 272.131C128.64 272.014 128.116 271.898 127.651 271.723C127.011 273.062 126.255 274.518 125.498 276.09C126.662 276.556 127.884 276.905 129.105 277.08C129.164 275.449 129.164 273.819 129.164 272.131ZM139.229 274.634C140.451 273.819 141.556 272.771 142.487 271.607C141.149 270.792 139.695 269.918 138.24 269.045C137.833 269.511 137.425 269.918 136.96 270.268C137.775 271.84 138.531 273.295 139.229 274.634ZM124.858 314.225C129.105 311.722 130.502 305.376 130.735 304.095C130.618 303.454 130.502 302.814 130.385 302.115C129.513 296.584 129.222 289.248 129.164 279.933C127.476 279.758 125.789 279.292 124.218 278.652C120.727 285.638 116.48 294.313 114.56 301.475C113.455 305.55 113.164 309.102 114.153 311.547C114.735 313.003 115.782 313.993 117.353 314.517C120.262 315.506 122.822 315.448 124.858 314.225ZM151.331 298.797C149.295 296.409 147.142 293.557 144.989 290.18C142.778 286.803 140.509 282.96 138.124 278.593C136.262 279.408 134.225 279.874 132.131 279.991C132.131 286.162 132.305 291.519 132.655 296.002C133.353 304.561 134.807 309.975 137.542 312.479C139.287 314.051 141.673 314.633 145.338 314.342C148.015 314.109 149.876 313.177 151.04 311.431C153.716 307.239 151.68 299.961 151.331 298.797ZM159.593 281.504C155.462 279.35 150.633 276.556 144.989 273.179C143.767 274.809 142.255 276.148 140.625 277.254C153.135 300.252 160.582 304.328 164.131 304.561C166.225 304.677 168.029 303.629 169.658 301.242C171.404 298.738 171.927 296.235 171.229 293.615C169.6 287.443 161.862 282.727 159.593 281.504ZM140.567 264.271C140.451 265.144 140.218 265.901 139.869 266.658C147.84 271.49 154.647 275.566 160.291 278.593C160.407 278.652 160.582 278.768 160.931 278.943C169.135 283.251 174.895 285.289 178.444 284.241C180.364 283.659 181.818 282.145 183.098 279.409C184.727 275.915 184.262 272.713 181.76 269.569C179.025 266.25 174.662 264.213 170.007 264.213L140.567 264.213L140.567 264.271ZM124.509 264.271C125.207 267.24 127.884 269.452 131.084 269.452C134.284 269.452 136.96 267.24 137.658 264.271L124.509 264.271ZM116.596 264.271C116.771 265.959 117.236 267.648 117.993 269.161C119.331 268.288 120.727 267.415 122.182 266.541C121.833 265.843 121.658 265.028 121.542 264.271L116.596 264.271ZM93.6727 264.271C90.7636 264.271 87.9709 264.911 85.76 266.192C81.1636 268.754 79.1854 272.946 79.9418 278.652C80.3491 281.679 81.5127 283.775 83.6073 284.94C88.4364 287.676 96.4655 284.648 97.8618 284.124C100.596 281.504 104.087 278.71 108.393 275.682C106.065 274.46 104.436 266.891 106.705 266.425C108.276 266.134 108.567 268.405 109.207 270.675C109.615 272.014 110.196 273.353 110.255 274.401C111.36 273.586 112.582 272.829 113.804 272.014C112.058 271.316 111.476 267.939 114.036 267.182C114.095 267.182 114.153 267.182 114.211 267.182C113.978 266.25 113.804 265.319 113.745 264.387L93.6727 264.387L93.6727 264.271ZM164.073 221.186C160.233 221.419 151.68 226.31 136.96 255.363C137.425 255.712 137.891 256.12 138.24 256.585C146.909 251.287 153.833 247.153 159.535 244.184C161.804 242.961 169.542 238.245 171.113 232.132C171.753 229.512 171.287 227.067 169.542 224.505C167.971 222.118 166.167 221.012 164.073 221.186ZM129.164 248.667C127.884 248.842 126.662 249.133 125.498 249.599C126.313 251.171 127.011 252.626 127.651 253.965C128.116 253.791 128.64 253.616 129.164 253.558C129.164 251.869 129.164 250.181 129.164 248.667ZM132.073 253.383C132.887 253.441 133.702 253.674 134.458 253.965C135.215 252.452 135.971 251.054 136.669 249.657C135.215 249.075 133.644 248.725 132.015 248.609C132.073 250.123 132.073 251.753 132.073 253.383ZM122.938 250.938C121.658 251.811 120.495 252.859 119.564 254.082C121.018 254.955 122.415 255.829 123.753 256.644C124.16 256.178 124.625 255.712 125.149 255.304C124.451 254.024 123.753 252.51 122.938 250.938ZM137.484 213.21C134.051 216.296 132.655 224.039 132.247 236.557C132.131 239.352 132.131 242.437 132.073 245.698C134.109 245.814 136.145 246.28 138.065 247.095C139.869 243.835 141.615 240.807 143.302 238.129C146.095 233.588 148.829 229.861 151.389 226.892C151.738 225.728 153.775 218.45 151.04 214.258C149.876 212.511 148.015 211.58 145.338 211.347C141.615 211.056 139.229 211.638 137.484 213.21ZM124.218 247.037C125.731 246.397 127.418 245.989 129.164 245.756C129.222 235.218 129.629 227.358 130.735 221.536C130.502 220.313 129.105 213.908 124.858 211.463C122.822 210.24 120.262 210.182 117.353 211.172C115.782 211.696 114.793 212.686 114.153 214.141C111.418 220.895 118.749 236.091 124.218 247.037ZM117.12 252.51C118.4 250.88 119.913 249.482 121.658 248.376C119.331 243.718 116.771 238.536 114.676 233.471C114.618 233.413 111.36 226.252 106.589 222.409C105.251 221.361 103.855 220.546 102.342 220.196C100.131 219.731 98.0945 220.313 95.9418 222.06C93.5564 224.039 92.5091 226.135 92.6836 228.464C92.8 230.269 93.6727 232.19 95.0691 234.228C99.2582 240.225 108.276 246.862 117.12 252.51ZM113.687 261.418C113.862 259.089 114.56 256.935 115.607 254.955C115.433 254.839 115.258 254.722 115.142 254.606C114.676 257.284 112.698 258.681 112.873 253.092C106.473 248.784 101.469 244.999 97.8036 241.564C96.2909 240.982 88.3782 238.071 83.5491 240.749C81.5127 241.913 80.2909 243.951 79.8836 247.037C79.1855 252.743 81.1636 256.935 85.7018 259.496C87.9709 260.777 90.7055 261.418 93.6145 261.418L113.687 261.418ZM121.542 261.418C121.658 260.603 121.891 259.846 122.182 259.089C120.727 258.216 119.331 257.342 117.993 256.527C117.236 258.041 116.713 259.671 116.538 261.418L121.542 261.418ZM137.6 261.418C136.902 258.449 134.225 256.236 131.025 256.236C127.825 256.236 125.149 258.449 124.451 261.418L137.6 261.418ZM170.007 261.418C174.662 261.418 179.025 259.438 181.76 256.061C184.32 252.917 184.727 249.715 183.098 246.222C181.818 243.485 180.364 241.972 178.444 241.389C174.895 240.341 169.076 242.379 160.931 246.688C160.582 246.862 160.349 246.979 160.291 247.037C154.589 250.065 147.84 254.14 139.869 258.972C140.218 259.729 140.451 260.544 140.567 261.36L170.007 261.36L170.007 261.418Z" fill="#A28658"/>
<path d="M156.916 399.754C156.335 399.23 155.578 398.938 154.822 398.938C154.356 398.938 153.833 399.055 153.425 399.288C152.378 399.812 151.796 400.86 151.796 401.966C151.796 402.082 151.796 402.257 151.796 402.374C158.08 449.301 196.713 471.949 197.12 472.182C197.585 472.473 198.167 472.415 198.633 472.182C199.098 471.891 199.331 471.367 199.331 470.843C197.004 438.413 166.284 408.254 156.916 399.754Z" fill="#A28658"/>
<path d="M103.215 402.374C103.389 401.093 102.749 399.87 101.585 399.288C100.422 398.706 99.0837 398.88 98.0946 399.754C93.44 404.004 83.3746 413.669 74.24 426.303C65.1055 438.996 56.8437 454.599 55.68 470.843C55.68 470.843 55.68 470.901 55.68 470.96C55.68 471.425 55.9709 471.891 56.3782 472.182C56.8436 472.473 57.4255 472.473 57.8909 472.182C58.2982 471.949 96.9309 449.301 103.215 402.374Z" fill="#A28658"/>
<path d="M82.9673 404.586C86.1091 402.025 106.24 384.15 103.389 379.376C103.215 379.143 102.865 378.619 102.051 378.503C98.7345 377.979 83.84 384.325 73.6 393.233C64.8145 400.86 56.2618 413.786 56.2618 418.676C56.2618 419.317 56.3782 419.782 56.6691 420.132C59.4036 423.276 66.0945 418.385 79.6509 407.323C80.8145 406.333 81.92 405.46 82.9673 404.586Z" fill="#A28658"/>
<path d="M151.622 379.376C151.447 379.667 151.331 380.075 151.331 380.482C151.331 386.479 169.135 402.258 172.044 404.586C173.091 405.46 174.196 406.333 175.302 407.265C188.858 418.327 195.491 423.159 198.284 420.074C200.902 417.162 191.244 401.792 181.353 393.233C171.113 384.325 156.218 377.979 152.902 378.503C152.204 378.619 151.796 379.085 151.622 379.376Z" fill="#A28658"/>
<path d="M151.331 370.061C151.331 371.225 151.331 373.612 173.265 376.873C193.513 379.9 199.156 365.461 199.215 365.345C199.389 364.879 199.331 364.413 199.04 364.005C192.64 355.097 177.222 358.358 168.611 361.036C168.436 361.036 151.331 366.684 151.331 370.061Z" fill="#A28658"/>
<path d="M103.68 370.06C103.68 366.742 86.5745 361.094 86.4 361.036C77.7891 358.299 62.3709 355.097 55.9709 364.005C55.7964 364.238 55.68 364.529 55.68 364.82C55.68 364.995 55.7382 365.17 55.7382 365.286C55.7964 365.402 61.44 379.842 81.6873 376.814C103.68 373.612 103.68 371.166 103.68 370.06Z" fill="#A28658"/>
<path d="M163.84 337.281C156.451 348.169 151.505 358.066 151.04 358.94C150.982 359.114 150.924 359.347 150.924 359.58C150.924 359.871 151.04 360.162 151.215 360.454C151.564 360.861 152.087 361.094 152.611 360.978C153.367 360.861 170.647 357.426 185.193 340.309C197.178 326.161 199.215 310.033 199.331 309.334C199.331 309.276 199.331 309.218 199.331 309.218C199.331 308.81 199.156 308.461 198.924 308.17C198.575 307.879 198.109 307.704 197.702 307.821C185.193 309.626 172.742 324.181 163.84 337.281Z" fill="#A28658"/>
<path d="M103.796 360.396C104.145 359.988 104.204 359.406 103.913 358.882C103.447 358.008 98.5018 348.111 91.1127 337.223C82.2109 324.123 69.7018 309.568 57.3091 307.704C56.8436 307.646 56.3782 307.763 56.0873 308.054C55.7964 308.345 55.68 308.694 55.68 309.102C55.68 309.16 55.68 309.218 55.68 309.276C55.7382 309.975 57.8327 326.161 69.76 340.251C84.2473 357.368 101.585 360.745 102.284 360.92C102.924 361.036 103.505 360.861 103.796 360.396Z" fill="#A28658"/>
<path d="M163.607 337.107C165.178 334.719 166.4 331.867 166.807 328.548C166.865 328.315 166.807 328.082 166.749 327.907C166.516 327.325 165.76 326.277 164.364 326.161C163.84 326.103 163.316 326.219 162.618 326.568C160.407 327.675 157.091 331.517 151.447 343.22C151.273 343.511 151.215 343.802 151.215 344.093C151.215 344.675 151.447 345.199 151.913 345.607C152.611 346.247 153.6 346.306 154.356 345.84C156.509 344.559 160.64 341.648 163.607 337.107Z" fill="#A28658"/>
<path d="M88.2618 327.908C88.2037 328.082 88.2037 328.199 88.2037 328.373C88.2037 328.432 88.2037 328.49 88.2037 328.548C88.6109 331.867 89.8327 334.72 91.4037 337.107C94.3709 341.648 98.5018 344.501 100.655 345.84C101.469 346.306 102.4 346.248 103.098 345.607C103.796 345.025 103.971 344.035 103.622 343.22C98.6182 332.973 95.4764 328.723 93.2655 327.092C92.8582 326.801 92.5673 326.627 92.2182 326.452C91.6364 326.161 91.1128 326.103 90.6473 326.161C89.2509 326.219 88.4946 327.267 88.2618 327.908Z" fill="#A28658"/>
<path d="M120.844 306.831C117.76 305.608 116.538 310.557 119.622 311.023C122.705 311.43 122.938 307.588 120.844 306.831Z" fill="#A28658"/>
<path d="M135.447 304.386C135.505 307.996 145.629 307.588 145.222 303.28C145.047 301.591 141.905 302.348 139.287 302.814C137.193 303.163 135.389 302.814 135.447 304.386Z" fill="#A28658"/>
<path d="M128 302.872C128.058 302.755 128.058 302.639 128.058 302.523C128.058 301.358 125.615 301.125 123.462 300.485C121.018 299.786 118.865 298.68 117.993 300.834C117.876 301.183 117.76 301.533 117.76 301.824C117.76 305.375 127.011 305.608 128 302.872Z" fill="#A28658"/>
<path d="M156.916 299.554C159.244 302.581 162.909 297.108 161.28 295.711C160.349 294.954 159.476 296.06 158.313 296.992C157.382 297.749 155.869 298.156 156.916 299.554Z" fill="#A28658"/>
<path d="M99.5491 290.878C96.64 295.07 105.6 301.183 107.869 298.156C110.08 295.128 101.062 288.724 99.5491 290.878Z" fill="#A28658"/>
<path d="M128.989 296.235C129.804 294.255 127.127 294.255 125.033 293.731C123.171 293.324 121.833 292.217 121.309 293.207C118.924 297.283 127.535 299.903 128.989 296.235Z" fill="#A28658"/>
<path d="M143.011 294.546C143.011 293.964 142.778 293.615 142.429 293.324C141.556 292.625 139.811 292.741 138.065 292.8C135.738 292.858 133.469 292.683 133.178 295.42C133.178 295.594 133.178 295.769 133.178 295.944C133.353 300.776 143.011 298.273 143.011 294.546Z" fill="#A28658"/>
<path d="M150.807 292.8C152.611 295.653 158.429 291.228 155.985 288.724C155.113 287.851 153.891 288.841 152.553 289.889C151.331 290.762 149.993 291.461 150.807 292.8Z" fill="#A28658"/>
<path d="M114.095 290.82C114.211 290.704 114.269 290.587 114.327 290.471C114.793 289.481 113.047 288.608 111.418 287.036C109.847 285.58 108.335 283.6 107.055 283.892C106.822 283.95 106.589 284.124 106.356 284.357C103.447 287.792 111.884 293.091 114.095 290.82Z" fill="#A28658"/>
<path d="M146.56 287.21C147.549 289.364 153.076 287.094 150.924 284.59C150.109 283.659 149.295 284.474 148.247 285.114C147.258 285.696 146.095 286.104 146.56 287.21Z" fill="#A28658"/>
<path d="M117.76 284.823C118.458 283.659 117.178 282.902 116.189 281.737C115.084 280.515 114.211 278.943 113.164 279.699C110.545 281.504 116.305 287.21 117.76 284.823Z" fill="#A28658"/>
<path d="M92.6255 279.932C94.9527 279.525 93.6145 276.556 92.6255 273.295C91.6364 269.918 90.88 266.308 89.8327 266.658C86.8073 267.589 87.9127 280.748 92.6255 279.932Z" fill="#A28658"/>
<path d="M102.284 277.138C104.378 276.497 102.807 274.168 101.76 271.781C100.771 269.336 100.364 266.832 98.7346 267.065C95.5346 267.589 98.0946 278.419 102.284 277.138Z" fill="#A28658"/>
<path d="M107.695 251.811C105.658 250.996 103.68 256.178 105.425 257.459C107.113 258.74 109.905 252.743 107.695 251.811Z" fill="#A28658"/>
<path d="M101.295 246.687C97.1637 245.756 95.7673 256.527 98.9091 256.935C102.109 257.4 103.331 247.153 101.295 246.687Z" fill="#A28658"/>
<path d="M92.5673 244.301C88.0291 243.893 85.5855 256.061 89.7164 256.411C93.8473 256.702 95.4764 244.592 92.5673 244.301Z" fill="#A28658"/>
<path d="M85.0037 245.057C82.6182 245.057 82.0364 249.366 83.8982 249.89C85.76 250.414 86.0509 245.057 85.0037 245.057Z" fill="#A28658"/>
<path d="M117.353 241.855C116.538 239.351 111.476 242.845 112.116 245.057C112.698 247.211 118.225 244.359 117.353 241.855Z" fill="#A28658"/>
<path d="M128.931 240.807C128.698 239.817 122.938 241.447 123.52 244.533C124.102 247.561 129.804 244.533 128.931 240.807Z" fill="#A28658"/>
<path d="M112.116 234.228C111.418 232.19 105.193 235.159 106.065 238.595C106.996 242.03 113.396 238.071 112.116 234.228Z" fill="#A28658"/>
<path d="M132.771 236.557C132.771 236.615 132.771 236.615 132.771 236.673C133.062 238.944 139.985 238.012 139.811 236.033C139.636 232.83 132.771 234.344 132.771 236.557Z" fill="#A28658"/>
<path d="M129.164 234.752C128.756 232.132 121.309 232.307 121.775 235.683C122.24 239.119 129.513 237.023 129.164 234.752Z" fill="#A28658"/>
<path d="M106.24 226.31C104.902 224.272 97.9782 228.697 97.9782 232.307C97.9782 232.714 98.0946 233.18 98.3273 233.588C100.422 237.198 108.393 229.454 106.24 226.31Z" fill="#A28658"/>
<path d="M127.302 227.532C126.545 224.68 119.156 225.786 119.738 229.163C120.262 232.481 128.116 230.793 127.302 227.532Z" fill="#A28658"/>
<path d="M132.829 228.93C132.945 233.18 140.625 230.967 139.869 228.231C139.113 225.436 132.713 224.679 132.829 228.93Z" fill="#A28658"/>
<path d="M125.498 218.566C124.858 215.888 117.76 218.566 118.109 220.313C118.458 222.06 126.371 222.06 125.498 218.566Z" fill="#A28658"/>
<path d="M136.553 218.566C136.495 221.128 142.371 220.604 142.487 218.566C142.604 216.529 136.611 216.005 136.553 218.566Z" fill="#A28658"/>
<path d="M151.215 165.234C151.04 165.467 150.924 165.817 150.924 166.108C150.924 166.341 150.982 166.515 151.04 166.748C151.505 167.622 156.451 177.519 163.84 188.407C172.742 201.507 185.251 216.062 197.644 217.926C198.109 217.984 198.516 217.867 198.865 217.576C199.156 217.285 199.273 216.936 199.273 216.528C199.273 216.47 199.273 216.412 199.273 216.412C199.215 215.713 197.12 199.527 185.135 185.438C170.647 168.32 153.309 164.943 152.553 164.769C152.087 164.594 151.564 164.827 151.215 165.234Z" fill="#A28658"/>
<path d="M103.971 166.748C104.204 166.283 104.145 165.7 103.855 165.235C103.505 164.827 102.982 164.594 102.4 164.711C101.644 164.827 84.3636 168.262 69.8764 185.38C57.8909 199.528 55.8545 215.655 55.7964 216.354C55.7964 216.412 55.7964 216.47 55.7964 216.528C55.7964 216.936 55.9709 217.285 56.2036 217.576C56.5527 217.868 57.0182 218.042 57.4254 217.926C80.0582 214.491 102.982 168.67 103.971 166.748Z" fill="#A28658"/>
<path d="M88.2036 197.082C88.2036 197.141 88.2036 197.199 88.2036 197.257C88.2036 197.432 88.2036 197.606 88.2618 197.723C88.4945 198.305 89.2509 199.353 90.6473 199.47C92.7418 199.586 96.1745 197.723 103.622 182.41C104.029 181.595 103.796 180.606 103.098 180.023C102.4 179.383 101.411 179.325 100.655 179.79C97.3382 181.828 89.4254 187.534 88.2036 197.082Z" fill="#A28658"/>
<path d="M166.749 197.781C166.807 197.548 166.865 197.315 166.807 197.141C166.4 193.822 165.178 190.969 163.607 188.582C160.64 184.041 156.509 181.188 154.356 179.849C153.542 179.383 152.553 179.441 151.913 180.081C151.447 180.489 151.215 181.013 151.215 181.595C151.215 181.886 151.273 182.177 151.447 182.469C157.091 194.113 160.465 198.014 162.618 199.12C162.793 199.178 162.909 199.237 163.025 199.295C163.491 199.469 163.956 199.528 164.364 199.528C165.76 199.411 166.516 198.363 166.749 197.781Z" fill="#A28658"/>
<path d="M151.331 155.628C151.331 158.947 168.436 164.594 168.611 164.653C177.222 167.389 192.64 170.591 199.04 161.683C199.331 161.276 199.389 160.81 199.215 160.344C199.156 160.228 193.513 145.789 173.265 148.816C151.331 152.077 151.331 154.464 151.331 155.628Z" fill="#A28658"/>
<path d="M103.68 155.628C103.68 154.464 103.68 152.077 81.7454 148.816C61.4982 145.789 55.8545 160.228 55.7964 160.344C55.7382 160.519 55.7382 160.693 55.7382 160.81C55.7382 161.101 55.7964 161.392 56.0291 161.625C62.4291 170.533 77.8473 167.273 86.4582 164.594C86.5745 164.594 103.68 158.947 103.68 155.628Z" fill="#A28658"/>
<path d="M172.102 121.044C169.135 123.431 151.389 139.209 151.389 145.148C151.389 145.555 151.505 145.963 151.68 146.254C151.855 146.487 152.262 147.011 153.018 147.127C156.335 147.651 171.229 141.305 181.469 132.397C191.36 123.78 201.018 108.526 198.4 105.557C195.665 102.413 188.975 107.303 175.418 118.366C174.196 119.297 173.091 120.229 172.102 121.044Z" fill="#A28658"/>
<path d="M103.389 146.312C106.24 141.48 86.0509 123.606 82.9673 121.102C81.92 120.229 80.8146 119.355 79.6509 118.424C66.1528 107.362 59.4619 102.529 56.6691 105.615C56.3782 105.964 56.2618 106.43 56.2618 107.071C56.2618 111.961 64.8728 124.828 73.6 132.514C83.84 141.422 98.7346 147.768 102.051 147.244C102.865 147.011 103.215 146.545 103.389 146.312Z" fill="#A28658"/>
<path d="M151.796 123.257C151.796 123.373 151.796 123.548 151.796 123.664C151.796 124.77 152.436 125.818 153.425 126.342C154.589 126.925 155.927 126.75 156.916 125.877C166.284 117.376 197.004 87.2171 199.273 54.7873C199.331 54.2633 199.098 53.7975 198.633 53.5064C198.167 53.2153 197.585 53.2153 197.12 53.5064C196.713 53.6811 158.08 76.3878 151.796 123.257Z" fill="#A28658"/>
<path d="M98.0946 125.935C99.0837 126.808 100.422 126.983 101.585 126.4C102.749 125.818 103.389 124.596 103.215 123.315C96.9309 76.3875 58.2982 53.7391 57.8909 53.5062C57.4255 53.2151 56.8437 53.2733 56.3782 53.5062C55.9709 53.7391 55.68 54.2631 55.68 54.7288C55.68 54.7871 55.68 54.7871 55.68 54.8453C58.0073 87.2169 88.7273 117.434 98.0946 125.935Z" fill="#A28658"/>
</g>
</g>
<defs>
<clipPath id="clip0_260_8074">
<rect width="256" height="529" fill="white"/>
</clipPath>
<clipPath id="clip1_260_8074">
<rect width="529" height="256" fill="white" transform="translate(256) rotate(90)"/>
</clipPath>
</defs>
</svg>
