<svg width="529" height="256" viewBox="0 0 529 256" fill="none" xmlns="http://www.w3.org/2000/svg">
<g clip-path="url(#clip0_260_8106)">
<rect width="256" height="529" transform="translate(529) rotate(90)" fill="white"/>
<g clip-path="url(#clip1_260_8106)">
<path d="M1272.46 -2.5V253.616H1V-2.5H1272.46ZM265.271 51.2018C270.161 51.3182 274.994 51.9 279.593 53.0054V35.5509C279.593 34.7364 280.234 34.0964 281.049 34.0964H496.82C497.636 34.0964 498.276 34.7364 498.276 35.5509V104.729C498.276 105.136 498.101 105.485 497.868 105.776C497.81 105.835 497.752 105.893 497.636 105.951C497.403 106.125 497.112 106.184 496.82 106.184H332.168C332.343 106.882 332.459 107.58 332.634 108.278C332.867 109.558 333.1 110.838 333.332 112.176H497.17L500.488 108.802L503.167 106.067V25.9509H276.216L270.685 32.8745V47.8273C270.685 48.6418 270.045 49.2818 269.23 49.2818H265.271V51.2018ZM279.593 202.475V191.885C276.857 192.525 274.062 192.991 271.209 193.34V215.1H503.05V134.867L499.324 131.085L499.149 130.911L497.053 128.816H333.74C333.682 129.864 333.565 130.853 333.391 131.842H496.82C497.228 131.842 497.577 132.016 497.81 132.249C497.868 132.307 497.927 132.424 497.985 132.482C498.16 132.715 498.218 133.005 498.218 133.296V202.475C498.218 203.289 497.577 203.929 496.762 203.929H281.049C280.234 203.929 279.593 203.289 279.593 202.475ZM282.446 53.3545V53.7618C302.009 59.2309 318.136 73.0782 326.87 91.2891C328.733 95.1291 330.247 99.1436 331.411 103.333H462.528C463.983 101.296 464.391 98.4454 464.391 95.8854C464.391 92.3945 463.634 89.3691 463.634 89.3691C462.644 88.38 462.062 86.9836 462.062 85.5291C462.062 82.5036 464.449 80.06 467.418 80.06C470.388 80.06 472.833 82.5036 472.833 85.5291C472.833 87.0418 472.251 88.38 471.261 89.3691C468 96.2927 470.62 101.122 472.484 103.391H488.495C488.087 102.925 487.854 102.227 487.854 101.704V98.9109H482.847C482.032 98.9109 481.392 98.2709 481.392 97.4564V48.2345H343.463L338.864 52.8891C338.631 53.18 338.223 53.2964 337.874 53.2964H282.446V53.3545ZM472.192 45.3254L480.402 37.0054H322.096L313.944 45.3254H472.192ZM490.416 37.0636H484.477L482.265 45.3836L490.416 37.0636ZM462.12 161.34C462.12 159.827 462.702 158.489 463.692 157.5C463.692 157.5 466.021 148.307 462.586 143.478H330.945C329.373 148.54 327.336 153.369 324.774 157.849C324.483 158.373 324.192 158.838 323.9 159.362C314.701 174.722 299.971 186.3 282.504 191.187V201.02H490.649V194.096H482.789C481.974 194.096 481.333 193.456 481.333 192.642V143.478H472.484C470.62 145.747 468 150.576 471.261 157.5C472.251 158.489 472.833 159.827 472.833 161.34C472.833 164.365 470.446 166.809 467.418 166.809C464.507 166.809 462.12 164.365 462.12 161.34ZM12.3533 12.6273H243.787C244.194 12.6273 244.602 12.8018 244.893 13.1509L245.3 13.6745L262.418 34.9109V31.3618L247.164 10.0091H12.3533V12.6273ZM248.037 35.6091V53.0636C252.636 51.9582 257.469 51.3764 262.36 51.26V49.2236H258.4C257.585 49.2236 256.945 48.5836 256.945 47.7691V32.8164L251.414 25.8927H24.58V106.067L27.0836 108.627L30.5769 112.176H194.414C194.589 110.838 194.822 109.558 195.113 108.278C195.229 107.58 195.404 106.882 195.579 106.184H30.868C30.4604 106.184 30.1111 106.009 29.8782 105.776C29.6453 105.485 29.4707 105.136 29.4707 104.729V35.6091C29.4707 34.7945 30.1111 34.1545 30.9262 34.1545H246.698C247.455 34.1545 248.037 34.7945 248.037 35.6091ZM29.4124 202.475V133.296C29.4124 132.889 29.5871 132.54 29.82 132.249C30.0529 131.958 30.4604 131.842 30.8098 131.842H194.24C194.24 131.725 194.181 131.551 194.181 131.435C194.065 130.562 194.007 129.689 193.89 128.816H30.5769L28.4809 130.911L24.58 134.867V215.042H255.955V193.282C253.684 192.991 251.414 192.642 249.201 192.176C248.852 192.118 248.444 192.002 248.095 191.944V202.533C248.095 203.347 247.455 203.987 246.64 203.987H30.868C30.0529 203.929 29.4124 203.289 29.4124 202.475ZM245.184 191.129C222.128 184.671 203.788 166.518 196.743 143.42H65.1027C61.6676 148.249 63.9964 157.442 63.9964 157.442C64.9862 158.431 65.5684 159.769 65.5684 161.282C65.5684 164.307 63.1813 166.751 60.212 166.751C57.2427 166.751 54.7973 164.307 54.7973 161.282C54.7973 159.769 55.3796 158.431 56.3693 157.442C59.6298 150.518 57.0098 145.689 55.1467 143.42H46.2969V192.584C46.2969 193.398 45.6564 194.038 44.8413 194.038H36.9813V200.962H245.184V191.129ZM65.5684 85.4127C65.5684 86.9254 64.9862 88.2636 63.9964 89.2527C63.9964 89.2527 61.6676 98.4454 65.1027 103.275H196.219C197.384 99.0854 198.897 95.0709 200.76 91.2309C200.819 91.0564 200.877 90.94 200.993 90.8236C209.785 72.8455 225.854 59.1727 245.242 53.7618V53.3545H189.873C189.524 53.3545 189.116 53.18 188.883 52.9473L184.284 48.2927H46.2969V97.4564C46.2969 98.2709 45.6564 98.9109 44.8413 98.9109H39.8342V101.704C39.8342 102.518 39.1938 103.158 38.3787 103.158V103.391H55.1467C56.3693 101.936 57.8831 99.3182 57.8831 95.7691C57.8831 93.9073 57.4756 91.7545 56.3693 89.3691C55.3796 88.38 54.7973 86.9836 54.7973 85.5291C54.7973 82.5036 57.1844 80.06 60.212 80.06C63.1813 79.9436 65.5684 82.3873 65.5684 85.4127ZM43.2111 37.0636H37.2724L45.4818 45.3836H51.4204L43.2111 37.0636ZM55.4378 45.3254H213.744L205.593 37.0054H47.2867L55.4378 45.3254ZM12.3533 231.682H243.088L254.092 217.951H23.1244C22.3093 217.951 21.6689 217.311 21.6689 216.496V143.595H15.3809C14.7987 143.595 14.2747 143.245 14.0418 142.664C13.9836 142.489 13.9253 142.315 13.9253 142.14C13.9253 141.733 14.1 141.384 14.3329 141.093L22.0764 133.238L22.484 132.831L28.8884 126.315L34.2449 121.078L28.8302 114.62L22.0182 107.696C22.0182 107.696 22.0182 107.696 22.0182 107.638L14.2164 98.9109C13.9836 98.62 13.8671 98.3291 13.8671 97.98C13.8671 97.8054 13.9253 97.5727 13.9836 97.3982C14.2164 96.8745 14.7404 96.5254 15.2644 96.5254H21.6107V24.4964C21.6107 23.6818 22.2511 23.0418 23.0662 23.0418H249.027L243.088 15.5364H12.3533V108.104L25.7444 121.718C26.3267 122.3 26.3267 123.231 25.7444 123.755L12.3533 137.369V231.682ZM262.418 212.249L244.893 234.067C244.602 234.416 244.194 234.591 243.787 234.591H12.3533V240.293H243.088L262.36 216.264V212.249H262.418ZM262.418 190.78H265.271C270.22 190.664 274.994 190.024 279.593 188.918L282.446 188.162C310.509 179.958 331.12 153.602 331.12 122.475C331.12 117.82 330.654 113.282 329.781 108.86C323.668 78.14 297.118 54.8091 265.212 54.1109H262.418C257.702 54.2273 253.16 54.8091 248.736 55.8564C224.748 61.5 205.651 80.1182 199.014 103.973C198.548 105.544 198.199 107.231 197.849 108.86C196.976 113.282 196.51 117.82 196.51 122.475C196.51 125.384 196.685 128.293 197.034 131.085C200.411 158.373 219.741 180.656 245.184 188.162L248.037 188.918C248.619 189.035 249.201 189.209 249.784 189.325C253.859 190.198 258.109 190.664 262.418 190.78ZM515.277 234.591H283.902C283.494 234.591 283.087 234.416 282.796 234.067L282.388 233.544L265.271 212.307V216.322L284.542 240.351H515.277V234.591ZM515.277 15.5364H284.542L278.545 23.0418H504.506C505.321 23.0418 505.961 23.6818 505.961 24.4964V96.5254H512.308C512.89 96.5254 513.356 96.8745 513.588 97.3982C513.647 97.5727 513.705 97.8054 513.705 97.98C513.705 98.3291 513.588 98.6782 513.356 98.9109L508.057 104.845L505.554 107.638C505.554 107.638 505.554 107.638 505.554 107.696L498.742 114.62L493.327 121.078L498.684 126.315L505.496 133.238L513.239 141.093C513.53 141.384 513.647 141.733 513.647 142.14C513.647 142.315 513.588 142.489 513.53 142.664C513.297 143.187 512.773 143.595 512.191 143.595H505.903V216.496C505.903 217.311 505.263 217.951 504.448 217.951H273.538L284.542 231.682H515.277V137.369L501.886 123.755C501.304 123.173 501.304 122.242 501.886 121.718L515.277 108.104V15.5364ZM515.277 9.95091H280.525L265.271 31.3036V34.9109L282.388 13.6745L282.796 13.1509C283.087 12.8018 283.494 12.6273 283.902 12.6273H515.277V9.95091ZM1019.6 51.2018C1024.49 51.3182 1029.32 51.9 1033.92 53.0054V35.5509C1033.92 34.7364 1034.56 34.0964 1035.38 34.0964H1251.15C1251.96 34.0964 1252.6 34.7364 1252.6 35.5509V104.729C1252.6 105.136 1252.43 105.485 1252.2 105.776C1252.14 105.835 1252.08 105.893 1251.96 105.951C1251.73 106.125 1251.44 106.184 1251.15 106.184H1086.5C1086.67 106.882 1086.79 107.58 1086.96 108.278C1087.19 109.558 1087.43 110.838 1087.66 112.176H1251.5L1254.82 108.802L1257.49 106.067V25.9509H1030.6L1025.07 32.8745V47.8273C1025.07 48.6418 1024.43 49.2818 1023.62 49.2818H1019.66V51.2018H1019.6ZM1033.92 202.475V191.885C1031.18 192.525 1028.39 192.991 1025.54 193.34V215.1H1257.38V134.867L1253.65 131.085L1253.48 130.911L1251.38 128.816H1088.01C1087.95 129.864 1087.83 130.853 1087.66 131.842H1251.09C1251.5 131.842 1251.85 132.016 1252.08 132.249C1252.14 132.307 1252.2 132.424 1252.25 132.482C1252.43 132.715 1252.49 133.005 1252.49 133.296V202.475C1252.49 203.289 1251.85 203.929 1251.03 203.929H1035.26C1034.56 203.929 1033.92 203.289 1033.92 202.475ZM1036.77 53.3545V53.7618C1056.34 59.2309 1072.46 73.0782 1081.2 91.2891C1083.06 95.1291 1084.57 99.1436 1085.74 103.333H1216.85C1218.31 101.296 1218.72 98.4454 1218.72 95.8854C1218.72 92.3945 1217.96 89.3691 1217.96 89.3691C1216.97 88.38 1216.39 86.9836 1216.39 85.5291C1216.39 82.5036 1218.78 80.06 1221.75 80.06C1224.71 80.06 1227.16 82.5036 1227.16 85.5291C1227.16 87.0418 1226.58 88.38 1225.59 89.3691C1222.33 96.2927 1224.95 101.122 1226.81 103.391H1242.82C1242.41 102.925 1242.18 102.227 1242.18 101.704V98.9109H1237.17C1236.36 98.9109 1235.72 98.2709 1235.72 97.4564V48.2345H1097.79L1093.19 52.8891C1092.96 53.18 1092.55 53.2964 1092.2 53.2964H1036.77V53.3545ZM1226.52 45.3254L1234.73 37.0054H1076.42L1068.27 45.3254H1226.52ZM1244.68 37.0636H1238.75L1236.53 45.3836L1244.68 37.0636ZM1216.39 161.34C1216.39 159.827 1216.97 158.489 1217.96 157.5C1217.96 157.5 1220.29 148.307 1216.85 143.478H1085.21C1083.64 148.54 1081.6 153.369 1079.04 157.849C1078.75 158.373 1078.46 158.838 1078.17 159.362C1068.97 174.722 1054.24 186.3 1036.77 191.187V201.02H1244.98V194.096H1237.12C1236.3 194.096 1235.66 193.456 1235.66 192.642V143.478H1226.81C1224.95 145.747 1222.33 150.576 1225.59 157.5C1226.58 158.489 1227.16 159.827 1227.16 161.34C1227.16 164.365 1224.77 166.809 1221.75 166.809C1218.78 166.809 1216.39 164.365 1216.39 161.34ZM766.68 12.6273H998.056C998.463 12.6273 998.871 12.8018 999.162 13.1509L999.569 13.6745L1016.69 34.9109V31.3618L1001.43 10.0091H766.68V12.6273ZM1002.36 35.6091V53.0636C1006.96 51.9582 1011.8 51.3764 1016.69 51.26V49.2236H1012.73C1011.91 49.2236 1011.27 48.5836 1011.27 47.7691V32.8164L1005.74 25.8927H778.849V106.067L781.352 108.569L784.846 112.118H948.683C948.858 110.78 949.091 109.5 949.382 108.22C949.498 107.522 949.673 106.824 949.848 106.125H785.195C784.788 106.125 784.438 105.951 784.205 105.718C783.972 105.427 783.798 105.078 783.798 104.671V35.6091C783.798 34.7945 784.438 34.1545 785.253 34.1545H1001.02C1001.72 34.1545 1002.36 34.7945 1002.36 35.6091ZM783.74 202.475V133.296C783.74 132.889 783.914 132.54 784.147 132.249C784.38 131.958 784.788 131.842 785.137 131.842H948.567C948.567 131.725 948.508 131.551 948.508 131.435C948.392 130.562 948.334 129.689 948.217 128.816H784.846L782.75 130.911L778.849 134.867V215.042H1010.22V193.282C1007.95 193.049 1005.68 192.642 1003.47 192.176C1003.12 192.118 1002.71 192.002 1002.36 191.944V202.533C1002.36 203.347 1001.72 203.987 1000.91 203.987H785.137C784.38 203.929 783.74 203.289 783.74 202.475ZM999.511 191.129C976.455 184.671 958.115 166.518 951.07 143.42H819.43C815.995 148.249 818.324 157.442 818.324 157.442C819.313 158.431 819.896 159.769 819.896 161.282C819.896 164.307 817.508 166.751 814.539 166.751C811.57 166.751 809.124 164.307 809.124 161.282C809.124 159.769 809.707 158.431 810.696 157.442C813.957 150.518 811.337 145.689 809.474 143.42H800.624V192.584C800.624 193.398 799.984 194.038 799.168 194.038H791.308V200.962H999.511V191.129ZM819.896 85.4127C819.896 86.9254 819.313 88.2636 818.324 89.2527C818.324 89.2527 815.995 98.4454 819.43 103.275H950.546C951.711 99.0854 953.224 95.0709 955.088 91.2309C955.146 91.0564 955.204 90.94 955.32 90.8236C964.112 72.8455 980.181 59.1727 999.569 53.7618V53.3545H944.2C943.851 53.3545 943.443 53.18 943.21 52.9473L938.611 48.2927H800.682V97.4564C800.682 98.2709 800.042 98.9109 799.227 98.9109H794.22V101.704C794.22 102.518 793.579 103.158 792.764 103.158V103.391H809.532C810.755 101.936 812.268 99.3182 812.268 95.7691C812.268 93.9073 811.861 91.7545 810.755 89.3691C809.765 88.38 809.183 86.9836 809.183 85.5291C809.183 82.5036 811.57 80.06 814.597 80.06C817.508 79.9436 819.896 82.3873 819.896 85.4127ZM797.538 37.0636H791.6L799.809 45.3836H805.748L797.538 37.0636ZM809.765 45.3254H968.071L959.92 37.0054H801.556L809.765 45.3254ZM766.68 231.682H997.415L1008.42 217.951H777.452C776.636 217.951 775.996 217.311 775.996 216.496V143.595H769.708C769.126 143.595 768.602 143.245 768.369 142.664C768.311 142.489 768.252 142.315 768.252 142.14C768.252 141.733 768.427 141.384 768.66 141.093L776.404 133.238L776.811 132.831L783.216 126.315L788.572 121.078L783.157 114.62L776.345 107.696C776.345 107.696 776.345 107.696 776.345 107.638L768.544 98.9109C768.311 98.62 768.194 98.3291 768.194 97.98C768.194 97.8054 768.252 97.5727 768.311 97.3982C768.544 96.8745 769.068 96.5254 769.592 96.5254H775.938V24.4964C775.938 23.6818 776.578 23.0418 777.393 23.0418H1003.35L997.357 15.5364H766.622V108.104L780.013 121.718C780.596 122.3 780.596 123.231 780.013 123.755L766.622 137.369V231.682H766.68ZM752.125 144.7C752.125 143.711 751.717 142.722 751.077 142.082L736.288 127.071C733.727 124.511 733.727 120.264 736.288 117.704L750.495 103.275C751.193 102.576 751.601 101.645 751.601 100.656V14.8964C751.601 12.86 749.912 11.1727 747.933 11.1727H664.733C663.744 11.1727 662.812 11.58 662.113 12.2782L647.558 27.0564C646.335 28.2782 644.705 29.0345 642.958 29.0345C641.212 29.0345 639.581 28.3364 638.359 27.0564L624.036 12.3364C623.337 11.6382 622.406 11.2309 621.416 11.2309H535.422C533.384 11.2309 531.754 12.9182 531.754 14.9545V98.9691C531.754 99.8418 532.045 100.715 532.627 101.413L546.368 117.82C548.638 120.496 548.405 124.511 545.902 126.955L532.86 139.464C532.103 140.162 531.696 141.151 531.696 142.198V231.275C531.696 233.311 533.326 234.998 535.364 234.998H620.31C621.3 234.998 622.231 234.591 622.93 233.893L637.02 219.58C638.3 218.3 639.989 217.602 641.619 217.602C643.308 217.602 644.996 218.242 646.219 219.58L660.716 234.242C661.415 234.94 662.346 235.347 663.336 235.347H748.399C750.436 235.347 752.067 233.66 752.067 231.624V144.7H752.125ZM1016.69 212.249L999.162 234.067C998.871 234.416 998.463 234.591 998.056 234.591H766.68V240.293H997.415L1016.69 216.264V212.249ZM1016.69 190.78H1019.54C1024.49 190.664 1029.26 190.024 1033.86 188.918L1036.72 188.162C1064.78 179.958 1085.39 153.602 1085.39 122.475C1085.39 117.82 1084.92 113.282 1084.05 108.86C1077.94 78.14 1051.39 54.8091 1019.48 54.1109H1016.63C1011.91 54.2273 1007.37 54.8091 1002.95 55.8564C978.959 61.5 959.862 80.1182 953.224 103.973C952.759 105.544 952.409 107.231 952.06 108.86C951.187 113.282 950.721 117.82 950.721 122.475C950.721 125.384 950.896 128.293 951.245 131.085C954.622 158.373 973.952 180.656 999.395 188.162L1002.25 188.918C1002.83 189.035 1003.41 189.209 1003.99 189.325C1008.19 190.198 1012.38 190.664 1016.69 190.78ZM1269.6 234.591H1038.23C1037.82 234.591 1037.41 234.416 1037.12 234.067L1036.72 233.544L1019.6 212.307V216.322L1038.87 240.351H1269.6V234.591ZM1269.6 15.5364H1038.87L1032.87 23.0418H1258.83C1259.65 23.0418 1260.29 23.6818 1260.29 24.4964V96.5254H1266.63C1267.22 96.5254 1267.68 96.8745 1267.92 97.3982C1267.97 97.5727 1268.03 97.8054 1268.03 97.98C1268.03 98.3291 1267.92 98.6782 1267.68 98.9109L1262.38 104.845L1259.88 107.638C1259.88 107.638 1259.88 107.638 1259.88 107.696L1253.07 114.62L1247.65 121.078L1253.01 126.315L1259.82 133.238L1267.57 141.093C1267.86 141.384 1267.97 141.733 1267.97 142.14C1267.97 142.315 1267.92 142.489 1267.86 142.664C1267.62 143.187 1267.1 143.595 1266.52 143.595H1260.23V216.496C1260.23 217.311 1259.59 217.951 1258.77 217.951H1027.81L1038.81 231.682H1269.55V137.369L1256.15 123.755C1255.57 123.173 1255.57 122.242 1256.15 121.718L1269.55 108.104V15.5364H1269.6ZM1269.6 9.95091H1034.85L1019.6 31.3036V34.9109L1036.72 13.6745L1037.12 13.1509C1037.41 12.8018 1037.82 12.6273 1038.23 12.6273H1269.6V9.95091Z" fill="#A28658"/>
<path d="M265.271 183.682H262.418C257.178 183.565 252.112 182.751 247.338 181.354C247.28 181.296 247.164 181.296 247.105 181.296C221.953 173.907 203.555 150.344 203.555 122.474C203.555 89.1944 229.872 62.0235 262.476 61.209H265.329C297.933 62.0235 324.25 89.1363 324.25 122.474C324.25 150.344 305.852 173.907 280.7 181.296C280.641 181.296 280.525 181.354 280.467 181.354C275.576 182.751 270.511 183.565 265.271 183.682ZM306.492 151.158C304.92 144.293 293.276 138.882 293.159 138.824C292.752 138.649 292.286 138.474 291.878 138.3C286.58 136.089 281.165 133.354 276.508 131.027C274.644 130.096 272.898 129.165 271.326 128.409C270.918 128.933 270.511 129.398 269.987 129.805C271.151 131.667 272.257 133.529 273.364 135.274C276.391 139.987 279.186 144.06 281.806 147.493C288.501 156.162 293.916 160.584 298.224 160.874C300.553 160.991 302.649 159.944 304.571 157.616C306.376 155.405 306.958 153.311 306.492 151.158ZM278.08 121.427C277.963 119.798 277.614 118.227 277.032 116.773C275.634 117.529 274.179 118.285 272.665 119.042C272.956 119.798 273.131 120.613 273.247 121.427C274.936 121.427 276.566 121.427 278.08 121.427ZM273.131 124.336C273.014 124.86 272.898 125.384 272.723 125.849C274.062 126.489 275.518 127.245 277.09 128.002C277.556 126.838 277.905 125.616 278.08 124.394C276.449 124.336 274.819 124.336 273.131 124.336ZM275.634 114.271C274.819 113.049 273.771 111.944 272.607 111.013C271.792 112.351 270.918 113.805 270.045 115.26C270.511 115.667 270.918 116.074 271.268 116.54C272.84 115.725 274.295 114.969 275.634 114.271ZM315.225 128.642C312.722 124.394 306.376 122.998 305.095 122.765C304.454 122.882 303.814 122.998 303.115 123.114C297.584 123.987 290.248 124.278 280.932 124.336C280.758 126.024 280.292 127.711 279.652 129.282C286.638 132.773 295.313 137.02 302.475 138.94C306.55 140.045 310.102 140.336 312.547 139.347C314.003 138.765 314.992 137.718 315.516 136.147C316.506 133.238 316.448 130.678 315.225 128.642ZM299.796 102.169C297.409 104.205 294.556 106.358 291.18 108.511C287.803 110.722 283.96 112.991 279.593 115.376C280.408 117.238 280.874 119.274 280.991 121.369C287.162 121.369 292.519 121.194 297.002 120.845C305.56 120.147 310.975 118.693 313.479 115.958C315.051 114.213 315.633 111.827 315.342 108.162C315.109 105.485 314.177 103.624 312.431 102.46C308.239 99.7835 300.961 101.82 299.796 102.169ZM282.504 93.9072C280.35 98.0381 277.556 102.867 274.179 108.511C275.809 109.733 277.148 111.245 278.254 112.874C301.252 100.365 305.328 92.9181 305.56 89.369C305.677 87.2744 304.629 85.4708 302.242 83.8417C299.738 82.0963 297.235 81.5726 294.615 82.2708C288.443 83.8999 283.727 91.6381 282.504 93.9072ZM265.271 112.933C266.144 113.049 266.901 113.282 267.658 113.631C272.49 105.66 276.566 98.8526 279.593 93.209C279.652 93.0926 279.768 92.9181 279.943 92.569C284.251 84.3653 286.289 78.6053 285.241 75.0563C284.659 73.1363 283.145 71.6817 280.408 70.4017C276.915 68.7726 273.713 69.2381 270.569 71.7399C267.25 74.4744 265.212 78.8381 265.212 83.4926V112.933H265.271ZM265.271 128.991C268.24 128.293 270.452 125.616 270.452 122.416C270.452 119.216 268.24 116.54 265.271 115.842V128.991ZM265.271 136.904C266.959 136.729 268.648 136.264 270.161 135.507C269.288 134.169 268.415 132.773 267.541 131.318C266.843 131.667 266.028 131.842 265.271 131.958V136.904ZM265.271 159.827C265.271 162.736 265.911 165.529 267.192 167.74C269.754 172.336 273.946 174.314 279.652 173.558C282.679 173.151 284.775 171.987 285.94 169.893C288.676 165.064 285.648 157.034 285.124 155.638C282.504 152.904 279.71 149.413 276.682 145.107C275.46 147.434 267.891 149.064 267.425 146.794C267.134 145.224 269.404 144.933 271.675 144.293C273.014 143.885 274.353 143.304 275.401 143.245C274.586 142.14 273.829 140.918 273.014 139.696C272.316 141.442 268.939 142.024 268.182 139.464C268.182 139.405 268.182 139.347 268.182 139.289C267.25 139.522 266.319 139.696 265.387 139.754V159.827H265.271ZM222.186 89.4272C222.419 93.2672 227.31 101.82 256.363 116.54C256.712 116.074 257.12 115.609 257.585 115.26C252.287 106.591 248.153 99.6672 245.184 93.9653C243.961 91.6963 239.245 83.9581 233.132 82.3872C230.512 81.7472 228.067 82.2126 225.505 83.9581C223.118 85.529 222.012 87.3326 222.186 89.4272ZM249.667 124.336C249.842 125.616 250.133 126.838 250.599 128.002C252.171 127.187 253.626 126.489 254.965 125.849C254.791 125.384 254.616 124.86 254.558 124.336C252.869 124.336 251.181 124.336 249.667 124.336ZM254.383 121.427C254.441 120.613 254.674 119.798 254.965 119.042C253.452 118.285 252.054 117.529 250.657 116.831C250.075 118.285 249.725 119.856 249.609 121.485C251.123 121.427 252.753 121.427 254.383 121.427ZM251.938 130.562C252.811 131.842 253.859 133.005 255.082 133.936C255.955 132.482 256.828 131.085 257.644 129.747C257.178 129.34 256.712 128.874 256.304 128.351C255.024 129.049 253.51 129.747 251.938 130.562ZM214.21 116.016C217.296 119.449 225.039 120.845 237.557 121.253C240.352 121.369 243.437 121.369 246.698 121.427C246.814 119.391 247.28 117.354 248.095 115.434C244.835 113.631 241.807 111.885 239.129 110.198C234.588 107.405 230.861 104.671 227.892 102.111C226.728 101.762 219.45 99.7253 215.258 102.46C213.511 103.624 212.58 105.485 212.347 108.162C212.056 111.885 212.638 114.271 214.21 116.016ZM248.037 129.282C247.396 127.769 246.989 126.082 246.756 124.336C236.218 124.278 228.358 123.871 222.536 122.765C221.313 122.998 214.908 124.394 212.463 128.642C211.24 130.678 211.182 133.238 212.172 136.147C212.696 137.718 213.686 138.707 215.141 139.347C221.895 142.082 237.091 134.751 248.037 129.282ZM253.51 136.38C251.88 135.1 250.482 133.587 249.376 131.842C244.718 134.169 239.536 136.729 234.471 138.824C234.413 138.882 227.252 142.14 223.409 146.911C222.361 148.249 221.546 149.645 221.196 151.158C220.731 153.369 221.313 155.405 223.06 157.558C225.039 159.944 227.135 160.991 229.464 160.816C231.269 160.7 233.19 159.827 235.228 158.431C241.225 154.242 247.862 145.224 253.51 136.38ZM262.418 139.813C260.089 139.638 257.935 138.94 255.955 137.893C255.839 138.067 255.722 138.242 255.606 138.358C258.284 138.824 259.681 140.802 254.092 140.627C249.784 147.027 245.999 152.031 242.564 155.696C241.982 157.209 239.071 165.122 241.749 169.951C242.913 171.987 244.951 173.209 248.037 173.616C253.743 174.314 257.935 172.336 260.496 167.798C261.777 165.529 262.418 162.794 262.418 159.885V139.813ZM262.418 131.958C261.603 131.842 260.846 131.609 260.089 131.318C259.216 132.773 258.342 134.169 257.527 135.507C259.041 136.264 260.671 136.787 262.418 136.962V131.958ZM262.418 115.9C259.448 116.598 257.236 119.274 257.236 122.474C257.236 125.674 259.448 128.351 262.418 129.049V115.9ZM262.418 83.4926C262.418 78.8381 260.438 74.4744 257.061 71.7399C253.917 69.1799 250.715 68.7726 247.222 70.4017C244.485 71.6817 242.972 73.1363 242.389 75.0563C241.341 78.6053 243.379 84.4235 247.688 92.569C247.862 92.9181 247.979 93.1508 248.037 93.209C251.064 98.9108 255.14 105.66 259.972 113.631C260.729 113.282 261.544 113.049 262.36 112.933V83.4926H262.418Z" fill="#A28658"/>
<path d="M400.754 96.5835C400.23 97.1653 399.939 97.9217 399.939 98.678C399.939 99.1435 400.055 99.6671 400.288 100.074C400.812 101.122 401.86 101.703 402.966 101.703C403.083 101.703 403.257 101.703 403.374 101.703C450.301 95.4199 472.949 56.7871 473.182 56.3799C473.473 55.9144 473.415 55.3326 473.182 54.8671C472.891 54.4017 472.367 54.1689 471.843 54.1689C439.413 56.4962 409.254 87.2162 400.754 96.5835Z" fill="#A28658"/>
<path d="M403.374 150.285C402.093 150.111 400.87 150.751 400.288 151.914C399.706 153.078 399.88 154.416 400.754 155.405C405.004 160.06 414.669 170.125 427.303 179.26C439.996 188.394 455.599 196.656 471.843 197.82C471.843 197.82 471.901 197.82 471.96 197.82C472.425 197.82 472.891 197.529 473.182 197.122C473.473 196.656 473.473 196.074 473.182 195.609C472.949 195.202 450.301 156.569 403.374 150.285Z" fill="#A28658"/>
<path d="M405.586 170.533C403.024 167.391 385.15 147.26 380.376 150.111C380.143 150.286 379.619 150.635 379.503 151.449C378.979 154.766 385.325 169.66 394.233 179.9C401.86 188.686 414.785 197.238 419.676 197.238C420.316 197.238 420.782 197.122 421.132 196.831C424.276 194.097 419.385 187.406 408.323 173.849C407.333 172.686 406.46 171.58 405.586 170.533Z" fill="#A28658"/>
<path d="M380.376 101.878C380.667 102.053 381.075 102.169 381.482 102.169C387.479 102.169 403.257 84.3655 405.586 81.4564C406.46 80.4091 407.333 79.3037 408.264 78.1982C419.327 64.6419 424.159 58.0091 421.073 55.2164C418.162 52.5982 402.792 62.2564 394.233 72.1473C385.325 82.3873 378.979 97.2819 379.503 100.598C379.619 101.296 380.085 101.704 380.376 101.878Z" fill="#A28658"/>
<path d="M371.06 102.169C372.225 102.169 374.612 102.169 377.872 80.2348C380.9 59.9875 366.461 54.3439 366.344 54.2857C365.879 54.1111 365.413 54.1693 365.005 54.4602C356.097 60.8602 359.358 76.2784 362.036 84.8893C362.036 85.0639 367.684 102.169 371.06 102.169Z" fill="#A28658"/>
<path d="M371.06 149.82C367.742 149.82 362.094 166.925 362.036 167.1C359.299 175.711 356.097 191.129 365.005 197.529C365.238 197.703 365.529 197.82 365.82 197.82C365.995 197.82 366.17 197.762 366.286 197.762C366.402 197.703 380.842 192.06 377.814 171.813C374.612 149.82 372.166 149.82 371.06 149.82Z" fill="#A28658"/>
<path d="M338.281 89.6599C349.169 97.0489 359.066 101.994 359.94 102.46C360.114 102.518 360.347 102.576 360.58 102.576C360.871 102.576 361.162 102.46 361.454 102.285C361.861 101.936 362.094 101.413 361.978 100.889C361.861 100.133 358.426 82.8526 341.309 68.3071C327.161 56.3217 311.033 54.2853 310.334 54.1689C310.276 54.1689 310.218 54.1689 310.218 54.1689C309.81 54.1689 309.461 54.3435 309.17 54.5762C308.879 54.9253 308.704 55.3908 308.821 55.798C310.626 68.3071 325.181 80.758 338.281 89.6599Z" fill="#A28658"/>
<path d="M361.396 149.704C360.988 149.354 360.406 149.296 359.882 149.587C359.008 150.053 349.111 154.998 338.223 162.387C325.123 171.289 310.568 183.798 308.704 196.191C308.646 196.656 308.763 197.122 309.054 197.413C309.345 197.704 309.694 197.82 310.102 197.82C310.16 197.82 310.218 197.82 310.276 197.82C310.975 197.762 327.161 195.667 341.251 183.74C358.368 169.253 361.745 151.914 361.92 151.216C362.036 150.576 361.861 149.994 361.396 149.704Z" fill="#A28658"/>
<path d="M338.107 89.8926C335.72 88.3216 332.867 87.0998 329.548 86.6926C329.315 86.6344 329.082 86.6926 328.908 86.7507C328.325 86.9835 327.277 87.7398 327.161 89.1362C327.103 89.6598 327.219 90.1835 327.568 90.8816C328.675 93.0926 332.517 96.4089 344.22 102.053C344.511 102.227 344.802 102.285 345.093 102.285C345.676 102.285 346.2 102.053 346.607 101.587C347.248 100.889 347.306 99.8998 346.84 99.1435C345.559 96.9907 342.648 92.8598 338.107 89.8926Z" fill="#A28658"/>
<path d="M328.908 165.238C329.082 165.296 329.199 165.296 329.373 165.296C329.432 165.296 329.49 165.296 329.548 165.296C332.867 164.889 335.72 163.667 338.107 162.096C342.648 159.129 345.501 154.998 346.84 152.845C347.306 152.031 347.248 151.1 346.607 150.402C346.025 149.704 345.035 149.529 344.22 149.878C333.973 154.882 329.723 158.024 328.092 160.235C327.801 160.642 327.627 160.933 327.452 161.282C327.161 161.864 327.103 162.387 327.161 162.853C327.219 164.249 328.267 165.005 328.908 165.238Z" fill="#A28658"/>
<path d="M307.831 132.657C306.608 135.74 311.557 136.962 312.023 133.878C312.43 130.795 308.588 130.562 307.831 132.657Z" fill="#A28658"/>
<path d="M305.386 118.053C308.996 117.994 308.588 107.871 304.28 108.278C302.591 108.453 303.348 111.594 303.814 114.213C304.163 116.307 303.814 118.111 305.386 118.053Z" fill="#A28658"/>
<path d="M303.872 125.5C303.756 125.442 303.639 125.442 303.523 125.442C302.358 125.442 302.125 127.886 301.485 130.038C300.786 132.482 299.68 134.635 301.834 135.507C302.184 135.624 302.533 135.74 302.824 135.74C306.376 135.74 306.608 126.489 303.872 125.5Z" fill="#A28658"/>
<path d="M300.553 96.5835C303.581 94.2563 298.108 90.5908 296.711 92.2199C295.954 93.1508 297.06 94.0235 297.992 95.1872C298.748 96.1181 299.156 97.6308 300.553 96.5835Z" fill="#A28658"/>
<path d="M291.878 153.951C296.07 156.86 302.184 147.9 299.156 145.631C296.128 143.42 289.724 152.438 291.878 153.951Z" fill="#A28658"/>
<path d="M297.235 124.511C295.255 123.697 295.255 126.373 294.731 128.467C294.324 130.329 293.217 131.667 294.207 132.191C298.283 134.577 300.903 125.966 297.235 124.511Z" fill="#A28658"/>
<path d="M295.546 110.489C294.964 110.489 294.615 110.722 294.324 111.071C293.625 111.944 293.741 113.689 293.8 115.435C293.858 117.762 293.683 120.031 296.42 120.322C296.594 120.322 296.769 120.322 296.944 120.322C301.776 120.147 299.272 110.489 295.546 110.489Z" fill="#A28658"/>
<path d="M293.8 102.693C296.652 100.889 292.228 95.071 289.724 97.5146C288.851 98.3873 289.84 99.6091 290.888 100.947C291.762 102.169 292.46 103.507 293.8 102.693Z" fill="#A28658"/>
<path d="M291.82 139.405C291.704 139.289 291.587 139.231 291.471 139.173C290.481 138.707 289.608 140.453 288.036 142.082C286.58 143.653 284.6 145.165 284.892 146.445C284.95 146.678 285.124 146.911 285.357 147.144C288.792 150.053 294.091 141.616 291.82 139.405Z" fill="#A28658"/>
<path d="M288.21 106.94C290.364 105.951 288.094 100.424 285.59 102.577C284.659 103.391 285.474 104.206 286.114 105.253C286.696 106.242 287.104 107.406 288.21 106.94Z" fill="#A28658"/>
<path d="M285.823 135.74C284.659 135.042 283.902 136.322 282.737 137.311C281.515 138.417 279.943 139.289 280.7 140.337C282.504 142.955 288.21 137.195 285.823 135.74Z" fill="#A28658"/>
<path d="M280.932 160.875C280.525 158.547 277.556 159.886 274.295 160.875C270.918 161.864 267.308 162.62 267.658 163.667C268.589 166.693 281.748 165.587 280.932 160.875Z" fill="#A28658"/>
<path d="M278.138 151.217C277.497 149.122 275.168 150.693 272.781 151.74C270.336 152.729 267.832 153.137 268.065 154.766C268.589 157.966 279.419 155.406 278.138 151.217Z" fill="#A28658"/>
<path d="M252.811 145.806C251.996 147.842 257.178 149.82 258.459 148.075C259.74 146.387 253.743 143.595 252.811 145.806Z" fill="#A28658"/>
<path d="M247.688 152.205C246.756 156.336 257.527 157.733 257.935 154.591C258.4 151.391 248.153 150.169 247.688 152.205Z" fill="#A28658"/>
<path d="M245.3 160.933C244.893 165.471 257.061 167.914 257.411 163.784C257.702 159.653 245.592 158.024 245.3 160.933Z" fill="#A28658"/>
<path d="M246.057 168.496C246.057 170.882 250.366 171.464 250.89 169.602C251.414 167.74 246.057 167.449 246.057 168.496Z" fill="#A28658"/>
<path d="M242.855 136.147C240.352 136.962 243.845 142.024 246.057 141.384C248.212 140.802 245.359 135.275 242.855 136.147Z" fill="#A28658"/>
<path d="M241.807 124.569C240.817 124.802 242.448 130.562 245.533 129.98C248.561 129.398 245.533 123.696 241.807 124.569Z" fill="#A28658"/>
<path d="M235.228 141.383C233.19 142.082 236.16 148.307 239.595 147.434C243.03 146.503 239.071 140.103 235.228 141.383Z" fill="#A28658"/>
<path d="M237.557 120.729C237.615 120.729 237.615 120.729 237.673 120.729C239.944 120.438 239.012 113.515 237.033 113.689C233.831 113.864 235.344 120.729 237.557 120.729Z" fill="#A28658"/>
<path d="M235.752 124.336C233.132 124.744 233.307 132.191 236.684 131.725C240.119 131.26 238.023 123.987 235.752 124.336Z" fill="#A28658"/>
<path d="M227.31 147.26C225.272 148.598 229.697 155.522 233.307 155.522C233.714 155.522 234.18 155.405 234.588 155.173C238.197 153.078 230.454 145.107 227.31 147.26Z" fill="#A28658"/>
<path d="M228.532 126.198C225.68 126.955 226.786 134.344 230.163 133.762C233.481 133.238 231.793 125.384 228.532 126.198Z" fill="#A28658"/>
<path d="M229.93 120.671C234.18 120.555 231.968 112.875 229.231 113.631C226.436 114.387 225.68 120.787 229.93 120.671Z" fill="#A28658"/>
<path d="M219.566 128.002C216.888 128.642 219.566 135.74 221.313 135.391C223.06 135.042 223.06 127.129 219.566 128.002Z" fill="#A28658"/>
<path d="M219.566 116.947C222.128 117.006 221.604 111.129 219.566 111.013C217.528 110.897 217.004 116.889 219.566 116.947Z" fill="#A28658"/>
<path d="M166.234 102.285C166.467 102.46 166.817 102.576 167.108 102.576C167.341 102.576 167.515 102.518 167.748 102.46C168.622 101.994 178.519 97.0489 189.407 89.6598C202.507 80.758 217.062 68.2489 218.926 55.8561C218.984 55.3907 218.867 54.9834 218.576 54.6343C218.285 54.3434 217.936 54.2271 217.528 54.2271C217.47 54.2271 217.412 54.2271 217.412 54.2271C216.713 54.2852 200.527 56.3798 186.438 68.3652C169.32 82.8525 165.943 100.191 165.769 100.947C165.594 101.413 165.827 101.936 166.234 102.285Z" fill="#A28658"/>
<path d="M167.748 149.529C167.283 149.296 166.7 149.354 166.235 149.645C165.827 149.994 165.594 150.518 165.711 151.1C165.827 151.856 169.262 169.136 186.38 183.623C200.528 195.609 216.655 197.645 217.354 197.703C217.412 197.703 217.47 197.703 217.528 197.703C217.936 197.703 218.285 197.529 218.576 197.296C218.868 196.947 219.042 196.482 218.926 196.074C215.491 173.442 169.67 150.518 167.748 149.529Z" fill="#A28658"/>
<path d="M198.082 165.296C198.14 165.296 198.199 165.296 198.257 165.296C198.432 165.296 198.606 165.296 198.723 165.238C199.305 165.005 200.353 164.249 200.469 162.853C200.586 160.758 198.723 157.325 183.41 149.878C182.595 149.471 181.605 149.704 181.023 150.402C180.383 151.1 180.324 152.089 180.79 152.845C182.828 156.162 188.534 164.074 198.082 165.296Z" fill="#A28658"/>
<path d="M198.781 86.7507C198.548 86.6926 198.315 86.6344 198.14 86.6926C194.822 87.0998 191.969 88.3216 189.582 89.8926C185.04 92.8598 182.188 96.9907 180.848 99.1435C180.383 99.958 180.441 100.947 181.081 101.587C181.489 102.053 182.013 102.285 182.595 102.285C182.886 102.285 183.177 102.227 183.468 102.053C195.113 96.4089 199.014 93.0344 200.12 90.8816C200.178 90.7071 200.236 90.5907 200.295 90.4744C200.469 90.0089 200.528 89.5435 200.528 89.1362C200.411 87.7398 199.363 86.9835 198.781 86.7507Z" fill="#A28658"/>
<path d="M156.628 102.169C159.947 102.169 165.594 85.0639 165.652 84.8893C168.389 76.2784 171.591 60.8602 162.683 54.4602C162.276 54.1693 161.81 54.1111 161.344 54.2857C161.228 54.3439 146.788 59.9875 149.816 80.2348C153.076 102.169 155.464 102.169 156.628 102.169Z" fill="#A28658"/>
<path d="M156.628 149.82C155.464 149.82 153.076 149.82 149.816 171.754C146.788 192.002 161.228 197.645 161.344 197.703C161.519 197.762 161.693 197.762 161.81 197.762C162.101 197.762 162.392 197.703 162.625 197.471C171.533 191.071 168.272 175.653 165.594 167.042C165.594 166.925 159.947 149.82 156.628 149.82Z" fill="#A28658"/>
<path d="M122.044 81.3984C124.431 84.3657 140.209 102.111 146.148 102.111C146.556 102.111 146.963 101.995 147.254 101.82C147.487 101.646 148.011 101.238 148.128 100.482C148.652 97.1657 142.305 82.2711 133.397 72.0311C124.78 62.1402 109.526 52.482 106.557 55.1002C103.413 57.8347 108.304 64.5257 119.366 78.082C120.297 79.3038 121.229 80.4093 122.044 81.3984Z" fill="#A28658"/>
<path d="M147.312 150.111C142.48 147.26 124.606 167.449 122.102 170.533C121.229 171.58 120.356 172.685 119.424 173.849C108.362 187.347 103.529 194.038 106.615 196.831C106.964 197.122 107.43 197.238 108.071 197.238C112.961 197.238 125.828 188.627 133.514 179.9C142.422 169.66 148.768 154.765 148.244 151.449C148.011 150.635 147.545 150.285 147.312 150.111Z" fill="#A28658"/>
<path d="M124.256 101.703C124.373 101.703 124.548 101.703 124.664 101.703C125.77 101.703 126.818 101.063 127.342 100.074C127.924 98.9107 127.75 97.5725 126.876 96.5834C118.376 87.2161 88.2169 56.4961 55.7871 54.227C55.2631 54.1689 54.7973 54.4016 54.5062 54.867C54.2151 55.3325 54.2151 55.9143 54.5062 56.3798C54.6809 56.787 77.3876 95.4198 124.256 101.703Z" fill="#A28658"/>
<path d="M126.935 155.405C127.808 154.416 127.983 153.078 127.4 151.914C126.818 150.751 125.596 150.111 124.315 150.285C77.3876 156.569 54.7391 195.202 54.5062 195.609C54.2151 196.074 54.2734 196.656 54.5062 197.122C54.7391 197.529 55.2631 197.82 55.7289 197.82C55.7871 197.82 55.7871 197.82 55.8454 197.82C88.2169 195.493 118.434 164.773 126.935 155.405Z" fill="#A28658"/>
</g>
</g>
<defs>
<clipPath id="clip0_260_8106">
<rect width="256" height="529" fill="white" transform="translate(529) rotate(90)"/>
</clipPath>
<clipPath id="clip1_260_8106">
<rect width="529" height="256" fill="white" transform="translate(1 -2.5)"/>
</clipPath>
</defs>
</svg>
