<svg width="256" height="529" viewBox="0 0 256 529" fill="none" xmlns="http://www.w3.org/2000/svg">
<rect width="256" height="529" fill="white"/>
<path d="M253.797 0V529H2.20325V0H253.797ZM20.4835 3.95046V522.356H235.517V3.95046H20.4835Z" fill="#428975"/>
<path d="M225.895 509.548V16.7609C225.895 15.6835 225.053 14.7856 223.971 14.7856H186.208H178.27H32.0287C30.9463 14.7856 30.1044 15.6835 30.1044 16.7609V509.548C30.1044 510.626 30.9463 511.524 32.0287 511.524H223.971C225.053 511.524 225.895 510.626 225.895 509.548ZM222.047 196.147V208.597V235.651V260.192V282.099V305.801V350.214C221.385 349.915 220.664 349.975 219.942 350.693C214.891 356.259 208.277 352.489 203.346 348.957C203.225 348.837 203.105 348.837 202.925 348.778C202.624 345.366 202.504 342.193 202.925 339.5C203.346 336.926 203.947 334.472 204.488 332.317C205.691 327.649 206.473 324.536 204.368 322.86C205.631 320.047 203.887 319.688 203.827 317.054C203.706 313.224 208.457 310.65 207.795 306.639C207.495 304.724 206.232 303.587 204.608 302.749C201.301 300.953 201.482 302.21 202.744 298.32C203.045 297.302 203.586 296.404 203.586 295.327C203.706 292.992 202.384 291.017 200.399 289.94C198.776 289.102 197.393 289.521 195.709 289.282C192.281 288.803 193.965 289.82 192.281 287.067C190.898 284.732 189.275 283.296 187.531 282.458C188.072 276.113 184.524 270.008 178.21 268.332C176.707 267.913 175.745 269.11 175.745 270.367V270.427C175.745 271.205 176.166 271.983 177.128 272.342C181.217 273.779 183.923 277.31 183.682 281.68C181.157 281.74 178.451 282.697 175.565 284.373C175.023 284.673 174.783 285.151 174.663 285.63C174.362 287.127 175.504 289.042 177.188 288.324C180.495 286.947 181.397 286.049 184.945 287.965C192.462 291.975 185.847 288.144 188.132 291.017C189.154 292.274 189.094 293.531 190.778 294.609C192.462 295.626 196.31 294.848 196.851 296.883C197.032 297.661 195.108 300.654 195.168 301.851C195.348 306.759 201.121 306.34 201.662 309.333C202.083 311.488 199.798 312.924 199.497 315.079C199.257 316.994 201.361 320.227 200.82 321.603C200.7 321.903 200.7 322.202 200.76 322.501C199.617 322.8 198.114 323.399 196.37 324.416C194.085 313.343 186.148 301.791 175.625 297.721C173.159 296.763 172.077 300.415 173.941 301.791C178.331 304.964 182.48 307.657 185.847 312.086C189.094 316.396 191.199 321.244 192.642 326.452C189.455 328.247 186.028 329.863 182.359 331.12C184.043 328.487 185.005 325.195 183.743 322.262C182.78 319.927 181.037 319.867 179.473 318.311C179.353 318.191 179.233 318.132 179.172 318.072C179.233 318.012 179.293 317.832 179.293 317.533C179.353 316.336 179.774 315.797 179.593 314.6C178.812 309.034 173.4 309.632 169.551 307.657C167.387 306.52 163.959 304.485 162.335 306.639C162.035 307.058 161.734 307.597 161.614 308.375C161.193 310.231 161.914 311.727 163.358 312.805C165.402 314.361 167.988 315.917 170.634 316.156C171.596 316.216 172.438 315.977 172.618 316.336C172.798 316.695 172.077 318.611 172.197 319.209C172.378 320.885 173.4 322.322 174.723 323.279C176.106 324.297 178.03 324.357 178.631 326.452C178.992 327.828 177.85 330.103 177.489 331.42C177.368 331.898 177.429 332.317 177.609 332.736C170.153 334.891 161.794 336.028 152.714 336.148C153.857 335.609 154.879 334.712 155.901 333.275C158.307 329.863 158.126 325.075 155.841 321.663C153.376 318.012 148.986 316.336 144.777 316.755C148.926 315.259 152.835 313.164 156.442 310.41C158.307 308.974 160.05 307.418 161.554 305.682C166.845 300.055 170.634 292.933 172.618 285.092C173.4 282.039 173.881 278.867 174.061 275.575C174.181 273.839 174.181 272.163 174.001 270.547C173.821 268.033 173.34 265.639 172.678 263.364C172.798 263.244 172.919 263.185 172.979 263.005C174.242 260.491 178.21 251.692 183.141 258.336C183.622 258.995 182.78 260.611 183.322 261.269C184.584 262.885 184.885 264.322 187.05 264.98C189.275 265.699 189.816 264.262 191.74 264.142C192.101 263.903 192.402 263.544 192.642 263.185C193.003 263.604 193.364 264.082 193.724 264.501C196.07 264.92 198.956 267.195 201.061 268.272C204.669 270.128 208.096 265.699 205.39 262.586C208.397 259.773 211.343 259.653 214.23 262.227C215.613 263.065 217.597 261.808 217.597 260.312C217.597 259.952 217.477 259.533 217.236 259.234C214.47 255.463 210.622 252.351 206.412 252.71C206.172 252.77 205.931 252.77 205.751 252.83C204.428 253.069 203.045 253.608 201.662 254.625C200.159 255.703 199.197 257.02 198.595 258.396C195.949 256.9 193.123 255.763 190.778 256.182C190.658 256.182 189.154 256.96 188.192 257.558C188.012 256.421 186.809 254.266 186.509 253.907C180.796 247.622 174.542 253.189 171.055 258.815C169.13 254.745 166.424 251.273 163.418 248.52C160.411 245.767 157.164 243.672 153.977 242.295C147.964 239.662 141.89 239.123 136.539 240.44C136.659 240.26 136.779 240.021 136.779 239.781C137.441 236.19 138.764 237.567 142.131 238.584C145.498 239.602 147.783 240.32 151.451 239.721C156.442 238.943 160.832 236.669 162.035 231.402C163.177 226.493 155.781 224.398 154.638 229.307C153.797 232.898 145.679 232.599 143.334 232.359C141.77 232.239 138.944 231.042 137.38 231.162C135.456 231.342 134.675 231.641 133.291 232.838C132.991 233.077 132.089 235.053 132.269 235.771C131.127 235.412 128.421 234.873 127.94 234.933C127.519 234.993 127.158 235.232 126.857 235.531C126.797 235.531 126.737 235.532 126.617 235.591C126.797 234.035 126.677 232.599 125.895 231.701C125.595 231.342 125.174 231.042 124.693 230.863C127.218 230.444 129.864 229.486 132.871 227.81C135.817 226.134 137.801 223.74 139.004 220.807C139.666 221.645 140.688 222.184 141.89 222.363C141.89 222.423 142.311 222.543 142.552 222.663C142.552 222.723 142.792 222.962 142.792 223.022C142.973 223.201 143.394 223.441 143.514 223.62C143.755 223.979 143.875 224.758 144.055 225.177C144.777 226.853 146.46 228.588 148.385 228.409C149.828 228.229 151.211 226.194 149.768 224.997C148.986 224.339 148.685 224.039 148.505 223.022C148.264 221.885 148.746 220.807 148.445 219.67C147.783 217.216 145.498 215.181 143.033 214.762C142.191 214.582 141.349 214.702 140.568 214.941C141.349 209.554 140.868 203.389 140.207 197.344C140.568 198.122 140.868 198.84 141.109 199.379C142.191 201.713 143.574 203.748 145.318 205.484C145.859 206.023 148.144 207.459 148.445 208.118C149.046 209.315 148.084 210.931 148.084 212.128C148.204 216.318 151.211 218.712 155.059 219.49C155.24 219.49 155.36 219.49 155.48 219.49C157.465 222.124 160.05 223.8 163.177 224.399C164.26 224.638 165.342 224.698 166.424 224.638C166.485 225.416 166.785 226.254 167.266 226.912C169.912 230.384 163.418 237.028 162.576 240.559C161.975 243.073 162.576 244.869 164.019 246.246C164.681 246.844 165.462 247.323 166.424 247.802C168.649 248.879 170.754 246.485 169.551 244.45C169.672 244.749 169.431 244.809 169.491 244.33C169.431 244.21 169.371 244.091 169.251 243.971C169.371 244.091 169.431 244.211 169.491 244.27C169.551 244.091 169.611 243.792 169.792 243.373C170.513 241.996 170.994 240.38 171.776 239.003C172.979 236.788 174.302 234.694 174.963 232.18C175.384 230.623 175.444 229.127 175.324 227.69C180.616 228.289 185.426 231.761 188.974 235.711C190.658 237.627 193.304 234.813 191.74 232.898C187.471 227.75 182.059 224.698 176.166 222.304C184.103 218.952 190.958 213.146 192.101 212.188C193.304 211.111 196.01 211.17 198.896 211.53C198.896 211.53 198.896 211.53 198.956 211.53C201.001 211.769 203.165 212.248 205.029 212.607C210.802 213.744 215.312 214.702 216.695 211.53C216.996 210.811 217.116 209.914 217.116 208.776C217.116 206.382 216.515 202.851 215.613 197.703C215.432 196.745 215.252 195.728 215.071 194.71C216.455 195.488 217.898 196.147 219.341 196.865C220.183 197.105 221.325 196.865 222.047 196.147ZM181.457 420.604C186.99 418.629 192.642 416.593 194.927 418.329C197.753 420.484 197.032 429.462 196.25 438.141C195.589 445.863 194.927 453.823 196.07 460.407C197.332 467.351 198.174 472.857 196.611 474.414C195.589 475.431 192.883 475.491 188.252 474.593C179.894 472.977 173.099 474.533 165.282 476.269C160.712 477.287 155.48 478.484 149.227 479.202C144.777 479.741 141.77 479.082 139.906 477.167C136.178 473.336 137.14 464.059 138.102 454.302L138.343 451.848C139.004 445.683 136.659 440.176 132.089 436.645C131.848 436.406 131.548 436.226 131.247 436.046C130.165 435.328 129.022 434.73 127.759 434.191C119.702 430.899 110.561 433.233 105.51 439.877C100.279 446.82 101.061 454.302 101.722 460.886C102.323 466.393 102.804 471.181 99.6174 474.414C95.2277 478.903 89.3348 475.491 82.1189 470.643C79.8339 469.086 77.8495 467.71 76.1057 467.051C72.6781 465.735 69.0702 466.692 66.1237 467.47C64.3799 467.949 62.2151 468.488 61.7942 467.949C61.0124 466.872 61.4935 463.46 62.0347 459.809C62.5759 456.038 63.2373 451.309 63.1772 445.922C63.1171 441.852 61.4935 437.303 59.9902 432.934C56.3823 422.519 54.6986 415.815 61.7942 411.147C67.3865 407.495 75.5645 411.027 83.5621 414.379C90.1165 417.192 96.8513 420.005 102.203 418.688C104.308 418.15 106.172 416.953 107.735 414.917C112.185 408.992 105.57 400.373 95.5885 387.384C94.7467 386.247 93.8447 385.11 92.9427 383.913C79.0521 365.717 60.4713 339.38 60.9523 306.639C61.9144 249.957 84.0431 221.106 84.2837 220.807C84.5242 220.508 84.5843 220.209 84.6444 219.909C85.9674 219.85 87.2903 219.849 88.6733 219.969C90.8982 220.149 93.0028 220.568 94.9271 221.166C94.446 223.022 83.081 266.896 104.368 286.468C114.35 295.626 124.693 299.457 134.193 297.661C142.913 295.985 150.129 289.76 155.18 279.645C155.901 278.148 155.661 276.413 154.458 275.215C153.316 274.018 151.632 273.719 150.189 274.437C146.16 276.413 140.086 277.67 134.013 272.462C128.18 267.494 128.24 260.731 128.721 257.079C129.623 250.854 133.051 245.827 135.877 244.39C143.935 243.313 149.888 246.844 153.436 250.017C159.75 255.643 164.019 264.861 164.019 273.001C164.019 284.852 158.006 300.893 141.049 306.819C124.091 312.805 107.615 303.048 96.731 293.89C89.7557 287.965 87.5308 276.592 86.0275 269.05C84.9451 263.544 84.4039 260.731 82.4196 259.952C81.9385 259.713 80.8561 259.533 79.7136 260.371C74.3618 264.262 68.4689 306.759 74.8429 334.113C78.3306 349.017 87.3504 366.674 96.6108 379.842C102.985 388.821 109.359 395.764 114.23 398.278C116.635 399.535 118.739 399.774 120.543 399.056C122.408 398.278 123.67 396.602 124.572 394.387C126.737 388.881 126.497 379.783 126.256 370.924C126.076 363.981 125.835 355.302 127.459 353.566C130.225 350.573 133.592 350.573 140.988 350.513C144.837 350.513 149.647 350.453 155.781 349.975C165.041 349.197 173.64 346.503 180.556 344.288C185.005 342.852 190.537 341.116 191.56 341.774C192.402 342.852 192.281 349.137 192.101 354.224C192.041 356.08 191.981 358.055 191.981 360.09C191.921 361.886 192.101 363.741 192.221 365.537C192.522 370.146 192.822 374.515 190.598 377.029C186.509 381.459 181.277 381.758 175.144 382.057C168.228 382.416 160.471 382.835 152.594 389.12C146.1 394.387 143.093 401.031 144.236 407.914C145.438 415.157 151.151 421.502 158.667 424.075C165.943 426.17 174.181 423.178 181.457 420.604ZM121.145 450.831C119.1 454.422 117.116 458.193 113.809 460.767C113.748 460.826 113.688 460.886 113.628 460.946C113.628 460.527 113.628 460.168 113.628 459.749C113.628 448.855 114.29 444.426 120.904 444.247C122.708 444.187 123.37 444.785 123.791 445.204C124.632 446.162 124.933 447.898 124.993 450.053C123.851 449.215 122.107 449.155 121.145 450.831ZM76.6469 495.423C73.7605 494.525 71.2951 492.789 69.01 490.814C65.5224 487.821 62.6962 484.23 59.8699 480.579C59.3889 479.92 58.547 479.741 57.7653 479.86C56.5627 480.1 55.4803 481.057 55.6005 482.314C56.0816 484.828 56.0816 487.402 55.6005 489.916C53.556 492.43 52.4135 492.25 52.173 489.377C49.888 486.863 50.9102 481.297 51.3311 477.885C52.9547 477.945 54.9391 477.586 57.2241 477.227C57.7052 477.167 58.2464 477.047 58.7875 476.987C63.4177 476.149 69.7316 475.012 71.8363 476.628C72.8585 477.406 78.3907 481.536 85.1856 484.529C83.5019 485.307 82.6601 487.821 83.8627 489.617C82.7803 491.353 83.5019 494.226 85.6667 494.645C82.7202 494.106 80.1345 496.5 76.6469 495.423ZM125.534 247.203C123.49 249.717 121.926 252.53 120.904 255.523C119.942 253.189 116.875 251.692 114.65 254.027C112.726 256.002 110.862 258.097 109.9 260.731C109.239 262.526 109.239 264.023 109.419 265.579C108.397 266.357 107.856 267.614 107.976 268.931C107.374 269.05 106.893 269.41 106.653 269.888C100.399 256.9 100.459 239.482 104.729 225.296C105.089 225.476 105.51 225.715 105.931 225.895C107.495 226.673 108.998 227.511 110.561 228.229C110.08 228.648 109.78 229.307 109.96 230.145C110.381 232.06 110.862 232.838 112.486 234.035C113.628 234.873 117.777 234.813 118.258 235.472C119.16 236.669 113.989 242.235 118.8 246.186C121.145 248.101 123.67 248.161 125.534 247.203ZM117.958 279.705C117.477 279.346 116.996 279.046 116.454 278.747C115.432 278.208 114.109 278.807 113.628 279.705C111.884 277.969 110.321 276.054 108.938 273.959C110.261 274.677 111.824 274.916 113.147 274.198C113.688 273.899 114.049 273.42 114.29 272.941C116.094 272.642 117.717 271.205 117.597 269.17C117.477 267.434 116.635 265.339 116.996 263.723C117.356 262.167 118.739 260.91 119.822 259.833C119.04 264.681 119.702 269.709 121.866 274.258C122.227 275.036 122.588 275.754 123.069 276.413C122.047 276.472 121.145 277.011 120.964 278.208C120.844 278.807 120.483 278.687 119.822 278.747C118.98 278.807 118.379 279.166 117.958 279.705ZM125.534 279.645C126.917 281.141 128.481 282.338 130.165 283.296C129.503 283.655 129.022 284.373 129.022 285.211C129.022 285.81 129.263 286.408 129.684 286.827C128.12 286.947 126.436 286.827 124.632 286.349C124.933 285.69 125.053 284.912 124.813 284.074C124.632 283.416 124.272 282.877 123.851 282.278C124.632 281.68 125.234 280.842 125.534 279.645ZM140.086 318.012C139.064 318.551 138.102 319.149 137.2 319.808C132.871 322.92 133.171 324.835 127.158 323.758C123.61 323.1 119.942 321.424 117.236 325.254C116.154 326.811 116.695 328.786 115.973 330.342C113.027 336.747 110.08 332.796 105.39 332.916H105.33C105.33 332.676 105.33 332.437 105.21 332.138C104.368 329.923 102.985 327.05 104.969 325.075C106.352 323.698 108.517 322.022 110.501 322.621C113.568 323.459 114.891 318.67 112.305 317.713C112.185 317.653 112.005 317.593 111.884 317.593C107.856 316.935 104.308 319.269 101.662 322.262C98.5952 325.673 99.7978 329.983 101.662 333.694C99.437 334.472 97.2722 335.969 96.6709 338.063C96.1899 339.739 97.0918 341.415 97.633 342.852C98.7154 345.725 99.5573 344.707 100.82 349.137C102.383 354.584 101.121 354.584 99.1363 359.432C98.6553 360.629 98.7755 361.826 99.3769 362.724C100.279 364.16 102.203 364.759 103.947 363.263C107.194 360.449 109.419 357.397 109.78 352.848C110.141 348.119 107.675 346.683 106.653 342.792C105.871 339.859 99.7377 339.859 108.216 340.637C109.9 340.817 113.207 341.774 115.132 341.774C117.296 341.715 119.1 341.475 120.664 340.158C120.904 339.979 121.145 339.739 121.325 339.5C123.129 337.465 122.648 335.849 123.31 333.395C123.189 332.437 123.009 331.479 122.648 330.582C124.091 330.342 125.595 330.043 127.038 329.803C128.721 329.863 130.405 331.3 132.209 331.36C134.193 331.42 135.637 330.941 137.32 329.923L137.38 329.863C138.343 329.025 139.305 328.187 140.267 327.349C142.432 324.596 144.837 325.314 147.543 329.624C147.122 330.402 140.507 331.06 139.485 331.3C139.245 331.36 139.004 331.42 138.824 331.539C137.26 332.497 138.042 335.43 140.026 335.49C141.409 335.55 142.732 335.789 144.055 336.088C132.871 335.729 126.015 337.944 121.265 341.236C118.258 343.331 116.214 345.904 114.41 348.538C111.945 352.189 111.223 358.713 110.501 364.46C110.141 367.752 109.539 372.66 108.818 373.438C108.036 373.617 104.368 371.762 99.1965 362.843C95.8291 356.978 91.8002 348.059 87.4707 334.771C78.09 305.682 81.2169 292.514 82.9006 289.222C83.3817 289.88 83.9229 290.718 84.4641 291.556C88.5531 297.781 96.6108 309.991 112.426 315.977C112.546 316.037 112.666 316.097 112.786 316.156C114.831 316.935 116.996 317.593 119.341 318.132C126.497 319.568 133.532 319.568 140.086 318.012ZM150.129 192.556C150.129 192.735 150.129 192.915 150.129 193.154C150.129 196.326 150.129 199.678 150.369 203.03C149.647 202.611 148.866 202.252 148.204 201.713C146.22 200.097 145.017 197.883 144.115 195.429C143.935 195.01 143.454 193.693 143.033 192.376C144.296 192.975 145.679 193.334 147.723 193.693C148.806 193.872 149.708 193.334 150.129 192.556ZM222.047 18.7361V82.6016V145.689V179.387V186.929C221.987 186.929 221.927 186.869 221.866 186.929C220.664 187.109 220.123 187.588 219.221 188.366C218.74 188.845 218.078 189.204 217.417 189.263C216.755 189.323 216.154 189.623 215.733 190.042C215.372 189.922 215.071 189.802 214.711 189.682C214.53 189.623 214.35 189.623 214.169 189.623C213.508 185.313 213.027 180.824 213.087 176.814C213.267 176.933 213.448 177.113 213.628 177.352C214.049 177.951 214.29 178.669 214.711 179.268C215.733 180.824 217.176 181.841 219.04 181.901C220.724 181.961 221.566 180.704 221.566 179.387C221.566 178.071 220.724 176.694 219.04 176.574C219.04 176.574 218.619 175.916 218.559 175.796C218.138 175.018 217.597 174.3 216.996 173.701C216.034 172.743 214.771 172.205 213.568 172.384C214.109 169.451 215.132 166.339 216.214 163.107C218.018 157.66 219.942 151.794 219.942 145.689C219.942 140.601 218.619 135.334 214.771 130.007C214.47 129.528 214.109 129.169 213.749 128.75C216.274 127.792 217.597 124.919 216.996 122.226C216.515 120.191 214.109 119.353 212.486 120.31C211.103 121.148 210.682 122.944 211.283 124.38C211.163 124.38 211.043 124.38 210.982 124.38C209.84 124.201 209.299 123.243 208.337 122.764C207.495 122.286 206.533 122.585 205.931 123.183C202.083 121.747 197.994 121.687 194.145 122.106C192.101 122.286 190.117 122.645 188.313 122.884C182.54 123.842 178.932 124.261 177.609 121.986C176.827 120.61 180.014 116.539 183.622 112.11C183.863 111.871 184.043 111.571 184.284 111.332C188.914 105.646 195.168 98.0442 201.301 87.5696C210.381 72.0072 219.1 50.1002 221.927 18.7361H222.047ZM200.339 18.7361H212.666C212.546 54.2901 193.424 81.2249 178.331 100.199C177.549 101.157 176.767 102.174 176.046 103.072C175.324 104.03 174.542 104.927 173.821 105.825C163.298 118.874 156.262 127.493 160.592 133.897C166.124 142.217 174.482 139.883 182.54 137.608C189.275 135.693 196.19 133.778 201.782 137.908C209.599 143.654 206.713 153.051 203.646 163.047C202.143 168.015 200.58 173.103 200.519 177.652C200.399 183.697 201.121 189.024 201.662 193.334C202.263 197.703 202.744 201.534 201.842 202.91C201.421 203.509 199.858 203.03 197.633 202.372C194.687 201.474 191.079 200.397 187.531 201.893C185.787 202.671 183.803 204.167 181.518 205.963C174.362 211.47 168.529 215.301 164.2 210.273C160.952 206.502 161.433 200.995 162.035 194.591C162.756 187.169 163.478 178.789 158.367 171.068C153.676 164.005 145.198 161.191 137.38 164.064C129.323 166.997 124.693 174.958 125.534 184.355L125.775 187.169C126.857 198.721 127.819 209.674 123.55 213.864C121.686 215.66 118.8 216.318 114.65 215.779C108.397 214.941 103.165 213.625 98.5952 212.427C90.7178 210.392 83.9229 208.657 75.5043 210.452C71.1147 211.41 68.4689 211.41 67.3865 210.392C65.5825 208.657 66.4244 202.192 67.6871 193.992C68.8898 186.57 68.1682 177.532 67.5067 168.853C66.7851 158.857 65.9433 148.562 68.9499 145.988C71.1748 144.073 76.5266 146.287 82.2392 148.562C89.5753 151.555 97.8736 154.907 104.969 152.153C112.245 149.34 117.777 142.457 119.221 134.676C120.604 126.835 117.717 119.113 111.103 113.068C103.225 105.885 95.4081 105.466 88.4328 105.047C82.1189 104.688 77.1279 104.389 73.0389 99.361C70.6937 96.428 72.9186 89.4849 75.0834 82.7811C75.7449 80.8059 76.3462 78.8306 76.8874 76.9153C78.511 71.1692 78.8116 65.483 78.992 61.353C79.1123 58.9588 79.2325 55.9062 79.7136 55.3076C81.8784 52.8536 95.1676 54.1105 108.036 55.3674C109.96 55.547 111.945 55.7864 113.929 55.9659C121.626 56.6842 127.759 56.0259 132.69 55.4872C139.666 54.7689 142.853 54.5295 144.777 57.3427C154.999 72.3663 151.933 87.4498 149.708 98.4033C148.084 106.244 146.881 112.469 151.872 114.804C153.135 115.402 154.638 115.223 156.503 114.325C160.111 112.589 165.703 107.441 171.896 99.78C172.798 98.7026 173.7 97.5055 174.602 96.3084C185.907 81.2847 198.655 58.3003 205.571 31.6648C206.112 29.51 205.45 27.2954 203.767 25.9187C202.804 25.1406 201.602 24.7216 200.399 24.7216C199.557 24.7216 198.715 24.9011 197.934 25.3201C191.62 28.672 184.224 36.6926 175.985 49.2024C170.032 58.1806 166.485 63.5676 164.26 66.7399C164.019 61.7719 163.538 57.3427 162.576 54.2302C169.611 40.0445 184.043 22.5668 187.11 18.9755H200.339V18.7361ZM139.305 186.39C139.184 186.51 139.064 186.63 138.944 186.809C138.583 182.021 138.703 178.011 140.207 176.275C140.568 175.856 141.289 175.317 142.853 175.377C149.046 175.557 150.008 179.986 150.129 190.82C150.068 190.64 149.948 190.461 149.768 190.341C147.483 188.007 142.732 183.278 139.305 186.39ZM177.188 66.3808C181.518 58.9587 188.673 46.8082 191.439 45.5512C192.702 49.0827 180.976 67.5779 165.101 87.3899C165.041 86.6717 164.981 85.8338 164.861 84.9359C168.048 82.003 172.317 74.7007 177.188 66.3808ZM181.999 18.7361C177.068 24.7216 166.725 37.9496 160.291 49.9206C159.93 49.5016 159.569 49.1425 159.148 48.7833C162.155 43.7555 172.438 26.637 179.112 18.7959H181.999V18.7361ZM33.9529 247.203V237.267V225.117V201.294V113.068V112.888V101.875V84.9359V68.4158V18.8558H64.3799H93.3636C93.3636 18.8558 93.3035 18.8558 93.3035 18.9157C92.1009 20.1128 91.3793 21.5493 91.1387 23.1055C88.072 23.4646 85.0052 24.0033 82.0588 25.0208C79.6535 25.8588 80.6757 29.2706 83.081 28.9115C85.6066 28.4925 88.1321 28.1334 90.6577 28.0735C91.6198 28.0136 92.5819 27.9537 93.6042 28.0136C94.8669 28.0136 96.25 26.8165 96.0696 25.4399C96.0095 24.6617 96.0095 24.0632 96.731 23.5844C98.5951 22.2675 98.2945 20.1127 97.0918 18.9755H120.604C120.123 19.5142 119.822 20.2923 120.062 21.0705C120.303 21.8486 120.784 22.2077 121.325 22.7464C121.325 22.7464 121.626 23.1055 121.746 23.2252C122.047 23.7041 122.107 24.2428 122.047 24.7814C121.866 25.799 122.227 26.8165 123.189 27.1756C123.61 27.3552 124.031 27.3552 124.452 27.2954C124.933 27.1756 125.354 26.8764 125.655 26.3976C126.497 24.8413 126.497 23.0457 125.835 21.4296C125.474 20.5916 124.873 19.6339 124.091 18.9755H174.121C171.896 21.9084 169.371 25.4997 166.966 29.1509C166.966 29.0311 167.026 28.8516 166.966 28.7319C166.845 26.7567 165.101 25.8588 163.418 26.6369C161.012 27.7742 159.148 28.4326 156.442 28.2531C154.518 28.1333 152.654 27.3552 150.61 27.3552C148.024 27.415 138.463 31.7247 138.643 28.5524C138.764 26.8166 136.479 26.0384 135.336 27.1756C133.773 28.7319 133.472 30.8268 134.374 32.6823C134.614 33.1013 134.855 33.5203 135.216 33.8795C137.561 36.5729 141.229 36.0342 144.175 34.897C145.498 34.3583 146.701 34.059 147.844 33.8795C147.783 34.3583 147.723 34.8371 147.663 35.3758C147.603 35.9744 147.543 36.5131 147.663 37.0518C147.783 37.9496 148.264 38.4883 148.986 39.027C149.587 39.446 150.61 39.446 151.151 39.027C151.752 38.608 152.233 38.1292 152.414 37.4109C152.594 36.7525 152.474 36.0342 152.414 35.3758C152.414 34.8371 152.353 34.3583 152.233 33.8795C153.015 33.9992 153.797 34.1189 154.699 34.3583C156.623 34.7773 158.547 35.3159 160.531 35.1364C161.614 35.0167 162.696 34.6575 163.658 34.1787C160.291 39.4459 157.465 44.1745 155.961 46.6286C149.287 42.6781 138.042 40.8226 123.73 41.4212C122.347 41.481 120.964 41.6007 119.641 41.6606C116.695 41.9 113.809 42.1993 111.043 42.4985C108.517 42.7978 106.052 43.0373 103.646 43.2169C94.446 43.9351 86.0876 43.5161 77.9698 38.0693C71.8964 33.9992 69.0702 33.0415 67.0858 34.4181C66.3642 34.9568 65.8832 35.6751 65.7629 36.5729C65.7629 36.6328 65.7028 36.7525 65.7028 36.8123C65.4021 38.6678 66.0034 41.3613 66.7851 44.9526C67.3263 47.4067 67.9878 50.1601 68.4087 53.1528C69.1904 58.5997 66.0636 67.4582 63.0569 76.0175C58.9679 87.6892 54.6985 99.8398 58.4869 107.441C58.7274 107.98 59.0882 108.519 59.5091 108.998C63.2975 113.726 72.1971 115.223 81.5176 116.839C86.3281 117.677 91.259 118.515 95.348 119.832C94.9872 120.31 94.8068 120.909 95.1075 121.627C95.2277 121.867 95.2879 122.106 95.4081 122.345C95.4081 122.345 95.4081 122.345 95.4081 122.405C95.4683 122.465 95.4683 122.645 95.5284 122.645C95.5885 122.824 95.6487 122.944 95.7088 123.123C95.7088 123.183 95.7689 123.423 95.7689 123.483C95.7689 123.722 95.7088 124.021 95.7689 124.081C95.7689 124.201 95.7088 124.261 95.7088 124.321C95.6487 124.44 95.4683 124.68 95.4683 124.68C94.6264 125.997 95.2277 127.912 96.4905 128.63C97.8134 129.408 99.6174 128.929 100.399 127.613C101.301 126.176 101.482 124.021 100.94 122.226C102.383 123.064 103.586 124.141 104.308 125.338C105.45 127.134 105.631 129.289 104.909 132.042C104.127 135.035 102.804 136.95 100.94 137.908C97.152 139.883 91.0786 138.027 84.9451 135.693C85.1255 135.693 85.2458 135.753 85.4262 135.753C87.0497 135.753 88.5531 134.795 89.3949 133.419C90.2368 132.042 90.2969 130.486 90.0564 128.87C89.8158 127.553 89.5753 125.817 88.9138 124.68C87.9517 123.064 85.5464 122.525 84.2235 124.021C83.1411 125.218 82.8405 126.535 83.2013 128.091C83.2614 128.391 83.3817 128.63 83.5019 128.87C83.2013 128.87 82.9006 128.929 82.5999 129.049C81.6378 129.289 80.8561 130.127 80.6156 131.084C80.5554 131.264 79.9541 133.059 80.0744 133.059C79.8339 133.239 79.7136 133.359 79.5933 133.538C76.1057 132.221 72.7984 131.084 69.7918 130.725C70.1526 129.947 70.3931 129.109 70.5134 128.331C70.8741 126.236 69.6114 124.141 67.3865 124.141C65.2217 124.141 63.8387 126.236 64.2596 128.331C64.5603 129.767 63.538 131.144 62.3955 132.221C61.9144 132.581 61.4935 133 61.0726 133.478C53.6763 142.397 55.5404 160.054 57.164 175.557C57.4646 178.669 57.8254 181.722 58.0058 184.475C58.547 191.538 56.262 199.978 53.977 207.699C53.977 207.16 53.977 206.621 53.977 206.083C53.6763 202.013 51.2109 195.668 47.182 194.112C42.9126 192.496 38.4027 197.105 36.2379 200.456C36.0575 200.756 35.9373 201.115 35.9373 201.414C35.9373 202.791 37.621 204.167 38.9439 203.21C39.1243 203.09 39.2445 202.97 39.4249 202.851C39.6655 203.21 40.0263 203.509 40.3871 203.689C42.3714 204.646 43.4538 204.167 43.5139 206.741C43.5741 208.178 43.4538 209.495 43.8146 210.692C42.4917 212.248 41.6498 214.223 40.808 216.138C39.8459 218.413 39.3648 222.124 37.1399 223.441C36.4785 223.86 36.2379 224.518 36.2379 225.177C36.2379 226.493 37.2602 227.75 38.7034 227.212C41.5296 226.134 42.9126 224.039 44.2355 221.406C45.4382 219.012 47.2421 216.737 48.4448 214.343C49.6474 214.343 50.9102 213.864 51.8723 212.906C52.173 212.607 52.4135 212.248 52.6541 211.949C50.1886 220.209 48.6853 226.134 51.5115 228.947C52.173 229.606 52.8946 229.965 53.7364 230.204C53.7364 230.324 53.6763 230.444 53.6763 230.623C53.3155 235.172 44.4761 241.816 41.3492 236.489C40.3269 234.813 37.5007 235.352 37.5007 237.447C37.5007 237.507 37.5007 237.507 37.5007 237.567C37.6811 240.38 39.1243 242.235 41.1086 243.373C39.906 244.091 38.9439 245.108 38.102 246.305C37.8615 246.724 37.7412 247.084 37.7412 247.383C37.7412 248.939 39.9661 249.957 41.3492 248.819C42.9728 247.443 44.897 246.784 46.8813 247.383C48.7455 247.922 49.7677 249.538 51.3311 250.555C52.6541 251.453 54.8188 250.316 54.6384 248.64C54.3979 246.425 53.075 244.749 51.3913 243.552C56.7431 241.517 61.4935 236.848 61.253 230.683C61.1928 229.905 61.0124 229.307 60.7118 228.768C61.9144 228.229 63.2373 227.571 64.6204 226.853C66.9655 225.715 69.6114 224.339 72.5579 223.142C68.3486 229.546 61.0726 242.654 56.3823 263.244C56.5025 261.988 56.0215 260.731 55.0593 259.713C53.8567 258.516 52.2933 258.097 50.7298 257.798C50.5494 257.798 50.369 257.798 50.1886 257.798C50.6697 256.122 49.4069 253.847 47.3023 254.506C46.9415 254.625 46.5807 254.805 46.1598 254.925C44.1754 255.703 42.2512 255.643 40.2668 254.625C37.9818 253.668 35.9974 256.9 38.2824 258.097C39.3047 258.636 40.2668 258.995 41.2289 259.234C40.808 259.773 40.3269 260.252 39.8459 260.731C37.7412 262.885 35.2758 264.501 34.1333 267.315V247.203H33.9529ZM39.9661 299.457C39.4249 298.918 38.8838 298.32 38.4628 297.661C37.6811 296.584 37.0798 295.327 36.3582 294.13C35.817 293.292 34.7948 292.992 33.9529 293.172V275.036C35.1555 279.465 38.102 283.655 41.71 284.613C43.0329 284.972 44.5963 283.954 44.5362 282.398C44.2355 278.388 39.7256 274.557 40.2668 270.667C40.6276 268.452 42.5518 267.554 43.6943 265.938C45.3179 263.604 45.1375 260.371 48.084 259.114C47.9036 260.132 48.5049 261.15 49.467 261.449C50.5494 261.748 51.9926 262.047 52.0527 263.364C52.1129 264.262 52.6541 265.1 53.556 265.339C54.3378 265.579 55.4201 265.22 55.7809 264.382C55.8411 264.262 55.9012 264.142 55.9613 263.963C53.977 272.881 52.4737 283.176 51.8723 294.848C51.0305 294.549 50.0684 294.728 49.1664 295.087C47.8435 295.626 47.7232 295.866 46.0996 296.105C44.897 296.285 43.6943 296.464 42.612 297.063C42.3113 297.362 40.9283 298.439 39.9661 299.457C39.9661 299.517 39.9661 299.517 39.9661 299.457ZM200.64 507.573H186.388H169.732H121.866H88.9138H33.9529V453.105V436.406V398.457V377.568V363.921C34.1934 364.041 34.434 364.1 34.7346 364.1C38.102 364.041 39.1243 361.886 38.8236 359.551C40.0864 359.731 41.289 359.731 42.3113 359.132C44.1153 358.055 44.5362 355.721 43.8747 353.865C43.7545 353.566 42.7322 351.83 42.0708 351.591C42.7924 351.052 44.1754 350.274 44.4159 350.034C46.0996 348.239 46.8813 345.845 48.6853 344.169C49.1664 343.75 49.4069 343.211 49.5873 342.672C49.6474 342.792 49.7677 342.912 49.7677 343.031C50.0684 344.109 49.2866 345.306 49.0461 346.323C48.3245 350.035 50.5494 353.326 54.2175 353.745C56.0816 353.985 56.9836 350.813 55.1796 349.975C52.5338 348.778 53.8567 347.102 54.879 345.066C55.5404 343.69 55.8411 342.373 55.5404 340.877C55.4803 340.697 55.4803 340.517 55.4201 340.398C54.6986 338.063 52.6541 336.627 51.8122 334.412C50.1285 330.103 43.9349 331.659 44.897 336.328C45.0172 336.866 45.1375 337.285 45.378 337.764C45.0172 337.884 44.6565 338.063 44.2355 338.303C42.3714 339.739 41.4093 341.236 40.5073 343.391C40.3269 343.75 40.1465 344.109 39.9661 344.408C39.6655 344.468 39.3648 344.588 39.0641 344.707C37.8014 345.007 36.5386 344.827 35.2157 344.707C34.7948 344.648 34.3137 344.827 33.8928 345.066V300.654C35.3961 303.766 37.8014 306.52 40.8681 306.4C41.8904 306.34 42.7924 305.981 43.5741 305.383C44.3558 304.664 44.4159 303.707 45.0172 303.048C46.0996 301.911 48.2644 302.39 49.6474 302.031C50.369 301.791 51.0305 301.492 51.6318 301.133C51.5717 303.707 51.5115 306.34 51.5717 309.034C51.6919 320.646 53.3155 331.06 55.9012 340.398C55.9613 340.577 56.0215 340.757 56.0215 340.877C58.8477 351.052 62.7563 359.851 66.8453 367.452C69.4911 372.241 72.1971 376.55 74.8429 380.441C69.8519 380.082 66.6047 387.264 67.7473 391.754C68.529 394.986 70.6937 396.722 73.2794 397.26C75.6847 397.739 78.3907 397.2 80.7358 395.824C82.2993 394.926 81.9385 393.19 80.796 392.352C80.3751 392.053 79.7737 391.873 79.1724 391.993C77.188 392.292 73.8808 393.609 72.8585 390.916C71.9565 388.462 73.3997 385.05 76.0455 384.81C76.707 384.75 77.188 384.451 77.4887 384.092C79.2927 386.546 80.9764 388.821 82.5398 390.856C82.9607 391.394 83.3215 391.873 83.7425 392.412C87.3504 397.021 91.7401 402.827 90.9583 404.084C89.7557 405.939 83.983 403.964 78.8717 402.228C76.8272 401.51 74.7226 400.792 72.5579 400.133C67.7473 398.697 62.6962 397.739 58.1862 398.517C54.8188 399.116 51.6919 400.732 49.1062 403.844C40.5073 414.379 44.2355 424.494 47.6029 433.353C47.9637 434.37 48.3245 435.328 48.6853 436.286C44.6565 435.687 40.7479 435.508 36.7791 434.37C35.3359 433.951 34.3738 435.149 34.3738 436.286C34.3738 437.064 34.7948 437.902 35.6967 438.201C37.3804 438.8 39.1844 439.338 41.0485 439.817C41.0485 440.057 40.9884 440.296 41.0485 440.595C41.5296 445.504 39.0641 448.436 35.817 451.669C35.4562 452.028 35.2758 452.507 35.2758 453.045C35.2758 454.302 36.4183 455.619 37.7412 455.08C43.7545 452.806 47.7833 447.299 47.3624 440.595C47.9036 440.595 48.3847 440.536 48.8657 440.476C49.2265 440.416 49.5272 440.296 49.7677 440.057C50.1285 441.493 50.4292 442.87 50.4893 444.187C50.7899 450.052 49.3468 457.415 48.2043 463.34C48.1441 463.52 48.1441 463.64 48.084 463.759C47.6029 463.161 47.1219 462.562 46.5206 462.024C44.8369 460.587 43.093 459.988 40.9884 459.629C38.3426 459.15 37.1399 463.041 39.8459 463.879C41.8904 464.537 43.995 466.632 44.8369 468.608C45.1976 469.565 45.9794 470.343 46.9415 470.583C46.701 472.378 46.6408 473.755 46.8813 474.833C46.4003 475.192 45.9794 475.611 45.799 476.269C43.8747 482.614 44.0551 496.979 52.4737 499.014C58.1261 500.331 60.0503 495.004 60.5915 489.677C66.4845 496.74 73.8808 502.605 83.6222 501.348C84.2235 501.289 84.8249 501.169 85.4863 500.989C85.5464 502.486 86.0275 503.862 87.17 504.88C87.6511 505.299 88.2524 505.538 88.8537 505.538C90.1165 505.538 91.3191 504.7 91.259 503.144C91.1989 501.468 90.5374 499.972 90.7779 498.356C91.4995 497.637 92.0407 496.799 92.3414 495.782C92.7022 494.405 92.642 493.088 92.161 492.011C93.4238 490.574 92.8826 488.061 91.3191 486.983C91.0185 486.744 90.7178 486.564 90.4172 486.325C94.0251 487.402 97.6932 487.881 101.061 487.163C104.909 486.385 107.916 484.11 109.96 480.519C111.043 478.603 111.764 476.508 112.305 474.414C112.546 474.833 112.847 475.251 113.267 475.611C115.372 477.406 118.078 476.508 120.483 476.449C121.806 476.389 122.468 475.491 122.468 474.473C122.468 473.635 121.987 472.738 121.025 472.319C119.942 471.84 117.056 472.259 116.394 471.541C115.793 470.882 116.154 467.411 116.394 465.196C120.002 462.742 122.468 459.33 124.632 455.499C124.452 457.115 124.272 458.791 124.031 460.407C123.43 464.897 122.828 469.865 123.009 474.473C123.129 478.663 123.911 482.554 125.955 485.666C124.212 484.888 121.926 484.828 120.002 485.427C119.581 484.828 118.319 483.99 118.078 483.691C115.913 481.716 112.666 483.631 113.267 486.564C114.29 491.592 116.214 498.535 120.784 501.468C121.145 501.707 121.506 501.827 121.866 501.827C123.249 501.827 124.212 500.032 123.61 498.595C122.708 496.5 121.205 494.764 120.303 492.669C120.243 492.55 120.243 492.43 120.183 492.31C120.243 492.31 120.303 492.31 120.303 492.31C121.506 492.131 121.686 491.891 123.129 491.891C124.632 491.891 125.895 491.712 127.098 490.814C128 490.096 128.361 489.198 128.301 488.3C129.142 489.078 130.104 489.737 131.247 490.275C137.02 493.148 141.77 493.627 146.1 492.909C144.416 493.747 142.973 494.944 141.951 496.62C140.628 498.894 143.213 501.289 145.378 500.151C153.917 495.423 161.313 504.102 169.792 504.042C172.197 504.042 172.738 500.391 170.333 499.732C166.424 498.655 163.478 497.039 160.05 495.064C157.886 493.807 155.059 492.43 152.594 492.011C151.872 491.891 151.151 491.831 150.429 491.891C152.955 491.053 155.36 489.976 157.825 488.839C162.877 486.504 168.048 484.11 174.963 483.631C177.789 483.452 180.495 483.631 183.021 484.05C179.593 486.085 175.865 490.275 175.324 493.448C174.903 495.722 175.985 497.458 177.609 498.894C179.834 500.929 182.54 502.965 185.186 504.401C185.607 504.64 186.088 504.76 186.509 504.76C188.673 504.76 190.117 502.007 188.433 500.091C187.23 498.715 185.787 497.518 184.344 496.38C183.682 495.842 182.78 494.704 181.999 494.465C181.939 494.405 181.818 494.345 181.758 494.285C181.758 494.226 181.758 494.226 181.818 494.226C182.961 493.627 184.284 491.472 185.246 490.515C186.569 489.317 187.832 488.42 188.734 486.863C188.974 486.385 189.094 485.966 189.094 485.487C193.003 486.684 196.491 488.18 199.437 489.497C203.045 491.113 206.052 492.43 208.517 492.61C210.02 492.669 211.223 492.37 212.366 491.412C213.508 490.395 213.989 488.958 213.989 487.163C213.989 483.99 212.486 479.621 210.682 474.294C208.156 466.992 205.39 458.732 205.991 452.028C206.232 449.574 206.533 446.94 206.833 444.187C207.074 441.972 207.375 439.757 207.615 437.483C210.261 440.356 214.109 442.271 217.296 444.426C218.8 445.384 220.123 444.067 220.123 442.63C220.123 442.032 219.882 441.373 219.281 440.955C218.018 439.997 213.869 437.902 212.666 436.166C213.869 433.413 214.651 430.54 215.492 427.547C216.755 422.878 210.08 420.783 208.337 424.853C208.276 419.885 207.615 415.217 205.871 411.446C205.089 409.71 204.127 408.154 202.865 406.837C198.475 402.168 190.357 404.862 181.818 407.795C177.368 409.291 172.798 410.847 168.95 411.326C169.732 410.548 170.333 409.531 170.574 408.453C171.175 407.555 171.536 406.478 171.355 405.281C171.235 404.563 170.994 403.964 170.513 403.425C170.273 403.186 169.792 402.946 169.491 402.707C169.611 402.587 169.371 401.57 169.19 401.33C168.83 400.792 168.349 400.253 167.807 399.954C166.605 399.295 165.162 399.355 163.959 399.894C163.358 400.193 162.877 400.552 162.396 400.971C162.275 401.091 161.914 401.39 161.734 401.63C161.313 401.39 160.531 401.091 160.351 400.971C159.99 400.732 159.629 400.492 159.329 400.253C159.389 400.133 159.389 400.014 159.449 399.894C161.914 395.644 170.273 393.609 178.331 391.933C177.85 393.07 177.549 394.267 177.489 395.584C177.429 399.355 179.714 402.408 182.179 404.982C184.765 407.735 188.854 403.545 186.268 400.792C184.945 399.415 183.201 397.619 183.322 395.524C183.382 393.729 184.885 392.232 186.028 390.975C186.268 390.736 186.388 390.497 186.509 390.257C190.658 389.359 194.446 388.342 197.393 386.845C199.738 385.708 201.542 384.332 202.624 382.416C203.947 380.082 204.669 377.448 205.029 374.635C205.751 368.889 204.909 362.365 204.067 355.96C203.947 355.242 203.887 354.583 203.827 353.865C209.479 357.636 217.296 359.791 222.347 354.344V375.712V401.809V412.583V442.511V507.513H200.64V507.573Z" fill="#428975"/>
<path d="M58.1863 42.3767C61.674 42.4964 63.7786 39.6832 64.3198 36.451C64.3198 36.3313 64.3799 36.2116 64.3799 36.0919C64.5603 34.6554 64.5603 33.2788 65.1015 31.9021C65.763 30.1663 67.2663 28.9692 67.567 27.0538C67.9278 24.8392 66.4846 22.6245 64.3198 22.6245C64.0192 22.6245 63.6584 22.6844 63.3577 22.8041C58.968 24.1209 57.3445 30.2261 57.2843 34.416C57.2843 34.7751 57.1641 35.3736 57.2242 35.7926C56.9235 35.3138 56.3823 34.3561 56.3222 34.0569C55.4804 31.7225 55.8412 29.1487 54.9993 26.8144C54.4581 25.3778 52.2332 24.6596 51.4515 26.3355C49.1665 31.2436 51.5718 42.1373 58.1863 42.3767Z" fill="#428975"/>
<path d="M97.6933 29.5678C97.1521 30.4657 97.2122 31.3634 97.092 32.3211C97.0318 32.6803 96.9717 33.0394 96.9116 33.3986C96.7913 33.3387 96.671 33.3387 96.5508 33.2788C94.9873 32.8598 94.8671 32.6802 93.8448 31.6627C93.1834 31.0642 92.8827 30.5854 92.0409 30.2262C91.6199 30.0467 91.199 29.9269 90.7781 29.9269C89.9964 29.9269 89.2146 30.2861 88.7937 31.0642C87.3505 33.6978 88.6133 36.0322 90.7781 37.768C92.0409 38.7256 93.5442 39.4439 95.1677 39.5636C96.9717 39.6833 96.8514 39.4439 98.2345 40.641C99.7979 41.9578 101.782 42.4965 103.707 42.3169C107.074 42.0775 110.501 39.8629 111.704 36.6906C112.366 35.0147 110.201 33.638 108.878 34.4161C107.254 35.3738 105.811 36.8103 103.827 37.1096C101.963 37.4088 101.602 36.2716 100.64 35.2541C101.482 33.7577 102.143 31.4233 101.602 29.9868C100.94 28.3707 98.6554 27.832 97.6933 29.5678Z" fill="#428975"/>
<path d="M60.5917 63.7452C62.3956 62.3087 60.4714 59.0765 58.3668 59.8547C57.0438 60.3335 52.5941 60.6926 52.0529 58.8969C52.0529 58.8371 52.0529 58.8371 52.0529 58.7772C52.0529 58.2385 52.8947 57.3407 52.7745 56.7422C52.5941 55.5451 52.8947 54.2881 52.2333 53.091C51.6319 52.0136 50.5496 51.5946 49.6476 50.8764C47.4828 49.2004 48.2645 49.3202 47.9639 46.6865C47.5429 43.5741 45.6187 43.0951 43.0931 42.4966C42.6722 42.3769 41.8304 42.9156 41.2892 42.9156C41.1689 42.9156 41.0486 42.9157 40.9885 42.8558C40.2669 42.377 40.3872 40.282 40.2669 39.0849C40.0264 36.3316 40.0264 33.7578 39.0643 31.1241C38.3427 29.0891 35.0354 28.6102 34.5544 31.1241C33.7726 35.1344 33.5321 42.4967 35.6969 46.2077C37.3806 49.2004 39.3048 48.4821 41.4696 48.4223C41.7101 48.4223 41.8905 48.4223 42.131 48.4223C42.1912 50.5771 41.1689 52.5523 43.3938 54.5874C43.8749 55.0662 46.8214 55.8444 47.0017 56.2035C47.0619 56.2633 47.0017 56.5028 46.8815 56.8021C46.5207 57.8196 45.6788 59.8547 45.6187 60.3335C45.4984 69.4315 56.202 67.2767 60.5917 63.7452Z" fill="#428975"/>
<path d="M128.06 31.1241C127.579 31.1241 127.158 31.0643 126.677 31.1241C126.076 31.184 125.535 31.3635 125.054 31.603C124.573 31.8424 124.092 32.2015 123.61 32.5008C121.085 34.2964 119.161 34.8351 116.154 35.314C114.11 35.6731 114.531 38.606 116.154 39.1447C117.236 39.5038 118.379 39.6236 119.582 39.5637C120.243 39.5039 120.965 39.3841 121.626 39.2644C123.37 38.8454 124.693 37.768 126.256 37.1096C127.639 36.5709 129.203 37.1096 130.526 36.3315C131.548 35.7329 132.029 34.6555 132.029 33.5183C132.029 33.219 131.969 32.8599 131.909 32.5607C131.488 31.0044 129.864 30.5854 128.601 31.1839C129.443 30.7649 128.722 31.0643 128.06 31.1241Z" fill="#428975"/>
<path d="M47.964 91.8792C49.4072 89.6646 49.6477 87.1507 48.6254 85.0557C53.9772 77.6337 46.2803 62.5503 36.178 65.4832C34.8551 65.9022 34.1335 67.0393 34.1335 68.2365C34.1335 68.9547 34.3741 69.673 34.9153 70.2716C37.08 72.606 47.8437 78.1126 40.3272 81.7638C39.1245 82.3623 38.5833 83.5594 38.5833 84.8164C38.5833 86.8514 40.0265 88.9463 42.1913 88.7069C42.2514 88.9463 42.3115 89.1259 42.4318 89.3653C41.2893 90.5624 41.2893 92.418 42.4318 93.6151C45.1378 96.548 39.0644 99.3612 37.6212 100.139C36.9598 100.498 36.6591 101.097 36.6591 101.755C36.6591 102.952 37.7415 104.209 39.1245 103.79C44.2959 102.174 50.0686 97.6852 47.964 91.8792Z" fill="#428975"/>
<path d="M89.9964 74.2211C88.914 74.1014 88.012 74.8796 87.8917 75.957C87.7715 77.0344 88.5532 77.9921 89.5754 78.1118C89.9362 78.1716 124.813 82.3016 135.998 103.849C141.65 114.743 140.327 128.39 132.149 144.491C129.203 146.047 127.098 147.484 126.136 148.202C123.49 150.177 117.717 156.642 111.043 164.124C102.744 173.401 90.1767 187.467 86.8093 188.485C85.7871 188.784 85.1858 189.861 85.4864 190.939C85.7871 191.956 86.8695 192.615 87.8917 192.256C91.9807 190.999 100.88 181.362 113.869 166.757C120.123 159.754 126.076 153.11 128.421 151.374C131.367 149.16 146.821 138.566 162.576 146.107C176.226 152.631 177.308 172.803 177.308 172.982C177.369 174.06 178.271 174.898 179.353 174.898C180.375 174.838 181.157 174 181.157 172.922C181.157 172.863 181.157 172.862 181.157 172.803C181.097 171.905 179.954 150.118 164.14 142.516C154.338 137.847 144.717 139.284 137.561 141.977C141.349 133.478 143.274 125.637 143.274 118.454C143.274 112.469 141.951 106.962 139.365 101.934C127.218 78.5906 91.4997 74.4007 89.9964 74.2211Z" fill="#428975"/>
<path d="M200.82 90.2016C202.324 96.9653 200.099 103.25 197.814 109.475C197.573 110.193 197.333 110.852 197.092 111.57C196.972 111.929 196.972 112.288 197.032 112.587C194.146 113.844 191.139 114.922 188.854 112.587C187.471 111.211 185.246 112.468 185.246 114.144C185.246 114.503 185.366 114.862 185.547 115.221C187.17 117.855 189.515 119.411 192.582 119.531C193.003 119.531 193.424 119.531 193.845 119.531C194.987 119.411 196.13 119.112 197.212 118.573C197.874 118.274 198.415 117.855 198.956 117.436C200.941 115.999 201.542 116.119 204.308 115.401C210.922 113.665 217.898 105.525 216.154 98.2821C215.493 95.4689 212.125 95.6485 210.682 97.5639C209.179 99.5391 209.239 100.976 208.758 103.43C207.856 108.038 206.232 109.774 201.722 110.852C204.849 104.926 206.894 98.9405 206.653 92.2368C211.885 91.5185 217.477 89.0644 219.642 84.1563C219.882 83.6774 219.942 83.1986 219.942 82.7197C219.942 80.7445 218.379 78.9489 216.214 79.6073C211.283 81.0438 206.833 84.7549 202.083 86.9097C201.722 87.0892 201.422 87.3286 201.241 87.6877C200.82 88.2863 200.64 89.3636 200.82 90.2016Z" fill="#428975"/>
<path d="M43.815 117.796C43.8752 117.676 43.8752 117.616 43.9353 117.556C45.1981 117.915 46.6413 117.975 47.904 117.856C51.3316 117.556 53.9173 116.12 55.4206 113.007C55.601 112.648 55.6611 112.229 55.6611 111.75C55.6611 110.673 55.1199 109.476 53.9774 109.356C52.1734 109.117 50.8505 109.117 49.1067 109.536C48.0844 109.775 47.2426 110.074 46.1602 110.015C45.2582 109.955 44.3562 109.595 43.4542 109.655C42.0712 109.715 40.5078 110.433 39.6058 111.571C39.3051 111.93 39.1247 112.409 39.0045 112.947C38.4031 112.169 37.9221 111.75 37.0802 111.212C35.9377 110.493 34.0736 111.331 34.0736 112.768C34.0736 112.828 34.0736 112.888 34.0736 112.947C34.4945 117.137 38.343 122.943 42.7327 119.053C43.0935 118.753 43.6346 118.274 43.815 117.796Z" fill="#428975"/>
<path d="M43.6943 135.094C44.1153 134.435 44.1754 133.837 44.3558 133.058C44.3558 132.759 44.4159 132.46 44.5362 132.161C44.6565 132.161 44.7166 132.22 44.897 132.22C46.5206 133.238 48.1441 134.495 49.9481 135.034C53.3757 136.171 56.3221 131.203 53.556 128.749C50.8501 126.355 47.0016 123.841 43.2734 125.397C41.7701 126.055 40.6276 127.312 39.9661 128.869C39.7256 129.407 39.6054 129.886 39.5452 130.485C38.7034 130.724 37.9818 131.502 37.9818 132.46C37.8014 135.513 41.5296 138.266 43.6943 135.094Z" fill="#428975"/>
<path d="M48.6257 162.208C48.9865 161.071 48.8662 159.814 48.325 158.737C47.9642 158.078 46.5211 157.181 46.3407 156.762C46.2204 156.343 46.942 154.427 47.0021 153.709C47.1224 152.272 46.8819 151.015 46.1603 149.758C44.0556 145.988 38.2829 149.459 40.5078 153.11C40.8085 153.649 40.3876 154.906 40.3274 155.564C40.2072 156.642 40.2072 157.779 40.568 158.797C40.6281 159.036 40.8085 159.216 40.8686 159.455C40.8085 159.575 40.6882 159.694 40.6882 159.814C38.8843 164.902 46.8217 167.236 48.6257 162.208Z" fill="#428975"/>
<path d="M53.2557 187.048C53.9773 185.192 53.0152 183.157 51.572 182.08C50.8504 181.481 49.9484 181.062 49.2269 180.464C48.3249 179.685 48.8059 180.164 48.8059 179.506C48.8059 178.488 49.287 177.471 49.1667 176.393C49.0465 175.196 48.6255 174.179 47.8438 173.341C46.6412 171.964 44.9575 171.246 43.2136 171.904C41.4698 172.563 41.109 174.717 42.3116 175.855C42.1312 176.274 42.011 176.633 41.8306 176.992C41.3495 178.189 40.9887 179.326 41.0489 180.643C41.1691 182.558 42.0711 184.294 43.3339 185.611C45.5588 187.826 51.3916 191.656 53.2557 187.048Z" fill="#428975"/>
<path d="M192.702 218.532C189.696 226.253 197.092 230.802 200.94 236.129C202.203 237.925 204.909 236.848 204.909 235.112C204.909 234.753 204.789 234.394 204.548 233.975C202.684 231.281 199.377 229.126 197.934 226.194C196.911 224.158 196.731 222.423 199.136 222.602C201.061 222.722 202.744 224.937 204.007 226.253C205.691 227.989 208.156 230.623 209.299 233.436C209.84 234.873 210.08 236.369 209.66 237.746C208.276 242.654 201.421 243.312 197.393 243.731C194.747 244.03 194.626 247.981 197.393 248.041C199.858 248.101 202.444 248.041 204.969 247.562C205.21 247.502 205.51 247.442 205.811 247.382C209.9 246.484 213.568 244.509 215.432 240.2C216.094 238.643 216.394 237.087 216.394 235.591C216.394 229.845 212.245 224.218 208.337 220.388C206.172 218.293 202.023 215.12 198.355 214.761C196.009 214.522 193.905 215.42 192.702 218.532Z" fill="#428975"/>
<path d="M107.074 244.629C104.969 245.348 104.007 247.263 104.428 249.418C104.428 249.657 104.428 249.897 104.428 250.136C104.428 250.555 104.368 250.914 104.368 251.333C104.368 251.992 104.488 252.59 104.669 253.129C104.488 254.924 106.413 256.301 107.976 255.463C108.036 255.463 108.096 255.463 108.096 255.463C108.637 255.403 109.058 255.164 109.539 254.865C110.321 254.386 110.983 253.608 111.343 252.77C112.125 251.034 112.125 249.178 111.764 247.323C111.343 245.348 108.938 243.971 107.074 244.629ZM107.435 255.403H107.375C106.473 255.343 106.894 255.403 107.435 255.403ZM105.21 254.146C105.15 254.086 105.15 254.086 105.09 254.027C105.09 253.967 105.09 253.967 105.03 253.907C105.09 254.027 105.15 254.086 105.21 254.146Z" fill="#428975"/>
<path d="M52.2332 274.557C51.8123 271.684 49.7077 269.589 49.3469 266.716C49.1064 264.921 46.4605 263.484 45.4984 265.639C44.5964 267.674 44.8971 269.41 45.8592 271.385C46.4004 272.462 47.1821 273.48 47.603 274.557C48.2645 276.293 47.6632 277.61 46.8213 279.166C45.5585 281.5 48.6854 283.176 50.1887 281.201C51.6319 279.286 52.594 277.011 52.2332 274.557Z" fill="#428975"/>
<path d="M196.851 281.381C200.519 282.218 204.428 282.458 208.216 282.937C209.419 283.116 210.622 283.236 211.824 283.416C211.884 283.296 211.945 283.236 212.005 283.176C211.945 283.236 211.945 283.296 211.884 283.356C211.584 284.553 210.441 285.81 209.9 287.067C207.134 293.711 211.945 300.654 214.47 306.699C215.192 308.495 218.078 307.537 218.078 305.801C218.078 305.622 218.018 305.382 217.958 305.203C217.056 302.869 216.154 300.534 215.192 298.2C214.35 295.985 213.869 294.668 213.989 292.154C214.23 288.982 214.23 290.06 215.552 288.144C216.755 286.408 218.499 284.373 218.499 282.099C218.499 281.62 218.439 281.081 218.258 280.602C217.236 277.789 214.29 277.49 211.764 277.131C206.954 276.532 201.602 276.353 196.851 277.49C194.987 277.969 194.987 280.962 196.851 281.381Z" fill="#428975"/>
<path d="M92.8826 308.672C91.6799 307.594 90.357 306.637 89.1544 305.499C87.7713 304.183 87.2301 302.447 85.6066 301.429C84.2837 300.591 82.6601 301.429 82.179 302.866C79.894 309.45 91.6799 311.186 92.161 316.932C92.3414 319.086 95.2879 319.685 95.9493 317.47C96.9114 314.059 95.2879 310.886 92.8826 308.672Z" fill="#428975"/>
<path d="M48.1444 325.193C49.0463 322.979 48.3849 320.764 46.6411 319.268C44.777 317.651 42.5521 317.771 40.2069 318.13C38.2225 318.43 38.3428 321.722 40.2069 322.081C40.7481 322.2 41.2291 322.32 41.7703 322.44C42.7926 322.739 42.973 322.919 42.2514 322.979C42.071 323.637 40.267 324.894 39.786 325.433C38.2225 327.228 36.8395 329.263 35.7571 331.418C35.2159 332.436 35.0957 333.752 35.7571 334.77C35.8172 334.89 35.9375 335.01 35.9976 335.129C36.4186 335.847 37.2604 336.326 38.1023 336.326C38.1624 336.326 38.1624 336.326 38.2225 336.326C38.3428 336.326 38.4029 336.326 38.5232 336.326C41.0488 336.207 42.0109 333.633 43.2135 331.598C44.5966 329.383 47.1221 327.647 48.1444 325.193Z" fill="#428975"/>
<path d="M206.954 337.404C207.856 342.133 210.441 346.323 214.651 348.537C216.875 349.675 218.8 346.323 216.575 345.126C212.606 342.911 211.163 338.901 211.464 334.472C211.704 330.461 214.47 327.109 213.989 323.099C213.749 320.944 210.862 318.909 209.179 321.064C205.991 325.074 205.931 332.377 206.954 337.404Z" fill="#428975"/>
<path d="M132.75 390.734C143.093 373.675 165.402 368.946 165.643 368.946C166.545 368.767 167.206 367.929 167.206 367.031C167.206 366.911 167.206 366.792 167.146 366.612C166.906 365.535 165.943 364.876 164.921 365.056C163.959 365.235 140.688 370.143 129.503 388.639C128.301 390.614 127.278 392.709 126.436 394.864C123.37 402.765 122.889 411.683 124.933 421.559C118.92 419.105 110.982 417.369 102.564 419.644C100.76 420.123 98.956 420.781 97.152 421.619C81.3372 429.161 80.1947 450.948 80.1346 451.906C80.0744 452.983 80.9163 453.941 81.9385 454C83.0209 454.06 83.9229 453.222 83.983 452.145C83.983 451.906 85.0654 431.794 98.7154 425.27C114.47 417.728 129.924 428.263 132.871 430.477C133.051 430.597 133.292 430.777 133.532 430.956C133.773 431.136 133.953 431.315 134.254 431.495C135.997 432.872 138.643 434.967 141.71 437.48C158.427 451.008 173.881 463.218 178.691 464.715C179.714 465.014 180.796 464.415 181.097 463.398C181.157 463.218 181.157 463.039 181.157 462.859C181.157 462.021 180.616 461.243 179.774 460.944C175.264 459.567 154.999 443.167 144.115 434.428C140.026 431.076 136.779 428.502 135.156 427.305C134.254 426.587 132.209 425.21 129.383 423.714C126.136 410.905 127.278 399.832 132.75 390.734Z" fill="#428975"/>
<path d="M216.755 385.528C216.274 383.313 216.335 381.099 216.395 378.824C217.236 378.106 217.657 376.969 217.657 375.772C217.657 374.694 217.297 373.557 216.515 372.779V372.719C216.515 372.48 216.575 372.3 216.575 372.001C216.515 371.402 216.395 370.804 216.214 370.205C215.914 368.709 215.312 367.212 214.35 365.836C212.666 363.501 209.479 365.477 210.622 368.11C210.862 368.649 211.524 369.966 211.885 371.163C210.021 371.282 208.277 373.198 208.036 375.113C207.916 376.31 208.397 377.567 209.9 378.405C210.862 378.944 211.644 379.243 212.546 379.363C212.426 381.817 212.426 384.331 213.087 386.546C213.749 389 217.297 387.982 216.755 385.528Z" fill="#428975"/>
<path d="M52.7741 378.885C55.2997 382.057 60.1704 378.585 59.2083 375.054C58.186 371.403 62.0946 370.445 65.0411 370.565C66.6647 370.625 67.3863 368.769 66.7849 367.512C66.5444 367.033 66.1836 366.674 65.5823 366.495C61.373 365.417 56.1415 366.315 53.3153 369.308C51.9924 368.769 50.4891 368.589 48.9858 369.248C47.9034 369.727 47.0014 370.385 46.3399 371.283C45.1974 370.684 43.9347 370.385 42.4915 370.744C39.4849 371.582 39.8457 374.575 37.5606 376.011C36.8992 376.43 36.5985 377.029 36.5985 377.628C36.5985 378.885 37.9816 380.142 39.4849 379.423C41.4091 378.585 43.2732 373.498 45.4981 376.55C46.5805 377.987 48.625 378.286 49.6472 376.55C50.3087 375.473 52.5937 378.705 52.7741 378.885Z" fill="#428975"/>
<path d="M41.7104 410.846C42.6725 407.075 42.913 403.723 42.6123 399.833C42.6123 399.713 42.6123 399.533 42.6123 399.414C42.6725 399.414 42.6725 399.414 42.7326 399.474C43.9353 400.312 45.3784 400.012 46.5811 399.474C48.6256 398.576 49.7681 396.66 50.189 394.506C50.3694 393.728 50.3093 393.069 50.3093 392.71C50.3093 392.052 50.4295 392.111 51.8126 393.308C53.3159 394.565 54.9996 395.703 56.6232 396.9C57.1644 397.319 57.7056 397.379 58.1265 397.259C59.6298 396.84 60.4115 394.386 58.7879 393.129C56.4428 391.393 52.3538 386.784 49.0465 387.802C48.0243 388.161 47.2425 388.879 46.7615 389.897C46.4007 390.555 46.4007 391.573 46.2804 392.47C46.2804 392.59 46.2203 392.77 46.2203 392.89C44.7771 391.692 43.3941 390.376 41.2293 390.256C38.8841 390.136 36.6592 391.393 35.637 393.608C34.9154 395.104 34.6147 396.78 34.6147 398.576C34.6147 403.065 36.4187 408.033 38.0423 411.445C38.7639 413.001 41.2293 412.462 41.7104 410.846Z" fill="#428975"/>
<path d="M219.882 412.641C219.882 411.803 219.461 410.965 218.559 410.726C217.718 410.546 216.876 410.367 216.034 410.187C215.553 408.81 214.831 407.374 214.531 406.057C214.591 405.937 214.651 405.878 214.711 405.758C216.575 406.117 218.259 405.638 219.822 402.945C220.003 402.586 220.123 402.226 220.123 401.927C220.123 400.85 219.221 399.832 218.078 399.772C216.515 399.712 215.132 399.174 213.809 398.456C213.448 398.216 213.027 397.977 212.606 397.737C211.283 396.899 210.021 395.822 208.818 394.924C205.932 392.769 203.105 390.555 200.159 388.46C199.317 387.861 198.475 387.981 197.934 388.52C196.972 389.358 196.671 391.213 197.994 392.29C201.061 394.625 204.188 396.959 207.315 399.234C206.593 400.79 206.834 402.765 208.638 403.603C208.157 404.561 208.157 405.638 208.638 406.476C208.998 407.194 209.66 407.733 210.502 408.092C211.704 408.511 212.185 411.564 212.426 412.581C212.606 413.24 213.208 413.958 213.869 414.078C215.252 414.317 216.635 414.497 218.018 414.676C219.221 414.736 219.882 413.659 219.882 412.641Z" fill="#428975"/>
<path d="M210.441 446.879C207.435 451.787 205.931 462.561 210.08 467.17C211.163 468.367 213.388 467.828 213.749 466.212C214.41 463.279 213.328 460.346 213.267 457.353C213.207 454.181 213.989 451.128 214.29 447.956C214.41 445.741 211.403 445.203 210.441 446.879Z" fill="#428975"/>
<path d="M105.631 496.677C105.631 495.36 105.691 494.043 105.871 492.786C106.112 491.29 106.533 490.033 106.112 488.537C105.571 486.681 103.586 486.382 102.203 487.519C101.482 488.118 101.061 488.896 100.7 489.853C100.039 489.734 99.3169 489.913 98.6555 490.452C95.4083 493.145 96.9718 502.842 102.083 502.184C104.909 501.765 105.631 499.131 105.631 496.677Z" fill="#428975"/>
<path d="M201.482 497.518C201.362 497.577 201.301 497.637 201.241 497.697C201.061 497.218 200.64 496.56 200.52 496.201C199.918 494.585 199.618 493.208 198.475 491.891C197.273 490.455 195.048 491.352 194.506 492.969C193.304 496.739 195.829 504.042 200.159 504.581C200.339 504.581 200.52 504.581 200.7 504.581C202.865 504.581 204.909 503.264 206.713 502.126C208.938 500.75 211.704 499.313 211.644 496.32C211.644 495.183 210.862 493.926 209.66 493.687C209.179 493.567 208.818 493.507 208.397 493.507C207.375 493.507 206.533 493.926 205.511 494.704C204.248 495.662 202.504 496.44 201.482 497.518Z" fill="#428975"/>
</svg>
