<svg width="260" height="264" viewBox="0 0 260 264" fill="none" xmlns="http://www.w3.org/2000/svg">
<path d="M135.658 32.9251C132.48 36.1636 127.202 36.1636 124.024 32.9251L109.33 17.9918C108.911 17.572 108.311 17.3322 107.711 17.3322H20.8106C19.5511 17.3322 18.4717 18.4117 18.4717 19.6711V106.751C18.4717 107.351 18.7115 108.011 19.1313 108.431L34.1245 123.664C35.6838 125.283 36.5234 127.322 36.5234 129.601C36.5234 131.88 35.6238 133.979 34.0645 135.538L19.1313 150.532C18.7115 150.951 18.4117 151.551 18.4117 152.211V242.05C18.4117 243.369 19.4311 244.389 20.7505 244.389H106.032C106.572 244.389 107.111 244.209 107.531 243.789L124.144 229.396C127.442 226.517 132.42 226.757 135.419 229.995L148.133 243.609C148.553 244.089 149.152 244.329 149.812 244.329H240.191C241.45 244.329 242.53 243.249 242.53 241.99V153.17C242.53 152.511 242.29 151.971 241.87 151.491L227.357 136.738C225.797 135.179 224.958 133.08 224.958 130.861C224.958 128.642 225.797 126.543 227.357 124.923L242.29 109.81C242.71 109.39 242.949 108.791 242.949 108.131V19.0714C242.949 17.752 241.93 16.7324 240.611 16.7324H152.511C151.911 16.7324 151.311 16.9723 150.891 17.3921L135.658 32.9251ZM21.4103 106.452V20.3308H107.411L115.567 28.607H35.9837C31.8455 28.607 28.4871 32.0255 28.4871 36.2236V113.708L21.4103 106.452ZM36.2236 121.505L31.4257 116.647V36.1636C31.4257 33.6447 33.4648 31.5457 35.9837 31.5457H118.506L121.925 35.0241C122.285 35.3839 122.704 35.6838 123.064 36.0436C122.644 36.2835 122.404 36.7633 122.404 37.2431V77.9646H80.4235C79.5839 77.9646 78.9242 78.6243 78.9242 79.4639V122.524H38.6825C38.2027 122.524 37.7829 122.764 37.543 123.124C37.1832 122.524 36.7633 121.985 36.2236 121.505ZM132.36 38.0227L129.721 40.3617L126.962 37.9628C128.702 38.4426 130.561 38.4426 132.36 38.0227ZM39.522 129.541C39.522 128.642 39.4021 127.742 39.2222 126.902L41.801 129.961L38.9223 133.379C39.2821 132.12 39.522 130.861 39.522 129.541ZM35.9837 233.174H115.328L105.792 241.45H21.4103V152.451L28.4871 145.374V225.617C28.4871 229.756 31.8455 233.174 35.9837 233.174ZM239.591 153.41V241.39H150.112L142.855 233.594H222.799C226.937 233.594 230.295 230.175 230.295 225.977V143.935L239.591 153.41ZM225.258 138.837L227.357 140.996C227.357 141.116 227.297 141.176 227.297 141.296V225.977C227.297 228.496 225.258 230.595 222.799 230.595H140.276C140.216 230.595 140.156 230.655 140.096 230.655L137.577 227.956C136.678 226.997 135.598 226.217 134.459 225.617C131.4 224.058 127.802 223.998 124.743 225.498C123.844 225.917 123.004 226.457 122.224 227.117L118.746 230.115H35.9236C33.4048 230.115 31.3658 228.076 31.3658 225.498V142.375L36.1035 137.637C36.5233 137.218 36.8832 136.738 37.243 136.318C37.243 136.378 37.2431 136.438 37.3031 136.498C37.5429 137.038 38.0827 137.398 38.6225 137.398H78.8641V181.717C78.8641 182.557 79.5238 183.217 80.3634 183.217H122.344V223.938C122.344 224.538 122.704 225.078 123.184 225.318C123.604 225.557 124.144 225.498 124.563 225.258C124.623 225.198 124.683 225.138 124.743 225.078L129.601 220.82L134.459 225.078C134.519 225.138 134.579 225.198 134.699 225.258C135.119 225.498 135.598 225.557 136.078 225.318C136.618 225.078 136.918 224.538 136.918 223.938V183.217H180.938C181.777 183.217 182.437 182.557 182.437 181.717V137.338H222.079C222.679 137.338 223.159 137.038 223.399 136.498C223.998 137.338 224.538 138.117 225.258 138.837ZM179.558 180.158H81.9228V80.9632H179.558V180.158ZM227.357 120.665L225.258 122.824C224.598 123.484 224.058 124.204 223.638 124.923C222.559 126.662 221.959 128.702 221.959 130.861C221.959 131.88 222.079 132.9 222.379 133.859L219.08 129.961L223.279 125.043C223.339 124.983 223.398 124.863 223.458 124.803C223.578 124.563 223.638 124.324 223.638 124.024C223.638 123.784 223.578 123.604 223.518 123.424C223.278 122.884 222.739 122.524 222.199 122.524H182.557V79.4639C182.557 78.6243 181.897 77.9646 181.058 77.9646H137.038V37.2431C137.038 36.8233 136.858 36.4035 136.498 36.1036C136.918 35.8038 137.338 35.4439 137.757 35.0241L141.596 31.1259H222.859C225.378 31.1259 227.357 33.165 227.357 35.7438V120.425C227.357 120.485 227.357 120.545 227.357 120.665ZM240.011 19.7311V107.831L230.295 117.667V35.7438C230.295 31.5457 226.937 28.1272 222.799 28.1272H144.474L152.751 19.7311H240.011Z" fill="#A28658"/>
<path d="M0 264H259.862V0H0V264ZM240.611 15.2331C242.71 15.2331 244.389 16.9723 244.389 19.0713V108.071C244.389 109.09 243.969 110.05 243.25 110.77L228.376 125.943C227.057 127.262 226.397 129.061 226.397 130.801C226.397 132.54 227.057 134.279 228.376 135.658L242.89 150.412C243.609 151.131 244.029 152.091 244.029 153.11V241.99C244.029 244.149 242.29 245.828 240.251 245.828H149.872C148.852 245.828 147.833 245.408 147.113 244.629L134.399 231.015C131.94 228.376 127.862 228.136 125.103 230.535L108.491 244.929C107.831 245.528 106.931 245.828 106.032 245.828H20.7505C18.6515 245.828 16.9724 244.089 16.9724 241.99V152.151C16.9724 151.131 17.392 150.112 18.1117 149.392L33.045 134.399C34.3045 133.139 35.0241 131.4 35.0241 129.541C35.0241 129.541 35.0241 129.541 35.0241 129.481C35.0241 127.622 34.3045 125.943 33.045 124.623L18.0519 109.39C17.3322 108.671 16.9124 107.711 16.9124 106.632V19.6711C16.9124 17.572 18.6516 15.8328 20.6907 15.8328H107.591C108.611 15.8328 109.57 16.2526 110.29 16.9723L124.923 31.8455C127.562 34.4843 131.82 34.4843 134.459 31.8455L149.692 16.3726C150.412 15.6529 151.371 15.2331 152.391 15.2331H240.611Z" fill="#A28658"/>
<path d="M155.389 40.4233H215.362C216.562 40.4233 217.641 40.9031 218.421 41.7427C219.2 42.5224 219.62 43.6019 219.62 44.8013V108.432C219.62 110.831 217.701 112.81 215.362 112.81H199.949C198.63 112.81 197.43 112.151 196.651 111.191C196.051 110.412 195.691 109.512 195.691 108.432V68.7904C195.691 68.1907 195.331 67.7109 194.791 67.531C194.492 67.591 194.192 67.591 193.892 67.471H155.389C153.05 67.471 151.131 65.4919 151.131 63.093V44.7414C151.131 42.3425 153.05 40.4233 155.389 40.4233ZM154.07 60.0944L158.028 56.0762H154.07V60.0944ZM159.467 64.4124L167.684 56.0762H162.226L154.43 63.9926C154.67 64.2925 155.03 64.4124 155.389 64.4124H159.467ZM171.522 64.4124L179.798 56.0163L171.882 56.0762L163.606 64.4724H171.522V64.4124ZM184.176 64.4124L192.513 55.9563L183.996 56.0163L175.72 64.4124H184.176ZM194.012 64.4124L202.348 55.9563H196.651L188.314 64.4124H194.012ZM206.786 102.975L200.129 109.752H206.786V102.975ZM206.786 90.2607L198.57 98.5969V107.053L206.786 98.7768V90.2607ZM206.786 78.9858L198.69 87.2621C198.69 87.2621 198.63 87.2621 198.63 87.322V94.3988L206.846 86.1226V78.9858H206.786ZM206.786 68.5506L198.57 76.8268V83.004L206.786 74.7277V68.5506ZM206.546 55.8963L197.131 65.4919C198.03 66.2716 198.63 67.471 198.63 68.7904V72.6887L206.846 64.3525V55.9563H206.546V55.8963ZM165.945 43.422L156.409 53.0776H161.027L170.502 43.422H165.945Z" fill="#A28658"/>
<path d="M65.3104 111.369H47.3186C44.9796 111.369 43.0604 109.45 43.0604 107.051V57.2139V46.1189C43.0604 44.9194 43.5402 43.8399 44.3798 43.0603C45.1594 42.2806 46.1791 41.8608 47.3186 41.8608H109.99C112.329 41.8608 114.248 43.78 114.248 46.1789V61.8917C114.248 64.2906 112.329 66.2697 109.99 66.2697H70.9478C70.3481 66.2697 69.8682 66.6296 69.6883 67.1693C69.6883 67.2893 69.7483 67.3493 69.7483 67.4692C69.7483 67.7091 69.6884 67.889 69.6284 68.0689V107.111C69.5685 109.39 67.6493 111.369 65.3104 111.369ZM58.7734 63.6909H62.6115L58.2935 59.3129L56.1944 57.2139H50.4971L57.5738 64.3506C57.8137 63.9908 58.2336 63.6909 58.7734 63.6909ZM70.7079 63.1512C70.7679 63.1512 70.8879 63.1512 70.9478 63.1512H74.786L71.0077 59.3129L68.9086 57.2139H60.3926L66.8097 63.6909H68.7887H68.8488C69.3885 63.3911 69.9882 63.2111 70.7079 63.1512ZM79.1641 57.2139H73.1068L78.9241 63.1512H84.9814L81.2031 59.3129L79.1641 57.2139ZM89.1196 63.0912C89.1196 63.0912 89.1194 63.1512 89.1794 63.1512H96.1363L92.358 59.3129L90.2591 57.2139H83.3022L89.1196 63.0912ZM96.7961 57.2139H94.457L100.274 63.1512H103.573V55.7145C103.573 55.2947 103.753 54.9349 103.993 54.635L111.189 47.3184C111.189 47.2584 111.25 47.2584 111.25 47.2584V46.0589C111.25 45.3393 110.65 44.7395 109.93 44.7395H109.57L97.7557 56.7341C97.5158 57.0339 97.1559 57.2139 96.7961 57.2139ZM45.9992 65.4301L57.3339 76.9449V68.3688L48.5179 59.3729L46.4188 57.2738H46.059V65.4301H45.9992ZM45.9992 77.7245L57.3339 89.2393V81.203L45.9992 69.7482V77.7245ZM45.9992 87.4401L57.3339 98.9549V93.4374L45.9992 81.9226V87.4401ZM57.2741 108.371V103.153L45.9391 91.6382V106.991C45.9391 107.711 46.5389 108.311 47.2585 108.311H57.2741V108.371Z" fill="#A28658"/>
<path d="M169.783 92.4177V168.763C169.783 168.943 169.783 169.183 169.663 169.363C169.483 169.723 169.243 170.022 168.883 170.202C168.704 170.262 168.524 170.322 168.284 170.322H93.1379C92.958 170.322 92.778 170.262 92.5381 170.202C92.1783 170.022 91.8786 169.723 91.7586 169.363C91.6986 169.183 91.6385 169.003 91.6385 168.763V92.4177C91.6385 92.2378 91.6387 92.0579 91.7586 91.818C91.9385 91.4581 92.1783 91.1583 92.5381 90.9783C92.718 90.9184 92.898 90.8584 93.1379 90.8584H168.284C169.123 90.9184 169.783 91.5781 169.783 92.4177ZM135.059 132.839V125.103H127.442L135.059 132.839ZM129.242 136.018V134.219L127.442 136.018H129.242ZM140.277 138.117V119.825H122.225L124.444 122.104H136.498C137.338 122.104 137.998 122.764 137.998 123.604V135.838L140.277 138.117ZM129.242 141.295V139.017H124.504L122.285 141.295H129.242ZM145.434 143.454V114.548H117.007L119.226 116.827H141.716C142.555 116.827 143.215 117.486 143.215 118.326V141.116L145.434 143.454ZM129.242 146.573V144.294H119.286L117.007 146.573H129.242ZM150.652 148.732V109.27H111.789L114.068 111.549H146.933C147.773 111.549 148.433 112.209 148.433 113.048V146.453L150.652 148.732ZM129.242 151.851V149.572H114.068L111.849 151.851H129.242ZM155.869 154.01V103.992H106.632L108.911 106.271H152.211C153.051 106.271 153.71 106.931 153.71 107.771V151.731L155.869 154.01ZM129.242 157.128V154.849H108.911L106.632 157.128H129.242ZM161.087 159.287V98.7148H101.414L103.633 100.994H157.309C158.148 100.994 158.808 101.653 158.808 102.493V157.008L161.087 159.287ZM129.242 162.406V160.127H103.693L101.414 162.406H129.242ZM94.6372 165.105L94.8171 164.925C94.7571 164.805 94.6972 164.745 94.6372 164.625V165.105ZM98.4755 165.405L96.6762 167.204H129.242V165.405H98.4755ZM96.6762 93.917L98.4755 95.7162H162.586C163.426 95.7162 164.086 96.3759 164.086 97.2155V162.286L166.844 165.105V93.917H96.6762Z" fill="#A28658"/>
<path d="M109.51 220.28H49.5377C48.3383 220.28 47.2587 219.8 46.4791 218.96C45.6994 218.181 45.2797 217.101 45.2797 215.962V152.271C45.2797 149.872 47.1988 147.953 49.5377 147.953H64.9508C67.2897 147.953 69.2088 149.932 69.2088 152.271V191.913C69.2088 192.692 69.8085 193.292 70.5282 193.292H109.45C110.83 193.292 112.029 193.952 112.809 194.971C113.349 195.691 113.708 196.591 113.708 197.61V215.902C113.828 218.301 111.909 220.28 109.51 220.28ZM48.2183 155.869L53.0761 150.951H49.5377C48.8181 150.951 48.2183 151.551 48.2183 152.271V155.869ZM48.2183 167.744L57.2743 158.568V150.951L48.2183 160.127V167.744ZM48.2183 180.458L57.2743 171.282V162.826L48.2183 172.002V180.458ZM48.2183 191.733L57.2743 182.557V175.54L48.2183 184.716V191.733ZM48.2183 202.168L57.2743 192.992V186.815L48.2183 195.991V202.168ZM48.2183 215.062L59.1933 203.907C58.0538 203.008 57.2743 201.628 57.2743 200.069V197.19L48.2183 206.366V215.062ZM55.9549 217.281L68.1293 204.927H62.4318L50.2574 217.281H55.9549ZM68.549 217.281L80.7234 204.927H72.2675L60.0928 217.281H68.549ZM80.6636 217.281L92.8381 204.927H84.9216L72.7472 217.281H80.6636ZM99.0152 217.281L110.83 205.227V198.21L102.673 203.967C101.834 204.567 100.934 204.807 99.9148 204.807H96.9762L84.8017 217.161H90.1992L97.216 210.024C97.8157 209.425 98.7153 209.425 99.315 210.024C99.6149 210.324 99.7349 210.684 99.7349 211.104C99.7349 211.464 99.6149 211.884 99.315 212.123L94.3972 217.161H99.0152V217.281ZM109.51 217.281C110.23 217.281 110.83 216.681 110.83 215.902V209.485L103.153 217.281H109.51Z" fill="#A28658"/>
<path d="M198.33 149.092H211.164H216.322C218.661 149.092 220.58 151.011 220.58 153.47V214.402C220.58 215.602 220.1 216.681 219.261 217.461C218.481 218.24 217.461 218.66 216.322 218.66H208.885H153.65C151.311 218.66 149.392 216.741 149.392 214.342V198.629C149.392 196.23 151.311 194.251 153.65 194.251H192.692C193.412 194.251 194.012 193.652 194.012 192.932V153.35C194.072 151.071 195.991 149.092 198.33 149.092ZM157.189 215.722L154.31 212.843H152.331V214.402C152.331 215.122 152.931 215.722 153.65 215.722H157.189ZM168.943 215.722L162.826 209.484L160.007 212.363C159.708 212.663 159.348 212.783 158.988 212.783H158.568L161.447 215.662H168.943V215.722ZM181.418 215.722L171.222 205.346H166.844L164.865 207.385L173.082 215.722H181.418ZM192.513 215.722L182.317 205.346H175.42L185.616 215.722H192.513ZM202.768 215.722L192.573 205.346H186.515L196.711 215.722H202.768ZM208.885 209.005L197.19 197.07L197.011 203.907C197.011 204.387 196.771 204.746 196.411 205.046L206.906 215.722H208.885V209.005ZM206.846 196.89L197.011 186.875V192.632L199.29 194.971L208.945 204.746V198.989L206.846 196.89ZM206.846 184.056L197.011 174.1V182.677L208.945 194.791V186.215L206.846 184.056ZM206.846 171.761L197.011 161.746V169.782L208.945 181.897V173.921L206.846 171.761ZM208.885 164.205L204.087 159.287L203.008 160.367C202.768 160.667 202.348 160.786 201.988 160.786H200.129L208.825 169.662V164.205H208.885ZM210.384 158.927H212.484L208.465 154.849L206.186 157.188L209.005 160.007C209.185 159.407 209.725 158.927 210.384 158.927ZM211.164 152.09L210.565 152.69L212.963 155.149V152.09H211.164Z" fill="#A28658"/>
</svg>
