<svg width="529" height="256" viewBox="0 0 529 256" fill="none" xmlns="http://www.w3.org/2000/svg">
<g clip-path="url(#clip0_258_7149)">
<rect width="256" height="529" transform="translate(529) rotate(90)" fill="white"/>
<path d="M529 255.447L-5.99998 255.447L-5.99997 0.999977L529 1L529 255.447ZM525.005 19.4876L0.719226 19.4875L0.719217 236.96L525.005 236.96L525.005 19.4876Z" fill="#428975"/>
<path d="M13.6723 227.229L512.049 227.229C513.139 227.229 514.047 226.378 514.047 225.283L514.047 187.092L514.047 179.064L514.047 31.1638C514.047 30.0692 513.139 29.2178 512.049 29.2178L13.6723 29.2178C12.5827 29.2178 11.6746 30.0692 11.6746 31.1638L11.6746 225.283C11.6746 226.378 12.5827 227.229 13.6723 227.229ZM330.629 223.337L318.038 223.337L290.676 223.337L265.857 223.337L243.702 223.337L219.73 223.337L174.814 223.337C175.117 222.668 175.056 221.938 174.33 221.209C168.7 216.1 172.514 209.411 176.085 204.424C176.206 204.302 176.206 204.181 176.267 203.998C179.717 203.694 182.925 203.573 185.65 203.998C188.252 204.424 190.734 205.032 192.914 205.579C197.635 206.796 200.783 207.586 202.478 205.458C205.323 206.735 205.686 204.971 208.35 204.91C212.224 204.789 214.827 209.593 218.883 208.924C220.82 208.62 221.97 207.343 222.817 205.701C224.633 202.356 223.362 202.539 227.297 203.816C228.326 204.12 229.234 204.667 230.324 204.667C232.685 204.789 234.682 203.451 235.772 201.444C236.619 199.802 236.195 198.403 236.438 196.7C236.922 193.234 235.893 194.937 238.677 193.234C241.038 191.835 242.491 190.193 243.338 188.43C249.755 188.977 255.93 185.389 257.625 179.004C258.048 177.483 256.838 176.51 255.566 176.51L255.506 176.51C254.719 176.51 253.932 176.936 253.569 177.909C252.116 182.044 248.544 184.781 244.125 184.538C244.065 181.983 243.096 179.247 241.401 176.328C241.099 175.78 240.614 175.537 240.13 175.415C238.617 175.111 236.68 176.267 237.406 177.97C238.798 181.314 239.706 182.227 237.769 185.815C233.714 193.417 237.588 186.727 234.682 189.038C233.411 190.072 232.14 190.011 231.05 191.714C230.021 193.417 230.808 197.309 228.75 197.856C227.963 198.038 224.936 196.092 223.726 196.153C218.762 196.336 219.185 202.174 216.159 202.721C213.98 203.147 212.527 200.836 210.347 200.532C208.41 200.289 205.142 202.417 203.749 201.87C203.447 201.748 203.144 201.748 202.841 201.809C202.539 200.653 201.933 199.133 200.904 197.369C212.103 195.059 223.786 187.031 227.902 176.388C228.871 173.895 225.178 172.8 223.786 174.686C220.578 179.125 217.854 183.321 213.374 186.727C209.016 190.011 204.112 192.139 198.846 193.599C197.03 190.376 195.396 186.909 194.124 183.2C196.788 184.902 200.117 185.876 203.083 184.598C205.444 183.625 205.505 181.862 207.079 180.281C207.2 180.159 207.26 180.037 207.321 179.977C207.381 180.037 207.563 180.098 207.866 180.098C209.076 180.159 209.621 180.585 210.832 180.402C216.461 179.612 215.856 174.138 217.854 170.246C219.004 168.057 221.062 164.591 218.883 162.949C218.459 162.644 217.914 162.34 217.127 162.219C215.251 161.793 213.737 162.523 212.648 163.982C211.074 166.05 209.5 168.665 209.258 171.341C209.197 172.314 209.439 173.165 209.076 173.348C208.713 173.53 206.776 172.8 206.171 172.922C204.476 173.105 203.023 174.138 202.054 175.476C201.025 176.875 200.965 178.821 198.846 179.429C197.454 179.794 195.153 178.639 193.822 178.274C193.337 178.152 192.914 178.213 192.49 178.395C190.311 170.854 189.16 162.401 189.039 153.218C189.584 154.374 190.492 155.408 191.945 156.441C195.396 158.874 200.238 158.692 203.689 156.381C207.381 153.887 209.076 149.448 208.652 145.191C210.166 149.387 212.285 153.34 215.069 156.989C216.522 158.874 218.096 160.638 219.851 162.158C225.542 167.51 232.745 171.341 240.675 173.348C243.762 174.138 246.971 174.625 250.3 174.807C252.055 174.929 253.75 174.929 255.385 174.747C257.927 174.564 260.349 174.078 262.649 173.409C262.77 173.53 262.83 173.652 263.012 173.713C265.554 174.99 274.453 179.004 267.734 183.99C267.068 184.477 265.433 183.625 264.768 184.173C263.133 185.45 261.68 185.754 261.014 187.943C260.288 190.193 261.741 190.741 261.862 192.687C262.104 193.052 262.467 193.356 262.83 193.599C262.407 193.964 261.922 194.329 261.499 194.694C261.075 197.065 258.775 199.984 257.685 202.113C255.809 205.762 260.288 209.228 263.436 206.492C266.281 209.532 266.402 212.512 263.799 215.431C262.952 216.83 264.223 218.837 265.736 218.837C266.099 218.837 266.523 218.715 266.826 218.472C270.639 215.675 273.787 211.782 273.424 207.525C273.363 207.282 273.363 207.039 273.303 206.856C273.061 205.519 272.516 204.12 271.487 202.721C270.397 201.201 269.065 200.228 267.673 199.62C269.187 196.944 270.337 194.085 269.913 191.714C269.913 191.592 269.126 190.072 268.521 189.099C269.671 188.916 271.85 187.7 272.213 187.396C278.569 181.619 272.94 175.294 267.249 171.767C271.366 169.821 274.877 167.084 277.661 164.043C280.446 161.002 282.565 157.718 283.957 154.495C286.62 148.414 287.165 142.272 285.833 136.859C286.015 136.981 286.257 137.102 286.499 137.102C290.131 137.771 288.739 139.109 287.71 142.515C286.681 145.921 285.954 148.231 286.56 151.941C287.347 156.989 289.647 161.428 294.974 162.644C299.938 163.8 302.057 156.32 297.093 155.164C293.461 154.313 293.763 146.103 294.006 143.731C294.127 142.15 295.337 139.292 295.216 137.711C295.035 135.765 294.732 134.974 293.521 133.575C293.279 133.271 291.281 132.359 290.555 132.541C290.918 131.386 291.463 128.649 291.403 128.163C291.342 127.737 291.1 127.372 290.797 127.068C290.797 127.007 290.797 126.946 290.737 126.825C292.311 127.007 293.763 126.886 294.671 126.095C295.035 125.791 295.337 125.365 295.519 124.879C295.943 127.433 296.911 130.109 298.606 133.149C300.301 136.129 302.722 138.136 305.689 139.353C304.841 140.022 304.296 141.055 304.115 142.272C304.054 142.272 303.933 142.697 303.812 142.941C303.752 142.941 303.509 143.184 303.449 143.184C303.267 143.366 303.025 143.792 302.843 143.914C302.48 144.157 301.693 144.279 301.27 144.461C299.575 145.191 297.819 146.894 298.001 148.84C298.182 150.299 300.241 151.698 301.451 150.238C302.117 149.448 302.42 149.144 303.449 148.961C304.599 148.718 305.689 149.204 306.839 148.9C309.321 148.231 311.379 145.921 311.802 143.427C311.984 142.576 311.863 141.724 311.621 140.934C317.069 141.724 323.304 141.238 329.418 140.569C328.631 140.934 327.905 141.238 327.36 141.481C324.999 142.576 322.941 143.974 321.185 145.738C320.64 146.285 319.188 148.596 318.522 148.9C317.311 149.509 315.677 148.536 314.466 148.536C310.229 148.657 307.807 151.698 307.02 155.59C307.02 155.772 307.02 155.894 307.02 156.016C304.357 158.023 302.662 160.638 302.057 163.8C301.814 164.895 301.754 165.989 301.814 167.084C301.027 167.145 300.18 167.449 299.514 167.935C296.003 170.611 289.284 164.043 285.712 163.192C283.17 162.584 281.354 163.192 279.962 164.651C279.356 165.32 278.872 166.111 278.388 167.084C277.298 169.334 279.719 171.463 281.778 170.246C281.475 170.368 281.414 170.125 281.899 170.185C282.02 170.125 282.141 170.064 282.262 169.942C282.141 170.064 282.02 170.125 281.959 170.185C282.141 170.246 282.443 170.307 282.867 170.49C284.26 171.219 285.894 171.706 287.286 172.496C289.526 173.713 291.645 175.051 294.187 175.72C295.761 176.145 297.274 176.206 298.727 176.084C298.122 181.436 294.611 186.301 290.616 189.889C288.678 191.592 291.524 194.268 293.461 192.687C298.667 188.369 301.754 182.896 304.175 176.936C307.565 184.963 313.437 191.896 314.406 193.052C315.495 194.268 315.435 197.005 315.071 199.924C315.071 199.924 315.071 199.924 315.071 199.984C314.829 202.052 314.345 204.241 313.982 206.127C312.832 211.965 311.863 216.526 315.071 217.925C315.798 218.229 316.706 218.35 317.856 218.35C320.277 218.35 323.849 217.742 329.055 216.83C330.023 216.648 331.052 216.465 332.081 216.283C331.295 217.681 330.629 219.141 329.902 220.601C329.66 221.452 329.902 222.607 330.629 223.337ZM103.626 182.287C105.623 187.882 107.682 193.599 105.926 195.91C103.747 198.768 94.6668 198.038 85.8894 197.248C78.0805 196.579 70.0295 195.91 63.3707 197.065C56.3488 198.342 50.7797 199.194 49.2058 197.613C48.1767 196.579 48.1162 193.842 49.0242 189.16C50.6586 180.706 49.0847 173.834 47.3292 165.928C46.3002 161.307 45.0894 156.016 44.363 149.691C43.8182 145.191 44.4841 142.15 46.4212 140.265C50.2954 136.494 59.6782 137.467 69.5452 138.44L72.0271 138.684C78.2621 139.353 83.8313 136.981 87.4028 132.359C87.6449 132.116 87.8265 131.812 88.0081 131.507C88.7345 130.413 89.3399 129.257 89.8847 127.98C93.2141 119.831 90.8532 110.587 84.1339 105.479C77.1119 100.188 69.5452 100.979 62.8864 101.648C57.3173 102.256 52.4746 102.742 49.2058 99.5192C44.6657 95.0797 48.1161 89.1199 53.0194 81.8222C54.5933 79.5112 55.9856 77.5043 56.6514 75.7407C57.9832 72.2743 57.0147 68.6255 56.2278 65.6456C55.7435 63.8819 55.1987 61.6926 55.7435 61.2669C56.8331 60.4763 60.2835 60.9628 63.9761 61.5102C67.7898 62.0575 72.5719 62.7265 78.02 62.6657C82.1363 62.6048 86.7369 60.9628 91.1558 59.4425C101.689 55.7936 108.469 54.0908 113.19 61.2669C116.883 66.9227 113.311 75.1934 109.921 83.2817C107.076 89.9105 104.231 96.7217 105.563 102.134C106.108 104.263 107.318 106.148 109.377 107.729C115.37 112.229 124.086 105.54 137.222 95.4446C138.372 94.5932 139.523 93.681 140.733 92.7688C159.136 78.7206 185.771 59.929 218.883 60.4155C276.209 61.3886 305.386 83.7682 305.689 84.0115C305.991 84.2548 306.294 84.3156 306.597 84.3764C306.657 85.7143 306.657 87.0522 306.536 88.4509C306.354 90.7011 305.931 92.8296 305.325 94.7756C303.449 94.2891 259.077 82.7952 239.283 104.323C230.021 114.419 226.147 124.879 227.963 134.487C229.658 143.305 235.953 150.603 246.184 155.712C247.697 156.441 249.452 156.198 250.663 154.982C251.874 153.826 252.177 152.124 251.45 150.664C249.452 146.589 248.181 140.447 253.448 134.305C258.472 128.406 265.312 128.467 269.005 128.953C275.301 129.866 280.385 133.332 281.838 136.19C282.928 144.339 279.356 150.36 276.148 153.948C270.458 160.334 261.136 164.651 252.903 164.651C240.917 164.651 224.694 158.57 218.701 141.42C212.648 124.271 222.515 107.607 231.777 96.6001C237.769 89.5456 249.271 87.2955 256.898 85.7751C262.467 84.6804 265.312 84.1331 266.099 82.1263C266.341 81.6397 266.523 80.5451 265.676 79.3896C261.741 73.9771 218.762 68.0173 191.098 74.4636C176.025 77.9909 158.167 87.113 144.85 96.4784C135.77 102.925 128.748 109.371 126.205 114.297C124.934 116.73 124.692 118.858 125.418 120.683C126.205 122.568 127.9 123.845 130.14 124.757C135.709 126.946 144.91 126.703 153.869 126.46C160.891 126.277 169.669 126.034 171.424 127.676C174.451 130.474 174.451 133.879 174.511 141.359C174.511 145.252 174.572 150.117 175.056 156.32C175.843 165.685 178.567 174.382 180.807 181.375C182.26 185.876 184.015 191.47 183.349 192.504C182.26 193.356 175.904 193.234 170.758 193.052C168.882 192.991 166.884 192.93 164.826 192.93C163.01 192.869 161.133 193.052 159.317 193.173C154.656 193.477 150.237 193.781 147.695 191.531C143.215 187.396 142.912 182.105 142.61 175.902C142.247 168.908 141.823 161.063 135.467 153.097C130.14 146.529 123.421 143.488 116.459 144.643C109.135 145.86 102.718 151.637 100.115 159.239C97.9963 166.597 101.023 174.929 103.626 182.287ZM73.0562 121.291C69.4242 119.223 65.6105 117.216 63.0075 113.871C62.947 113.811 62.8865 113.75 62.8259 113.689C63.2497 113.689 63.6129 113.689 64.0366 113.689C75.0538 113.689 79.5333 114.358 79.7149 121.047C79.7754 122.872 79.1701 123.541 78.7463 123.967C77.7778 124.818 76.0223 125.122 73.8431 125.183C74.6906 124.027 74.7512 122.264 73.0562 121.291ZM27.9583 76.2881C28.8663 73.369 30.6218 70.8756 32.6194 68.5646C35.6461 65.0374 39.2782 62.1791 42.9708 59.3209C43.6367 58.8343 43.8182 57.9829 43.6972 57.1924C43.455 55.9761 42.4865 54.8814 41.2152 55.003C38.6728 55.4896 36.0699 55.4896 33.5275 55.003C30.9851 52.9354 31.1666 51.7799 34.0723 51.5366C36.6147 49.2257 42.2444 50.2595 45.6948 50.6852C45.6343 52.3272 45.9975 54.3341 46.3607 56.645C46.4212 57.1315 46.5422 57.6789 46.6028 58.2262C47.4502 62.9089 48.6004 69.2944 46.966 71.4229C46.179 72.4568 42.0022 78.0517 38.9755 84.9237C38.1886 83.2209 35.6461 82.3695 33.8301 83.5858C32.0746 82.4911 29.169 83.2209 28.7452 85.4102C29.29 82.4303 26.8687 79.8153 27.9583 76.2881ZM278.993 125.73C276.451 123.662 273.606 122.081 270.579 121.047C272.94 120.074 274.453 116.973 272.092 114.723C270.095 112.777 267.976 110.891 265.312 109.918C263.496 109.249 261.983 109.249 260.409 109.432C259.622 108.398 258.351 107.851 257.019 107.972C256.898 107.364 256.535 106.878 256.051 106.634C269.187 100.31 286.802 100.371 301.149 104.688C300.967 105.053 300.725 105.479 300.543 105.905C299.756 107.486 298.909 109.006 298.182 110.587C297.759 110.101 297.093 109.797 296.245 109.979C294.308 110.405 293.521 110.891 292.311 112.533C291.463 113.689 291.524 117.885 290.858 118.372C289.647 119.284 284.017 114.054 280.022 118.919C278.085 121.291 278.025 123.845 278.993 125.73ZM246.123 118.068C246.486 117.581 246.789 117.095 247.092 116.547C247.636 115.513 247.031 114.175 246.123 113.689C247.879 111.925 249.816 110.344 251.934 108.945C251.208 110.283 250.966 111.864 251.692 113.202C251.995 113.75 252.479 114.115 252.963 114.358C253.266 116.182 254.719 117.824 256.777 117.703C258.533 117.581 260.651 116.73 262.286 117.095C263.86 117.459 265.131 118.858 266.22 119.953C261.317 119.162 256.232 119.831 251.632 122.02C250.845 122.385 250.118 122.75 249.452 123.237C249.392 122.203 248.847 121.291 247.636 121.108C247.031 120.987 247.152 120.622 247.092 119.953C247.031 119.101 246.668 118.493 246.123 118.068ZM246.184 125.73C244.67 127.129 243.46 128.71 242.491 130.413C242.128 129.744 241.401 129.257 240.554 129.257C239.949 129.257 239.343 129.501 238.92 129.926C238.798 128.345 238.92 126.642 239.404 124.818C240.07 125.122 240.857 125.244 241.704 125C242.37 124.818 242.915 124.453 243.52 124.027C244.125 124.818 244.973 125.426 246.184 125.73ZM207.381 140.447C206.836 139.413 206.231 138.44 205.565 137.528C202.418 133.149 200.48 133.454 201.57 127.372C202.236 123.784 203.931 120.074 200.057 117.338C198.483 116.243 196.485 116.79 194.911 116.061C188.434 113.081 192.429 110.101 192.308 105.357L192.308 105.297C192.55 105.297 192.793 105.297 193.095 105.175C195.335 104.323 198.241 102.925 200.238 104.932C201.631 106.33 203.326 108.52 202.72 110.527C201.873 113.628 206.715 114.966 207.684 112.351C207.744 112.229 207.805 112.047 207.805 111.925C208.471 107.851 206.11 104.263 203.083 101.587C199.633 98.4853 195.274 99.7016 191.521 101.587C190.734 99.3367 189.221 97.1474 187.102 96.5392C185.407 96.0527 183.712 96.9649 182.26 97.5123C179.354 98.6069 180.383 99.4583 175.904 100.735C170.395 102.317 170.395 101.04 165.492 99.0326C164.281 98.5461 163.07 98.6678 162.162 99.2759C160.71 100.188 160.104 102.134 161.617 103.898C164.463 107.182 167.55 109.432 172.15 109.797C176.933 110.162 178.385 107.668 182.32 106.634C185.286 105.844 185.286 99.6408 184.499 108.216C184.318 109.918 183.349 113.263 183.349 115.209C183.41 117.399 183.652 119.223 184.984 120.804C185.165 121.047 185.407 121.291 185.65 121.473C187.708 123.298 189.342 122.811 191.824 123.48C192.793 123.358 193.761 123.176 194.669 122.811C194.911 124.271 195.214 125.791 195.456 127.251C195.396 128.953 193.943 130.656 193.882 132.481C193.822 134.487 194.306 135.947 195.335 137.65L195.396 137.711C196.243 138.684 197.09 139.657 197.938 140.63C200.723 142.819 199.996 145.252 195.638 147.988C194.851 147.562 194.185 140.873 193.943 139.839C193.882 139.596 193.822 139.353 193.701 139.17C192.732 137.589 189.766 138.38 189.705 140.386C189.645 141.785 189.403 143.123 189.1 144.461C189.463 133.149 187.223 126.217 183.894 121.412C181.775 118.372 179.172 116.304 176.509 114.479C172.816 111.986 166.218 111.256 160.407 110.527C157.077 110.162 152.114 109.554 151.327 108.824C151.145 108.033 153.022 104.323 162.041 99.0934C167.974 95.6878 176.993 91.6133 190.432 87.2347C219.851 77.7476 233.169 80.91 236.498 82.6128C235.832 83.0993 234.985 83.6466 234.137 84.1939C227.842 88.3293 215.493 96.4784 209.439 112.473C209.379 112.594 209.318 112.716 209.258 112.837C208.471 114.905 207.805 117.094 207.26 119.466C205.807 126.703 205.807 133.818 207.381 140.447ZM334.261 150.603C334.079 150.603 333.897 150.603 333.655 150.603C330.447 150.603 327.057 150.603 323.667 150.846C324.091 150.117 324.454 149.326 324.999 148.657C326.633 146.65 328.873 145.434 331.355 144.522C331.779 144.339 333.111 143.853 334.442 143.427C333.837 144.704 333.474 146.103 333.111 148.171C332.929 149.265 333.474 150.178 334.261 150.603ZM510.052 223.337L445.462 223.337L381.659 223.337L347.578 223.337L339.951 223.337C339.951 223.276 340.011 223.216 339.951 223.155C339.769 221.938 339.285 221.391 338.498 220.479C338.014 219.992 337.651 219.323 337.59 218.654C337.53 217.986 337.227 217.377 336.803 216.952C336.924 216.587 337.045 216.283 337.166 215.918C337.227 215.735 337.227 215.553 337.227 215.371C341.585 214.702 346.125 214.215 350.181 214.276C350.06 214.458 349.878 214.641 349.636 214.823C349.031 215.249 348.305 215.492 347.699 215.918C346.125 216.952 345.096 218.411 345.036 220.296C344.975 221.999 346.246 222.851 347.578 222.851C348.91 222.851 350.302 221.999 350.423 220.296C350.423 220.296 351.089 219.871 351.21 219.81C351.997 219.384 352.724 218.837 353.329 218.229C354.297 217.256 354.842 215.979 354.661 214.762C357.627 215.31 360.775 216.344 364.043 217.438C369.552 219.263 375.484 221.209 381.659 221.209C386.804 221.209 392.131 219.871 397.519 215.979C398.003 215.675 398.366 215.31 398.79 214.945C399.759 217.499 402.664 218.837 405.388 218.229C407.446 217.742 408.294 215.31 407.325 213.668C406.478 212.269 404.662 211.843 403.209 212.451C403.209 212.33 403.209 212.208 403.209 212.147C403.391 210.992 404.359 210.445 404.843 209.472C405.328 208.62 405.025 207.647 404.42 207.039C405.872 203.147 405.933 199.011 405.509 195.119C405.328 193.052 404.964 191.045 404.722 189.22C403.754 183.382 403.33 179.733 405.63 178.395C407.023 177.605 411.139 180.828 415.618 184.477C415.861 184.72 416.163 184.903 416.405 185.146C422.156 189.828 429.844 196.153 440.437 202.356C456.176 211.539 478.332 220.357 510.052 223.216L510.052 223.337ZM510.052 201.383L510.052 213.85C474.094 213.729 446.854 194.39 427.665 179.125C426.696 178.335 425.667 177.544 424.759 176.814C423.791 176.084 422.883 175.294 421.975 174.564C408.778 163.922 400.061 156.806 393.584 161.185C385.17 166.78 387.531 175.233 389.831 183.382C391.768 190.193 393.705 197.187 389.528 202.843C383.717 210.749 374.213 207.83 364.104 204.728C359.08 203.208 353.934 201.626 349.334 201.566C343.22 201.444 337.832 202.174 333.474 202.721C329.055 203.329 325.181 203.816 323.788 202.904C323.183 202.478 323.667 200.897 324.333 198.647C325.241 195.667 326.331 192.018 324.817 188.43C324.03 186.666 322.517 184.659 320.701 182.348C315.132 175.111 311.258 169.212 316.343 164.834C320.156 161.55 325.725 162.036 332.203 162.644C339.709 163.374 348.183 164.104 355.992 158.935C363.135 154.191 365.98 145.616 363.075 137.711C360.109 129.561 352.058 124.879 342.554 125.73L339.709 125.973C328.026 127.068 316.948 128.041 312.711 123.723C310.895 121.838 310.229 118.919 310.773 114.723C311.621 108.398 312.953 103.107 314.163 98.4853C316.221 90.5186 317.977 83.6466 316.161 75.1326C315.192 70.6932 315.192 68.0173 316.222 66.9227C317.977 65.0982 324.515 65.9496 332.808 67.2267C340.314 68.443 349.455 67.7132 358.232 67.0443C368.341 66.3145 378.753 65.4631 381.356 68.5038C383.293 70.754 381.054 76.1664 378.753 81.9438C375.727 89.3632 372.337 97.7555 375.121 104.932C377.966 112.29 384.928 117.885 392.797 119.345C400.727 120.743 408.536 117.824 414.65 111.135C421.914 103.168 422.338 95.2622 422.761 88.2077C423.125 81.8222 423.427 76.7746 428.512 72.6392C431.478 70.2675 438.5 72.5176 445.28 74.7069C447.278 75.3759 449.275 75.984 451.213 76.5313C457.024 78.1733 462.774 78.4774 466.951 78.6598C469.373 78.7815 472.46 78.9031 473.065 79.3896C475.547 81.5789 474.276 95.0189 473.005 108.033C472.823 109.979 472.581 111.986 472.399 113.993C471.673 121.777 472.339 127.98 472.884 132.967C473.61 140.022 473.852 143.245 471.007 145.191C455.813 155.529 440.558 152.428 429.481 150.178C421.551 148.536 415.255 147.319 412.894 152.367C412.289 153.644 412.471 155.164 413.379 157.05C415.134 160.698 420.34 166.354 428.088 172.618C429.178 173.53 430.389 174.442 431.599 175.355C446.794 186.788 470.039 199.68 496.976 206.674C499.156 207.221 501.395 206.552 502.787 204.85C503.574 203.877 503.998 202.66 503.998 201.444C503.998 200.593 503.817 199.741 503.393 198.951C500.003 192.565 491.891 185.085 479.24 176.753C470.16 170.733 464.712 167.145 461.503 164.895C466.528 164.651 471.007 164.165 474.155 163.192C488.501 170.307 506.177 184.903 509.809 188.004L509.809 201.383L510.052 201.383ZM340.496 139.657C340.375 139.535 340.254 139.413 340.072 139.292C344.915 138.927 348.97 139.048 350.726 140.569C351.15 140.934 351.694 141.664 351.634 143.245C351.452 149.509 346.973 150.482 336.016 150.603C336.198 150.542 336.379 150.421 336.5 150.238C338.861 147.927 343.643 143.123 340.496 139.657ZM461.867 177.97C469.373 182.348 481.661 189.585 482.932 192.383C479.361 193.66 460.656 181.801 440.619 165.746C441.345 165.685 442.193 165.624 443.101 165.503C446.067 168.726 453.452 173.044 461.867 177.97ZM510.052 182.835C503.998 177.848 490.62 167.388 478.513 160.881C478.937 160.516 479.3 160.151 479.664 159.725C484.748 162.766 502.061 173.165 509.991 179.916L509.991 182.835L510.052 182.835ZM278.993 33.1099L289.042 33.1099L301.33 33.1099L325.423 33.1099L414.65 33.1099L414.832 33.1099L425.97 33.1099L443.101 33.1099L459.808 33.1099L509.931 33.1099L509.931 63.882L509.931 93.1945C509.931 93.1945 509.931 93.1337 509.87 93.1337C508.659 91.9174 507.206 91.1876 505.633 90.9443C505.269 87.8428 504.725 84.7413 503.696 81.7614C502.848 79.3288 499.398 80.3626 499.761 82.7952C500.185 85.3494 500.548 87.9036 500.608 90.4578C500.669 91.4309 500.729 92.4039 500.669 93.4377C500.669 94.7148 501.88 96.1136 503.272 95.9311C504.059 95.8703 504.664 95.8703 505.148 96.6001C506.48 98.4853 508.659 98.1812 509.809 96.965L509.809 120.743C509.265 120.257 508.478 119.953 507.691 120.196C506.904 120.439 506.541 120.926 505.996 121.473C505.996 121.473 505.633 121.777 505.512 121.899C505.027 122.203 504.482 122.264 503.938 122.203C502.909 122.02 501.88 122.385 501.516 123.358C501.335 123.784 501.335 124.21 501.395 124.635C501.516 125.122 501.819 125.548 502.303 125.852C503.877 126.703 505.693 126.703 507.328 126.034C508.175 125.669 509.144 125.061 509.809 124.271L509.809 174.868C506.843 172.618 503.211 170.064 499.519 167.631C499.64 167.631 499.821 167.692 499.942 167.631C501.94 167.51 502.848 165.746 502.061 164.043C500.911 161.611 500.245 159.725 500.427 156.989C500.548 155.043 501.335 153.157 501.335 151.09C501.274 148.475 496.916 138.805 500.124 138.988C501.879 139.109 502.666 136.798 501.516 135.643C499.942 134.062 497.824 133.758 495.947 134.67C495.523 134.913 495.1 135.156 494.736 135.521C492.012 137.893 492.557 141.603 493.707 144.583C494.252 145.921 494.555 147.137 494.736 148.292C494.252 148.231 493.768 148.171 493.223 148.11C492.618 148.049 492.073 147.988 491.528 148.11C490.62 148.231 490.075 148.718 489.531 149.448C489.107 150.056 489.107 151.09 489.531 151.637C489.954 152.245 490.439 152.732 491.165 152.914C491.831 153.097 492.557 152.975 493.223 152.914C493.768 152.914 494.252 152.853 494.736 152.732C494.615 153.522 494.494 154.313 494.252 155.225C493.828 157.171 493.284 159.117 493.465 161.124C493.586 162.219 493.95 163.313 494.434 164.286C489.107 160.881 484.325 158.023 481.843 156.502C485.838 149.752 487.715 138.38 487.109 123.906C487.049 122.507 486.928 121.108 486.867 119.77C486.625 116.79 486.322 113.871 486.02 111.074C485.717 108.52 485.475 106.026 485.293 103.594C484.567 94.2891 484.99 85.8359 490.499 77.626C494.615 71.4838 495.584 68.6255 494.192 66.6186C493.647 65.8888 492.92 65.4023 492.012 65.2807C491.952 65.2807 491.831 65.2199 491.77 65.2199C489.894 64.9158 487.17 65.5239 483.538 66.3145C481.056 66.8619 478.271 67.5308 475.244 67.9565C469.736 68.7471 460.777 65.5848 452.121 62.544C440.316 58.4087 428.028 54.0908 420.34 57.9221C419.795 58.1654 419.251 58.5303 418.766 58.956C413.984 62.7873 412.471 71.7878 410.836 81.214C409.989 86.0792 409.141 91.066 407.81 95.2013C407.325 94.8365 406.72 94.654 405.994 94.9581C405.751 95.0797 405.509 95.1405 405.267 95.2622C405.267 95.2622 405.267 95.2622 405.207 95.2622C405.146 95.323 404.964 95.323 404.964 95.3838C404.783 95.4446 404.662 95.5054 404.48 95.5662C404.42 95.5662 404.177 95.627 404.117 95.627C403.875 95.627 403.572 95.5662 403.512 95.627C403.391 95.627 403.33 95.5662 403.269 95.5662C403.148 95.5054 402.906 95.323 402.906 95.323C401.575 94.4716 399.637 95.0797 398.911 96.3568C398.124 97.6947 398.608 99.5192 399.94 100.31C401.393 101.222 403.572 101.404 405.388 100.857C404.541 102.317 403.451 103.533 402.24 104.263C400.424 105.418 398.245 105.601 395.461 104.871C392.434 104.08 390.497 102.742 389.528 100.857C387.531 97.0258 389.407 90.8835 391.768 84.6805C391.768 84.8629 391.708 84.9845 391.708 85.167C391.708 86.809 392.676 88.3293 394.068 89.1807C395.461 90.0321 397.035 90.0929 398.669 89.8497C400.001 89.6064 401.756 89.3632 402.906 88.6942C404.541 87.7212 405.086 85.2886 403.572 83.9507C402.361 82.856 401.03 82.552 399.456 82.9168C399.153 82.9777 398.911 83.0993 398.669 83.2209C398.669 82.9168 398.608 82.6128 398.487 82.3087C398.245 81.3357 397.398 80.5451 396.429 80.3018C396.248 80.241 394.432 79.6329 394.432 79.7545C394.25 79.5112 394.129 79.3896 393.947 79.268C395.279 75.7407 396.429 72.396 396.792 69.3552C397.579 69.7201 398.427 69.9634 399.214 70.085C401.332 70.4499 403.451 69.1728 403.451 66.9227C403.451 64.7334 401.332 63.3346 399.214 63.7603C397.761 64.0644 396.369 63.0306 395.279 61.8751C394.916 61.3886 394.492 60.9629 394.008 60.5372C384.988 53.057 367.131 54.9422 351.452 56.5842C348.305 56.8883 345.217 57.2532 342.433 57.4356C335.29 57.983 326.754 55.672 318.946 53.3611C319.49 53.3611 320.035 53.3611 320.58 53.3611C324.696 53.057 331.113 50.5636 332.687 46.489C334.321 42.1712 329.66 37.6101 326.27 35.4208C325.967 35.2384 325.604 35.1168 325.302 35.1168C323.909 35.1168 322.517 36.8196 323.486 38.1575C323.607 38.3399 323.728 38.4615 323.849 38.644C323.486 38.8872 323.183 39.2521 323.001 39.617C322.033 41.6239 322.517 42.7186 319.914 42.7794C318.461 42.8402 317.13 42.7186 315.919 43.0834C314.345 41.7455 312.347 40.8941 310.41 40.0427C308.11 39.0697 304.357 38.5832 303.025 36.333C302.601 35.6641 301.936 35.4208 301.27 35.4208C299.938 35.4208 298.667 36.4547 299.211 37.9142C300.301 40.7725 302.42 42.1712 305.083 43.5091C307.505 44.7254 309.805 46.5499 312.226 47.7661C312.226 48.9824 312.711 50.2595 313.679 51.2326C313.982 51.5366 314.345 51.7799 314.648 52.0231C306.294 49.5298 300.301 48.0094 297.456 50.8677C296.79 51.5366 296.427 52.2664 296.185 53.1178C296.064 53.1178 295.943 53.057 295.761 53.057C291.16 52.6921 284.441 43.7524 289.829 40.59C291.524 39.5562 290.979 36.6979 288.86 36.6979C288.8 36.6979 288.8 36.6979 288.739 36.6979C285.894 36.8804 284.017 38.3399 282.867 40.3468C282.141 39.1305 281.112 38.1575 279.901 37.3061C279.477 37.0628 279.114 36.9412 278.811 36.9412C277.238 36.9412 276.209 39.1913 277.359 40.59C278.751 42.232 279.417 44.1781 278.811 46.185C278.267 48.0702 276.632 49.1041 275.603 50.6852C274.695 52.0231 275.845 54.2125 277.54 54.03C279.78 53.7868 281.475 52.4488 282.686 50.746C284.744 56.1585 289.466 60.9629 295.701 60.7196C296.487 60.6588 297.093 60.4763 297.638 60.1723C298.182 61.3886 298.848 62.7265 299.575 64.1252C300.725 66.497 302.117 69.1728 303.328 72.1527C296.851 67.8957 283.594 60.5372 262.77 55.7936C264.041 55.9153 265.312 55.4287 266.341 54.4557C267.552 53.2394 267.976 51.6583 268.279 50.0771C268.279 49.8946 268.279 49.7122 268.279 49.5298C269.974 50.0163 272.274 48.7392 271.608 46.6107C271.487 46.2458 271.305 45.8809 271.184 45.4552C270.397 43.4483 270.458 41.5023 271.487 39.4954C272.455 37.1844 269.187 35.1776 267.976 37.4885C267.431 38.5224 267.068 39.4954 266.826 40.4684C266.281 40.0427 265.797 39.5562 265.312 39.0697C263.133 36.9412 261.499 34.4478 258.654 33.2923L278.993 33.2923L278.993 33.1099ZM226.147 39.1913C226.692 38.644 227.297 38.0967 227.963 37.671C229.052 36.8804 230.324 36.2722 231.534 35.5425C232.382 34.9951 232.685 33.9613 232.503 33.1099L250.845 33.1099C246.365 34.3262 242.128 37.3061 241.159 40.9549C240.796 42.2928 241.825 43.874 243.399 43.8132C247.455 43.5091 251.329 38.9481 255.264 39.4954C257.503 39.8603 258.412 41.8063 260.046 42.9618C262.407 44.6038 265.676 44.4214 266.947 47.4013C265.918 47.2188 264.889 47.827 264.586 48.8C264.283 49.8946 263.981 51.3542 262.649 51.415C261.741 51.4758 260.893 52.0231 260.651 52.9354C260.409 53.7259 260.772 54.8206 261.62 55.1855C261.741 55.2463 261.862 55.3071 262.044 55.3679C253.024 53.3611 242.612 51.8407 230.808 51.2326C231.111 50.3812 230.929 49.4081 230.566 48.4959C230.021 47.158 229.779 47.0364 229.537 45.3944C229.355 44.1781 229.174 42.9618 228.568 41.8671C228.265 41.5631 227.176 40.1643 226.147 39.1913C226.086 39.1913 226.086 39.1913 226.147 39.1913ZM15.6699 201.687L15.6699 187.274L15.6699 170.429L15.6699 122.02L15.6699 88.6942L15.6699 33.1099L70.7559 33.1099L87.6449 33.1099L126.024 33.1099L147.15 33.1099L160.952 33.1099C160.831 33.3531 160.77 33.5964 160.77 33.9005C160.831 37.3061 163.01 38.3399 165.371 38.0358C165.189 39.3129 165.189 40.5292 165.794 41.5631C166.884 43.3875 169.245 43.8132 171.121 43.1442C171.424 43.0226 173.179 41.9888 173.422 41.3198C173.966 42.0496 174.753 43.4483 174.996 43.6916C176.812 45.3944 179.233 46.185 180.928 48.0094C181.352 48.4959 181.896 48.7392 182.441 48.9216C182.32 48.9824 182.199 49.1041 182.078 49.1041C180.988 49.4081 179.778 48.6175 178.749 48.3743C174.996 47.6445 171.666 49.8946 171.242 53.6043C171 55.4896 174.209 56.4018 175.056 54.5773C176.267 51.9015 177.962 53.2394 180.02 54.2733C181.412 54.9422 182.744 55.2463 184.257 54.9422C184.439 54.8814 184.62 54.8814 184.742 54.8206C187.102 54.0908 188.555 52.0231 190.795 51.1717C195.153 49.4689 193.579 43.2051 188.858 44.1781C188.313 44.2997 187.889 44.4213 187.405 44.6646C187.284 44.2997 187.102 43.9348 186.86 43.5091C185.407 41.6239 183.894 40.6509 181.715 39.7386C181.352 39.5562 180.988 39.3738 180.686 39.1913C180.625 38.8872 180.504 38.5832 180.383 38.2791C180.08 37.002 180.262 35.7249 180.383 34.387C180.444 33.9613 180.262 33.4748 180.02 33.0491L224.936 33.0491C221.788 34.5694 219.004 37.002 219.125 40.1035C219.185 41.1374 219.549 42.0496 220.154 42.8402C220.88 43.6308 221.849 43.6916 222.515 44.2997C223.665 45.3944 223.181 47.5837 223.544 48.9824C223.786 49.7122 224.089 50.3812 224.452 50.9893C221.849 50.9285 219.185 50.8677 216.461 50.9285C204.718 51.0501 194.185 52.6921 184.742 55.3071C184.56 55.3679 184.378 55.4287 184.257 55.4287C173.966 58.287 165.068 62.24 157.38 66.3753C152.537 69.0512 148.179 71.7878 144.244 74.4636C144.607 69.416 137.343 66.1321 132.803 67.2875C129.534 68.0781 127.779 70.2674 127.234 72.8825C126.75 75.315 127.295 78.0517 128.687 80.4234C129.595 82.0046 131.35 81.6397 132.198 80.4843C132.501 80.0586 132.682 79.4504 132.561 78.8423C132.258 76.8354 130.927 73.4906 133.651 72.4568C136.133 71.5445 139.583 73.0041 139.825 75.6799C139.886 76.3489 140.188 76.8354 140.552 77.1395C138.07 78.9639 135.769 80.6667 133.711 82.2479C133.166 82.6736 132.682 83.0385 132.137 83.4642C127.476 87.113 121.605 91.5525 120.333 90.7619C118.457 89.5456 120.454 83.7074 122.21 78.5382C122.936 76.4705 123.663 74.342 124.329 72.1527C125.781 67.2875 126.75 62.1791 125.963 57.6181C125.358 54.2125 123.723 51.0501 120.575 48.4351C109.921 39.7386 99.6912 43.5091 90.7322 46.9147C89.7031 47.2796 88.7345 47.6445 87.766 48.0094C88.3713 43.9348 88.5529 39.9819 89.7031 35.9681C90.1268 34.5086 88.9161 33.5356 87.766 33.5356C86.979 33.5356 86.1316 33.9613 85.8289 34.8735C85.2236 36.5763 84.6787 38.4007 84.1945 40.286C83.9523 40.286 83.7102 40.2252 83.4075 40.286C78.4437 40.7725 75.4776 38.2791 72.2087 34.9951C71.8455 34.6302 71.3612 34.4478 70.8164 34.4478C69.5452 34.4478 68.2135 35.6033 68.7583 36.9412C71.0586 43.0226 76.6277 47.0972 83.4075 46.6715C83.4075 47.2188 83.4681 47.7053 83.5286 48.1918C83.5891 48.5567 83.7101 48.8608 83.9523 49.104C82.4995 49.4689 81.1073 49.773 79.7755 49.8338C73.8432 50.1379 66.3974 48.6783 60.4045 47.5229C60.2229 47.4621 60.1019 47.4621 59.9808 47.4012C60.5862 46.9147 61.1915 46.4282 61.7363 45.8201C63.1891 44.1173 63.7945 42.3537 64.1577 40.2252C64.642 37.5493 60.7072 36.333 59.8597 39.0697C59.1939 41.1374 57.0752 43.2659 55.0776 44.1173C54.109 44.4822 53.3221 45.2727 53.08 46.2458C51.2639 46.0025 49.8716 45.9417 48.782 46.185C48.4188 45.6984 47.9951 45.2727 47.3292 45.0903C40.9126 43.1442 26.3843 43.3267 24.3262 51.8407C22.9944 57.5572 28.382 59.5033 33.7696 60.0506C26.6266 66.0104 20.6942 73.4906 21.9655 83.3425C22.026 83.9507 22.147 84.5588 22.3286 85.2278C20.8153 85.2886 19.423 85.7751 18.394 86.9306C17.9702 87.4171 17.728 88.0252 17.728 88.6334C17.728 89.9105 18.5754 91.1268 20.1493 91.0659C21.8443 91.0051 23.3577 90.3362 24.9922 90.5794C25.7186 91.3092 26.566 91.8565 27.5951 92.1606C28.9874 92.5255 30.3191 92.4647 31.4088 91.9782C32.8616 93.2553 35.404 92.7079 36.4936 91.1268C36.7357 90.8227 36.9173 90.5186 37.1595 90.2146C36.0699 93.8634 35.5856 97.5731 36.312 100.979C37.0989 104.871 39.3992 107.912 43.0313 109.979C44.9684 111.074 47.0871 111.804 49.2058 112.351C48.782 112.594 48.3583 112.898 47.9951 113.324C46.1791 115.453 47.0871 118.189 47.1476 120.622C47.2082 121.96 48.1161 122.629 49.1452 122.629C49.9927 122.629 50.9007 122.142 51.3244 121.169C51.8087 120.074 51.385 117.155 52.1114 116.486C52.7773 115.878 56.2882 116.243 58.528 116.486C61.0099 120.135 64.4604 122.629 68.3346 124.818C66.7001 124.635 65.0051 124.453 63.3707 124.21C58.8307 123.602 53.8063 122.993 49.1452 123.176C44.9078 123.298 40.9731 124.088 37.8253 126.156C38.6123 124.392 38.6729 122.081 38.0675 120.135C38.6729 119.71 39.5203 118.432 39.823 118.189C41.8206 116 39.8835 112.716 36.9174 113.324C31.8325 114.358 24.8106 116.304 21.8444 120.926C21.6023 121.291 21.4811 121.656 21.4811 122.02C21.4811 123.419 23.2971 124.392 24.75 123.784C26.8687 122.872 28.6242 121.351 30.7429 120.439C30.8639 120.378 30.985 120.378 31.1061 120.318C31.1061 120.378 31.1061 120.439 31.1061 120.439C31.2877 121.656 31.5298 121.838 31.5298 123.298C31.5298 124.818 31.7114 126.095 32.6194 127.311C33.3458 128.224 34.2538 128.588 35.1618 128.528C34.3749 129.379 33.709 130.352 33.1642 131.507C30.2586 137.346 29.7744 142.15 30.5008 146.529C29.6533 144.826 28.4426 143.366 26.7477 142.332C24.4474 140.995 22.0259 143.61 23.176 145.799C27.9582 154.435 19.1808 161.915 19.2413 170.49C19.2413 172.922 22.9339 173.469 23.5998 171.037C24.6894 167.084 26.3238 164.104 28.3215 160.638C29.5927 158.448 30.985 155.59 31.4087 153.097C31.5298 152.367 31.5904 151.637 31.5298 150.907C32.3773 153.461 33.4669 155.894 34.617 158.387C36.9779 163.496 39.3992 168.726 39.8835 175.72C40.0651 178.578 39.8835 181.314 39.4598 183.869C37.4016 180.402 33.1642 176.632 29.9559 176.084C27.6556 175.659 25.9002 176.753 24.4474 178.395C22.3892 180.645 20.331 183.382 18.8781 186.058C18.636 186.484 18.515 186.97 18.515 187.396C18.515 189.585 21.2995 191.045 23.2366 189.342C24.6289 188.126 25.8395 186.666 26.9897 185.207C27.5345 184.538 28.6847 183.625 28.9268 182.835C28.9874 182.774 29.0479 182.652 29.1084 182.592C29.169 182.592 29.169 182.592 29.169 182.652C29.7744 183.808 31.9536 185.146 32.9221 186.119C34.1328 187.457 35.0408 188.734 36.6147 189.646C37.099 189.889 37.5227 190.011 38.0069 190.011C36.7963 193.964 35.2829 197.491 33.9512 200.471C32.3167 204.12 30.985 207.161 30.8034 209.654C30.7428 211.174 31.0456 212.391 32.0141 213.546C33.0432 214.702 34.496 215.188 36.312 215.188C39.5203 215.188 43.9392 213.668 49.3268 211.843C56.7119 209.289 65.0656 206.492 71.8455 207.1C74.3274 207.343 76.9909 207.647 79.7755 207.951C82.0153 208.194 84.255 208.498 86.5553 208.742C83.6496 211.418 81.7125 215.31 79.5333 218.533C78.5648 220.053 79.8965 221.391 81.3493 221.391C81.9547 221.391 82.6206 221.148 83.0443 220.54C84.0128 219.263 86.1316 215.066 87.887 213.85C90.6716 215.066 93.5773 215.857 96.604 216.708C101.326 217.986 103.444 211.235 99.328 209.471C104.352 209.411 109.074 208.742 112.888 206.978C114.643 206.188 116.217 205.214 117.549 203.937C122.27 199.498 119.546 191.288 116.58 182.652C115.067 178.152 113.493 173.53 113.009 169.638C113.796 170.429 114.825 171.037 115.914 171.28C116.822 171.888 117.912 172.253 119.123 172.071C119.849 171.949 120.454 171.706 120.999 171.219C121.241 170.976 121.483 170.489 121.726 170.185C121.847 170.307 122.876 170.064 123.118 169.881C123.663 169.516 124.208 169.03 124.51 168.483C125.176 167.266 125.115 165.807 124.571 164.591C124.268 163.982 123.905 163.496 123.481 163.009C123.36 162.888 123.057 162.523 122.815 162.34C123.057 161.915 123.36 161.124 123.481 160.942C123.723 160.577 123.965 160.212 124.207 159.908C124.329 159.969 124.45 159.969 124.571 160.029C128.869 162.523 130.927 170.976 132.622 179.125C131.472 178.639 130.261 178.335 128.929 178.274C125.115 178.213 122.028 180.524 119.425 183.017C116.641 185.632 120.878 189.768 123.663 187.153C125.055 185.815 126.871 184.051 128.99 184.173C130.806 184.234 132.319 185.754 133.59 186.909C133.832 187.153 134.075 187.274 134.317 187.396C135.225 191.592 136.254 195.423 137.767 198.403C138.917 200.775 140.31 202.599 142.247 203.694C144.607 205.032 147.271 205.762 150.116 206.127C155.927 206.856 162.526 206.005 169.003 205.154C169.729 205.032 170.395 204.971 171.121 204.91C167.308 210.627 165.128 218.533 170.637 223.641L149.026 223.641L122.634 223.641L111.737 223.641L81.4704 223.641L15.7304 223.641L15.7304 201.687L15.6699 201.687Z" fill="#428975"/>
<path d="M486.142 57.6178C486.021 61.1451 488.866 63.2736 492.135 63.8209C492.256 63.8209 492.377 63.8817 492.499 63.8817C493.951 64.0642 495.344 64.0642 496.736 64.6115C498.491 65.2804 499.702 66.8008 501.639 67.1049C503.879 67.4698 506.119 66.0102 506.119 63.8209C506.119 63.5168 506.058 63.1519 505.937 62.8479C504.605 58.4084 498.431 56.7664 494.193 56.7056C493.83 56.7056 493.225 56.584 492.801 56.6448C493.285 56.3407 494.254 55.7934 494.557 55.7326C496.917 54.8812 499.52 55.2461 501.881 54.3947C503.334 53.8473 504.061 51.5972 502.366 50.8066C497.402 48.4957 486.385 50.9283 486.142 57.6178Z" fill="#428975"/>
<path d="M499.097 97.5733C498.189 97.026 497.281 97.0868 496.312 96.9652C495.949 96.9044 495.586 96.8436 495.223 96.7827C495.283 96.6611 495.283 96.5395 495.344 96.4179C495.768 94.8367 495.949 94.7151 496.978 93.6812C497.584 93.0122 498.068 92.7082 498.431 91.8568C498.613 91.4311 498.734 91.0054 498.734 90.5797C498.734 89.7891 498.37 88.9985 497.584 88.5728C494.92 87.1133 492.559 88.3904 490.804 90.5797C489.835 91.8568 489.109 93.3771 488.988 95.0191C488.867 96.8436 489.109 96.7219 487.898 98.1207C486.566 99.7018 486.022 101.709 486.203 103.655C486.445 107.06 488.685 110.527 491.893 111.743C493.588 112.412 494.981 110.223 494.194 108.885C493.225 107.243 491.772 105.783 491.47 103.776C491.167 101.891 492.317 101.526 493.346 100.553C494.86 101.405 497.22 102.074 498.673 101.526C500.308 100.857 500.852 98.5464 499.097 97.5733Z" fill="#428975"/>
<path d="M464.532 60.0503C465.985 61.8747 469.253 59.9287 468.466 57.8002C467.982 56.4623 467.619 51.962 469.435 51.4147C469.496 51.4147 469.496 51.4147 469.556 51.4147C470.101 51.4147 471.009 52.2661 471.614 52.1444C472.825 51.962 474.096 52.2661 475.307 51.5971C476.396 50.989 476.82 49.8943 477.547 48.9821C479.242 46.7928 479.12 47.5834 481.784 47.2793C484.932 46.8536 485.416 44.9075 486.021 42.3533C486.142 41.9276 485.598 41.0762 485.598 40.5289C485.598 40.4073 485.598 40.2856 485.658 40.2248C486.142 39.4951 488.261 39.6167 489.472 39.4951C492.256 39.2518 494.859 39.2518 497.523 38.2788C499.581 37.549 500.065 34.2042 497.523 33.7177C493.467 32.9271 486.021 32.6839 482.268 34.8732C479.242 36.576 479.968 38.522 480.029 40.7113C480.029 40.9546 480.029 41.137 480.029 41.3803C477.849 41.4411 475.852 40.4073 473.794 42.6574C473.309 43.1439 472.522 46.1238 472.159 46.3063C472.099 46.3671 471.856 46.3063 471.554 46.1846C470.525 45.8198 468.466 44.9683 467.982 44.9075C458.781 44.7859 460.96 55.6109 464.532 60.0503Z" fill="#428975"/>
<path d="M497.523 128.285C497.523 127.798 497.583 127.372 497.523 126.886C497.462 126.278 497.281 125.73 497.039 125.244C496.797 124.757 496.433 124.271 496.131 123.784C494.315 121.23 493.77 119.284 493.286 116.243C492.922 114.176 489.956 114.601 489.411 116.243C489.048 117.338 488.927 118.493 488.988 119.71C489.048 120.379 489.169 121.108 489.29 121.777C489.714 123.541 490.804 124.879 491.47 126.46C492.014 127.859 491.47 129.44 492.257 130.778C492.862 131.812 493.951 132.298 495.102 132.298C495.404 132.298 495.767 132.238 496.07 132.177C497.644 131.751 498.068 130.109 497.462 128.832C497.886 129.683 497.583 128.954 497.523 128.285Z" fill="#428975"/>
<path d="M436.079 47.2798C438.319 48.7393 440.861 48.9826 442.98 47.9487C450.486 53.3612 465.74 45.577 462.774 35.3602C462.351 34.0223 461.2 33.2925 459.99 33.2925C459.263 33.2925 458.537 33.5357 457.932 34.0831C455.571 36.2724 450.002 47.1582 446.309 39.5564C445.704 38.3401 444.493 37.7927 443.222 37.7927C441.164 37.7927 439.045 39.2523 439.287 41.4416C439.045 41.5024 438.863 41.5632 438.621 41.6849C437.411 40.5294 435.534 40.5294 434.323 41.6849C431.357 44.4215 428.512 38.2793 427.725 36.8197C427.362 36.1508 426.757 35.8467 426.091 35.8467C424.88 35.8467 423.609 36.9413 424.033 38.3401C425.667 43.5701 430.207 49.4083 436.079 47.2798Z" fill="#428975"/>
<path d="M453.937 89.7889C454.058 88.6943 453.271 87.7821 452.181 87.6604C451.092 87.5388 450.123 88.3294 450.002 89.3632C449.942 89.7281 445.765 125 423.973 136.312C412.955 142.028 399.154 140.691 382.87 132.42C381.296 129.44 379.843 127.311 379.117 126.338C377.119 123.663 370.582 117.824 363.015 111.074C353.632 102.682 339.406 89.9714 338.377 86.5658C338.075 85.5319 336.985 84.9238 335.896 85.2278C334.866 85.5319 334.201 86.6266 334.564 87.6604C335.835 91.7958 345.581 100.796 360.351 113.932C367.434 120.257 374.153 126.278 375.909 128.649C378.148 131.629 388.863 147.258 381.235 163.192C374.637 176.997 354.237 178.091 354.056 178.091C352.966 178.152 352.119 179.064 352.119 180.159C352.179 181.193 353.027 181.983 354.116 181.983C354.177 181.983 354.177 181.983 354.237 181.983C355.145 181.923 377.18 180.767 384.868 164.773C389.589 154.86 388.136 145.13 385.412 137.893C394.008 141.724 401.938 143.67 409.202 143.67C415.256 143.67 420.825 142.333 425.91 139.717C449.518 127.433 453.755 91.3093 453.937 89.7889Z" fill="#428975"/>
<path d="M437.776 201.87C430.935 203.39 424.579 201.14 418.284 198.829C417.557 198.586 416.891 198.342 416.165 198.099C415.802 197.977 415.438 197.977 415.136 198.038C413.865 195.119 412.775 192.078 415.136 189.768C416.528 188.369 415.257 186.119 413.562 186.119C413.199 186.119 412.835 186.24 412.472 186.423C409.809 188.065 408.235 190.436 408.114 193.538C408.114 193.964 408.114 194.389 408.114 194.815C408.235 195.971 408.538 197.126 409.082 198.221C409.385 198.89 409.809 199.437 410.233 199.984C411.685 201.991 411.564 202.599 412.291 205.397C414.046 212.086 422.279 219.141 429.603 217.377C432.448 216.708 432.267 213.303 430.33 211.843C428.332 210.323 426.879 210.384 424.397 209.897C419.736 208.985 417.981 207.343 416.891 202.782C422.884 205.944 428.937 208.012 435.717 207.769C436.444 213.059 438.926 218.715 443.889 220.904C444.374 221.148 444.858 221.209 445.342 221.209C447.34 221.209 449.156 219.627 448.49 217.438C447.037 212.451 443.284 207.951 441.105 203.147C440.923 202.782 440.681 202.478 440.318 202.295C439.713 201.87 438.623 201.687 437.776 201.87Z" fill="#428975"/>
<path d="M409.868 43.0834C409.989 43.1442 410.05 43.1442 410.11 43.205C409.747 44.4821 409.686 45.9416 409.808 47.2187C410.11 50.6852 411.563 53.3002 414.711 54.8205C415.074 55.003 415.498 55.0638 415.982 55.0638C417.072 55.0638 418.282 54.5165 418.403 53.361C418.646 51.5366 418.646 50.1986 418.222 48.435C417.98 47.4012 417.677 46.5498 417.737 45.4551C417.798 44.5429 418.161 43.6307 418.101 42.7185C418.04 41.3198 417.314 39.7386 416.164 38.8264C415.8 38.5223 415.316 38.3398 414.771 38.2182C415.558 37.6101 415.982 37.1236 416.527 36.2722C417.253 35.1167 416.406 33.2314 414.953 33.2314C414.892 33.2314 414.832 33.2314 414.771 33.2314C410.534 33.6571 404.662 37.5493 408.597 41.9887C408.9 42.3536 409.384 42.9009 409.868 43.0834Z" fill="#428975"/>
<path d="M392.374 42.962C393.04 43.3877 393.645 43.4485 394.432 43.6309C394.735 43.6309 395.037 43.6917 395.34 43.8134C395.34 43.935 395.28 43.9958 395.28 44.1783C394.251 45.8202 392.979 47.4622 392.435 49.2867C391.284 52.7531 396.309 55.733 398.791 52.9355C401.212 50.1989 403.754 46.3068 402.181 42.5363C401.515 41.0159 400.243 39.8604 398.67 39.1915C398.125 38.9482 397.64 38.8266 397.035 38.7658C396.793 37.9144 396.006 37.1846 395.037 37.1846C391.95 37.0022 389.166 40.7727 392.374 42.962Z" fill="#428975"/>
<path d="M364.952 47.9487C366.102 48.3136 367.373 48.192 368.463 47.6447C369.129 47.2798 370.037 45.8202 370.461 45.6378C370.884 45.5162 372.821 46.2459 373.548 46.3068C375.001 46.4284 376.272 46.1851 377.543 45.4554C381.357 43.3269 377.846 37.4887 374.153 39.7388C373.608 40.0429 372.337 39.6172 371.671 39.5564C370.582 39.4347 369.431 39.4347 368.402 39.7996C368.16 39.8604 367.979 40.0429 367.737 40.1037C367.615 40.0429 367.494 39.9213 367.373 39.9213C362.228 38.0968 359.867 46.1243 364.952 47.9487Z" fill="#428975"/>
<path d="M339.831 52.6312C341.707 53.361 343.766 52.388 344.855 50.9284C345.461 50.1987 345.884 49.2865 346.49 48.5567C347.277 47.6445 346.792 48.131 347.458 48.131C348.487 48.131 349.516 48.6175 350.606 48.4959C351.817 48.3742 352.846 47.9485 353.693 47.158C355.086 45.9417 355.812 44.2389 355.146 42.4752C354.48 40.7116 352.301 40.3467 351.151 41.563C350.727 41.3806 350.364 41.259 350.001 41.0765C348.79 40.59 347.64 40.2251 346.308 40.2859C344.371 40.4076 342.615 41.3198 341.284 42.5969C339.044 44.847 335.17 50.746 339.831 52.6312Z" fill="#428975"/>
<path d="M307.989 193.66C300.18 190.619 295.58 198.099 290.192 201.991C288.376 203.268 289.466 206.005 291.221 206.005C291.584 206.005 291.948 205.883 292.371 205.64C295.095 203.755 297.275 200.41 300.241 198.95C302.299 197.917 304.054 197.734 303.873 200.167C303.752 202.113 301.512 203.816 300.18 205.093C298.425 206.796 295.761 209.289 292.916 210.444C291.463 210.992 289.95 211.235 288.558 210.809C283.594 209.411 282.928 202.478 282.504 198.403C282.202 195.727 278.206 195.606 278.146 198.403C278.085 200.897 278.146 203.512 278.63 206.066C278.691 206.309 278.751 206.613 278.812 206.917C279.72 211.053 281.717 214.762 286.076 216.647C287.65 217.316 289.224 217.62 290.737 217.62C296.548 217.62 302.239 213.424 306.113 209.471C308.231 207.282 311.44 203.086 311.803 199.376C312.045 197.004 311.137 194.876 307.989 193.66Z" fill="#428975"/>
<path d="M281.596 107.06C280.87 104.932 278.933 103.958 276.754 104.384C276.511 104.384 276.269 104.384 276.027 104.384C275.603 104.384 275.24 104.323 274.816 104.323C274.151 104.323 273.545 104.445 273 104.627C271.184 104.445 269.792 106.391 270.64 107.972C270.64 108.033 270.64 108.094 270.64 108.094C270.7 108.641 270.942 109.067 271.245 109.553C271.729 110.344 272.516 111.013 273.364 111.378C275.119 112.168 276.996 112.168 278.872 111.804C280.87 111.378 282.262 108.945 281.596 107.06ZM270.7 107.425L270.7 107.364C270.761 106.452 270.7 106.878 270.7 107.425ZM271.971 105.175C272.032 105.114 272.032 105.114 272.092 105.053C272.153 105.053 272.153 105.053 272.213 104.992C272.092 105.053 272.032 105.114 271.971 105.175Z" fill="#428975"/>
<path d="M251.329 51.5974C254.234 51.1717 256.353 49.0432 259.259 48.6783C261.075 48.435 262.528 45.7592 260.348 44.7862C258.29 43.8739 256.535 44.178 254.537 45.151C253.447 45.6984 252.418 46.489 251.329 46.9147C249.573 47.5836 248.242 46.9755 246.668 46.1241C244.307 44.847 242.612 48.0093 244.61 49.5297C246.547 50.9892 248.847 51.9622 251.329 51.5974Z" fill="#428975"/>
<path d="M244.428 197.856C243.581 201.566 243.338 205.518 242.854 209.35C242.673 210.566 242.552 211.782 242.37 212.999C242.491 213.059 242.552 213.12 242.612 213.181C242.552 213.12 242.491 213.12 242.431 213.059C241.22 212.755 239.949 211.6 238.677 211.053C231.958 208.255 224.936 213.12 218.822 215.674C217.006 216.404 217.975 219.323 219.73 219.323C219.912 219.323 220.154 219.262 220.336 219.202C222.696 218.289 225.057 217.377 227.418 216.404C229.658 215.553 230.99 215.066 233.532 215.188C236.74 215.431 235.651 215.431 237.588 216.769C239.343 217.985 241.401 219.749 243.702 219.749C244.186 219.749 244.731 219.688 245.215 219.506C248.06 218.472 248.363 215.492 248.726 212.938C249.331 208.073 249.513 202.66 248.363 197.856C247.879 195.971 244.852 195.971 244.428 197.856Z" fill="#428975"/>
<path d="M216.827 92.7079C217.917 91.4916 218.885 90.1537 220.036 88.9374C221.367 87.5386 223.123 86.9913 224.152 85.3493C224.999 84.0114 224.152 82.3694 222.699 81.8829C216.04 79.572 214.285 91.4916 208.474 91.9781C206.294 92.1605 205.689 95.1404 207.929 95.8094C211.379 96.7824 214.588 95.1404 216.827 92.7079Z" fill="#428975"/>
<path d="M200.118 47.462C202.358 48.3743 204.598 47.7053 206.111 45.9417C207.746 44.0564 207.625 41.8063 207.261 39.4346C206.959 37.4277 203.629 37.5493 203.266 39.4346C203.145 39.9819 203.024 40.4684 202.903 41.0157C202.6 42.0496 202.419 42.232 202.358 41.5022C201.692 41.3198 200.421 39.4954 199.876 39.0089C198.06 37.4277 196.002 36.029 193.823 34.9343C192.794 34.387 191.462 34.2653 190.433 34.9343C190.312 34.9951 190.191 35.1167 190.07 35.1775C189.343 35.6032 188.859 36.4547 188.859 37.3061C188.859 37.3669 188.859 37.3669 188.859 37.4277C188.859 37.5493 188.859 37.6101 188.859 37.7318C188.98 40.286 191.583 41.259 193.641 42.4753C195.881 43.874 197.636 46.4282 200.118 47.462Z" fill="#428975"/>
<path d="M187.769 208.073C182.987 208.985 178.749 211.6 176.509 215.857C175.359 218.107 178.749 220.053 179.96 217.803C182.2 213.789 186.255 212.33 190.735 212.634C194.791 212.877 198.181 215.675 202.236 215.188C204.416 214.945 206.474 212.026 204.295 210.323C200.239 207.1 192.854 207.039 187.769 208.073Z" fill="#428975"/>
<path d="M133.835 133.028C151.087 143.488 155.869 166.05 155.869 166.293C156.051 167.205 156.898 167.874 157.806 167.874C157.927 167.874 158.048 167.874 158.23 167.813C159.319 167.57 159.985 166.597 159.804 165.563C159.622 164.59 154.658 141.055 135.953 129.744C133.956 128.527 131.837 127.494 129.658 126.642C121.667 123.541 112.648 123.054 102.66 125.122C105.142 119.04 106.897 111.013 104.597 102.499C104.112 100.674 103.447 98.85 102.599 97.0255C94.9717 81.0314 72.9374 79.8759 71.9688 79.8151C70.8792 79.7543 69.9107 80.6057 69.8502 81.6395C69.7896 82.7342 70.6371 83.6464 71.7267 83.7072C71.9688 83.7072 92.3082 84.8018 98.9064 98.6067C106.534 114.54 95.8798 130.169 93.64 133.149C93.5189 133.332 93.3373 133.575 93.1557 133.818C92.9741 134.061 92.7925 134.244 92.6109 134.548C91.2187 136.312 89.1 138.987 86.5575 142.089C72.8768 158.995 60.5279 174.625 59.0145 179.49C58.7118 180.524 59.3172 181.618 60.3463 181.922C60.5279 181.983 60.7095 181.983 60.8911 181.983C61.7385 181.983 62.5255 181.436 62.8282 180.584C64.2205 176.023 80.8068 155.529 89.6447 144.522C93.0346 140.386 95.6376 137.102 96.8483 135.46C97.5747 134.548 98.967 132.48 100.48 129.622C113.435 126.338 124.633 127.494 133.835 133.028Z" fill="#428975"/>
<path d="M139.099 217.986C141.339 217.499 143.579 217.56 145.879 217.621C146.605 218.472 147.756 218.898 148.966 218.898C150.056 218.898 151.206 218.533 151.993 217.743L152.053 217.743C152.296 217.743 152.477 217.803 152.78 217.803C153.385 217.743 153.991 217.621 154.596 217.438C156.109 217.134 157.623 216.526 159.015 215.553C161.376 213.85 159.378 210.627 156.715 211.783C156.17 212.026 154.838 212.695 153.627 213.06C153.506 211.175 151.569 209.411 149.632 209.168C148.421 209.046 147.15 209.533 146.303 211.053C145.758 212.026 145.455 212.817 145.334 213.729C142.852 213.607 140.31 213.607 138.07 214.276C135.588 214.945 136.617 218.533 139.099 217.986Z" fill="#428975"/>
<path d="M145.818 52.1447C142.61 54.6989 146.121 59.6249 149.692 58.6518C153.385 57.618 154.353 61.5709 154.232 64.5508C154.172 66.1928 156.048 66.9226 157.32 66.3144C157.804 66.0712 158.167 65.7063 158.349 65.0982C159.438 60.8412 158.53 55.5503 155.503 52.692C156.048 51.3541 156.23 49.8338 155.564 48.3134C155.08 47.2187 154.414 46.3065 153.506 45.6376C154.111 44.4821 154.414 43.205 154.051 41.7455C153.203 38.7047 150.177 39.0696 148.724 36.7587C148.3 36.0897 147.695 35.7856 147.089 35.7856C145.818 35.7856 144.547 37.1844 145.273 38.7047C146.121 40.6508 151.266 42.536 148.179 44.7862C146.726 45.8808 146.423 47.9485 148.179 48.9824C149.268 49.6513 146 51.9623 145.818 52.1447Z" fill="#428975"/>
<path d="M113.494 40.9554C117.308 41.9284 120.697 42.1717 124.632 41.8676C124.753 41.8676 124.935 41.8676 125.056 41.8676C125.056 41.9284 125.056 41.9284 124.995 41.9892C124.148 43.2055 124.451 44.6651 124.995 45.8814C125.903 47.949 127.84 49.1045 130.02 49.5302C130.807 49.7127 131.472 49.6518 131.836 49.6518C132.502 49.6518 132.441 49.7735 131.23 51.1722C129.959 52.6926 128.809 54.3954 127.598 56.0374C127.175 56.5847 127.114 57.132 127.235 57.5577C127.659 59.0781 130.141 59.8687 131.412 58.2267C133.167 55.8549 137.829 51.7195 136.8 48.3747C136.436 47.3409 135.71 46.5503 134.681 46.0638C134.015 45.6989 132.986 45.6989 132.078 45.5773C131.957 45.5773 131.775 45.5165 131.654 45.5165C132.865 44.0569 134.197 42.6582 134.318 40.4689C134.439 38.0971 133.167 35.847 130.928 34.8131C129.414 34.0834 127.719 33.7793 125.903 33.7793C121.363 33.7793 116.339 35.6037 112.888 37.2457C111.315 37.9755 111.859 40.4689 113.494 40.9554Z" fill="#428975"/>
<path d="M111.679 221.148C112.526 221.148 113.374 220.722 113.616 219.81C113.797 218.958 113.979 218.107 114.161 217.256C115.553 216.769 117.006 216.039 118.337 215.735C118.458 215.796 118.519 215.857 118.64 215.918C118.277 217.803 118.761 219.506 121.485 221.087C121.848 221.269 122.212 221.391 122.514 221.391C123.604 221.391 124.633 220.479 124.693 219.323C124.754 217.742 125.299 216.343 126.025 215.005C126.267 214.64 126.509 214.215 126.752 213.789C127.599 212.451 128.689 211.174 129.597 209.958C131.776 207.039 134.016 204.18 136.134 201.201C136.74 200.349 136.619 199.498 136.074 198.95C135.226 197.977 133.35 197.673 132.26 199.011C129.899 202.113 127.539 205.275 125.238 208.437C123.664 207.708 121.667 207.951 120.819 209.775C119.851 209.289 118.761 209.289 117.914 209.775C117.187 210.14 116.642 210.809 116.279 211.661C115.856 212.877 112.768 213.363 111.739 213.607C111.073 213.789 110.347 214.397 110.226 215.066C109.984 216.465 109.802 217.864 109.62 219.262C109.56 220.479 110.65 221.148 111.679 221.148Z" fill="#428975"/>
<path d="M77.0526 211.599C72.0888 208.559 61.1927 207.038 56.5316 211.235C55.3209 212.329 55.8657 214.579 57.5001 214.944C60.4663 215.613 63.4324 214.519 66.4591 214.458C69.6675 214.397 72.7547 215.187 75.963 215.492C78.2028 215.613 78.7476 212.572 77.0526 211.599Z" fill="#428975"/>
<path d="M26.6896 105.601C28.0213 105.601 29.353 105.662 30.6242 105.844C32.1376 106.087 33.4088 106.513 34.9222 106.087C36.7987 105.54 37.1014 103.533 35.9513 102.134C35.3459 101.405 34.559 100.979 33.5904 100.614C33.7115 99.945 33.5299 99.2152 32.9851 98.5462C30.261 95.2623 20.4545 96.8434 21.1203 102.013C21.5441 104.871 24.2077 105.601 26.6896 105.601Z" fill="#428975"/>
<path d="M25.8393 202.539C25.7787 202.417 25.7182 202.356 25.6577 202.295C26.142 202.113 26.8078 201.687 27.171 201.566C28.8055 200.957 30.1978 200.653 31.5296 199.498C32.9824 198.282 32.0743 196.031 30.4399 195.484C26.6263 194.268 19.2411 196.822 18.6963 201.201C18.6963 201.383 18.6963 201.566 18.6963 201.748C18.6963 203.937 20.0281 206.005 21.1782 207.829C22.5705 210.08 24.0233 212.877 27.05 212.816C28.2002 212.816 29.4714 212.026 29.7135 210.809C29.8346 210.323 29.8951 209.958 29.8951 209.532C29.8951 208.498 29.4714 207.647 28.6845 206.613C27.7159 205.336 26.9289 203.572 25.8393 202.539Z" fill="#428975"/>
</g>
<defs>
<clipPath id="clip0_258_7149">
<rect width="256" height="529" fill="white" transform="translate(529) rotate(90)"/>
</clipPath>
</defs>
</svg>
